<svg xmlns="http://www.w3.org/2000/svg" xmlns:xlink="http://www.w3.org/1999/xlink" fill="none" version="1.1" width="1967.3311516796039" height="1909.5735009698965" viewBox="0 0 1967.3311516796039 1909.5735009698965"><defs><linearGradient x1="0.2968747615814209" y1="0.040844425559043884" x2="0.8501907587051392" y2="0.9008275866508484" id="master_svg0_1_43901"><stop offset="0%" stop-color="#F9FCFC" stop-opacity="1"/><stop offset="100%" stop-color="#ECF3F5" stop-opacity="1"/></linearGradient><linearGradient x1="0.1775476187467575" y1="0.02389618381857872" x2="0.9399020671844482" y2="0.8893981575965881" id="master_svg1_1_43902"><stop offset="0%" stop-color="#FBFBFF" stop-opacity="1"/><stop offset="100%" stop-color="#EDF9FF" stop-opacity="1"/></linearGradient></defs><g transform="matrix(-0.14097438752651215,-0.9900132417678833,0.9900132417678833,-0.14097438752651215,-1620.2889136054919,2413.236839907058)"><path d="M1161.704523420181,2059.6395009698963C1342.927523420181,2081.5955009698964,1554.927523420181,1976.1130009698966,1696.567523420181,2078.6035009698967C1838.4675234201811,2181.2795009698966,1785.317523420181,2381.2755009698967,1825.117523420181,2539.6805009698965C1859.917523420181,2678.1975009698963,1929.2275234201811,2805.9745009698963,1914.817523420181,2947.3035009698965C1897.2075234201811,3119.9235009698964,1868.437523420181,3302.4035009698964,1734.447523420181,3428.7335009698963C1587.4775234201811,3567.3035009698965,1376.287523420181,3662.3735009698967,1161.704523420181,3657.3435009698965C949.318523420181,3652.3735009698967,770.119523420181,3526.6635009698966,610.5555234201811,3402.4235009698964C463.61952342018105,3288.0135009698965,354.79752342018105,3144.963500969897,292.64362342018103,2980.6635009698966C230.006203420181,2815.0925009698967,222.53192342018102,2642.3105009698966,258.025923420181,2470.5445009698965C298.312623420181,2275.5825009698965,309.694423420181,2025.2185009698965,508.78152342018103,1934.6927009698966C711.833523420181,1842.3651009698965,935.5615234201811,2032.2405009698964,1161.704523420181,2059.6395009698963C1161.704523420181,2059.6395009698963,1161.704523420181,2059.6395009698963,1161.704523420181,2059.6395009698963Z" fill-rule="evenodd" fill="url(#master_svg0_1_43901)" fill-opacity="1"/><path d="M1161.704523420181,2059.6395009698963C1342.927523420181,2081.5955009698964,1554.927523420181,1976.1130009698966,1696.567523420181,2078.6035009698967C1838.4675234201811,2181.2795009698966,1785.317523420181,2381.2755009698967,1825.117523420181,2539.6805009698965C1859.917523420181,2678.1975009698963,1929.2275234201811,2805.9745009698963,1914.817523420181,2947.3035009698965C1897.2075234201811,3119.9235009698964,1868.437523420181,3302.4035009698964,1734.447523420181,3428.7335009698963C1587.4775234201811,3567.3035009698965,1376.287523420181,3662.3735009698967,1161.704523420181,3657.3435009698965C949.318523420181,3652.3735009698967,770.119523420181,3526.6635009698966,610.5555234201811,3402.4235009698964C463.61952342018105,3288.0135009698965,354.79752342018105,3144.963500969897,292.64362342018103,2980.6635009698966C230.006203420181,2815.0925009698967,222.53192342018102,2642.3105009698966,258.025923420181,2470.5445009698965C298.312623420181,2275.5825009698965,309.694423420181,2025.2185009698965,508.78152342018103,1934.6927009698966C711.833523420181,1842.3651009698965,935.5615234201811,2032.2405009698964,1161.704523420181,2059.6395009698963C1161.704523420181,2059.6395009698963,1161.704523420181,2059.6395009698963,1161.704523420181,2059.6395009698963Z" fill-rule="evenodd" fill="url(#master_svg1_1_43902)" fill-opacity="1"/></g></svg>