<svg xmlns="http://www.w3.org/2000/svg" xmlns:xlink="http://www.w3.org/1999/xlink" fill="none" version="1.1" width="1437.2568359375" height="1422.61376953125" viewBox="0 0 1437.2568359375 1422.61376953125"><defs><filter id="master_svg0_308_07641" filterUnits="objectBoundingBox" color-interpolation-filters="sRGB" x="-128" y="-128" width="1184" height="1184"><feFlood flood-opacity="0" result="BackgroundImageFix"/><feBlend mode="normal" in="SourceGraphic" in2="BackgroundImageFix" result="shape"/><feGaussianBlur stdDeviation="32" result="effect1_foregroundBlur"/></filter><clipPath id="master_svg1_308_07641"><rect x="1331.47900390625" y="974.398681640625" width="928" height="928" rx="0"/></clipPath><clipPath id="master_svg2_308_07642"><rect x="1308.84326171875" y="1025.9554443359375" width="928" height="928" rx="0"/></clipPath><clipPath id="master_svg3_308_07643"><rect x="1308.84326171875" y="1025.9554443359375" width="928" height="928" rx="0"/></clipPath><linearGradient x1="0.5" y1="-3.595304676196065e-8" x2="0.8691999912261963" y2="0.8371840715408325" id="master_svg4_1_32047"><stop offset="0%" stop-color="#D7F0FF" stop-opacity="1"/><stop offset="33.333298563957214%" stop-color="#D9CFFF" stop-opacity="1"/><stop offset="66.66669845581055%" stop-color="#FFD1EA" stop-opacity="1"/><stop offset="100%" stop-color="#FFE3D2" stop-opacity="1"/></linearGradient></defs><g><g transform="matrix(-0.913398802280426,0.40706589818000793,-0.40706589818000793,-0.913398802280426,2944.29480586321,1322.413573761878)" filter="url(#master_svg0_308_07641)"><g clip-path="url(#master_svg1_308_07641)"><g clip-path="url(#master_svg2_308_07642)"><g clip-path="url(#master_svg3_308_07643)"><g transform="matrix(0,1,-1,0,3262.797194965009,-1210.8867649959284)"><path d="M3164.8419799804688,1489.9552149845404Q3164.8419799804688,1501.3462149845404,3164.2829799804686,1512.7222149845404Q3163.723979980469,1524.0992149845404,3162.607979980469,1535.4352149845404Q3161.4909799804686,1546.7712149845404,3159.819979980469,1558.0382149845404Q3158.1489799804685,1569.3052149845403,3155.9259799804686,1580.4772149845403Q3153.703979980469,1591.6492149845403,3150.935979980469,1602.6982149845403Q3148.168979980469,1613.7472149845403,3144.8619799804687,1624.6472149845404Q3141.5559799804687,1635.5472149845405,3137.717979980469,1646.2722149845404Q3133.8809799804685,1656.9972149845403,3129.5219799804686,1667.5202149845404Q3125.1629799804687,1678.0442149845403,3120.2929799804688,1688.3412149845403Q3115.422979980469,1698.6372149845404,3110.052979980469,1708.6832149845404Q3104.683979980469,1718.7292149845402,3098.8279799804686,1728.4992149845402Q3092.971979980469,1738.2692149845402,3086.643979980469,1747.7402149845402Q3080.3149799804687,1757.2102149845405,3073.529979980469,1766.3592149845404Q3066.744979980469,1775.5082149845402,3059.518979980469,1784.3132149845403Q3052.2929799804688,1793.1192149845403,3044.6429799804687,1801.5582149845404Q3036.993979980469,1809.9982149845405,3028.9389799804685,1818.0522149845403Q3020.884979980469,1826.1072149845404,3012.444979980469,1833.7562149845403Q3004.0059799804685,1841.4062149845404,2995.2009799804687,1848.6322149845405Q2986.3949799804686,1855.8582149845404,2977.2459799804687,1862.6432149845405Q2968.096979980469,1869.4292149845405,2958.6269799804686,1875.7572149845405Q2949.1559799804686,1882.0852149845405,2939.3859799804686,1887.9412149845402Q2929.6159799804686,1893.7972149845405,2919.569979980469,1899.1662149845404Q2909.5239799804685,1904.5362149845405,2899.2279799804687,1909.4062149845404Q2888.9309799804687,1914.2762149845403,2878.406979980469,1918.6352149845402Q2867.8839799804687,1922.9942149845403,2857.1589799804688,1926.8312149845403Q2846.433979980469,1930.6692149845403,2835.5339799804688,1933.9752149845403Q2824.6339799804687,1937.2822149845404,2813.5849799804687,1940.0492149845404Q2802.5359799804687,1942.8172149845404,2791.3639799804687,1945.0392149845402Q2780.1919799804687,1947.2622149845404,2768.924979980469,1948.9332149845404Q2757.6579799804686,1950.6042149845402,2746.3219799804688,1951.7212149845404Q2734.985979980469,1952.8372149845404,2723.6089799804686,1953.3962149845404Q2712.232979980469,1953.9552149845404,2700.8419799804688,1953.9552149845404Q2689.4509799804687,1953.9552149845404,2678.074979980469,1953.3962149845404Q2666.6979799804685,1952.8372149845404,2655.3619799804687,1951.7212149845404Q2644.025979980469,1950.6042149845402,2632.7589799804687,1948.9332149845404Q2621.491979980469,1947.2622149845404,2610.319979980469,1945.0392149845402Q2599.147979980469,1942.8172149845404,2588.098979980469,1940.0492149845404Q2577.049979980469,1937.2822149845404,2566.1499799804687,1933.9752149845403Q2555.2499799804687,1930.6692149845403,2544.5249799804687,1926.8312149845403Q2533.799979980469,1922.9942149845403,2523.2769799804687,1918.6352149845402Q2512.752979980469,1914.2762149845403,2502.455979980469,1909.4062149845404Q2492.1589799804688,1904.5362149845405,2482.1139799804687,1899.1662149845404Q2472.067979980469,1893.7972149845405,2462.297979980469,1887.9412149845402Q2452.527979980469,1882.0852149845405,2443.056979980469,1875.7572149845405Q2433.585979980469,1869.4282149845403,2424.4379799804688,1862.6432149845405Q2415.288979980469,1855.8582149845404,2406.4839799804686,1848.6322149845405Q2397.677979980469,1841.4062149845404,2389.2389799804687,1833.7562149845403Q2380.7989799804686,1826.1072149845404,2372.743979980469,1818.0522149845403Q2364.6899799804687,1809.9982149845405,2357.040979980469,1801.5582149845404Q2349.3909799804687,1793.1192149845403,2342.1649799804686,1784.3142149845403Q2334.938979980469,1775.5082149845402,2328.153679980469,1766.3592149845404Q2321.3682799804687,1757.2102149845405,2315.040079980469,1747.7402149845402Q2308.7117799804687,1738.2692149845402,2302.8558799804687,1728.4992149845402Q2296.9999799804687,1718.7292149845402,2291.630479980469,1708.6832149845404Q2286.261079980469,1698.6372149845404,2281.3909799804687,1688.3412149845403Q2276.5208799804686,1678.0442149845403,2272.1618799804687,1667.5202149845404Q2267.802879980469,1656.9972149845403,2263.965479980469,1646.2722149845404Q2260.1281799804688,1635.5472149845405,2256.8216799804686,1624.6472149845404Q2253.515179980469,1613.7472149845403,2250.7474799804686,1602.6982149845403Q2247.9797799804687,1591.6492149845403,2245.7576099804687,1580.4772149845403Q2243.5354199804688,1569.3052149845403,2241.864079980469,1558.0382149845404Q2240.1927399804686,1546.7712149845404,2239.0762699804686,1535.4352149845404Q2237.9597999804687,1524.0992149845404,2237.4008879804687,1512.7222149845404Q2236.8419799804688,1501.3462149845404,2236.8419799804688,1489.9552149845404Q2236.8419799804688,1478.5642149845403,2237.4008879804687,1467.1882149845403Q2237.9597999804687,1455.8112149845404,2239.0762699804686,1444.4752149845403Q2240.1927399804686,1433.1392149845403,2241.864079980469,1421.8722149845403Q2243.5354199804688,1410.6052149845405,2245.7576099804687,1399.4332149845404Q2247.9797799804687,1388.2612149845404,2250.7474799804686,1377.2122149845404Q2253.515179980469,1366.1632149845404,2256.8216799804686,1355.2632149845404Q2260.1281799804688,1344.3632149845403,2263.965479980469,1333.6382149845404Q2267.802879980469,1322.9132149845404,2272.1618799804687,1312.3902149845403Q2276.5208799804686,1301.8662149845404,2281.3909799804687,1291.5692149845404Q2286.261079980469,1281.2722149845404,2291.630479980469,1271.2272149845403Q2296.9999799804687,1261.1812149845405,2302.8558799804687,1251.4112149845403Q2308.7117799804687,1241.6412149845403,2315.040079980469,1232.1702149845403Q2321.368379980469,1222.6992149845403,2328.153679980469,1213.5512149845404Q2334.938979980469,1204.4022149845405,2342.1649799804686,1195.5972149845404Q2349.3909799804687,1186.7912149845404,2357.040979980469,1178.3522149845403Q2364.6899799804687,1169.9122149845402,2372.743979980469,1161.8572149845404Q2380.7989799804686,1153.8032149845403,2389.2389799804687,1146.1542149845404Q2397.677979980469,1138.5042149845403,2406.4839799804686,1131.2782149845405Q2415.288979980469,1124.0522149845403,2424.4379799804688,1117.2669149845403Q2433.585979980469,1110.4815149845404,2443.056979980469,1104.1533149845404Q2452.527979980469,1097.8250149845403,2462.297979980469,1091.9691149845403Q2472.067979980469,1086.1132149845403,2482.1139799804687,1080.7437149845405Q2492.1589799804688,1075.3743149845404,2502.455979980469,1070.5042149845403Q2512.752979980469,1065.6341149845402,2523.2769799804687,1061.2751149845403Q2533.799979980469,1056.9161149845404,2544.5249799804687,1053.0787149845403Q2555.2499799804687,1049.2414149845404,2566.1499799804687,1045.9349149845405Q2577.049979980469,1042.6284149845403,2588.098979980469,1039.8607149845404Q2599.147979980469,1037.0930149845403,2610.319979980469,1034.8708449845403Q2621.491979980469,1032.6486549845404,2632.7589799804687,1030.9773149845403Q2644.025979980469,1029.3059749845404,2655.3619799804687,1028.1895049845405Q2666.6979799804685,1027.0730349845403,2678.074979980469,1026.5141229845403Q2689.4509799804687,1025.9552149845404,2700.8419799804688,1025.9552149845404Q2712.232979980469,1025.9552149845404,2723.6089799804686,1026.5141229845403Q2734.985979980469,1027.0730349845403,2746.3219799804688,1028.1895049845405Q2757.6579799804686,1029.3059749845404,2768.924979980469,1030.9773149845403Q2780.1919799804687,1032.6486549845404,2791.3639799804687,1034.8708449845403Q2802.5359799804687,1037.0930149845403,2813.5849799804687,1039.8607149845404Q2824.6339799804687,1042.6284149845403,2835.5339799804688,1045.9349149845405Q2846.433979980469,1049.2414149845404,2857.1589799804688,1053.0787149845403Q2867.8839799804687,1056.9161149845404,2878.406979980469,1061.2751149845403Q2888.9309799804687,1065.6341149845402,2899.2279799804687,1070.5042149845403Q2909.5239799804685,1075.3743149845404,2919.569979980469,1080.7437149845405Q2929.6159799804686,1086.1132149845403,2939.3859799804686,1091.9691149845403Q2949.1559799804686,1097.8250149845403,2958.6269799804686,1104.1533149845404Q2968.096979980469,1110.4816149845403,2977.2459799804687,1117.2669149845403Q2986.3949799804686,1124.0522149845403,2995.199979980469,1131.2782149845405Q3004.0059799804685,1138.5042149845403,3012.444979980469,1146.1542149845404Q3020.884979980469,1153.8032149845403,3028.9389799804685,1161.8572149845404Q3036.993979980469,1169.9122149845402,3044.6429799804687,1178.3522149845403Q3052.2929799804688,1186.7912149845404,3059.518979980469,1195.5972149845404Q3066.744979980469,1204.4022149845405,3073.529979980469,1213.5512149845404Q3080.315979980469,1222.6992149845403,3086.643979980469,1232.1702149845403Q3092.971979980469,1241.6412149845403,3098.8279799804686,1251.4112149845403Q3104.683979980469,1261.1812149845405,3110.052979980469,1271.2272149845403Q3115.422979980469,1281.2722149845404,3120.2929799804688,1291.5692149845404Q3125.1629799804687,1301.8662149845404,3129.5219799804686,1312.3902149845403Q3133.8809799804685,1322.9132149845404,3137.717979980469,1333.6382149845404Q3141.5559799804687,1344.3632149845403,3144.8619799804687,1355.2632149845404Q3148.168979980469,1366.1632149845404,3150.935979980469,1377.2122149845404Q3153.703979980469,1388.2612149845404,3155.9259799804686,1399.4332149845404Q3158.1489799804685,1410.6052149845405,3159.819979980469,1421.8722149845403Q3161.4909799804686,1433.1392149845403,3162.607979980469,1444.4752149845403Q3163.723979980469,1455.8112149845404,3164.2829799804686,1467.1882149845403Q3164.8419799804688,1478.5642149845403,3164.8419799804688,1489.9552149845404Z" fill="url(#master_svg4_1_32047)" fill-opacity="0.6000000238418579"/></g></g></g></g></g></g></svg>