<svg xmlns="http://www.w3.org/2000/svg" xmlns:xlink="http://www.w3.org/1999/xlink" fill="none" version="1.1" width="107" height="109" viewBox="0 0 107 109"><g><path d="M36.5034,5C37.8821,5,39,3.8806,39,2.5C39,1.1194,37.8821,0,36.5034,0L36.4915,0C35.1111,0,34,1.1194,34,2.5C34,3.8806,35.1247,5,36.5034,5ZM53.5034,0L53.4915,0C52.1128,0,51,1.1194,51,2.5C51,3.8806,52.1247,5,53.5034,5C54.8821,5,56,3.8806,56,2.5C56,1.1194,54.8821,0,53.5034,0ZM70.5042,5C71.8825,5,73,3.8806,73,2.5C73,2.5,72.9983,2.4983,72.9983,2.49661C72.9983,2.09125,72.8798,1.7232,72.7071,1.38399C72.6901,1.35176,72.6681,1.32802,72.6495,1.29749C72.4683,0.976934,72.2211,0.710651,71.9214,0.496947L71.9197,0.496947C71.5117,0.20692,71.041,0,70.5042,0L70.4907,0C69.1124,0,68,1.1194,68,2.5C68,3.8806,69.126,5,70.5042,5ZM19.5034,15L19.4898,15C18.1111,15,17,16.1194,17,17.5C17,18.8806,18.1247,20,19.5034,20C20.8804,20,22,18.8806,22,17.5C22,16.1194,20.8804,15,19.5034,15ZM36.5034,20C37.8821,20,39,18.8806,39,17.5C39,16.1194,37.8821,15,36.5034,15L36.4915,15C35.1111,15,34,16.1194,34,17.5C34,18.8806,35.1247,20,36.5034,20ZM53.5034,15L53.4915,15C52.1128,15,51,16.1194,51,17.5C51,18.8806,52.1247,20,53.5034,20C54.8821,20,56,18.8806,56,17.5C56,16.1194,54.8821,15,53.5034,15ZM70.5034,15L70.4898,15C69.1111,15,68,16.1194,68,17.5C68,18.8806,69.1247,20,70.5034,20C71.8821,20,73,18.8806,73,17.5C73,16.1194,71.8821,15,70.5034,15ZM87.5034,15L87.4898,15C86.1111,15,85,16.1194,85,17.5C85,18.8806,86.1247,20,87.5034,20C88.8821,20,90,18.8806,90,17.5C90,16.1194,88.8821,15,87.5034,15ZM2.50424,30L2.48899,30C2.20434,30,1.94171,30.0628,1.69434,30.1611C1.46899,30.2391,1.27245,30.3562,1.08268,30.4919C1.08099,30.4919,1.08099,30.4919,1.0793,30.4936C0.440529,30.9464,0,31.6554,0,32.5C0,32.6069,0.0474415,32.6967,0.0609963,32.8019L0.0593019,32.8019C0.0593019,32.8053,0.0609963,32.807,0.0626906,32.8087C0.14063,33.4176,0.413419,33.9552,0.848865,34.3453C0.908167,34.3996,0.982718,34.4301,1.04541,34.4776C1.21654,34.6031,1.38089,34.7337,1.58251,34.8134C1.86547,34.9305,2.17384,35,2.50424,35C3.53778,35,4.42562,34.3708,4.80346,33.4718C4.93053,33.1733,5,32.8443,5,32.5C5,32.1557,4.93053,31.8267,4.80346,31.5282C4.42562,30.6292,3.53778,30,2.50424,30ZM19.5034,30L19.4898,30C18.1111,30,17,31.1194,17,32.5C17,33.8789,18.1247,35,19.5034,35C20.8804,35,22,33.8789,22,32.5C22,31.1194,20.8804,30,19.5034,30ZM36.5034,35C37.8821,35,39,33.8789,39,32.5C39,31.1194,37.8821,30,36.5034,30L36.4915,30C35.1111,30,34,31.1194,34,32.5C34,33.8789,35.1247,35,36.5034,35ZM53.5034,30L53.4915,30C52.1128,30,51,31.1194,51,32.5C51,33.8789,52.1247,35,53.5034,35C54.8821,35,56,33.8789,56,32.5C56,31.1194,54.8821,30,53.5034,30ZM70.5034,30L70.4898,30C69.1111,30,68,31.1194,68,32.5C68,33.8789,69.1247,35,70.5034,35C71.8821,35,73,33.8789,73,32.5C73,31.1194,71.8821,30,70.5034,30ZM87.5034,30L87.4898,30C86.1111,30,85,31.1194,85,32.5C85,33.8789,86.1247,35,87.5034,35C88.8821,35,90,33.8789,90,32.5C90,31.1194,88.8821,30,87.5034,30ZM104.504,35C104.159,35,103.83,34.9305,103.53,34.8033C102.632,34.4235,102,33.5351,102,32.5008C102,31.1207,103.111,30,104.491,30L104.504,30C105.882,30,107,31.1207,107,32.5008C107,33.1451,106.741,33.7216,106.338,34.1641C106.116,34.4117,105.853,34.6117,105.548,34.7542C105.538,34.7592,105.531,34.7677,105.521,34.7728C105.209,34.9135,104.869,35,104.504,35ZM2.50508,45L2.48984,45C1.11111,45,0,46.1177,0,47.5C0,48.8789,1.12636,50,2.50508,50C3.88381,50,5,48.8789,5,47.5C5,46.1177,3.88381,45,2.50508,45ZM19.5034,45L19.4898,45C18.1111,45,17,46.1177,17,47.5C17,48.8789,18.1247,50,19.5034,50C20.8804,50,22,48.8789,22,47.5C22,46.1177,20.8804,45,19.5034,45ZM36.5034,50C37.8821,50,39,48.8789,39,47.5C39,46.1177,37.8821,45,36.5034,45L36.4915,45C35.1111,45,34,46.1177,34,47.5C34,48.8789,35.1247,50,36.5034,50ZM53.5034,45L53.4915,45C52.1128,45,51,46.1177,51,47.5C51,48.8789,52.1247,50,53.5034,50C54.8821,50,56,48.8789,56,47.5C56,46.1177,54.8821,45,53.5034,45ZM70.5034,45L70.4898,45C69.1111,45,68,46.1177,68,47.5C68,48.8789,69.1247,50,70.5034,50C71.8821,50,73,48.8789,73,47.5C73,46.1177,71.8821,45,70.5034,45ZM87.5034,45L87.4898,45C86.1111,45,85,46.1177,85,47.5C85,48.8789,86.1247,50,87.5034,50C88.8821,50,90,48.8789,90,47.5C90,46.1177,88.8821,45,87.5034,45ZM104.504,50C105.882,50,107,48.8789,107,47.5C107,46.1177,105.882,45,104.504,45L104.491,45C103.111,45,102,46.1177,102,47.5C102,48.8789,103.123,50,104.504,50ZM2.50508,59L2.48984,59C1.11111,59,0,60.1194,0,61.5C0,62.8806,1.12636,64,2.50508,64C3.88381,64,5,62.8806,5,61.5C5,60.1194,3.88381,59,2.50508,59ZM19.5034,59L19.4898,59C18.1111,59,17,60.1194,17,61.5C17,62.8806,18.1247,64,19.5034,64C20.8804,64,22,62.8806,22,61.5C22,60.1194,20.8804,59,19.5034,59ZM36.5034,64C37.8821,64,39,62.8806,39,61.5C39,60.1194,37.8821,59,36.5034,59L36.4915,59C35.1111,59,34,60.1194,34,61.5C34,62.8806,35.1247,64,36.5034,64ZM53.5034,59L53.4915,59C52.1128,59,51,60.1194,51,61.5C51,62.8806,52.1247,64,53.5034,64C54.8821,64,56,62.8806,56,61.5C56,60.1194,54.8821,59,53.5034,59ZM70.5034,59L70.4898,59C69.1111,59,68,60.1194,68,61.5C68,62.8806,69.1247,64,70.5034,64C71.8821,64,73,62.8806,73,61.5C73,60.1194,71.8821,59,70.5034,59ZM87.5034,59L87.4898,59C86.1111,59,85,60.1194,85,61.5C85,62.8806,86.1247,64,87.5034,64C88.8821,64,90,62.8806,90,61.5C90,60.1194,88.8821,59,87.5034,59ZM107,61.5C107,62.8806,105.882,64,104.504,64C103.123,64,102,62.8806,102,61.5C102,60.1194,103.111,59,104.491,59L104.504,59C105.882,59,107,60.1194,107,61.5ZM2.50424,74L2.48899,74C2.17553,74,1.88241,74.0712,1.60962,74.1798C1.47069,74.2324,1.35547,74.3172,1.23009,74.3935C1.12504,74.4596,1.0183,74.519,0.923416,74.6021C0.759065,74.7361,0.630295,74.8921,0.504914,75.0651C0.481193,75.1007,0.457472,75.133,0.433751,75.172C0.298204,75.3823,0.198238,75.6028,0.130464,75.8504L0.12877,75.8521L0.12877,75.8538C0.0711623,76.0641,0,76.271,0,76.5017C0,77.4854,0.584548,78.3182,1.41308,78.7252L1.41308,78.7269L1.41477,78.7269C1.74517,78.8881,2.10098,78.9949,2.49068,78.9966C2.49576,78.9966,2.49915,79,2.50424,79C3.88343,79,5,77.8806,5,76.5017C5,76.1557,4.93053,75.8267,4.80346,75.5282C4.42562,74.6309,3.53778,74,2.50424,74ZM19.5034,74L19.4898,74C18.1111,74,17,75.1194,17,76.5017C17,77.8806,18.1247,79,19.5034,79C20.8804,79,22,77.8806,22,76.5017C22,75.1194,20.8804,74,19.5034,74ZM36.5034,79C37.8821,79,39,77.8806,39,76.5017C39,75.1194,37.8821,74,36.5034,74L36.4915,74C35.1111,74,34,75.1194,34,76.5017C34,77.8806,35.1247,79,36.5034,79ZM53.5034,74L53.4915,74C52.1128,74,51,75.1194,51,76.5017C51,77.8806,52.1247,79,53.5034,79C54.8821,79,56,77.8806,56,76.5017C56,75.1194,54.8821,74,53.5034,74ZM70.5034,74L70.4898,74C69.1111,74,68,75.1194,68,76.5017C68,77.8806,69.1247,79,70.5034,79C71.8821,79,73,77.8806,73,76.5017C73,75.1194,71.8821,74,70.5034,74ZM87.5034,74L87.4898,74C86.1111,74,85,75.1194,85,76.5017C85,77.8806,86.1247,79,87.5034,79C88.8821,79,90,77.8806,90,76.5017C90,75.1194,88.8821,74,87.5034,74ZM105.43,74.1883C105.188,74.0865,104.918,74.0475,104.642,74.0288C104.593,74.0271,104.554,74,104.503,74L104.49,74C103.111,74,102,75.1194,102,76.5017C102,76.8375,102.071,77.1547,102.191,77.443C102.276,77.6499,102.415,77.8161,102.545,77.9908C102.6,78.057,102.63,78.1384,102.688,78.1995C103.103,78.6404,103.675,78.9118,104.315,78.9627C104.319,78.9627,104.322,78.9644,104.326,78.9661L104.326,78.9644C104.387,78.9695,104.441,79,104.503,79C105.882,79,107,77.8806,107,76.5017C107,75.4501,106.348,74.558,105.43,74.1883ZM19.5034,89L19.4898,89C18.1111,89,17,90.1181,17,91.5008C17,92.8802,18.1247,94,19.5034,94C20.8804,94,22,92.8802,22,91.5008C22,90.1181,20.8804,89,19.5034,89ZM36.5034,94C37.8821,94,39,92.8802,39,91.5008C39,90.1181,37.8821,89,36.5034,89L36.4915,89C35.1111,89,34,90.1181,34,91.5008C34,92.8802,35.1247,94,36.5034,94ZM53.5034,89L53.4915,89C52.1128,89,51,90.1181,51,91.5008C51,92.8802,52.1247,94,53.5034,94C54.8821,94,56,92.8802,56,91.5008C56,90.1181,54.8821,89,53.5034,89ZM70.5034,89L70.4898,89C69.1111,89,68,90.1181,68,91.5008C68,92.8802,69.1247,94,70.5034,94C71.8821,94,73,92.8802,73,91.5008C73,90.1181,71.8821,89,70.5034,89ZM87.5034,89L87.4898,89C86.1111,89,85,90.1181,85,91.5008C85,92.8802,86.1247,94,87.5034,94C88.8821,94,90,92.8802,90,91.5008C90,90.1181,88.8821,89,87.5034,89ZM38.2683,104.733C38.1938,104.658,38.0921,104.621,38.0091,104.558C37.5874,104.229,37.081,104,36.5034,104L36.4898,104C35.1111,104,34,105.118,34,106.501C34,107.18,34.2761,107.79,34.7165,108.242C34.7182,108.243,34.7182,108.245,34.7199,108.245C35.1738,108.71,35.8039,109,36.5034,109C36.6355,109,36.749,108.946,36.876,108.925C36.8777,108.925,36.8794,108.924,36.8811,108.924C37.4705,108.832,37.9854,108.561,38.3598,108.131C38.4207,108.065,38.4563,107.984,38.5088,107.911C38.6223,107.75,38.7425,107.597,38.8171,107.412C38.9289,107.135,38.9949,106.833,38.9966,106.511C38.9966,106.508,39,106.506,39,106.501C39,105.866,38.7442,105.303,38.3564,104.862C38.3208,104.821,38.3056,104.769,38.2683,104.733ZM53.5034,104L53.4915,104C52.1128,104,51,105.12,51,106.501C51,107.882,52.1247,109,53.5034,109C54.8821,109,56,107.882,56,106.501C56,105.12,54.8821,104,53.5034,104ZM70.5034,104L70.4898,104C69.9123,104,69.4058,104.229,68.9841,104.558C68.9028,104.623,68.8012,104.66,68.7283,104.733C68.3235,105.14,68.0898,105.697,68.039,106.304C68.0339,106.372,68,106.431,68,106.501C68,106.81,68.0728,107.098,68.1762,107.37C68.21,107.458,68.2524,107.534,68.2947,107.617C68.3862,107.795,68.4963,107.96,68.6284,108.111C68.6927,108.186,68.7503,108.262,68.8232,108.328C69.023,108.51,69.2432,108.669,69.4939,108.779L69.4956,108.779C69.8056,108.917,70.1443,109,70.5034,109C71.6162,109,72.5257,108.26,72.8493,107.251C72.9356,107.02,72.9949,106.779,72.9966,106.514C72.9966,106.509,73,106.506,73,106.501C73,105.118,71.8821,104,70.5034,104Z" fill-rule="evenodd" fill="#130D3A" fill-opacity="1"/></g></svg>