<svg xmlns="http://www.w3.org/2000/svg" xmlns:xlink="http://www.w3.org/1999/xlink" fill="none" version="1.1" width="2737.35595703125" height="2265.6611328125" viewBox="0 0 2737.35595703125 2265.6611328125"><defs><filter id="master_svg0_308_054448" filterUnits="objectBoundingBox" color-interpolation-filters="sRGB" x="-600" y="-600" width="2299.998291015625" height="1897.6012573242188"><feFlood flood-opacity="0" result="BackgroundImageFix"/><feBlend mode="normal" in="SourceGraphic" in2="BackgroundImageFix" result="shape"/><feGaussianBlur stdDeviation="150" result="effect1_foregroundBlur"/></filter><filter id="master_svg1_308_054449" filterUnits="objectBoundingBox" color-interpolation-filters="sRGB" x="-584.0679931640625" y="-584.0679931640625" width="1731.1889038085938" height="1641.6842346191406"><feFlood flood-opacity="0" result="BackgroundImageFix"/><feBlend mode="normal" in="SourceGraphic" in2="BackgroundImageFix" result="shape"/><feGaussianBlur stdDeviation="146.01699829101562" result="effect1_foregroundBlur"/></filter><filter id="master_svg2_308_054451" filterUnits="objectBoundingBox" color-interpolation-filters="sRGB" x="-584.0679931640625" y="-584.0679931640625" width="1731.1889038085938" height="1641.6842346191406"><feFlood flood-opacity="0" result="BackgroundImageFix"/><feBlend mode="normal" in="SourceGraphic" in2="BackgroundImageFix" result="shape"/><feGaussianBlur stdDeviation="146.01699829101562" result="effect1_foregroundBlur"/></filter><filter id="master_svg3_308_054453" filterUnits="objectBoundingBox" color-interpolation-filters="sRGB" x="-384.64801025390625" y="-384.64801025390625" width="1031.9636535644531" height="990.2073669433594"><feFlood flood-opacity="0" result="BackgroundImageFix"/><feBlend mode="normal" in="SourceGraphic" in2="BackgroundImageFix" result="shape"/><feGaussianBlur stdDeviation="96.16200256347656" result="effect1_foregroundBlur"/></filter><filter id="master_svg4_308_054455" filterUnits="objectBoundingBox" color-interpolation-filters="sRGB" x="-399.07598876953125" y="-399.07598876953125" width="1546.1351928710938" height="1439.1233520507812"><feFlood flood-opacity="0" result="BackgroundImageFix"/><feBlend mode="normal" in="SourceGraphic" in2="BackgroundImageFix" result="shape"/><feGaussianBlur stdDeviation="99.76899719238281" result="effect1_foregroundBlur"/></filter><filter id="master_svg5_308_054457" filterUnits="objectBoundingBox" color-interpolation-filters="sRGB" x="-399.07598876953125" y="-399.07598876953125" width="1546.1351928710938" height="1439.1233520507812"><feFlood flood-opacity="0" result="BackgroundImageFix"/><feBlend mode="normal" in="SourceGraphic" in2="BackgroundImageFix" result="shape"/><feGaussianBlur stdDeviation="99.76899719238281" result="effect1_foregroundBlur"/></filter><filter id="master_svg6_308_054460" filterUnits="objectBoundingBox" color-interpolation-filters="sRGB" x="-320" y="-320" width="1344.968017578125" height="1183.6625366210938"><feFlood flood-opacity="0" result="BackgroundImageFix"/><feBlend mode="normal" in="SourceGraphic" in2="BackgroundImageFix" result="shape"/><feGaussianBlur stdDeviation="80" result="effect1_foregroundBlur"/></filter><linearGradient x1="0.8518514037132263" y1="0.29629746079444885" x2="0.42038363218307495" y2="1.0720224380493164" id="master_svg7_1_27736"><stop offset="0%" stop-color="#6943FF" stop-opacity="1"/><stop offset="50%" stop-color="#5FA8FF" stop-opacity="1"/><stop offset="100%" stop-color="#6FE5FF" stop-opacity="1"/></linearGradient><filter id="master_svg8_308_054462" filterUnits="objectBoundingBox" color-interpolation-filters="sRGB" x="-224" y="-224" width="1216.468017578125" height="880.988037109375"><feFlood flood-opacity="0" result="BackgroundImageFix"/><feBlend mode="normal" in="SourceGraphic" in2="BackgroundImageFix" result="shape"/><feGaussianBlur stdDeviation="56" result="effect1_foregroundBlur"/></filter><linearGradient x1="0.27777865529060364" y1="0.1666661947965622" x2="0.40614181756973267" y2="1.0440561771392822" id="master_svg9_1_27732"><stop offset="0%" stop-color="#6943FF" stop-opacity="1"/><stop offset="50%" stop-color="#5FA8FF" stop-opacity="1"/><stop offset="100%" stop-color="#6FE5FF" stop-opacity="1"/></linearGradient><filter id="master_svga_308_054464" filterUnits="objectBoundingBox" color-interpolation-filters="sRGB" x="-224" y="-224" width="1216.4620361328125" height="881.0048828125"><feFlood flood-opacity="0" result="BackgroundImageFix"/><feBlend mode="normal" in="SourceGraphic" in2="BackgroundImageFix" result="shape"/><feGaussianBlur stdDeviation="56" result="effect1_foregroundBlur"/></filter><linearGradient x1="0.7222231030464172" y1="0.8333346843719482" x2="0.5938485264778137" y2="-0.044048916548490524" id="master_svgb_1_27728"><stop offset="0%" stop-color="#6943FF" stop-opacity="1"/><stop offset="50%" stop-color="#5FA8FF" stop-opacity="1"/><stop offset="100%" stop-color="#6FE5FF" stop-opacity="1"/></linearGradient><filter id="master_svgc_308_054467" filterUnits="objectBoundingBox" color-interpolation-filters="sRGB" x="-320" y="-320" width="1277.968994140625" height="1400.1450805664062"><feFlood flood-opacity="0" result="BackgroundImageFix"/><feBlend mode="normal" in="SourceGraphic" in2="BackgroundImageFix" result="shape"/><feGaussianBlur stdDeviation="80" result="effect1_foregroundBlur"/></filter><linearGradient x1="0.8518533110618591" y1="0.2962958812713623" x2="0.20635800063610077" y2="0.7824572920799255" id="master_svgd_1_27709"><stop offset="0%" stop-color="#6943FF" stop-opacity="1"/><stop offset="50%" stop-color="#5FA8FF" stop-opacity="1"/><stop offset="100%" stop-color="#6FE5FF" stop-opacity="1"/></linearGradient><filter id="master_svge_308_054469" filterUnits="objectBoundingBox" color-interpolation-filters="sRGB" x="-224" y="-224" width="1216.4710693359375" height="880.9772033691406"><feFlood flood-opacity="0" result="BackgroundImageFix"/><feBlend mode="normal" in="SourceGraphic" in2="BackgroundImageFix" result="shape"/><feGaussianBlur stdDeviation="56" result="effect1_foregroundBlur"/></filter><linearGradient x1="0.2777775526046753" y1="0.1666676104068756" x2="0.4061337411403656" y2="1.0440601110458374" id="master_svgf_1_27703"><stop offset="0%" stop-color="#6943FF" stop-opacity="1"/><stop offset="50%" stop-color="#5FA8FF" stop-opacity="1"/><stop offset="100%" stop-color="#6FE5FF" stop-opacity="1"/></linearGradient><filter id="master_svgg_308_054471" filterUnits="objectBoundingBox" color-interpolation-filters="sRGB" x="-224" y="-224" width="1216.4580078125" height="880.9940490722656"><feFlood flood-opacity="0" result="BackgroundImageFix"/><feBlend mode="normal" in="SourceGraphic" in2="BackgroundImageFix" result="shape"/><feGaussianBlur stdDeviation="56" result="effect1_foregroundBlur"/></filter><linearGradient x1="0.722225546836853" y1="0.8333333134651184" x2="0.5938567519187927" y2="-0.04405004531145096" id="master_svgh_1_27713"><stop offset="0%" stop-color="#6943FF" stop-opacity="1"/><stop offset="50%" stop-color="#5FA8FF" stop-opacity="1"/><stop offset="100%" stop-color="#6FE5FF" stop-opacity="1"/></linearGradient><filter id="master_svgi_308_054473" filterUnits="objectBoundingBox" color-interpolation-filters="sRGB" x="-108" y="-108" width="745.3670043945312" height="941.2673950195312"><feFlood flood-opacity="0" result="BackgroundImageFix"/><feBlend mode="normal" in="SourceGraphic" in2="BackgroundImageFix" result="shape"/><feGaussianBlur stdDeviation="27" result="effect1_foregroundBlur"/></filter><filter id="master_svgj_308_054475" filterUnits="objectBoundingBox" color-interpolation-filters="sRGB" x="-108" y="-108" width="872.0020141601562" height="1114.7669677734375"><feFlood flood-opacity="0" result="BackgroundImageFix"/><feBlend mode="normal" in="SourceGraphic" in2="BackgroundImageFix" result="shape"/><feGaussianBlur stdDeviation="27" result="effect1_foregroundBlur"/></filter><filter id="master_svgk_308_054477" filterUnits="objectBoundingBox" color-interpolation-filters="sRGB" x="-108" y="-108" width="855.116943359375" height="1091.6342163085938"><feFlood flood-opacity="0" result="BackgroundImageFix"/><feBlend mode="normal" in="SourceGraphic" in2="BackgroundImageFix" result="shape"/><feGaussianBlur stdDeviation="27" result="effect1_foregroundBlur"/></filter><filter id="master_svgl_308_054479" filterUnits="objectBoundingBox" color-interpolation-filters="sRGB" x="-108" y="-108" width="745.3670043945312" height="941.267333984375"><feFlood flood-opacity="0" result="BackgroundImageFix"/><feBlend mode="normal" in="SourceGraphic" in2="BackgroundImageFix" result="shape"/><feGaussianBlur stdDeviation="27" result="effect1_foregroundBlur"/></filter><linearGradient x1="0.94062340259552" y1="0.05937790870666504" x2="-0.12181904911994934" y2="0.8781827688217163" id="master_svgm_308_054528"><stop offset="0%" stop-color="#000000" stop-opacity="0"/><stop offset="77.20000147819519%" stop-color="#000000" stop-opacity="1"/><stop offset="100%" stop-color="#000000" stop-opacity="1"/></linearGradient><filter id="master_svgn_308_054481" filterUnits="objectBoundingBox" color-interpolation-filters="sRGB" x="-144" y="-144" width="810.48095703125" height="901.0726318359375"><feFlood flood-opacity="0" result="BackgroundImageFix"/><feBlend mode="normal" in="SourceGraphic" in2="BackgroundImageFix" result="shape"/><feGaussianBlur stdDeviation="36" result="effect1_foregroundBlur"/></filter><filter id="master_svgo_308_054483" filterUnits="objectBoundingBox" color-interpolation-filters="sRGB" x="-144" y="-144" width="935.4700317382812" height="1047.7313232421875"><feFlood flood-opacity="0" result="BackgroundImageFix"/><feBlend mode="normal" in="SourceGraphic" in2="BackgroundImageFix" result="shape"/><feGaussianBlur stdDeviation="36" result="effect1_foregroundBlur"/></filter><filter id="master_svgp_308_054485" filterUnits="objectBoundingBox" color-interpolation-filters="sRGB" x="-144" y="-144" width="918.8089599609375" height="1028.1768798828125"><feFlood flood-opacity="0" result="BackgroundImageFix"/><feBlend mode="normal" in="SourceGraphic" in2="BackgroundImageFix" result="shape"/><feGaussianBlur stdDeviation="36" result="effect1_foregroundBlur"/></filter><filter id="master_svgq_308_054487" filterUnits="objectBoundingBox" color-interpolation-filters="sRGB" x="-144" y="-144" width="810.4849853515625" height="901.0714721679688"><feFlood flood-opacity="0" result="BackgroundImageFix"/><feBlend mode="normal" in="SourceGraphic" in2="BackgroundImageFix" result="shape"/><feGaussianBlur stdDeviation="36" result="effect1_foregroundBlur"/></filter><linearGradient x1="0.05937778577208519" y1="0.9406222701072693" x2="0.9767400026321411" y2="-0.02326178178191185" id="master_svgr_308_054534"><stop offset="0%" stop-color="#000000" stop-opacity="0"/><stop offset="77.20000147819519%" stop-color="#000000" stop-opacity="1"/><stop offset="100%" stop-color="#000000" stop-opacity="1"/></linearGradient></defs><g><g style="opacity:0.4000000059604645;" filter="url(#master_svg0_308_054448)"><g filter="url(#master_svg1_308_054449)"><g><path d="M1690.90344140625,905.7958770605469C1830.68344140625,890.1070370605469,1888.8834414062499,982.6198370605468,1820.8834414062499,1112.4287370605468C1752.8834414062499,1242.238737060547,1584.43944140625,1360.1867370605469,1444.65444140625,1375.875737060547C1304.86964140625,1391.5647370605468,1246.67564140625,1299.0517370605469,1314.67464140625,1169.242737060547C1382.67364140625,1039.433737060547,1551.11644140625,921.4847370605469,1690.90344140625,905.7958770605469Z" fill="#33BDF8" fill-opacity="1"/></g></g><g filter="url(#master_svg2_308_054451)"><g><path d="M1690.90344140625,905.7958770605469C1830.68344140625,890.1070370605469,1888.8834414062499,982.6198370605468,1820.8834414062499,1112.4287370605468C1752.8834414062499,1242.238737060547,1584.43944140625,1360.1867370605469,1444.65444140625,1375.875737060547C1304.86964140625,1391.5647370605468,1246.67564140625,1299.0517370605469,1314.67464140625,1169.242737060547C1382.67364140625,1039.433737060547,1551.11644140625,921.4847370605469,1690.90344140625,905.7958770605469Z" fill="#33BDF8" fill-opacity="1"/></g></g><g filter="url(#master_svg3_308_054453)"><g><path d="M1741.30369140625,739.29480784375C1806.51369140625,731.97600984375,1833.66369140625,775.13343984375,1801.94369140625,835.68883984375C1770.21369140625,896.24583984375,1691.6436914062501,951.26983984375,1626.42879140625,958.58783984375C1561.21882140625,965.90683984375,1534.07079140625,922.74983984375,1565.79279140625,862.19283984375C1597.51479140625,801.63633984375,1676.09369140625,746.61360984375,1741.30369140625,739.29480784375Z" fill="#5FA8FF" fill-opacity="1"/></g></g><g filter="url(#master_svg4_308_054455)"><g><path d="M1254.02112890625,801.4042635827636C1447.48312890625,766.6866035827637,1545.78812890625,879.2133035827637,1473.5921289062499,1052.7397035827637C1401.3971289062501,1226.2647035827636,1186.03812890625,1395.0817035827636,992.57712890625,1429.7987035827637C799.11512890625,1464.5157035827638,700.80912890625,1351.9897035827637,773.00512890625,1178.4637035827636C845.20112890625,1004.9367035827637,1060.55912890625,836.1220035827637,1254.02112890625,801.4042635827636Z" fill="#6943FF" fill-opacity="1"/></g></g><g style="opacity:0.6000000238418579;" filter="url(#master_svg5_308_054457)"><g><path d="M1254.02112890625,801.4042635827636C1447.48312890625,766.6866035827637,1545.78812890625,879.2133035827637,1473.5921289062499,1052.7397035827637C1401.3971289062501,1226.2647035827636,1186.03812890625,1395.0817035827636,992.57712890625,1429.7987035827637C799.11512890625,1464.5157035827638,700.80912890625,1351.9897035827637,773.00512890625,1178.4637035827636C845.20112890625,1004.9367035827637,1060.55912890625,836.1220035827637,1254.02112890625,801.4042635827636Z" fill="#6943FF" fill-opacity="1"/></g></g></g><g style="opacity:0.4000000059604645;"><g style="opacity:0.4000000059604645;" filter="url(#master_svg6_308_054460)"><g><path d="M951.22619140625,1105.3697825622558C951.22619140625,1105.3697825622558,742.34619140625,1185.9127825622559,742.34619140625,1185.9127825622559C742.34619140625,1185.9127825622559,846.78619140625,1024.8277825622558,846.78619140625,1024.8277825622558C846.78619140625,1024.8277825622558,1238.43419140625,722.7926825622559,1238.43419140625,722.7926825622559C1238.43419140625,722.7926825622559,1447.3141914062498,642.2497825622559,1447.3141914062498,642.2497825622559C1447.3141914062498,642.2497825622559,1342.87419140625,803.3357825622559,1342.87419140625,803.3357825622559C1342.87419140625,803.3357825622559,951.22619140625,1105.3697825622558,951.22619140625,1105.3697825622558Z" fill="url(#master_svg7_1_27736)" fill-opacity="1"/></g></g><g style="opacity:0.30000001192092896;" filter="url(#master_svg8_308_054462)"><g><path d="M1478.5330664062499,938.1402695312499C1478.5330664062499,938.1402695312499,1606.6110664062498,1058.41426953125,1606.6110664062498,1058.41426953125C1606.6110664062498,1058.41426953125,1393.14806640625,986.2502695312501,1393.14806640625,986.2502695312501C1393.14806640625,986.2502695312501,966.22106640625,745.70126953125,966.22106640625,745.70126953125C966.22106640625,745.70126953125,838.14306640625,625.42626953125,838.14306640625,625.42626953125C838.14306640625,625.42626953125,1051.60706640625,697.59076953125,1051.60706640625,697.59076953125C1051.60706640625,697.59076953125,1478.5330664062499,938.1402695312499,1478.5330664062499,938.1402695312499Z" fill="url(#master_svg9_1_27732)" fill-opacity="1"/></g></g><g style="opacity:0.30000001192092896;" filter="url(#master_svga_308_054464)"><g><path d="M710.07362890625,890.0248953857422C710.07362890625,890.0248953857422,581.99462890625,769.7458953857422,581.99462890625,769.7458953857422C581.99462890625,769.7458953857422,795.45662890625,841.9127953857421,795.45662890625,841.9127953857421C795.45662890625,841.9127953857421,1222.37962890625,1082.4718953857423,1222.37962890625,1082.4718953857423C1222.37962890625,1082.4718953857423,1350.45662890625,1202.7508953857423,1350.45662890625,1202.7508953857423C1350.45662890625,1202.7508953857423,1136.99462890625,1130.5838953857422,1136.99462890625,1130.5838953857422C1136.99462890625,1130.5838953857422,710.07362890625,890.0248953857422,710.07362890625,890.0248953857422Z" fill="url(#master_svgb_1_27728)" fill-opacity="1"/></g></g></g><g style="opacity:0.4000000059604645;"><g style="opacity:0.4000000059604645;" filter="url(#master_svgc_308_054467)"><g><path d="M1294.37419140625,1342.717309814453C1294.37419140625,1342.717309814453,1105.34619140625,1455.331309814453,1105.34619140625,1455.331309814453C1105.34619140625,1455.331309814453,1199.86019140625,1230.103309814453,1199.86019140625,1230.103309814453C1199.86019140625,1230.103309814453,1554.28819140625,807.8013098144531,1554.28819140625,807.8013098144531C1554.28819140625,807.8013098144531,1743.31519140625,695.1863098144531,1743.31519140625,695.1863098144531C1743.31519140625,695.1863098144531,1648.8021914062501,920.4143098144532,1648.8021914062501,920.4143098144532C1648.8021914062501,920.4143098144532,1294.37419140625,1342.717309814453,1294.37419140625,1342.717309814453Z" fill="url(#master_svgd_1_27709)" fill-opacity="1"/></g></g><g style="opacity:0.30000001192092896;" filter="url(#master_svge_308_054469)"><g><path d="M1808.53406640625,1099.317557006836C1808.53406640625,1099.317557006836,1936.61406640625,1219.5885570068358,1936.61406640625,1219.5885570068358C1936.61406640625,1219.5885570068358,1723.14406640625,1147.426557006836,1723.14406640625,1147.426557006836C1723.14406640625,1147.426557006836,1296.22106640625,906.8825570068359,1296.22106640625,906.8825570068359C1296.22106640625,906.8825570068359,1168.14306640625,786.6115570068359,1168.14306640625,786.6115570068359C1168.14306640625,786.6115570068359,1381.60706640625,858.7747570068359,1381.60706640625,858.7747570068359C1381.60706640625,858.7747570068359,1808.53406640625,1099.317557006836,1808.53406640625,1099.317557006836Z" fill="url(#master_svgf_1_27703)" fill-opacity="1"/></g></g><g style="opacity:0.30000001192092896;" filter="url(#master_svgg_308_054471)"><g><path d="M1040.07162890625,1051.2036275634766C1040.07162890625,1051.2036275634766,911.99462890625,930.9276275634766,911.99462890625,930.9276275634766C911.99462890625,930.9276275634766,1125.45662890625,1003.0933275634766,1125.45662890625,1003.0933275634766C1125.45662890625,1003.0933275634766,1552.37962890625,1243.6456275634766,1552.37962890625,1243.6456275634766C1552.37962890625,1243.6456275634766,1680.45262890625,1363.9216275634767,1680.45262890625,1363.9216275634767C1680.45262890625,1363.9216275634767,1466.99462890625,1291.7556275634765,1466.99462890625,1291.7556275634765C1466.99462890625,1291.7556275634765,1040.07162890625,1051.2036275634766,1040.07162890625,1051.2036275634766Z" fill="url(#master_svgh_1_27713)" fill-opacity="1"/></g></g></g><g style="mix-blend-mode:overlay" filter="url(#master_svgi_308_054473)"><g><path d="M1040.97637890625,784.0260692138672C1040.97637890625,784.0260692138672,1315.58037890625,456.8740692138672,1315.58037890625,456.8740692138672C1315.58037890625,456.8740692138672,1076.7943789062501,833.0990692138672,1076.7943789062501,833.0990692138672C1076.7943789062501,833.0990692138672,1013.05937890625,920.4190692138673,1013.05937890625,920.4190692138673C1013.05937890625,920.4190692138673,786.21337890625,1182.1410692138672,786.21337890625,1182.1410692138672C786.21337890625,1182.1410692138672,977.24137890625,871.3470692138671,977.24137890625,871.3470692138671C977.24137890625,871.3470692138671,1040.97637890625,784.0260692138672,1040.97637890625,784.0260692138672Z" fill="#091135" fill-opacity="0.5"/></g></g><g style="mix-blend-mode:overlay" filter="url(#master_svgj_308_054475)"><g><path d="M1308.42487890625,777.4566398162842C1308.42487890625,777.4566398162842,1583.02787890625,450.3046398162842,1583.02787890625,450.3046398162842C1583.02787890625,450.3046398162842,1344.24187890625,826.5296398162842,1344.24187890625,826.5296398162842C1344.24187890625,826.5296398162842,1153.87187890625,1087.3496398162843,1153.87187890625,1087.3496398162843C1153.87187890625,1087.3496398162843,927.02587890625,1349.0716398162842,927.02587890625,1349.0716398162842C927.02587890625,1349.0716398162842,1118.05387890625,1038.2766398162842,1118.05387890625,1038.2766398162842C1118.05387890625,1038.2766398162842,1308.42487890625,777.4566398162842,1308.42487890625,777.4566398162842Z" fill="#091135" fill-opacity="0.5"/></g></g><g style="mix-blend-mode:overlay" filter="url(#master_svgk_308_054477)"><g><path d="M1537.7908789062499,827.1703639526368C1537.7908789062499,827.1703639526368,1812.39287890625,500.0183639526367,1812.39287890625,500.0183639526367C1812.39287890625,500.0183639526367,1573.6078789062499,876.2443639526367,1573.6078789062499,876.2443639526367C1573.6078789062499,876.2443639526367,1400.12287890625,1113.9303639526368,1400.12287890625,1113.9303639526368C1400.12287890625,1113.9303639526368,1173.27587890625,1375.6523639526367,1173.27587890625,1375.6523639526367C1173.27587890625,1375.6523639526367,1364.30487890625,1064.8573639526367,1364.30487890625,1064.8573639526367C1364.30487890625,1064.8573639526367,1537.7908789062499,827.1703639526368,1537.7908789062499,827.1703639526368Z" fill="#091135" fill-opacity="0.5"/></g></g><g style="mix-blend-mode:overlay" filter="url(#master_svgl_308_054479)"><g><path d="M1162.55450390625,1157.766471435547C1162.55450390625,1157.766471435547,1437.15850390625,830.6144714355469,1437.15850390625,830.6144714355469C1437.15850390625,830.6144714355469,1198.3725039062501,1206.8394714355468,1198.3725039062501,1206.8394714355468C1198.3725039062501,1206.8394714355468,1134.63750390625,1294.159471435547,1134.63750390625,1294.159471435547C1134.63750390625,1294.159471435547,907.79150390625,1555.881471435547,907.79150390625,1555.881471435547C907.79150390625,1555.881471435547,1098.81950390625,1245.0874714355468,1098.81950390625,1245.0874714355468C1098.81950390625,1245.0874714355468,1162.55450390625,1157.766471435547,1162.55450390625,1157.766471435547Z" fill="url(#master_svgm_308_054528)" fill-opacity="0.20000000298023224"/></g></g><g style="mix-blend-mode:overlay" filter="url(#master_svgn_308_054481)"><g><path d="M1552.17606640625,1067.8404929199219C1552.17606640625,1067.8404929199219,1281.14306640625,1344.3844929199217,1281.14306640625,1344.3844929199217C1281.14306640625,1344.3844929199217,1516.82406640625,1026.3594929199219,1516.82406640625,1026.3594929199219C1516.82406640625,1026.3594929199219,1579.73106640625,952.5464929199219,1579.73106640625,952.5464929199219C1579.73106640625,952.5464929199219,1803.62406640625,731.3114929199219,1803.62406640625,731.3114929199219C1803.62406640625,731.3114929199219,1615.08306640625,994.0284929199219,1615.08306640625,994.0284929199219C1615.08306640625,994.0284929199219,1552.17606640625,1067.8404929199219,1552.17606640625,1067.8404929199219Z" fill="#091135" fill-opacity="0.5"/></g></g><g style="mix-blend-mode:overlay" filter="url(#master_svgo_308_054483)"><g><path d="M1408.03644140625,929.3147356872558C1408.03644140625,929.3147356872558,1137.00244140625,1205.8577356872559,1137.00244140625,1205.8577356872559C1137.00244140625,1205.8577356872559,1372.68444140625,887.8337356872559,1372.68444140625,887.8337356872559C1372.68444140625,887.8337356872559,1560.57944140625,667.3617356872559,1560.57944140625,667.3617356872559C1560.57944140625,667.3617356872559,1784.47244140625,446.12673568725586,1784.47244140625,446.12673568725586C1784.47244140625,446.12673568725586,1595.93244140625,708.8427356872559,1595.93244140625,708.8427356872559C1595.93244140625,708.8427356872559,1408.03644140625,929.3147356872558,1408.03644140625,929.3147356872558Z" fill="#091135" fill-opacity="0.5"/></g></g><g style="mix-blend-mode:overlay" filter="url(#master_svgp_308_054485)"><g><path d="M1181.65362890625,887.2912265625C1181.65362890625,887.2912265625,910.61962890625,1163.8342265625001,910.61962890625,1163.8342265625001C910.61962890625,1163.8342265625001,1146.30162890625,845.8092265625,1146.30162890625,845.8092265625C1146.30162890625,845.8092265625,1317.53162890625,644.8922265625,1317.53162890625,644.8922265625C1317.53162890625,644.8922265625,1541.42862890625,423.6572265625,1541.42862890625,423.6572265625C1541.42862890625,423.6572265625,1352.8836289062501,686.3742265625,1352.8836289062501,686.3742265625C1352.8836289062501,686.3742265625,1181.65362890625,887.2912265625,1181.65362890625,887.2912265625Z" fill="#091135" fill-opacity="0.5"/></g></g><g style="mix-blend-mode:overlay" filter="url(#master_svgq_308_054487)"><g><path d="M988.01300390625,806.8531233825684C988.01300390625,806.8531233825684,716.97900390625,1083.3951233825683,716.97900390625,1083.3951233825683C716.97900390625,1083.3951233825683,952.66100390625,765.3711233825684,952.66100390625,765.3711233825684C952.66100390625,765.3711233825684,1015.56700390625,691.5591233825684,1015.56700390625,691.5591233825684C1015.56700390625,691.5591233825684,1239.4640039062501,470.32412338256836,1239.4640039062501,470.32412338256836C1239.4640039062501,470.32412338256836,1050.91900390625,733.0401233825684,1050.91900390625,733.0401233825684C1050.91900390625,733.0401233825684,988.01300390625,806.8531233825684,988.01300390625,806.8531233825684Z" fill="url(#master_svgr_308_054534)" fill-opacity="0.20000000298023224"/></g></g></g></svg>