<svg xmlns="http://www.w3.org/2000/svg" xmlns:xlink="http://www.w3.org/1999/xlink" fill="none" version="1.1" width="19" height="19" viewBox="0 0 19 19"><defs><clipPath id="master_svg0_308_065906"><rect x="0" y="0" width="19" height="19" rx="0"/></clipPath></defs><g clip-path="url(#master_svg0_308_065906)"><g><path d="M14.8803,11.2806C14.2915,11.191,13.7027,11.0119,13.1138,10.78788C12.4073,10.47431,11.62219,10.69829,11.07264,11.2806L10.56234,11.863C9.26695,10.92227,8.16784,9.71278,7.38276,8.23452L7.89306,7.65217C8.40336,7.02503,8.599630000000001,6.12912,8.324860000000001,5.32279C8.12858,4.6956500000000005,7.97157,4.02372,7.89306,3.30698C7.7753,2.2318800000000003,6.95096,1.42556,5.969609999999999,1.42556L3.96766,1.42556C3.3788400000000003,1.42556,2.868542,1.6943350000000001,2.515256,2.14229C2.161969,2.59025,1.9656992,3.21739,2.00495318,3.84453C2.240477,6.3083,2.9863049999999998,8.68248,4.163930000000001,10.74308C5.22378,12.6693,6.67618,14.3267,8.36411,15.5362C10.16979,16.8801,12.2503,17.7312,14.4092,18L14.5662,18C15.0373,18,15.5083,17.776,15.8616,17.4177C16.2542,17.0145,16.4897,16.3874,16.4897,15.805L16.4897,13.5204C16.568199999999997,12.4005,15.8224,11.4598,14.8803,11.2806ZM15.3513,13.5204L15.3513,15.805C15.3513,16.029,15.2728,16.297800000000002,15.1158,16.4321C14.9588,16.6113,14.7625,16.656100000000002,14.5662,16.656100000000002C12.6035,16.4321,10.6801,15.6258,9.03143,14.4163C7.50052,13.2964,6.16588,11.7734,5.1845300000000005,10.02635C4.12467,8.144929999999999,3.4181,5.94993,3.2218299999999997,3.71014C3.2218299999999997,3.48617,3.2610799999999998,3.21739,3.4181,3.03821C3.57512,2.8590299999999997,3.7713900000000002,2.76943,3.96766,2.76943L5.969609999999999,2.76943C6.36215,2.76943,6.67618,3.083,6.71544,3.48617C6.79395,4.24769,6.99022,5.05402,7.22574,5.77075C7.3435,6.08432,7.265,6.44269,7.06873,6.66667L6.20514,7.65217C6.00887,7.87615,5.969609999999999,8.189720000000001,6.12663,8.4585C7.14723,10.47431,8.599630000000001,12.1318,10.36607,13.2964C10.60159,13.4308,10.87637,13.386,11.07264,13.2069L11.93623,12.2213C12.1325,11.9974,12.4465,11.9078,12.7213,12.0422C13.3886,12.3109,14.0559,12.4901,14.7233,12.6245C15.0766,12.6693,15.3513,13.0277,15.3513,13.5204C15.3513,13.4756,15.3513,13.4756,15.3513,13.5204ZM16.9607,4.65086C17,4.56126,17,4.47167,17,4.38208C17,4.29249,17,4.2029,16.9607,4.1581C16.9215,4.06851,16.882199999999997,3.97892,16.843,3.93412L14.4485,1.201581C14.213,0.9328063,13.8597,0.9328063,13.6242,1.201581C13.3886,1.470356,13.3886,1.873518,13.6242,2.14229L14.998,3.71014L11.6222,3.71014C11.30816,3.71014,11.03338,4.02372,11.03338,4.38208C11.03338,4.74045,11.30816,5.05402,11.6222,5.05402L14.998,5.05402L13.5849,6.62187C13.3494,6.89064,13.3494,7.29381,13.5849,7.56258C13.7027,7.69697,13.8597,7.74176,14.0167,7.74176C14.1737,7.74176,14.3307,7.69697,14.4485,7.56258L16.843,4.83004C16.882199999999997,4.78524,16.9215,4.74045,16.9607,4.65086Z" fill="#000000" fill-opacity="1"/></g></g></svg>