<svg xmlns="http://www.w3.org/2000/svg" xmlns:xlink="http://www.w3.org/1999/xlink" fill="none" version="1.1" width="19" height="19" viewBox="0 0 19 19"><defs><clipPath id="master_svg0_308_065904"><rect x="0" y="0" width="19" height="19" rx="0"/></clipPath></defs><g clip-path="url(#master_svg0_308_065904)"><g><path d="M17.23241875,16.647409375000002C17.53881875,16.647409375000002,17.78731875,16.895809375,17.78731875,17.202109375C17.78731875,17.504109375,17.54591875,17.749709375,17.245518750000002,17.756709375L17.23241875,17.756809375L1.82322075,17.756809375C1.51675275,17.756809375,1.26830566,17.508509375,1.26830566,17.202109375C1.26830566,16.900209375,1.50970175,16.654609375,1.81010275,16.647609375000002L1.82322075,16.647509375L17.23241875,16.647409375000002ZM16.293318749999997,15.282109375C16.59981875,15.282109375,16.84821875,15.530409375,16.84821875,15.836809375C16.84821875,16.138709374999998,16.606818750000002,16.384309375,16.30641875,16.391309375L16.293318749999997,16.391409375000002L3.06105875,16.391409375000002C2.75460875,16.391409375000002,2.50615875,16.143109375,2.50615875,15.836809375C2.50615875,15.534809375,2.74755875,15.289209375,3.0479587500000003,15.282209375L3.06107875,15.282109375L16.293318749999997,15.282109375ZM5.74118875,8.010539375C6.04765875,8.010539375,6.29608875,8.258879375,6.29608875,8.565229375000001C6.29608875,8.867189374999999,6.05468875,9.112799375,5.75428875,9.119759375000001L5.74118875,9.119909374999999L4.96051875,9.119909374999999L4.96051875,13.831309375L5.74118875,13.831309375C6.04765875,13.831309375,6.29608875,14.079709375,6.29608875,14.386009375C6.29608875,14.688009375,6.05468875,14.933609375,5.75428875,14.940609375L5.74118875,14.940709375L3.06003875,14.940709375C2.75358875,14.940709375,2.50515875,14.692409375,2.50515875,14.386009375C2.50515875,14.084109375,2.74655875,13.838509375,3.04695875,13.831509375L3.06005875,13.831309375L3.85070875,13.831309375L3.85070875,9.119909374999999L3.06005875,9.119909374999999C2.75358875,9.119909374999999,2.50515875,8.871569375,2.50515875,8.565229375000001C2.50515875,8.263259375,2.74655875,8.017649375000001,3.04695875,8.010689375L3.06005875,8.010539375L5.74118875,8.010539375ZM10.86434875,8.010539375C11.17080875,8.010539375,11.41921875,8.258879375,11.41921875,8.565229375000001C11.41921875,8.867189374999999,11.17786875,9.112799375,10.87745875,9.119759375000001L10.86434875,9.119909374999999L10.08367875,9.119909374999999L10.08367875,13.831309375L10.86434875,13.831309375C11.17080875,13.831309375,11.41921875,14.079709375,11.41921875,14.386009375C11.41921875,14.688009375,11.17786875,14.933609375,10.87745875,14.940609375L10.86434875,14.940709375L8.18322875,14.940709375C7.87677875,14.940709375,7.62832875,14.692409375,7.62832875,14.386009375C7.62832875,14.084109375,7.86972875,13.838509375,8.17012875,13.831509375L8.18322875,13.831309375L8.97387875,13.831309375L8.97387875,9.119909374999999L8.18322875,9.119909374999999C7.87677875,9.119909374999999,7.62832875,8.871569375,7.62832875,8.565229375000001C7.62832875,8.263259375,7.86972875,8.017649375000001,8.17012875,8.010689375L8.18322875,8.010539375L10.86434875,8.010539375L10.86434875,8.010539375ZM15.85851875,8.010539375C16.16491875,8.010539375,16.413318750000002,8.258879375,16.413318750000002,8.565229375000001C16.413318750000002,8.867189374999999,16.17191875,9.112799375,15.87151875,9.119759375000001L15.85851875,9.119909374999999L15.07781875,9.119909374999999L15.07781875,13.831309375L15.85851875,13.831309375C16.16491875,13.831309375,16.413318750000002,14.079709375,16.413318750000002,14.386009375C16.413318750000002,14.688009375,16.17191875,14.933609375,15.87151875,14.940609375L15.85851875,14.940709375L13.17731875,14.940709375C12.87081875,14.940709375,12.62241875,14.692409375,12.62241875,14.386009375C12.62241875,14.084109375,12.86381875,13.838509375,13.16421875,13.831509375L13.17731875,13.831309375L13.96801875,13.831309375L13.96801875,9.119909374999999L13.17731875,9.119909374999999C12.87091875,9.119909374999999,12.62241875,8.871569375,12.62241875,8.565229375000001C12.62241875,8.263259375,12.86381875,8.017649375000001,13.16421875,8.010689375L13.17731875,8.010539375L15.85851875,8.010539375ZM10.25886875,1.453722375L17.51911875,6.500299375C17.80951875,6.702099375,17.88111875,7.100949375,17.67931875,7.391169375C17.55961875,7.563219375,17.36321875,7.665799375,17.15361875,7.665799375L1.9019857500000001,7.665799375C1.54838875,7.665799375,1.26171875,7.379259375,1.26171875,7.025769375C1.2617313433,6.816189375,1.36436075,6.619899375,1.53645775,6.500299375L8.79671875,1.453722375C9.23620875,1.148238275,9.81939875,1.148238275,10.25886875,1.453722375ZM9.43843875,2.359229375L9.43032875,2.364539375L3.39964875,6.556409375L15.65591875,6.556409375L9.62527875,2.364539375C9.56957875,2.325819375,9.49624875,2.3237393749999997,9.43843875,2.359229375Z" fill="#3D3D3D" fill-opacity="1"/></g></g></svg>