<svg xmlns="http://www.w3.org/2000/svg" xmlns:xlink="http://www.w3.org/1999/xlink" fill="none" version="1.1" width="19" height="19" viewBox="0 0 19 19"><defs><clipPath id="master_svg0_308_065912"><rect x="0" y="0" width="19" height="19" rx="0"/></clipPath></defs><g clip-path="url(#master_svg0_308_065912)"><g><g><path d="M9.5003221875,16.9375C9.793712187499999,16.9375,10.0315721875,16.6856,10.0315721875,16.375C10.0315721875,16.0644,9.793712187499999,15.8125,9.5003221875,15.8125C9.5003221875,15.8125,9.5003221875,16.9375,9.5003221875,16.9375C9.5003221875,16.9375,9.5003221875,16.9375,9.5003221875,16.9375ZM16.0524421875,9.625C16.0524421875,9.93566,16.2902421875,10.1875,16.5836421875,10.1875C16.877042187500003,10.1875,17.1149421875,9.93566,17.1149421875,9.625C17.1149421875,9.625,16.0524421875,9.625,16.0524421875,9.625C16.0524421875,9.625,16.0524421875,9.625,16.0524421875,9.625ZM9.5003221875,15.8125C9.5003221875,15.8125,5.9586621875,15.8125,5.9586621875,15.8125C5.9586621875,15.8125,5.9586621875,16.9375,5.9586621875,16.9375C5.9586621875,16.9375,9.5003221875,16.9375,9.5003221875,16.9375C9.5003221875,16.9375,9.5003221875,15.8125,9.5003221875,15.8125C9.5003221875,15.8125,9.5003221875,15.8125,9.5003221875,15.8125ZM5.9586621875,15.8125C4.9775921875,15.8125,4.2412021875,15.5527,3.7524421875,15.0722C3.2708021875,14.5986,2.9482421875,13.8302,2.9482421875,12.625C2.9482421875,12.625,1.8857421875,12.625,1.8857421875,12.625C1.8857421875,14.0448,2.2715111875,15.1514,3.0294621875,15.8966C3.7802821875,16.6348,4.8147221875,16.9375,5.9586621875,16.9375C5.9586621875,16.9375,5.9586621875,15.8125,5.9586621875,15.8125C5.9586621875,15.8125,5.9586621875,15.8125,5.9586621875,15.8125ZM2.9482421875,12.625C2.9482421875,12.625,2.9482421875,7.375,2.9482421875,7.375C2.9482421875,7.375,1.8857421875,7.375,1.8857421875,7.375C1.8857421875,7.375,1.8857421875,12.625,1.8857421875,12.625C1.8857421875,12.625,2.9482421875,12.625,2.9482421875,12.625C2.9482421875,12.625,2.9482421875,12.625,2.9482421875,12.625ZM2.9482421875,7.375C2.9482421875,6.16971,3.2708021875,5.40136,3.7524421875,4.9278200000000005C4.2412021875,4.44728,4.9775921875,4.1875,5.9586621875,4.1875C5.9586621875,4.1875,5.9586621875,3.0625,5.9586621875,3.0625C4.8147221875,3.0625,3.7802821875,3.365225,3.0294621875,4.1034299999999995C2.2715111875,4.84864,1.8857421875,5.95529,1.8857421875,7.375C1.8857421875,7.375,2.9482421875,7.375,2.9482421875,7.375C2.9482421875,7.375,2.9482421875,7.375,2.9482421875,7.375ZM5.9586621875,4.1875C5.9586621875,4.1875,13.0419421875,4.1875,13.0419421875,4.1875C13.0419421875,4.1875,13.0419421875,3.0625,13.0419421875,3.0625C13.0419421875,3.0625,5.9586621875,3.0625,5.9586621875,3.0625C5.9586621875,3.0625,5.9586621875,4.1875,5.9586621875,4.1875C5.9586621875,4.1875,5.9586621875,4.1875,5.9586621875,4.1875ZM13.0419421875,4.1875C14.0230421875,4.1875,14.7594421875,4.44728,15.2482421875,4.9278200000000005C15.7298421875,5.40136,16.0524421875,6.16971,16.0524421875,7.375C16.0524421875,7.375,17.1149421875,7.375,17.1149421875,7.375C17.1149421875,5.95529,16.729142187500003,4.84864,15.9711421875,4.1034299999999995C15.2204421875,3.365225,14.1859421875,3.0625,13.0419421875,3.0625C13.0419421875,3.0625,13.0419421875,4.1875,13.0419421875,4.1875C13.0419421875,4.1875,13.0419421875,4.1875,13.0419421875,4.1875ZM16.0524421875,7.375C16.0524421875,7.375,16.0524421875,9.625,16.0524421875,9.625C16.0524421875,9.625,17.1149421875,9.625,17.1149421875,9.625C17.1149421875,9.625,17.1149421875,7.375,17.1149421875,7.375C17.1149421875,7.375,16.0524421875,7.375,16.0524421875,7.375C16.0524421875,7.375,16.0524421875,7.375,16.0524421875,7.375Z" fill="#000000" fill-opacity="1"/></g><g><path d="M13.3729278125,8.18953C13.6021478125,7.995655,13.6395478125,7.641709,13.4564478125,7.398973C13.2733378125,7.156237,12.9390578125,7.1166295,12.709817812499999,7.3105080000000005C12.709817812499999,7.3105080000000005,13.3729278125,8.18953,13.3729278125,8.18953C13.3729278125,8.18953,13.3729278125,8.18953,13.3729278125,8.18953ZM10.8242778125,9.62502C10.8242778125,9.62502,11.1551578125,10.06509,11.1551578125,10.06509C11.1551578125,10.06509,11.1558178125,10.064540000000001,11.1558178125,10.064540000000001C11.1558178125,10.064540000000001,10.8242778125,9.62502,10.8242778125,9.62502C10.8242778125,9.62502,10.8242778125,9.62502,10.8242778125,9.62502ZM8.1680278125,9.62502C8.1680278125,9.62502,7.8358278125,10.06399,7.8358278125,10.06399C7.8358278125,10.06399,7.8371378125,10.06509,7.8371378125,10.06509C7.8371378125,10.06509,8.1680278125,9.62502,8.1680278125,9.62502C8.1680278125,9.62502,8.1680278125,9.62502,8.1680278125,9.62502ZM6.2902208125,7.311057C6.0612558125,7.1167997,5.7269158125,7.1558537,5.5434498125,7.398287C5.3599848125,7.64072,5.3968691125,7.994727,5.6258338125,8.18898C5.6258338125,8.18898,6.2902208125,7.311057,6.2902208125,7.311057C6.2902208125,7.311057,6.2902208125,7.311057,6.2902208125,7.311057ZM12.709817812499999,7.3105080000000005C12.709817812499999,7.3105080000000005,10.4927278125,9.18551,10.4927278125,9.18551C10.4927278125,9.18551,11.1558178125,10.064540000000001,11.1558178125,10.064540000000001C11.1558178125,10.064540000000001,13.3729278125,8.18953,13.3729278125,8.18953C13.3729278125,8.18953,12.709817812499999,7.3105080000000005,12.709817812499999,7.3105080000000005C12.709817812499999,7.3105080000000005,12.709817812499999,7.3105080000000005,12.709817812499999,7.3105080000000005ZM10.4933878125,9.18495C9.9574578125,9.63671,9.034837812500001,9.63671,8.4989078125,9.18495C8.4989078125,9.18495,7.8371378125,10.06509,7.8371378125,10.06509C8.7603778125,10.84333,10.2319178125,10.84333,11.1551578125,10.06509C11.1551578125,10.06509,10.4933878125,9.18495,10.4933878125,9.18495C10.4933878125,9.18495,10.4933878125,9.18495,10.4933878125,9.18495ZM8.5002178125,9.18605C8.5002178125,9.18605,6.2902208125,7.311057,6.2902208125,7.311057C6.2902208125,7.311057,5.6258338125,8.18898,5.6258338125,8.18898C5.6258338125,8.18898,7.835837812499999,10.06398,7.835837812499999,10.06398C7.835837812499999,10.06398,8.5002178125,9.18605,8.5002178125,9.18605C8.5002178125,9.18605,8.5002178125,9.18605,8.5002178125,9.18605Z" fill="#000000" fill-opacity="1"/></g><g><g><path d="M14.607164430541992,12.077466822509766C14.607164430541992,12.077466822509766,14.231514430541992,11.679719822509766,14.231514430541992,11.679719822509766C14.231514430541992,11.679719822509766,14.231514430541992,11.679721822509766,14.231514430541992,11.679721822509766C14.231514430541992,11.679721822509766,14.607164430541992,12.077466822509766,14.607164430541992,12.077466822509766C14.607164430541992,12.077466822509766,14.607164430541992,12.077466822509766,14.607164430541992,12.077466822509766ZM12.099682430541993,14.732476822509765C12.099682430541993,14.732476822509765,12.475334430541992,15.130226822509766,12.475334430541992,15.130226822509766C12.475334430541992,15.130226822509766,12.475334430541992,15.130226822509766,12.475334430541992,15.130226822509766C12.475334430541992,15.130226822509766,12.099682430541993,14.732476822509765,12.099682430541993,14.732476822509765C12.099682430541993,14.732476822509765,12.099682430541993,14.732476822509765,12.099682430541993,14.732476822509765ZM11.887169430541991,15.174966822509766C11.887169430541991,15.174966822509766,11.362346430541992,15.087236822509766,11.362346430541992,15.087236822509766C11.362346430541992,15.087236822509766,11.361104430541992,15.096576822509766,11.361104430541992,15.096576822509766C11.361104430541992,15.096576822509766,11.887169430541991,15.174966822509766,11.887169430541991,15.174966822509766C11.887169430541991,15.174966822509766,11.887169430541991,15.174966822509766,11.887169430541991,15.174966822509766ZM11.752584430541992,16.187476822509765C11.752584430541992,16.187476822509765,12.278494430541992,16.267026822509767,12.278494430541992,16.267026822509767C12.278494430541992,16.267026822509767,12.278654430541993,16.265876822509767,12.278654430541993,16.265876822509767C12.278654430541993,16.265876822509767,11.752584430541992,16.187476822509765,11.752584430541992,16.187476822509765C11.752584430541992,16.187476822509765,11.752584430541992,16.187476822509765,11.752584430541992,16.187476822509765ZM12.290924430541992,16.757486822509765C12.290924430541992,16.757486822509765,12.216884430541992,16.200476822509764,12.216884430541992,16.200476822509764C12.216884430541992,16.200476822509764,12.215794430541992,16.200636822509765,12.215794430541992,16.200636822509765C12.215794430541992,16.200636822509765,12.290924430541992,16.757486822509765,12.290924430541992,16.757486822509765C12.290924430541992,16.757486822509765,12.290924430541992,16.757486822509765,12.290924430541992,16.757486822509765ZM13.247184430541992,16.614986822509763C13.247184430541992,16.614986822509763,13.321234430541992,17.172066822509766,13.321234430541992,17.172066822509766C13.321234430541992,17.172066822509766,13.330034430541993,17.170596822509765,13.330034430541993,17.170596822509765C13.330034430541993,17.170596822509765,13.247184430541992,16.614986822509763,13.247184430541992,16.614986822509763C13.247184430541992,16.614986822509763,13.247184430541992,16.614986822509763,13.247184430541992,16.614986822509763ZM13.665094430541991,16.389966822509766C13.665094430541991,16.389966822509766,13.289444430541993,15.992216822509766,13.289444430541993,15.992216822509766C13.284804430541993,15.997126822509767,13.280264430541992,16.002126822509766,13.275794430541993,16.007216822509765C13.275794430541993,16.007216822509765,13.665094430541991,16.389966822509766,13.665094430541991,16.389966822509766C13.665094430541991,16.389966822509766,13.665094430541991,16.389966822509766,13.665094430541991,16.389966822509766ZM16.17259443054199,13.734986822509766C16.17259443054199,13.734986822509766,16.548244430541992,14.132726822509765,16.548244430541992,14.132726822509765C16.548244430541992,14.132726822509765,16.548244430541992,14.132726822509765,16.548244430541992,14.132726822509765C16.548244430541992,14.132726822509765,16.17259443054199,13.734986822509766,16.17259443054199,13.734986822509766C16.17259443054199,13.734986822509766,16.17259443054199,13.734986822509766,16.17259443054199,13.734986822509766ZM14.231514430541992,11.679721822509766C14.231514430541992,11.679721822509766,11.724030430541992,14.334726822509765,11.724030430541992,14.334726822509765C11.724030430541992,14.334726822509765,12.475334430541992,15.130226822509766,12.475334430541992,15.130226822509766C12.475334430541992,15.130226822509766,14.982814430541993,12.475216822509765,14.982814430541993,12.475216822509765C14.982814430541993,12.475216822509765,14.231514430541992,11.679721822509766,14.231514430541992,11.679721822509766C14.231514430541992,11.679721822509766,14.231514430541992,11.679721822509766,14.231514430541992,11.679721822509766ZM11.724032430541993,14.334726822509765C11.623224430541992,14.441456822509766,11.545129430541992,14.570706822509766,11.490172430541993,14.685726822509766C11.435221430541992,14.800726822509766,11.384086430541991,14.941956822509766,11.362420430541992,15.087236822509766C11.362420430541992,15.087236822509766,12.411914430541993,15.262706822509767,12.411914430541993,15.262706822509767C12.411224430541992,15.267366822509766,12.411764430541993,15.261626822509765,12.416974430541993,15.245836822509766C12.421874430541992,15.230966822509766,12.429054430541992,15.212826822509765,12.438244430541992,15.193596822509765C12.447434430541993,15.174356822509765,12.456954430541993,15.157546822509765,12.465354430541993,15.144626822509766C12.474244430541992,15.130936822509765,12.478324430541992,15.127056822509765,12.475334430541992,15.130226822509766C12.475334430541992,15.130226822509766,11.724032430541993,14.334726822509765,11.724032430541993,14.334726822509765C11.724032430541993,14.334726822509765,11.724032430541993,14.334726822509765,11.724032430541993,14.334726822509765ZM11.361104430541992,15.096576822509766C11.361104430541992,15.096576822509766,11.226518830541993,16.109076822509767,11.226518830541993,16.109076822509767C11.226518830541993,16.109076822509767,12.278654430541993,16.265876822509767,12.278654430541993,16.265876822509767C12.278654430541993,16.265876822509767,12.413234430541992,15.253366822509765,12.413234430541992,15.253366822509765C12.413234430541992,15.253366822509765,11.361104430541992,15.096576822509766,11.361104430541992,15.096576822509766C11.361104430541992,15.096576822509766,11.361104430541992,15.096576822509766,11.361104430541992,15.096576822509766ZM11.226674030541993,16.107926822509768C11.181968230541992,16.439276822509765,11.264216330541991,16.780876822509764,11.497354430541993,17.027726822509766C11.730491430541992,17.274576822509765,12.053117430541992,17.361666822509765,12.366054430541991,17.314326822509766C12.366054430541991,17.314326822509766,12.215794430541992,16.200636822509765,12.215794430541992,16.200636822509765C12.197260430541991,16.203446822509765,12.195079430541993,16.200006822509764,12.205041430541993,16.203146822509765C12.215604430541992,16.206476822509764,12.232444430541992,16.215076822509765,12.248654430541992,16.232236822509766C12.264864430541992,16.249396822509766,12.272974430541993,16.267226822509766,12.276124430541993,16.278416822509765C12.279094430541992,16.288956822509768,12.275844430541992,16.286646822509766,12.278494430541992,16.267026822509767C12.278494430541992,16.267026822509767,11.226674030541993,16.107926822509768,11.226674030541993,16.107926822509768C11.226674030541993,16.107926822509768,11.226674030541993,16.107926822509768,11.226674030541993,16.107926822509768ZM12.364964430541992,17.314496822509767C12.364964430541992,17.314496822509767,13.321214430541993,17.171996822509765,13.321214430541993,17.171996822509765C13.321214430541993,17.171996822509765,13.173134430541992,16.057976822509765,13.173134430541992,16.057976822509765C13.173134430541992,16.057976822509765,12.216884430541992,16.200476822509764,12.216884430541992,16.200476822509764C12.216884430541992,16.200476822509764,12.364964430541992,17.314496822509767,12.364964430541992,17.314496822509767C12.364964430541992,17.314496822509767,12.364964430541992,17.314496822509767,12.364964430541992,17.314496822509767ZM13.330034430541993,17.170596822509765C13.465094430541992,17.148016822509767,13.599274430541993,17.094966822509765,13.709674430541991,17.036516822509768C13.817384430541992,16.979486822509767,13.949164430541993,16.892706822509766,14.054394430541992,16.772726822509767C14.054394430541992,16.772726822509767,13.275794430541993,16.007216822509765,13.275794430541993,16.007216822509765C13.285384430541992,15.996266822509766,13.287624430541992,15.996316822509765,13.276784430541992,16.004286822509766C13.267134430541992,16.011386822509767,13.252664430541993,16.020676822509767,13.234474430541992,16.030306822509765C13.216424430541991,16.039856822509766,13.198634430541992,16.047676822509764,13.183504430541992,16.053176822509766C13.167434430541991,16.059036822509768,13.160814430541992,16.059956822509765,13.164324430541992,16.059366822509766C13.164324430541992,16.059366822509766,13.330034430541993,17.170596822509765,13.330034430541993,17.170596822509765C13.330034430541993,17.170596822509765,13.330034430541993,17.170596822509765,13.330034430541993,17.170596822509765ZM14.040744430541992,16.787716822509765C14.040744430541992,16.787716822509765,16.548244430541992,14.132726822509765,16.548244430541992,14.132726822509765C16.548244430541992,14.132726822509765,15.796944430541991,13.337236822509766,15.796944430541991,13.337236822509766C15.796944430541991,13.337236822509766,13.289444430541993,15.992216822509766,13.289444430541993,15.992216822509766C13.289444430541993,15.992216822509766,14.040744430541992,16.787716822509765,14.040744430541992,16.787716822509765C14.040744430541992,16.787716822509765,14.040744430541992,16.787716822509765,14.040744430541992,16.787716822509765ZM16.548244430541992,14.132726822509765C16.794484430541992,13.872016822509766,17.058534430541993,13.508296822509767,17.102364430541993,13.039446822509765C17.148964430541994,12.540846822509765,16.935414430541993,12.082173822509766,16.548244430541992,11.672234822509765C16.548244430541992,11.672234822509765,15.796944430541991,12.467726822509766,15.796944430541991,12.467726822509766C16.047284430541993,12.732796822509766,16.049774430541994,12.877866822509766,16.045024430541993,12.928646822509766C16.03749443054199,13.009166822509766,15.982804430541993,13.140456822509766,15.796944430541991,13.337236822509766C15.796944430541991,13.337236822509766,16.548244430541992,14.132726822509765,16.548244430541992,14.132726822509765C16.548244430541992,14.132726822509765,16.548244430541992,14.132726822509765,16.548244430541992,14.132726822509765ZM16.548244430541992,11.672234822509765C16.163264430541993,11.264610822509766,15.730994430541992,11.041199022509765,15.261224430541994,11.092294262509766C14.820554430541993,11.140224522509765,14.477784430541991,11.418969822509766,14.231514430541992,11.679719822509766C14.231514430541992,11.679719822509766,14.982814430541993,12.475216822509765,14.982814430541993,12.475216822509765C15.168634430541992,12.278466822509765,15.293374430541991,12.219716822509765,15.369794430541992,12.211406822509765C15.417114430541993,12.206256822509765,15.551504430541993,12.207856822509765,15.796944430541991,12.467726822509766C15.796944430541991,12.467726822509766,16.548244430541992,11.672234822509765,16.548244430541992,11.672234822509765C16.548244430541992,11.672234822509765,16.548244430541992,11.672234822509765,16.548244430541992,11.672234822509765Z" fill="#000000" fill-opacity="1"/></g><g><path d="M14.758244430541993,12.309435681884766C14.679721430541992,12.010108681884766,14.386890430541992,11.834860081884766,14.104193430541992,11.918006581884766C13.821495430541992,12.001152681884765,13.655983130541992,12.311208681884766,13.734510330541992,12.610534681884765C13.734510330541992,12.610534681884765,14.758244430541993,12.309435681884766,14.758244430541993,12.309435681884766C14.758244430541993,12.309435681884766,14.758244430541993,12.309435681884766,14.758244430541993,12.309435681884766ZM15.676694430541993,14.666962681884765C15.959394430541993,14.750112681884765,16.252224430541993,14.574862681884765,16.33074443054199,14.275532681884766C16.40927443054199,13.976212681884766,16.243764430541994,13.666152681884766,15.961064430541992,13.583002681884766C15.961064430541992,13.583002681884766,15.676694430541993,14.666962681884765,15.676694430541993,14.666962681884765C15.676694430541993,14.666962681884765,15.676694430541993,14.666962681884765,15.676694430541993,14.666962681884765ZM13.734510330541992,12.610534681884765C13.996879430541993,13.610632681884766,14.732164430541992,14.389162681884766,15.676694430541993,14.666962681884765C15.676694430541993,14.666962681884765,15.961064430541992,13.583002681884766,15.961064430541992,13.583002681884766C15.375594430541993,13.410812681884765,14.920874430541993,12.929342681884766,14.758244430541993,12.309435681884766C14.758244430541993,12.309435681884766,13.734510330541992,12.610534681884765,13.734510330541992,12.610534681884765C13.734510330541992,12.610534681884765,13.734510330541992,12.610534681884765,13.734510330541992,12.610534681884765Z" fill="#000000" fill-opacity="1"/></g></g><g style="opacity:0;"></g></g></g></svg>