<svg xmlns="http://www.w3.org/2000/svg" xmlns:xlink="http://www.w3.org/1999/xlink" fill="none" version="1.1" width="1351" height="890" viewBox="0 0 1351 890"><defs><clipPath id="master_svg0_308_064818"><rect x="0" y="0" width="1350.9998779296875" height="890" rx="0"/></clipPath><clipPath id="master_svg1_308_064819"><rect x="70.5" y="8" width="1210" height="874" rx="0"/></clipPath><filter id="master_svg2_308_064821" filterUnits="objectBoundingBox" color-interpolation-filters="sRGB" x="-320" y="-320" width="1328.0130004882812" height="1193.741943359375"><feFlood flood-opacity="0" result="BackgroundImageFix"/><feBlend mode="normal" in="SourceGraphic" in2="BackgroundImageFix" result="shape"/><feGaussianBlur stdDeviation="80" result="effect1_foregroundBlur"/></filter><linearGradient x1="0.1481468826532364" y1="0.7037031650543213" x2="0.6932514309883118" y2="0.08171858638525009" id="master_svg3_1_31580"><stop offset="0%" stop-color="#6943FF" stop-opacity="1"/><stop offset="50%" stop-color="#5FA8FF" stop-opacity="1"/><stop offset="100%" stop-color="#6FE5FF" stop-opacity="1"/></linearGradient><filter id="master_svg4_308_064823" filterUnits="objectBoundingBox" color-interpolation-filters="sRGB" x="-224" y="-224" width="998.3140258789062" height="891.114013671875"><feFlood flood-opacity="0" result="BackgroundImageFix"/><feBlend mode="normal" in="SourceGraphic" in2="BackgroundImageFix" result="shape"/><feGaussianBlur stdDeviation="56" result="effect1_foregroundBlur"/></filter><linearGradient x1="0.7222222685813904" y1="0.8333340883255005" x2="0.39910489320755005" y2="0.0857815146446228" id="master_svg5_1_31576"><stop offset="0%" stop-color="#6943FF" stop-opacity="1"/><stop offset="50%" stop-color="#5FA8FF" stop-opacity="1"/><stop offset="100%" stop-color="#6FE5FF" stop-opacity="1"/></linearGradient><filter id="master_svg6_308_064825" filterUnits="objectBoundingBox" color-interpolation-filters="sRGB" x="-224" y="-224" width="998.4110107421875" height="890.9930114746094"><feFlood flood-opacity="0" result="BackgroundImageFix"/><feBlend mode="normal" in="SourceGraphic" in2="BackgroundImageFix" result="shape"/><feGaussianBlur stdDeviation="56" result="effect1_foregroundBlur"/></filter><linearGradient x1="0.27777785062789917" y1="0.16666631400585175" x2="0.600671112537384" y2="0.9143689274787903" id="master_svg7_1_31572"><stop offset="0%" stop-color="#6943FF" stop-opacity="1"/><stop offset="50%" stop-color="#5FA8FF" stop-opacity="1"/><stop offset="100%" stop-color="#6FE5FF" stop-opacity="1"/></linearGradient><filter id="master_svg8_308_064828" filterUnits="objectBoundingBox" color-interpolation-filters="sRGB" x="-320" y="-320" width="1328.0150146484375" height="1193.741943359375"><feFlood flood-opacity="0" result="BackgroundImageFix"/><feBlend mode="normal" in="SourceGraphic" in2="BackgroundImageFix" result="shape"/><feGaussianBlur stdDeviation="80" result="effect1_foregroundBlur"/></filter><linearGradient x1="0.14814646542072296" y1="0.7037031650543213" x2="0.6932494044303894" y2="0.0817185565829277" id="master_svg9_1_31589"><stop offset="0%" stop-color="#6943FF" stop-opacity="1"/><stop offset="50%" stop-color="#5FA8FF" stop-opacity="1"/><stop offset="100%" stop-color="#6FE5FF" stop-opacity="1"/></linearGradient><filter id="master_svga_308_064830" filterUnits="objectBoundingBox" color-interpolation-filters="sRGB" x="-224" y="-224" width="998.31396484375" height="891.114013671875"><feFlood flood-opacity="0" result="BackgroundImageFix"/><feBlend mode="normal" in="SourceGraphic" in2="BackgroundImageFix" result="shape"/><feGaussianBlur stdDeviation="56" result="effect1_foregroundBlur"/></filter><linearGradient x1="0.7222222685813904" y1="0.8333340883255005" x2="0.3991030752658844" y2="0.08578154444694519" id="master_svgb_1_31585"><stop offset="0%" stop-color="#6943FF" stop-opacity="1"/><stop offset="50%" stop-color="#5FA8FF" stop-opacity="1"/><stop offset="100%" stop-color="#6FE5FF" stop-opacity="1"/></linearGradient><filter id="master_svgc_308_064832" filterUnits="objectBoundingBox" color-interpolation-filters="sRGB" x="-224" y="-224" width="998.4090576171875" height="890.9930114746094"><feFlood flood-opacity="0" result="BackgroundImageFix"/><feBlend mode="normal" in="SourceGraphic" in2="BackgroundImageFix" result="shape"/><feGaussianBlur stdDeviation="56" result="effect1_foregroundBlur"/></filter><linearGradient x1="0.27777889370918274" y1="0.16666629910469055" x2="0.6006715297698975" y2="0.9143688678741455" id="master_svgd_1_31593"><stop offset="0%" stop-color="#6943FF" stop-opacity="1"/><stop offset="50%" stop-color="#5FA8FF" stop-opacity="1"/><stop offset="100%" stop-color="#6FE5FF" stop-opacity="1"/></linearGradient></defs><g><g clip-path="url(#master_svg0_308_064818)"><g clip-path="url(#master_svg1_308_064819)"><g style="opacity:0.699999988079071;"><g style="opacity:0.4000000059604645;" filter="url(#master_svg2_308_064821)"><g><path d="M715.1648124999999,250.1053359375C715.1648124999999,250.1053359375,919.0208125,168.0693359375,919.0208125,168.0693359375C919.0208125,168.0693359375,817.0928125,332.1403359375,817.0928125,332.1403359375C817.0928125,332.1403359375,434.8638125,639.7753359375,434.8638125,639.7753359375C434.8638125,639.7753359375,231.0078125,721.8113359375,231.0078125,721.8113359375C231.0078125,721.8113359375,332.9358125,557.7393359375001,332.9358125,557.7393359375001C332.9358125,557.7393359375001,715.1648124999999,250.1053359375,715.1648124999999,250.1053359375Z" fill="url(#master_svg3_1_31580)" fill-opacity="1"/></g></g><g style="opacity:0.30000001192092896;" filter="url(#master_svg4_308_064823)"><g><path d="M299.7893125,420.3553410644531C299.7893125,420.3553410644531,208.0703125,297.2683410644531,208.0703125,297.2683410644531C208.0703125,297.2683410644531,360.9353125,371.1203410644531,360.9353125,371.1203410644531C360.9353125,371.1203410644531,666.6653125,617.2953410644532,666.6653125,617.2953410644532C666.6653125,617.2953410644532,758.3843125,740.3823410644532,758.3843125,740.3823410644532C758.3843125,740.3823410644532,605.5193125000001,666.5303410644531,605.5193125000001,666.5303410644531C605.5193125000001,666.5303410644531,299.7893125,420.3553410644531,299.7893125,420.3553410644531Z" fill="url(#master_svg5_1_31576)" fill-opacity="1"/></g></g><g style="opacity:0.30000001192092896;" filter="url(#master_svg6_308_064825)"><g><path d="M850.2228749999999,469.551328125C850.2228749999999,469.551328125,941.957875,592.6043281249999,941.957875,592.6043281249999C941.957875,592.6043281249999,789.065875,518.7723281250001,789.065875,518.7723281250001C789.065875,518.7723281250001,483.281875,272.665328125,483.281875,272.665328125C483.281875,272.665328125,391.546875,149.611328125,391.546875,149.611328125C391.546875,149.611328125,544.438875,223.443328125,544.438875,223.443328125C544.438875,223.443328125,850.2228749999999,469.551328125,850.2228749999999,469.551328125Z" fill="url(#master_svg7_1_31572)" fill-opacity="1"/></g></g></g><g style="opacity:0.699999988079071;"><g style="opacity:0.4000000059604645;" filter="url(#master_svg8_308_064828)"><g><path d="M916.1257499999999,250.1053359375C916.1257499999999,250.1053359375,1119.9837499999999,168.0693359375,1119.9837499999999,168.0693359375C1119.9837499999999,168.0693359375,1018.05375,332.1403359375,1018.05375,332.1403359375C1018.05375,332.1403359375,635.82375,639.7753359375,635.82375,639.7753359375C635.82375,639.7753359375,431.96875,721.8113359375,431.96875,721.8113359375C431.96875,721.8113359375,533.89575,557.7393359375001,533.89575,557.7393359375001C533.89575,557.7393359375001,916.1257499999999,250.1053359375,916.1257499999999,250.1053359375Z" fill="url(#master_svg9_1_31589)" fill-opacity="1"/></g></g><g style="opacity:0.30000001192092896;" filter="url(#master_svga_308_064830)"><g><path d="M500.75025,420.3553410644531C500.75025,420.3553410644531,409.03125,297.2683410644531,409.03125,297.2683410644531C409.03125,297.2683410644531,561.89625,371.1203410644531,561.89625,371.1203410644531C561.89625,371.1203410644531,867.62625,617.2953410644532,867.62625,617.2953410644532C867.62625,617.2953410644532,959.34525,740.3823410644532,959.34525,740.3823410644532C959.34525,740.3823410644532,806.4802500000001,666.5303410644531,806.4802500000001,666.5303410644531C806.4802500000001,666.5303410644531,500.75025,420.3553410644531,500.75025,420.3553410644531Z" fill="url(#master_svgb_1_31585)" fill-opacity="1"/></g></g><g style="opacity:0.30000001192092896;" filter="url(#master_svgc_308_064832)"><g><path d="M1051.1838125,469.551328125C1051.1838125,469.551328125,1142.9188125,592.6043281249999,1142.9188125,592.6043281249999C1142.9188125,592.6043281249999,990.0268125,518.7723281250001,990.0268125,518.7723281250001C990.0268125,518.7723281250001,684.2428125,272.665328125,684.2428125,272.665328125C684.2428125,272.665328125,592.5078125,149.611328125,592.5078125,149.611328125C592.5078125,149.611328125,745.3998125,223.443328125,745.3998125,223.443328125C745.3998125,223.443328125,1051.1838125,469.551328125,1051.1838125,469.551328125Z" fill="url(#master_svgd_1_31593)" fill-opacity="1"/></g></g></g></g></g></g></svg>