<svg xmlns="http://www.w3.org/2000/svg" xmlns:xlink="http://www.w3.org/1999/xlink" fill="none" version="1.1" width="1920" height="1081" viewBox="0 0 1920 1081"><defs><mask id="master_svg0_1_42454" style="mask-type:alpha" maskUnits="userSpaceOnUse"><g><rect x="0" y="0" width="1920" height="1081" rx="0" fill="#FFFFFF" fill-opacity="1"/></g></mask><filter id="master_svg1_1_42335" filterUnits="objectBoundingBox" color-interpolation-filters="sRGB" x="-600" y="-600" width="2299.998291015625" height="1897.6012573242188"><feFlood flood-opacity="0" result="BackgroundImageFix"/><feBlend mode="normal" in="SourceGraphic" in2="BackgroundImageFix" result="shape"/><feGaussianBlur stdDeviation="150" result="effect1_foregroundBlur"/></filter><filter id="master_svg2_1_42344" filterUnits="objectBoundingBox" color-interpolation-filters="sRGB" x="-584.0679931640625" y="-584.0679931640625" width="1731.1889038085938" height="1641.6842346191406"><feFlood flood-opacity="0" result="BackgroundImageFix"/><feBlend mode="normal" in="SourceGraphic" in2="BackgroundImageFix" result="shape"/><feGaussianBlur stdDeviation="146.01699829101562" result="effect1_foregroundBlur"/></filter><filter id="master_svg3_1_42340" filterUnits="objectBoundingBox" color-interpolation-filters="sRGB" x="-584.0679931640625" y="-584.0679931640625" width="1731.1889038085938" height="1641.6842346191406"><feFlood flood-opacity="0" result="BackgroundImageFix"/><feBlend mode="normal" in="SourceGraphic" in2="BackgroundImageFix" result="shape"/><feGaussianBlur stdDeviation="146.01699829101562" result="effect1_foregroundBlur"/></filter><filter id="master_svg4_1_42336" filterUnits="objectBoundingBox" color-interpolation-filters="sRGB" x="-384.64801025390625" y="-384.64801025390625" width="1031.9636535644531" height="990.2073669433594"><feFlood flood-opacity="0" result="BackgroundImageFix"/><feBlend mode="normal" in="SourceGraphic" in2="BackgroundImageFix" result="shape"/><feGaussianBlur stdDeviation="96.16200256347656" result="effect1_foregroundBlur"/></filter><filter id="master_svg5_1_42342" filterUnits="objectBoundingBox" color-interpolation-filters="sRGB" x="-399.07598876953125" y="-399.07598876953125" width="1546.1351928710938" height="1439.1233520507812"><feFlood flood-opacity="0" result="BackgroundImageFix"/><feBlend mode="normal" in="SourceGraphic" in2="BackgroundImageFix" result="shape"/><feGaussianBlur stdDeviation="99.76899719238281" result="effect1_foregroundBlur"/></filter><filter id="master_svg6_1_42338" filterUnits="objectBoundingBox" color-interpolation-filters="sRGB" x="-399.07598876953125" y="-399.07598876953125" width="1546.1351928710938" height="1439.1233520507812"><feFlood flood-opacity="0" result="BackgroundImageFix"/><feBlend mode="normal" in="SourceGraphic" in2="BackgroundImageFix" result="shape"/><feGaussianBlur stdDeviation="99.76899719238281" result="effect1_foregroundBlur"/></filter><filter id="master_svg7_1_42349" filterUnits="objectBoundingBox" color-interpolation-filters="sRGB" x="-320" y="-320" width="1344.968017578125" height="1183.6625366210938"><feFlood flood-opacity="0" result="BackgroundImageFix"/><feBlend mode="normal" in="SourceGraphic" in2="BackgroundImageFix" result="shape"/><feGaussianBlur stdDeviation="80" result="effect1_foregroundBlur"/></filter><linearGradient x1="0.8518514037132263" y1="0.29629746079444885" x2="0.42038363218307495" y2="1.0720224380493164" id="master_svg8_1_27736"><stop offset="0%" stop-color="#6943FF" stop-opacity="1"/><stop offset="50%" stop-color="#5FA8FF" stop-opacity="1"/><stop offset="100%" stop-color="#6FE5FF" stop-opacity="1"/></linearGradient><filter id="master_svg9_1_42353" filterUnits="objectBoundingBox" color-interpolation-filters="sRGB" x="-224" y="-224" width="1216.468017578125" height="880.988037109375"><feFlood flood-opacity="0" result="BackgroundImageFix"/><feBlend mode="normal" in="SourceGraphic" in2="BackgroundImageFix" result="shape"/><feGaussianBlur stdDeviation="56" result="effect1_foregroundBlur"/></filter><linearGradient x1="0.27777865529060364" y1="0.1666661947965622" x2="0.40614181756973267" y2="1.0440561771392822" id="master_svga_1_27732"><stop offset="0%" stop-color="#6943FF" stop-opacity="1"/><stop offset="50%" stop-color="#5FA8FF" stop-opacity="1"/><stop offset="100%" stop-color="#6FE5FF" stop-opacity="1"/></linearGradient><filter id="master_svgb_1_42351" filterUnits="objectBoundingBox" color-interpolation-filters="sRGB" x="-224" y="-224" width="1216.4620361328125" height="881.0048828125"><feFlood flood-opacity="0" result="BackgroundImageFix"/><feBlend mode="normal" in="SourceGraphic" in2="BackgroundImageFix" result="shape"/><feGaussianBlur stdDeviation="56" result="effect1_foregroundBlur"/></filter><linearGradient x1="0.7222231030464172" y1="0.8333346843719482" x2="0.5938485264778137" y2="-0.044048916548490524" id="master_svgc_1_27728"><stop offset="0%" stop-color="#6943FF" stop-opacity="1"/><stop offset="50%" stop-color="#5FA8FF" stop-opacity="1"/><stop offset="100%" stop-color="#6FE5FF" stop-opacity="1"/></linearGradient><filter id="master_svgd_1_42357" filterUnits="objectBoundingBox" color-interpolation-filters="sRGB" x="-320" y="-320" width="1277.968994140625" height="1400.1450805664062"><feFlood flood-opacity="0" result="BackgroundImageFix"/><feBlend mode="normal" in="SourceGraphic" in2="BackgroundImageFix" result="shape"/><feGaussianBlur stdDeviation="80" result="effect1_foregroundBlur"/></filter><linearGradient x1="0.8518533110618591" y1="0.2962958812713623" x2="0.20635800063610077" y2="0.7824572920799255" id="master_svge_1_27709"><stop offset="0%" stop-color="#6943FF" stop-opacity="1"/><stop offset="50%" stop-color="#5FA8FF" stop-opacity="1"/><stop offset="100%" stop-color="#6FE5FF" stop-opacity="1"/></linearGradient><filter id="master_svgf_1_42359" filterUnits="objectBoundingBox" color-interpolation-filters="sRGB" x="-224" y="-224" width="1216.4710693359375" height="880.9772033691406"><feFlood flood-opacity="0" result="BackgroundImageFix"/><feBlend mode="normal" in="SourceGraphic" in2="BackgroundImageFix" result="shape"/><feGaussianBlur stdDeviation="56" result="effect1_foregroundBlur"/></filter><linearGradient x1="0.2777775526046753" y1="0.1666676104068756" x2="0.4061337411403656" y2="1.0440601110458374" id="master_svgg_1_27703"><stop offset="0%" stop-color="#6943FF" stop-opacity="1"/><stop offset="50%" stop-color="#5FA8FF" stop-opacity="1"/><stop offset="100%" stop-color="#6FE5FF" stop-opacity="1"/></linearGradient><filter id="master_svgh_1_42361" filterUnits="objectBoundingBox" color-interpolation-filters="sRGB" x="-224" y="-224" width="1216.4580078125" height="880.9940490722656"><feFlood flood-opacity="0" result="BackgroundImageFix"/><feBlend mode="normal" in="SourceGraphic" in2="BackgroundImageFix" result="shape"/><feGaussianBlur stdDeviation="56" result="effect1_foregroundBlur"/></filter><linearGradient x1="0.722225546836853" y1="0.8333333134651184" x2="0.5938567519187927" y2="-0.04405004531145096" id="master_svgi_1_27713"><stop offset="0%" stop-color="#6943FF" stop-opacity="1"/><stop offset="50%" stop-color="#5FA8FF" stop-opacity="1"/><stop offset="100%" stop-color="#6FE5FF" stop-opacity="1"/></linearGradient><filter id="master_svgj_1_42333" filterUnits="objectBoundingBox" color-interpolation-filters="sRGB" x="-108" y="-108" width="745.3670043945312" height="941.2673950195312"><feFlood flood-opacity="0" result="BackgroundImageFix"/><feBlend mode="normal" in="SourceGraphic" in2="BackgroundImageFix" result="shape"/><feGaussianBlur stdDeviation="27" result="effect1_foregroundBlur"/></filter><filter id="master_svgk_1_42367" filterUnits="objectBoundingBox" color-interpolation-filters="sRGB" x="-108" y="-108" width="872.0020141601562" height="1114.7669677734375"><feFlood flood-opacity="0" result="BackgroundImageFix"/><feBlend mode="normal" in="SourceGraphic" in2="BackgroundImageFix" result="shape"/><feGaussianBlur stdDeviation="27" result="effect1_foregroundBlur"/></filter><filter id="master_svgl_1_42327" filterUnits="objectBoundingBox" color-interpolation-filters="sRGB" x="-108" y="-108" width="855.116943359375" height="1091.6342163085938"><feFlood flood-opacity="0" result="BackgroundImageFix"/><feBlend mode="normal" in="SourceGraphic" in2="BackgroundImageFix" result="shape"/><feGaussianBlur stdDeviation="27" result="effect1_foregroundBlur"/></filter><filter id="master_svgm_1_42329" filterUnits="objectBoundingBox" color-interpolation-filters="sRGB" x="-108" y="-108" width="745.3670043945312" height="941.267333984375"><feFlood flood-opacity="0" result="BackgroundImageFix"/><feBlend mode="normal" in="SourceGraphic" in2="BackgroundImageFix" result="shape"/><feGaussianBlur stdDeviation="27" result="effect1_foregroundBlur"/></filter><linearGradient x1="0.94062340259552" y1="0.05937790870666504" x2="-0.12181904911994934" y2="0.8781827688217163" id="master_svgn_1_27778"><stop offset="0%" stop-color="#000000" stop-opacity="0"/><stop offset="77.20000147819519%" stop-color="#000000" stop-opacity="1"/><stop offset="100%" stop-color="#000000" stop-opacity="1"/></linearGradient><filter id="master_svgo_1_42369" filterUnits="objectBoundingBox" color-interpolation-filters="sRGB" x="-144" y="-144" width="810.48095703125" height="901.0726318359375"><feFlood flood-opacity="0" result="BackgroundImageFix"/><feBlend mode="normal" in="SourceGraphic" in2="BackgroundImageFix" result="shape"/><feGaussianBlur stdDeviation="36" result="effect1_foregroundBlur"/></filter><filter id="master_svgp_1_42365" filterUnits="objectBoundingBox" color-interpolation-filters="sRGB" x="-144" y="-144" width="935.4700317382812" height="1047.7313232421875"><feFlood flood-opacity="0" result="BackgroundImageFix"/><feBlend mode="normal" in="SourceGraphic" in2="BackgroundImageFix" result="shape"/><feGaussianBlur stdDeviation="36" result="effect1_foregroundBlur"/></filter><filter id="master_svgq_1_42363" filterUnits="objectBoundingBox" color-interpolation-filters="sRGB" x="-144" y="-144" width="918.8089599609375" height="1028.1768798828125"><feFlood flood-opacity="0" result="BackgroundImageFix"/><feBlend mode="normal" in="SourceGraphic" in2="BackgroundImageFix" result="shape"/><feGaussianBlur stdDeviation="36" result="effect1_foregroundBlur"/></filter><filter id="master_svgr_1_42346" filterUnits="objectBoundingBox" color-interpolation-filters="sRGB" x="-144" y="-144" width="810.4849853515625" height="901.0714721679688"><feFlood flood-opacity="0" result="BackgroundImageFix"/><feBlend mode="normal" in="SourceGraphic" in2="BackgroundImageFix" result="shape"/><feGaussianBlur stdDeviation="36" result="effect1_foregroundBlur"/></filter><linearGradient x1="0.05937778577208519" y1="0.9406222701072693" x2="0.9767400026321411" y2="-0.02326178178191185" id="master_svgs_1_27719"><stop offset="0%" stop-color="#000000" stop-opacity="0"/><stop offset="77.20000147819519%" stop-color="#000000" stop-opacity="1"/><stop offset="100%" stop-color="#000000" stop-opacity="1"/></linearGradient></defs><g mask="url(#master_svg0_1_42454)"><g style="opacity:0.5;"><g><g style="opacity:0.4000000059604645;" filter="url(#master_svg1_1_42335)"><g filter="url(#master_svg2_1_42344)"><g><path d="M1355.9088125,416.4369216772461C1495.6888125,400.7480816772461,1553.8888124999999,493.26088167724606,1485.8888124999999,623.069781677246C1417.8888124999999,752.8797816772461,1249.4448125,870.8277816772461,1109.6598125,886.5167816772462C969.8750125,902.205781677246,911.6810125,809.6927816772461,979.6800125,679.8837816772461C1047.6790125,550.0747816772462,1216.1218125,432.1257816772461,1355.9088125,416.4369216772461Z" fill="#33BDF8" fill-opacity="1"/></g></g><g filter="url(#master_svg3_1_42340)"><g><path d="M1355.9088125,416.4369216772461C1495.6888125,400.7480816772461,1553.8888124999999,493.26088167724606,1485.8888124999999,623.069781677246C1417.8888124999999,752.8797816772461,1249.4448125,870.8277816772461,1109.6598125,886.5167816772462C969.8750125,902.205781677246,911.6810125,809.6927816772461,979.6800125,679.8837816772461C1047.6790125,550.0747816772462,1216.1218125,432.1257816772461,1355.9088125,416.4369216772461Z" fill="#33BDF8" fill-opacity="1"/></g></g><g filter="url(#master_svg4_1_42336)"><g><path d="M1406.3090625,249.9358524604492C1471.5190625,242.61705446044922,1498.6690625,285.77448446044923,1466.9490625,346.3298844604492C1435.2190625,406.8868844604492,1356.6490625000001,461.9108844604492,1291.4341625,469.2288844604492C1226.2241925,476.5478844604492,1199.0761625,433.39088446044923,1230.7981625,372.8338844604492C1262.5201625,312.27738446044924,1341.0990625,257.2546544604492,1406.3090625,249.9358524604492Z" fill="#5FA8FF" fill-opacity="1"/></g></g><g filter="url(#master_svg5_1_42342)"><g><path d="M919.0264999999999,312.0453081994629C1112.4885,277.3276481994629,1210.7935,389.8543481994629,1138.5974999999999,563.3807481994629C1066.4025000000001,736.9057481994629,851.0435,905.7227481994629,657.5825,940.4397481994629C464.1205,975.1567481994629,365.8145,862.6307481994629,438.0105,689.1047481994628C510.2065,515.5777481994629,725.5645,346.7630481994629,919.0264999999999,312.0453081994629Z" fill="#6943FF" fill-opacity="1"/></g></g><g style="opacity:0.6000000238418579;" filter="url(#master_svg6_1_42338)"><g><path d="M919.0264999999999,312.0453081994629C1112.4885,277.3276481994629,1210.7935,389.8543481994629,1138.5974999999999,563.3807481994629C1066.4025000000001,736.9057481994629,851.0435,905.7227481994629,657.5825,940.4397481994629C464.1205,975.1567481994629,365.8145,862.6307481994629,438.0105,689.1047481994628C510.2065,515.5777481994629,725.5645,346.7630481994629,919.0264999999999,312.0453081994629Z" fill="#6943FF" fill-opacity="1"/></g></g></g><g style="opacity:0.4000000059604645;"><g style="opacity:0.4000000059604645;" filter="url(#master_svg7_1_42349)"><g><path d="M616.2315625,616.0108271789551C616.2315625,616.0108271789551,407.3515625,696.5538271789551,407.3515625,696.5538271789551C407.3515625,696.5538271789551,511.7915625,535.468827178955,511.7915625,535.468827178955C511.7915625,535.468827178955,903.4395625,233.43372717895508,903.4395625,233.43372717895508C903.4395625,233.43372717895508,1112.3195624999998,152.89082717895508,1112.3195624999998,152.89082717895508C1112.3195624999998,152.89082717895508,1007.8795625,313.9768271789551,1007.8795625,313.9768271789551C1007.8795625,313.9768271789551,616.2315625,616.0108271789551,616.2315625,616.0108271789551Z" fill="url(#master_svg8_1_27736)" fill-opacity="1"/></g></g><g style="opacity:0.30000001192092896;" filter="url(#master_svg9_1_42353)"><g><path d="M1143.5384374999999,448.7813141479492C1143.5384374999999,448.7813141479492,1271.6164374999998,569.0553141479493,1271.6164374999998,569.0553141479493C1271.6164374999998,569.0553141479493,1058.1534375,496.89131414794923,1058.1534375,496.89131414794923C1058.1534375,496.89131414794923,631.2264375,256.3423141479492,631.2264375,256.3423141479492C631.2264375,256.3423141479492,503.1484375,136.06731414794922,503.1484375,136.06731414794922C503.1484375,136.06731414794922,716.6124374999999,208.23181414794922,716.6124374999999,208.23181414794922C716.6124374999999,208.23181414794922,1143.5384374999999,448.7813141479492,1143.5384374999999,448.7813141479492Z" fill="url(#master_svga_1_27732)" fill-opacity="1"/></g></g><g style="opacity:0.30000001192092896;" filter="url(#master_svgb_1_42351)"><g><path d="M375.079,400.6659400024414C375.079,400.6659400024414,247,280.3869400024414,247,280.3869400024414C247,280.3869400024414,460.462,352.5538400024414,460.462,352.5538400024414C460.462,352.5538400024414,887.385,593.1129400024414,887.385,593.1129400024414C887.385,593.1129400024414,1015.462,713.3919400024414,1015.462,713.3919400024414C1015.462,713.3919400024414,802,641.2249400024414,802,641.2249400024414C802,641.2249400024414,375.079,400.6659400024414,375.079,400.6659400024414Z" fill="url(#master_svgc_1_27728)" fill-opacity="1"/></g></g></g><g style="opacity:0.4000000059604645;"><g style="opacity:0.4000000059604645;" filter="url(#master_svgd_1_42357)"><g><path d="M959.3795625,853.3583544311523C959.3795625,853.3583544311523,770.3515625,965.9723544311523,770.3515625,965.9723544311523C770.3515625,965.9723544311523,864.8655625,740.7443544311524,864.8655625,740.7443544311524C864.8655625,740.7443544311524,1219.2935625,318.44235443115235,1219.2935625,318.44235443115235C1219.2935625,318.44235443115235,1408.3205625,205.82735443115234,1408.3205625,205.82735443115234C1408.3205625,205.82735443115234,1313.8075625000001,431.05535443115235,1313.8075625000001,431.05535443115235C1313.8075625000001,431.05535443115235,959.3795625,853.3583544311523,959.3795625,853.3583544311523Z" fill="url(#master_svge_1_27709)" fill-opacity="1"/></g></g><g style="opacity:0.30000001192092896;" filter="url(#master_svgf_1_42359)"><g><path d="M1473.5394375,609.9586016235352C1473.5394375,609.9586016235352,1601.6194375,730.2296016235351,1601.6194375,730.2296016235351C1601.6194375,730.2296016235351,1388.1494375,658.0676016235352,1388.1494375,658.0676016235352C1388.1494375,658.0676016235352,961.2264375,417.52360162353517,961.2264375,417.52360162353517C961.2264375,417.52360162353517,833.1484375,297.25260162353516,833.1484375,297.25260162353516C833.1484375,297.25260162353516,1046.6124375,369.4158016235352,1046.6124375,369.4158016235352C1046.6124375,369.4158016235352,1473.5394375,609.9586016235352,1473.5394375,609.9586016235352Z" fill="url(#master_svgg_1_27703)" fill-opacity="1"/></g></g><g style="opacity:0.30000001192092896;" filter="url(#master_svgh_1_42361)"><g><path d="M705.077,561.8446721801757C705.077,561.8446721801757,577,441.5686721801758,577,441.5686721801758C577,441.5686721801758,790.462,513.7343721801758,790.462,513.7343721801758C790.462,513.7343721801758,1217.385,754.2866721801759,1217.385,754.2866721801759C1217.385,754.2866721801759,1345.458,874.5626721801758,1345.458,874.5626721801758C1345.458,874.5626721801758,1132,802.3966721801758,1132,802.3966721801758C1132,802.3966721801758,705.077,561.8446721801757,705.077,561.8446721801757Z" fill="url(#master_svgi_1_27713)" fill-opacity="1"/></g></g></g><g style="mix-blend-mode:overlay" filter="url(#master_svgj_1_42333)"><g><path d="M705.98175,294.6671138305664C705.98175,294.6671138305664,980.58575,-32.484886169433594,980.58575,-32.484886169433594C980.58575,-32.484886169433594,741.79975,343.74011383056643,741.79975,343.74011383056643C741.79975,343.74011383056643,678.06475,431.0601138305664,678.06475,431.0601138305664C678.06475,431.0601138305664,451.21875,692.7821138305665,451.21875,692.7821138305665C451.21875,692.7821138305665,642.24675,381.9881138305664,642.24675,381.9881138305664C642.24675,381.9881138305664,705.98175,294.6671138305664,705.98175,294.6671138305664Z" fill="#091135" fill-opacity="1"/></g></g><g style="mix-blend-mode:overlay" filter="url(#master_svgk_1_42367)"><g><path d="M973.43025,288.0976844329834C973.43025,288.0976844329834,1248.03325,-39.0543155670166,1248.03325,-39.0543155670166C1248.03325,-39.0543155670166,1009.24725,337.1706844329834,1009.24725,337.1706844329834C1009.24725,337.1706844329834,818.87725,597.9906844329834,818.87725,597.9906844329834C818.87725,597.9906844329834,592.03125,859.7126844329835,592.03125,859.7126844329835C592.03125,859.7126844329835,783.05925,548.9176844329834,783.05925,548.9176844329834C783.05925,548.9176844329834,973.43025,288.0976844329834,973.43025,288.0976844329834Z" fill="#091135" fill-opacity="1"/></g></g><g style="mix-blend-mode:overlay" filter="url(#master_svgl_1_42327)"><g><path d="M1202.7962499999999,337.8114085693359C1202.7962499999999,337.8114085693359,1477.39825,10.659408569335938,1477.39825,10.659408569335938C1477.39825,10.659408569335938,1238.6132499999999,386.88540856933594,1238.6132499999999,386.88540856933594C1238.6132499999999,386.88540856933594,1065.12825,624.571408569336,1065.12825,624.571408569336C1065.12825,624.571408569336,838.28125,886.293408569336,838.28125,886.293408569336C838.28125,886.293408569336,1029.31025,575.498408569336,1029.31025,575.498408569336C1029.31025,575.498408569336,1202.7962499999999,337.8114085693359,1202.7962499999999,337.8114085693359Z" fill="#091135" fill-opacity="1"/></g></g><g style="mix-blend-mode:overlay" filter="url(#master_svgm_1_42329)"><g><path d="M827.559875,668.4075160522461C827.559875,668.4075160522461,1102.163875,341.2555160522461,1102.163875,341.2555160522461C1102.163875,341.2555160522461,863.377875,717.4805160522461,863.377875,717.4805160522461C863.377875,717.4805160522461,799.642875,804.8005160522462,799.642875,804.8005160522462C799.642875,804.8005160522462,572.796875,1066.5225160522461,572.796875,1066.5225160522461C572.796875,1066.5225160522461,763.824875,755.728516052246,763.824875,755.728516052246C763.824875,755.728516052246,827.559875,668.4075160522461,827.559875,668.4075160522461Z" fill="url(#master_svgn_1_27778)" fill-opacity="1"/></g></g><g style="mix-blend-mode:overlay" filter="url(#master_svgo_1_42369)"><g><path d="M1217.1814375,578.4815375366211C1217.1814375,578.4815375366211,946.1484375,855.0255375366211,946.1484375,855.0255375366211C946.1484375,855.0255375366211,1181.8294375,537.0005375366211,1181.8294375,537.0005375366211C1181.8294375,537.0005375366211,1244.7364375,463.1875375366211,1244.7364375,463.1875375366211C1244.7364375,463.1875375366211,1468.6294375,241.9525375366211,1468.6294375,241.9525375366211C1468.6294375,241.9525375366211,1280.0884375,504.6695375366211,1280.0884375,504.6695375366211C1280.0884375,504.6695375366211,1217.1814375,578.4815375366211,1217.1814375,578.4815375366211Z" fill="#091135" fill-opacity="1"/></g></g><g style="mix-blend-mode:overlay" filter="url(#master_svgp_1_42365)"><g><path d="M1073.0418125,439.95578030395507C1073.0418125,439.95578030395507,802.0078125,716.4987803039551,802.0078125,716.4987803039551C802.0078125,716.4987803039551,1037.6898125,398.4747803039551,1037.6898125,398.4747803039551C1037.6898125,398.4747803039551,1225.5848125,178.0027803039551,1225.5848125,178.0027803039551C1225.5848125,178.0027803039551,1449.4778125,-43.23221969604492,1449.4778125,-43.23221969604492C1449.4778125,-43.23221969604492,1260.9378125,219.4837803039551,1260.9378125,219.4837803039551C1260.9378125,219.4837803039551,1073.0418125,439.95578030395507,1073.0418125,439.95578030395507Z" fill="#091135" fill-opacity="1"/></g></g><g style="mix-blend-mode:overlay" filter="url(#master_svgq_1_42363)"><g><path d="M846.659,397.93227117919923C846.659,397.93227117919923,575.625,674.4752711791992,575.625,674.4752711791992C575.625,674.4752711791992,811.307,356.4502711791992,811.307,356.4502711791992C811.307,356.4502711791992,982.537,155.53327117919923,982.537,155.53327117919923C982.537,155.53327117919923,1206.434,-65.70172882080078,1206.434,-65.70172882080078C1206.434,-65.70172882080078,1017.889,197.0152711791992,1017.889,197.0152711791992C1017.889,197.0152711791992,846.659,397.93227117919923,846.659,397.93227117919923Z" fill="#091135" fill-opacity="1"/></g></g><g style="mix-blend-mode:overlay" filter="url(#master_svgr_1_42346)"><g><path d="M653.018375,317.4941679992676C653.018375,317.4941679992676,381.984375,594.0361679992676,381.984375,594.0361679992676C381.984375,594.0361679992676,617.666375,276.0121679992676,617.666375,276.0121679992676C617.666375,276.0121679992676,680.572375,202.2001679992676,680.572375,202.2001679992676C680.572375,202.2001679992676,904.469375,-19.034832000732422,904.469375,-19.034832000732422C904.469375,-19.034832000732422,715.924375,243.6811679992676,715.924375,243.6811679992676C715.924375,243.6811679992676,653.018375,317.4941679992676,653.018375,317.4941679992676Z" fill="url(#master_svgs_1_27719)" fill-opacity="1"/></g></g></g></g></g></svg>