<svg xmlns="http://www.w3.org/2000/svg" xmlns:xlink="http://www.w3.org/1999/xlink" fill="none" version="1.1" width="117.18896484375" height="132.62109375" viewBox="0 0 117.18896484375 132.62109375"><g transform="matrix(0.0848262831568718,0.9963957667350769,-0.9963957667350769,0.0848262831568718,97.62254538835259,-106.28719744717682)"><g><path d="M106.67171001633804,69.6211645904541Q107.15671350933803,70.6621645904541,107.67868350933803,71.6853645904541Q108.20065350933804,72.7085645904541,108.75893350933804,73.7127645904541Q109.31721350933803,74.7169645904541,109.91109350933803,75.7007645904541Q110.50497350933803,76.6845645904541,111.13370350933803,77.6468645904541Q111.76243350933804,78.6091645904541,112.42522350933802,79.5485645904541Q113.08800350933804,80.4880645904541,113.78401350933804,81.4035645904541Q114.48002350933803,82.3190645904541,115.20837350933803,83.2093645904541Q115.93671350933803,84.0997645904541,116.69652350933804,84.96386459045411Q117.45622350933803,85.8279645904541,118.24652350933803,86.6646645904541Q119.03672350933803,87.5014645904541,119.85642350933803,88.30976459045411Q120.67612350933803,89.1180645904541,121.52422350933803,89.8969645904541Q122.37232350933803,90.6758645904541,123.24772350933803,91.4243645904541Q124.12322350933803,92.1728645904541,125.02492350933804,92.8900645904541Q125.92662350933803,93.6071645904541,126.85342350933803,94.2919645904541Q127.78032350933803,94.9768645904541,128.73102350933803,95.6285645904541Q129.68182350933802,96.2803645904541,130.65532350933802,96.8980645904541Q131.62882350933802,97.5158645904541,132.62382350933802,98.0988645904541Q133.61872350933803,98.6819645904541,134.63402350933802,99.2294645904541Q135.64922350933804,99.7770645904541,136.68342350933804,100.2884645904541Q137.71762350933804,100.7998645904541,138.76952350933803,101.2744645904541Q139.82142350933805,101.7490645904541,140.88962350933804,102.1861645904541Q141.95772350933802,102.6233645904541,143.04092350933803,103.0225645904541Q144.12412350933803,103.4217645904541,145.22092350933804,103.7824645904541Q146.31762350933803,104.1432645904541,147.42662350933804,104.4650645904541Q148.53562350933802,104.7868645904541,149.65552350933802,105.0695645904541Q150.77532350933802,105.3515645904541,151.90452350933805,105.5945645904541Q153.03372350933802,105.83756459045411,154.17102350933803,106.0405645904541Q155.30822350933803,106.24256459045411,156.45192350933803,106.4055645904541Q157.59572350933803,106.5685645904541,158.74452350933802,106.6905645904541Q159.89342350933805,106.8125645904541,161.04592350933802,106.8935645904541Q162.19842350933803,106.9755645904541,163.35312350933805,107.0155645904541Q164.50772350933804,107.0565645904541,165.66322350933802,107.0565645904541Q167.25872350933804,107.0565645904541,168.85232350933802,106.9795645904541Q170.44592350933803,106.9015645904541,172.03382350933805,106.7465645904541Q173.62162350933804,106.59056459045411,175.19992350933802,106.35856459045411Q176.77822350933803,106.1255645904541,178.34302350933802,105.8175645904541Q179.90792350933805,105.5085645904541,181.45562350933804,105.1235645904541Q183.00332350933803,104.7383645904541,184.53022350933804,104.2786645904541Q186.05702350933802,103.8188645904541,187.55932350933801,103.2852645904541Q189.06152350933803,102.7517645904541,190.53562350933805,102.1456645904541Q192.00972350933802,101.5394645904541,193.45202350933803,100.8623645904541Q194.89442350933803,100.18516459045411,196.30152350933804,99.4385645904541Q197.70872350933803,98.6919645904541,199.077223509338,97.8776645904541Q200.44572350933805,97.0634645904541,201.772423509338,96.18346459045411Q203.09902350933805,95.3035645904541,204.38062350933802,94.3600645904541Q205.66212350933802,93.4165645904541,206.89502350933805,92.4118645904541Q208.12902350933803,91.4070645904541,209.31102350933804,90.3434645904541Q210.49302350933803,89.2797645904541,211.62102350933804,88.1598645904541Q212.75002350933804,87.0399645904541,213.82102350933803,85.8663645904541Q214.89302350933804,84.6928645904541,215.90502350933804,83.46856459045411Q216.91702350933804,82.2441645904541,217.86802350933803,80.9720645904541Q218.81802350933805,79.6998645904541,219.70402350933801,78.38296459045411Q220.59102350933802,77.0660645904541,221.41102350933804,75.7075645904541Q222.23102350933803,74.3490645904541,222.98402350933804,72.9522645904541Q223.73602350933803,71.55546459045411,224.418023509338,70.1236645904541Q225.10002350933803,68.69196459045409,225.71102350933802,67.2286645904541Q226.32102350933803,65.76536459045411,226.85902350933804,64.27416459045409Q227.39602350933802,62.7828645904541,227.85902350933804,61.267264590454104Q228.32302350933804,59.751664590454105,228.71002350933804,58.215264590454105Q229.09802350933802,56.678864590454104,229.40902350933803,55.1254645904541Q229.72002350933803,53.572064590454104,229.95502350933805,52.0054645904541Q230.18902350933803,50.4387645904541,230.34502350933803,48.8625645904541Q230.50102350933804,47.2863645904541,230.58002350933805,45.7043645904541Q230.65802350933802,44.1224645904541,230.65802350933802,42.538664590454104Q230.65802350933802,41.2887645904541,230.60902350933804,40.039764590454105Q230.56102350933804,38.7908645904541,230.46302350933803,37.544664590454104Q230.36602350933805,36.298564590454106,230.22002350933803,35.057064590454104Q230.07402350933802,33.815664590454105,229.87902350933803,32.5807645904541Q229.68502350933804,31.345764590454102,229.44302350933805,30.1192645904541Q229.20002350933805,28.892764590454103,228.91002350933803,27.676464590454103Q228.620023509338,26.460164590454102,228.28302350933802,25.255964590454102Q227.94502350933803,24.051764590454102,227.56102350933804,22.8614645904541Q227.17702350933803,21.6710645904541,226.74702350933802,20.4963645904541Q226.31702350933801,19.321664590454102,225.84102350933802,18.164464590454102Q225.36602350933805,17.007164590454103,224.84502350933803,15.869064590454101Q224.32502350933805,14.730954590454102,223.76002350933803,13.613714590454101Q223.19602350933803,12.496464590454101,222.58802350933803,11.401764590454102Q221.98002350933803,10.3070645904541,221.33102350933802,9.236544590454102Q220.68102350933805,8.166024590454102,219.98902350933804,7.121294590454101Q219.29802350933804,6.076564590454101,218.56702350933801,5.059194793454101L212.95502350933805,8.296884590454102Q213.63502350933803,9.221504590454103,214.27702350933805,10.171964590454103Q214.91902350933805,11.122434590454102,215.52302350933803,12.097254590454101Q216.12702350933802,13.072084590454102,216.69202350933801,14.0697645904541Q217.257023509338,15.067464590454101,217.78202350933805,16.0864645904541Q218.30702350933802,17.1053645904541,218.79102350933803,18.144164590454103Q219.27502350933804,19.182864590454102,219.71702350933805,20.2396645904541Q220.15902350933803,21.2964645904541,220.56002350933804,22.3697645904541Q220.96002350933804,23.443064590454103,221.31702350933801,24.5311645904541Q221.67402350933804,25.6192645904541,221.98802350933803,26.720464590454103Q222.30202350933803,27.8217645904541,222.57202350933804,28.934364590454102Q222.84202350933805,30.046964590454103,223.06802350933805,31.1693645904541Q223.293023509338,32.291664590454104,223.47402350933805,33.4219645904541Q223.65502350933804,34.5522645904541,223.79102350933803,35.6886645904541Q223.92702350933803,36.8251645904541,224.01702350933803,37.9660645904541Q224.10802350933804,39.106964590454105,224.15402350933803,40.2504645904541Q224.19902350933802,41.3940645904541,224.19902350933802,42.5385645904541Q224.19902350933802,43.9649645904541,224.12802350933805,45.3896645904541Q224.05802350933803,46.814364590454105,223.91702350933804,48.2339645904541Q223.77602350933802,49.6534645904541,223.56502350933803,51.0644645904541Q223.35402350933805,52.4754645904541,223.07402350933802,53.8744645904541Q222.79402350933805,55.2735645904541,222.44502350933803,56.657264590454105Q222.09602350933804,58.0408645904541,221.67802350933803,59.4058645904541Q221.26102350933803,60.7709645904541,220.77702350933805,62.1139645904541Q220.293023509338,63.4569645904541,219.74302350933803,64.7748645904541Q219.19302350933805,66.0927645904541,218.57902350933801,67.3821645904541Q217.96402350933803,68.6716645904541,217.28702350933804,69.9296645904541Q216.61002350933802,71.1876645904541,215.87102350933804,72.4111645904541Q215.132023509338,73.63466459045411,214.33402350933804,74.8206645904541Q213.53602350933804,76.0067645904541,212.67902350933804,77.1524645904541Q211.82302350933804,78.2981645904541,210.91202350933804,79.4008645904541Q210.00002350933804,80.5034645904541,209.03502350933803,81.5603645904541Q208.07002350933803,82.6172645904541,207.05402350933804,83.6259645904541Q206.03812350933805,84.6345645904541,204.97342350933803,85.5925645904541Q203.90862350933804,86.5504645904541,202.79782350933803,87.4553645904541Q201.68702350933802,88.36026459045411,200.53292350933805,89.2100645904541Q199.37872350933804,90.05976459045411,198.18392350933803,90.8522645904541Q196.98912350933801,91.6446645904541,195.75652350933802,92.3780645904541Q194.52402350933804,93.1113645904541,193.25672350933803,93.7837645904541Q191.98942350933805,94.45616459045411,190.69042350933802,95.0660645904541Q189.39142350933804,95.6759645904541,188.06382350933802,96.2218645904541Q186.73622350933803,96.7676645904541,185.38322350933805,97.2482645904541Q184.03032350933802,97.7287645904541,182.65522350933804,98.1428645904541Q181.280123509338,98.5569645904541,179.88622350933804,98.9035645904541Q178.49232350933804,99.2501645904541,177.08292350933803,99.5283645904541Q175.67352350933803,99.8066645904541,174.25212350933805,100.0159645904541Q172.83072350933804,100.2252645904541,171.40072350933804,100.3651645904541Q169.97062350933803,100.50496459045411,168.53542350933805,100.5749645904541Q167.10012350933803,100.64496459045411,165.66312350933805,100.64496459045411Q164.61312350933804,100.64496459045411,163.56372350933805,100.6075645904541Q162.51442350933803,100.5701645904541,161.46702350933805,100.4954645904541Q160.41972350933804,100.4206645904541,159.37572350933803,100.3087645904541Q158.33172350933802,100.19676459045411,157.29252350933803,100.04776459045411Q156.25322350933803,99.8986645904541,155.22002350933803,99.7126645904541Q154.18682350933804,99.5267645904541,153.16102350933804,99.3041645904541Q152.13522350933803,99.0814645904541,151.11812350933803,98.8224645904541Q150.10102350933803,98.5634645904541,149.09392350933803,98.2684645904541Q148.08682350933805,97.9733645904541,147.09102350933802,97.6426645904541Q146.09522350933804,97.3119645904541,145.11202350933803,96.9460645904541Q144.12882350933802,96.5800645904541,143.15952350933804,96.1793645904541Q142.19012350933804,95.7786645904541,141.23592350933802,95.3436645904541Q140.28162350933803,94.90866459045411,139.34372350933802,94.4400645904541Q138.40582350933803,93.9713645904541,137.48542350933803,93.4695645904541Q136.56502350933803,92.9678645904541,135.66342350933803,92.4336645904541Q134.76172350933803,91.8994645904541,133.87992350933803,91.3334645904541Q132.99822350933803,90.7674645904541,132.13742350933802,90.1704645904541Q131.27662350933804,89.57346459045411,130.43802350933802,88.9462645904541Q129.59942350933804,88.3189645904541,128.78392350933802,87.6622645904541Q127.96852350933804,87.0055645904541,127.17732350933804,86.3202645904541Q126.38612350933803,85.6349645904541,125.62022350933803,84.9219645904541Q124.85432350933803,84.2088645904541,124.11462350933803,83.4690645904541Q123.37502350933804,82.7291645904541,122.66252350933803,81.9634645904541Q121.95012350933803,81.1977645904541,121.26582350933803,80.4071645904541Q120.58142350933804,79.6165645904541,119.92612350933803,78.8021645904541Q119.27082350933803,77.9877645904541,118.64532350933803,77.1504645904541Q118.01982350933804,76.3132645904541,117.42502350933803,75.4542645904541Q116.83022350933803,74.5953645904541,116.26681350933804,73.7157645904541Q115.70341350933803,72.8360645904541,115.17214350933803,71.9370645904541Q114.64088350933804,71.0379645904541,114.14245350933803,70.1204645904541Q113.64401350933804,69.2030645904541,113.17904350933803,68.2684645904541Q112.71407350933804,67.3339645904541,112.28317350933803,66.38336459045411L106.67171001633804,69.6211645904541Z" fill-rule="evenodd" fill="#0076BD" fill-opacity="1"/></g><g><path d="M125.31060701987305,71.20389371237401Q125.73715149487305,71.80319371237401,126.18160049487305,72.38969371237401Q126.62605349487305,72.97609371237401,127.08800349487305,73.549193712374Q127.54996349487304,74.12219371237401,128.02901349487306,74.68129371237401Q128.50806349487306,75.24039371237401,129.00378349487303,75.784993712374Q129.49950349487304,76.32969371237401,130.01144349487305,76.85939371237401Q130.52338349487306,77.38919371237401,131.05108349487304,77.90349371237401Q131.57879349487305,78.41789371237401,132.12179349487306,78.91629371237401Q132.66478349487303,79.414793712374,133.22259349487305,79.89699371237401Q133.78040349487304,80.379193712374,134.35251349487305,80.84469371237401Q134.92463349487304,81.31019371237402,135.51056349487305,81.758493712374Q136.09646349487303,82.20679371237401,136.69566349487306,82.63749371237401Q137.29486349487306,83.06829371237401,137.90676349487305,83.48119371237401Q138.51866349487304,83.89399371237401,139.14276349487304,84.288493712374Q139.76686349487304,84.68299371237401,140.40266349487305,85.05889371237402Q141.03836349487304,85.434793712374,141.68526349487306,85.79169371237401Q142.33206349487304,86.14859371237401,142.98936349487303,86.486193712374Q143.64666349487305,86.82369371237401,144.31386349487303,87.141693712374Q144.98106349487304,87.459693712374,145.65756349487305,87.757693712374Q146.33406349487305,88.05579371237401,147.01926349487306,88.33369371237401Q147.70436349487304,88.611593712374,148.39766349487306,88.86909371237401Q149.09096349487305,89.126593712374,149.79176349487304,89.36349371237401Q150.49246349487305,89.60029371237401,151.20006349487304,89.816293712374Q151.90766349487305,90.03229371237401,152.62146349487304,90.227293712374Q153.33516349487306,90.42219371237401,154.05456349487304,90.59599371237401Q154.77386349487304,90.769693712374,155.49816349487304,90.92209371237401Q156.22246349487304,91.074393712374,156.95106349487304,91.20529371237402Q157.67956349487304,91.33609371237401,158.41176349487304,91.44529371237401Q159.14396349487305,91.55459371237401,159.87906349487304,91.642093712374Q160.61426349487306,91.72959371237401,161.35166349487304,91.795293712374Q162.08916349487305,91.86089371237401,162.82826349487306,91.90479371237402Q163.56736349487306,91.948593712374,164.30746349487305,91.97049371237401Q165.04766349487306,91.99239371237401,165.78806349487306,91.99239371237401Q167.00366349487305,91.99239371237401,168.21786349487303,91.93339371237401Q169.43206349487303,91.87429371237401,170.64186349487306,91.756293712374Q171.85166349487304,91.63829371237401,173.05406349487305,91.46169371237401Q174.25656349487303,91.284993712374,175.44886349487305,91.05019371237401Q176.64116349487304,90.81529371237401,177.82036349487305,90.52279371237401Q178.99956349487303,90.230293712374,180.16286349487305,89.880893712374Q181.32616349487304,89.53139371237401,182.47076349487304,89.12589371237401Q183.61526349487303,88.72029371237402,184.73836349487306,88.25969371237402Q185.86146349487305,87.79899371237401,186.96046349487304,87.28429371237401Q188.05936349487305,86.769593712374,189.13146349487306,86.20209371237401Q190.20356349487304,85.63469371237402,191.24626349487306,85.015793712374Q192.28896349487303,84.39689371237401,193.29966349487304,83.728093712374Q194.31046349487303,83.05929371237401,195.28686349487305,82.34219371237401Q196.26326349487306,81.62509371237401,197.20296349487305,80.86139371237401Q198.14266349487303,80.09779371237401,199.04346349487304,79.289293712374Q199.94416349487307,78.48089371237401,200.80376349487307,77.629693712374Q201.66336349487307,76.77849371237401,202.47966349487305,75.886493712374Q203.29606349487307,74.99449371237401,204.06726349487303,74.06399371237401Q204.83846349487305,73.13339371237402,205.56266349487305,72.166493712374Q206.28676349487304,71.19959371237401,206.96216349487304,70.19869371237401Q207.63756349487306,69.19779371237401,208.26246349487303,68.165193712374Q208.88746349487303,67.132693712374,209.46046349487307,66.07109371237401Q210.03356349487305,65.009393712374,210.55326349487305,63.921193712374006Q211.07306349487305,62.83299371237401,211.53826349487304,61.72079371237401Q212.00346349487305,60.60859371237401,212.41296349487305,59.47519371237401Q212.82256349487307,58.341793712374006,213.17546349487304,57.18979371237401Q213.52826349487304,56.03779371237401,213.82366349487305,54.87009371237401Q214.11906349487305,53.70239371237401,214.35626349487305,52.52169371237401Q214.59336349487305,51.34099371237401,214.77176349487303,50.15029371237401Q214.95016349487304,48.95949371237401,215.06926349487304,47.76149371237401Q215.18846349487305,46.56349371237401,215.24806349487307,45.36109371237401Q215.30776349487303,44.158793712374006,215.30776349487303,42.95499371237401Q215.30776349487303,42.13699371237401,215.28016349487305,41.31949371237401Q215.25266349487305,40.50199371237401,215.19756349487307,39.68579371237401Q215.14246349487303,38.86969371237401,215.05996349487305,38.05579371237401Q214.97746349487306,37.24199371237401,214.86756349487305,36.43129371237401Q214.75766349487304,35.62059371237401,214.62056349487307,34.81389371237401Q214.48346349487304,34.00729371237401,214.31916349487307,33.20569371237401Q214.15496349487304,32.40409371237401,213.96386349487307,31.60829371237401Q213.77276349487306,30.81249371237401,213.55486349487305,30.02349371237401Q213.33706349487306,29.23449371237401,213.09276349487305,28.45309371237401Q212.84856349487305,27.671793712374008,212.57806349487305,26.898893712374008Q212.30766349487305,26.125993712374008,212.01126349487305,25.362493712374008Q211.71496349487305,24.59899371237401,211.39306349487305,23.845693712374008Q211.07116349487305,23.092393712374008,210.72406349487306,22.350093712374008Q210.37706349487303,21.607893712374008,210.00516349487305,20.877493712374008Q209.63326349487306,20.14709371237401,209.23696349487307,19.429393712374008Q208.84076349487304,18.71179371237401,208.42046349487305,18.00759371237401Q208.00026349487305,17.30339371237401,207.55656349487305,16.61339371237401Q207.11286349487307,15.92349371237401,206.64616349487306,15.24859371237401Q206.17946349487306,14.57369371237401,205.69026349487305,13.914593712374009Q205.20116349487304,13.25549371237401,204.69006349487304,12.612893712374008Q204.17896349487305,11.970293712374009,203.64646349487305,11.34499371237401Q203.11406349487305,10.71969371237401,202.56086349487305,10.11219371237401Q202.00756349487307,9.504833712374008,201.43426349487305,8.91602371237401Q200.86086349487306,8.327223712374009,200.26796349487304,7.757683712374009Q199.67516349487306,7.188153712374009,199.06336349487304,6.638513712374009Q198.45166349487306,6.088873712374009,197.82176349487304,5.559743712374009Q197.19186349487305,5.030603712374009,196.54446349487304,4.522573712374009Q195.89716349487304,4.014543712374009,195.23296349487305,3.5281737123740093Q194.56886349487303,3.0418037123740094,193.88876349487305,2.577633712374009Q193.20866349487306,2.113473712374009,192.51326349487306,1.6720237123740092Q191.81786349487305,1.230583712374009,191.10796349487305,0.8123457123740092Q190.39806349487304,0.3941127123740092,189.67456349487304,-0.000443618625990808L185.24736349487304,4.897243712374009Q185.90926349487304,5.229103712374009,186.55926349487305,5.583343712374009Q187.20916349487305,5.93758371237401,187.84646349487303,6.313773712374009Q188.48366349487304,6.689963712374009,189.10746349487306,7.08766371237401Q189.73126349487305,7.4853537123740095,190.34086349487305,7.904093712374009Q190.95046349487305,8.322823712374008,191.54516349487307,8.762093712374009Q192.13976349487305,9.20136371237401,192.71886349487306,9.660643712374009Q193.29786349487304,10.11989371237401,193.86066349487305,10.59869371237401Q194.42336349487306,11.07749371237401,194.96906349487304,11.57509371237401Q195.51486349487305,12.07279371237401,196.04296349487305,12.58879371237401Q196.57106349487304,13.10469371237401,197.08096349487306,13.63839371237401Q197.59076349487304,14.172093712374009,198.08186349487306,14.72279371237401Q198.57286349487305,15.273593712374009,199.04436349487304,15.840793712374008Q199.51596349487306,16.40789371237401,199.96746349487304,16.99079371237401Q200.41906349487306,17.57369371237401,200.85006349487304,18.171693712374008Q201.28106349487305,18.76969371237401,201.69106349487305,19.38199371237401Q202.10106349487305,19.99429371237401,202.48946349487306,20.62019371237401Q202.87796349487303,21.24609371237401,203.24436349487303,21.88489371237401Q203.61086349487306,22.52369371237401,203.95486349487305,23.17459371237401Q204.29886349487305,23.82549371237401,204.62006349487305,24.48779371237401Q204.94126349487306,25.14999371237401,205.23916349487303,25.822793712374008Q205.53716349487303,26.49559371237401,205.81156349487304,27.17819371237401Q206.08596349487306,27.860793712374008,206.33646349487304,28.55229371237401Q206.58696349487303,29.24379371237401,206.81316349487304,29.94349371237401Q207.03956349487305,30.64319371237401,207.24136349487304,31.350093712374008Q207.44316349487303,32.05709371237401,207.62026349487303,32.77049371237401Q207.79746349487306,33.48389371237401,207.94966349487305,34.20299371237401Q208.10186349487304,34.92199371237401,208.22896349487303,35.64579371237401Q208.35616349487304,36.36959371237401,208.45806349487304,37.09729371237401Q208.55986349487304,37.82499371237401,208.63646349487306,38.55579371237401Q208.71296349487307,39.28649371237401,208.76396349487305,40.01939371237401Q208.81506349487304,40.75239371237401,208.84056349487304,41.48659371237401Q208.86616349487304,42.22079371237401,208.86616349487304,42.95549371237401Q208.86616349487304,44.00269371237401,208.81426349487305,45.04869371237401Q208.76236349487306,46.09459371237401,208.65876349487303,47.13679371237401Q208.55506349487305,48.17889371237401,208.39986349487305,49.21479371237401Q208.24476349487304,50.25069371237401,208.03836349487307,51.277793712374006Q207.83206349487304,52.30489371237401,207.57516349487304,53.32069371237401Q207.31816349487303,54.33649371237401,207.01126349487305,55.338593712374006Q206.70426349487303,56.34079371237401,206.34796349487306,57.32669371237401Q205.99166349487305,58.312693712374006,205.58696349487303,59.28019371237401Q205.18236349487304,60.24769371237401,204.73016349487307,61.19439371237401Q204.27806349487304,62.14109371237401,203.77956349487306,63.06459371237401Q203.28106349487305,63.988193712374006,202.73736349487305,64.88639371237402Q202.19366349487305,65.784593712374,201.60616349487304,66.655293712374Q201.01866349487307,67.526093712374,200.38866349487304,68.367193712374Q199.75876349487305,69.20829371237402,199.08786349487303,70.01779371237402Q198.41696349487304,70.82729371237401,197.70686349487306,71.60329371237401Q196.99666349487305,72.379193712374,196.24886349487304,73.11969371237402Q195.50106349487305,73.86019371237401,194.71756349487305,74.56349371237401Q193.93396349487304,75.266693712374,193.11646349487305,75.93109371237401Q192.29906349487305,76.595393712374,191.44966349487305,77.21919371237401Q190.60026349487305,77.84299371237401,189.72096349487305,78.42479371237401Q188.84166349487305,79.00659371237401,187.93466349487306,79.54499371237401Q187.02756349487305,80.083393712374,186.09496349487304,80.576993712374Q185.16226349487306,81.07069371237401,184.20636349487305,81.518393712374Q183.25036349487306,81.96619371237401,182.27336349487305,82.36689371237401Q181.29636349487305,82.76769371237401,180.30066349487305,83.12049371237401Q179.30496349487305,83.47329371237402,178.29296349487305,83.77719371237401Q177.28096349487305,84.081193712374,176.25516349487305,84.33569371237401Q175.22936349487304,84.59009371237401,174.19216349487306,84.794393712374Q173.15496349487304,84.998693712374,172.10896349487305,85.152393712374Q171.06286349487306,85.30609371237401,170.01046349487305,85.408693712374Q168.95806349487304,85.51129371237401,167.90176349487305,85.56269371237401Q166.84556349487303,85.61409371237401,165.78806349487306,85.61409371237401Q165.12056349487304,85.61409371237401,164.45346349487306,85.59359371237402Q163.78636349487306,85.573193712374,163.12016349487305,85.53219371237401Q162.45396349487305,85.491293712374,161.78936349487304,85.42989371237401Q161.12486349487304,85.36859371237401,160.46246349487305,85.28689371237401Q159.80016349487306,85.20519371237401,159.14066349487305,85.10319371237401Q158.48126349487305,85.001193712374,157.82526349487304,84.87899371237401Q157.16936349487304,84.756793712374,156.51756349487306,84.614593712374Q155.86566349487305,84.47229371237401,155.21866349487306,84.31019371237402Q154.57156349487303,84.147993712374,153.92996349487305,83.966093712374Q153.28826349487304,83.78409371237402,152.65256349487305,83.582593712374Q152.01696349487304,83.38109371237401,151.38786349487305,83.160093712374Q150.75876349487305,82.939193712374,150.13696349487304,82.698993712374Q149.51506349487306,82.458893712374,148.90106349487306,82.199793712374Q148.28706349487305,81.94069371237401,147.68136349487304,81.66289371237401Q147.07576349487306,81.38499371237401,146.47916349487303,81.08879371237401Q145.88246349487304,80.79249371237401,145.29536349487304,80.478093712374Q144.70826349487305,80.16369371237401,144.13126349487305,79.83139371237401Q143.55436349487306,79.499093712374,142.98806349487305,79.149293712374Q142.42176349487306,78.79949371237402,141.86666349487305,78.43239371237401Q141.31156349487304,78.065393712374,140.76816349487305,77.681493712374Q140.22486349487303,77.29759371237401,139.69376349487305,76.89729371237401Q139.16276349487305,76.496893712374,138.64446349487304,76.080393712374Q138.12616349487305,75.663893712374,137.62116349487306,75.23179371237401Q137.11616349487304,74.799593712374,136.62486349487304,74.352193712374Q136.13366349487305,73.90469371237401,135.65666349487304,73.44239371237401Q135.17962349487306,72.98009371237401,134.71730349487305,72.503293712374Q134.25498349487304,72.02659371237401,133.80780349487304,71.535893712374Q133.36062349487304,71.045293712374,132.92900349487306,70.541093712374Q132.49739349487305,70.03689371237401,132.08175349487306,69.51979371237401Q131.66611349487306,69.00259371237401,131.26686349487304,68.472893712374Q130.86760349487304,67.94329371237401,130.48510349487304,67.40159371237401Q130.10261349487305,66.859993712374,129.73724349487304,66.306793712374L125.31060701987305,71.20389371237401Z" fill-rule="evenodd" fill="#161C2D" fill-opacity="1"/></g></g></svg>