<svg xmlns="http://www.w3.org/2000/svg" xmlns:xlink="http://www.w3.org/1999/xlink" fill="none" version="1.1" width="2246.6328125" height="1399.41943359375" viewBox="0 0 2246.6328125 1399.41943359375"><g style="opacity:0.30000001192092896;"><g style="opacity:0.10000000149011612;"><g><path d="M66.61763446113281,1013.4854553222656L173.58666516113283,977.2254553222656L457.8766651611328,402.6929553222656L660.9416651611328,402.6929553222656L681.2476651611328,361.9354553222656L417.2646651611328,361.9354553222656L66.61763446113281,1013.4854553222656Z" fill="#D8D8D8" fill-opacity="1"/></g><g><path d="M1185.63,181.954C1060.06,69.0871,913.098,8.72088,744.76,0.855083C576.423,-7.01071,424.52,39.3908,289.05,140.06C153.581,240.728,64.9755,373.051,23.2346,537.028C-18.5063,701.005,-4.00665,859.802,66.7336,1013.42L415.302,367.146L679.256,367.146L557.431,611.853L963.513,611.853L1185.63,181.954Z" fill="#2761E7" fill-opacity="1"/></g></g><g style="opacity:0.10000000149011612;"><g transform="matrix(-1,0,0,-1,4360.030517578125,2075.0994873046875)"><path d="M2180.0792280890623,1689.0997436523437L2287.0482587890624,1652.8397436523437L2571.3382587890624,1078.3072436523437L2774.4032587890624,1078.3072436523437L2794.7092587890625,1037.5497436523438L2530.7262587890627,1037.5497436523438L2180.0792280890623,1689.0997436523437Z" fill="#D8D8D8" fill-opacity="1"/></g><g transform="matrix(-1,0,0,-1,4493.265869140625,2798.838623046875)"><path d="M3432.2629345703126,1581.3733115234375C3306.6929345703124,1468.5064115234375,3159.7309345703125,1408.1401915234376,2991.3929345703127,1400.2743945234374C2823.0559345703123,1392.4086015234375,2671.1529345703125,1438.8101115234374,2535.6829345703127,1539.4793115234374C2400.2139345703126,1640.1473115234376,2311.6084345703125,1772.4703115234374,2269.8675345703123,1936.4473115234375C2228.1266345703125,2100.4243115234376,2242.6262845703127,2259.2213115234376,2313.3665345703125,2412.8393115234376L2661.9349345703126,1766.5653115234375L2925.8889345703124,1766.5653115234375L2804.0639345703125,2011.2723115234376L3210.1459345703124,2011.2723115234376L3432.2629345703126,1581.3733115234375Z" fill="#2761E7" fill-opacity="1"/></g></g></g></svg>