<svg xmlns="http://www.w3.org/2000/svg" xmlns:xlink="http://www.w3.org/1999/xlink" fill="none" version="1.1" width="16" height="16" viewBox="0 0 16 16"><defs><clipPath id="master_svg0_1_2796"><rect x="0" y="0" width="16" height="16" rx="0"/></clipPath></defs><g><g clip-path="url(#master_svg0_1_2796)"><g><path d="M7.99983390625,0.6669921875C12.04980390625,0.6669921875,15.33320390625,3.9503221875,15.33320390625,8.0003221875C15.33580390625,9.6747821875,14.76290390625,11.2992921875,13.71050390625,12.6016921875L12.76120390625,11.6516921875C13.56630390625,10.6049021875,14.00190390625,9.3208921875,13.99980390625,8.0003221875C13.99980390625,4.6866621875,11.31350390625,2.0003221875,7.99983390625,2.0003221875C4.68617390625,2.0003221875,1.99983390625,4.6866621875,1.99983390625,8.0003221875C1.99983390625,11.3139921875,4.68617390625,14.0002921875,7.99983390625,14.0002921875C9.45883390625,14.0002921875,10.79650390625,13.4796921875,11.83650390625,12.6136921875L12.78280390625,13.5592921875C11.45360390625,14.7063921875,9.75560390625,15.3362921875,7.99983390625,15.3336921875C3.94983390625,15.3336921875,0.66650390625,12.0502921875,0.66650390625,8.0003221875C0.66650390625,3.9503221875,3.94983390625,0.6669921875,7.99983390625,0.6669921875ZM10.82820390625,5.4479921875L11.77120390625,6.3909921875L7.05717390625,11.1049921875L4.228503906249999,8.2763221875L5.17150390625,7.3336621875L7.05717390625,9.2193221875L10.82820390625,5.4479921875Z" fill="#05AA76" fill-opacity="1"/></g></g></g></svg>