<svg xmlns="http://www.w3.org/2000/svg" xmlns:xlink="http://www.w3.org/1999/xlink" fill="none" version="1.1" width="119.4429931640625" height="34.0458984375" viewBox="0 0 119.4429931640625 34.0458984375"><g><g><path d="M49.166,16.5L51.522,34.046L46.19,34.046L45.57,29.272L38.13,29.272L36.053,34.046L31,34.046L37.851,17.368L36.952,16.5L49.166,16.5ZM42.315,19.476L39.339,26.296L45.291,26.296L44.391999999999996,19.476L42.315,19.476ZM74.77199999999999,16.5L73.594,26.017Q73.346,26.916,72.6175,27.505000000000003Q71.88900000000001,28.094,71.207,28.094L60.791,28.094L59.891999999999996,34.046L54.25,34.046L56.327,17.368L55.428,16.5L74.77199999999999,16.5ZM62,19.476L61.379999999999995,25.118000000000002L67.642,25.118000000000002L68.541,19.476L62,19.476ZM95.852,16.5L95.573,19.476L85.74600000000001,19.476L85.157,23.32L94.364,23.32L94.08500000000001,26.296L84.537,26.296L83.94800000000001,31.07L94.364,31.07L94.08500000000001,34.046L77.407,34.046L79.794,17.678L78.89500000000001,16.5L95.852,16.5ZM100.409,16.5L106.64,16.5L109.337,21.553L112.902,17.089001L112.313,16.5L119.443,16.5L111.724,25.118000000000002L117.056,34.046L111.104,34.046L108.438,28.683L103.974,34.046L98.022,34.046L105.772,25.118000000000002L101.308,17.368L100.409,16.5Z" fill="#0076BD" fill-opacity="1"/></g><g><g><path d="M5.41193,23.283564291381836L11.7188,23.283564291381836L14.6165,17.645564291381838L17.642,23.283564291381836L24.375,23.283564291381836L17.0881,9.253164291381836L12.571,9.253164291381836L5.41193,23.283564291381836ZM0,33.91396429138183L6.47727,33.91396429138183L7.96875,30.987364291381837L1.44886,30.987364291381837L0,33.91396429138183ZM21.6903,30.987364291381837L23.267,33.95696429138184L30,33.999964291381836L28.4659,30.987364291381837L21.6903,30.987364291381837Z" fill="#0076BD" fill-opacity="1"/></g><g><g><path d="M8.394887447357178,10.759488744354247L9.886367447357177,12.911388744354248L10.653407447357178,12.911388744354248Q12.677557447357177,12.524048744354248,14.275567447357178,11.577218744354248Q15.873577447357178,10.630378744354248,17.04545744735718,9.124048744354248L18.11079744735718,7.531648744354248L17.897727447357177,7.2303787443542475L16.74715744735718,4.691138744354248L9.545457447357178,8.95189874435425L8.394887447357178,10.372148744354249L8.394887447357178,10.759488744354247Z" fill="#0076BD" fill-opacity="1"/></g><g><path d="M9.119319438934326,10.243037112579346L9.289774438934327,10.501267112579345L10.142049438934325,11.706327112579345Q12.858669438934326,11.803167112579345,14.786929438934326,10.673417112579346Q16.715199438934327,9.543667112579346,17.855119438934324,7.187337112579346L17.130679438934326,4.734177112579346L9.119319438934326,10.243037112579346Z" fill="#000000" fill-opacity="1"/></g><g><path d="M2.471590995788574,11.6633L8.352270995788574,10.7165L13.721590995788574,9.12405L20.539790995788575,0L11.633520995788574,2.10886L2.471590995788574,11.6633Z" fill="#0076BD" fill-opacity="1"/></g><g><path d="M3.920454740524292,10.716453594703674L9.119314740524292,10.243033594703673L9.24715474052429,10.458223594703675L13.721594740524292,9.124053594703675L13.636364740524291,8.263293594703676L19.133554740524293,0.7746835947036743L11.570934740524292,2.564503594703674L3.920454740524292,10.716453594703674Z" fill="#000000" fill-opacity="1"/></g><g><path d="M5.36931848526001,11.491138757629393C5.36931848526001,11.752918757629395,5.43224018526001,11.921518757629395,5.53983048526001,12.265818757629393C5.647420485260009,12.610128757629393,6.7552584852600095,13.729118757629394,6.77556848526001,13.643038757629395C6.7825184852600096,13.613588757629394,6.69751848526001,13.372498757629394,6.58348848526001,13.049078757629395C6.36426948526001,12.427318757629394,6.03777748526001,11.501298757629394,6.05113648526001,11.189878757629394C6.07144448526001,10.716458757629393,6.39204848526001,10.802528757629394,6.60511848526001,10.544308757629395C6.86079848526001,10.286078757629394,6.88209848526001,10.296838757629395,7.15908848526001,9.640508757629394C7.22690848526001,9.479828757629395,7.22319848526001,9.270128757629394,7.21925848526001,9.047428757629394C7.21515848526001,8.815288757629395,7.21080848526001,8.569018757629394,7.28692848526001,8.349368757629394C7.436098485260009,7.9189887576293945,8.01130848526001,7.789878757629395,8.011368485260009,7.789878757629395C8.01138848526001,7.789878757629395,8.778408485260009,7.671518757629395,9.715908485260009,7.316458757629395C10.653408485260009,6.961392757629395,11.50573848526001,6.520253757629394,11.50573848526001,6.498734757629395C11.50573848526001,6.491286757629394,11.50637848526001,6.482228757629395,11.50709848526001,6.471948757629394C11.51055848526001,6.4228267576293945,11.51598848526001,6.345827757629395,11.463128485260011,6.2835446576293945Q11.39920848526001,6.208228257629394,11.25005848526001,6.1974687576293945Q10.419088485260009,6.617088757629395,9.50289848526001,6.929114757629394C8.58670848526001,7.241138757629395,8.09664848526001,7.101266757629395,7.58528848526001,7.4455687576293945C7.07391848526001,7.789878757629395,7.00894848526001,8.758228757629395,6.49757848526001,9.554428757629395C5.98621148526001,10.350628757629394,5.88069248526001,10.027848757629394,5.5398064852600095,10.630378757629394C5.41196598526001,10.958548757629394,5.36931848526001,11.189878757629394,5.36931848526001,11.491138757629393Z" fill="#FFFFFF" fill-opacity="1"/><path d="M8.22013848526001,8.777778757629395Q8.86198848526001,8.709178757629395,10.07009848526001,8.251628757629394Q10.722198485260009,8.004658757629395,11.392518485260009,7.685288757629395Q11.64359848526001,7.565658757629395,11.824868485260009,7.469928757629394Q12.48563848526001,7.121005757629394,12.50514848526001,6.534637757629395Q12.53989848526001,6.006859757629394,12.22555848526001,5.636475757629395Q11.88994848526001,5.241031757629394,11.32200848526001,5.2000607576293945L11.04616848526001,5.180158757629394L10.79929848526001,5.304826757629394Q10.03063848526001,5.6929827576293945,9.18051848526001,5.9825057576293945Q8.85606848526001,6.093001757629395,8.34133848526001,6.171339357629394Q7.49628848526001,6.299947757629394,7.02677848526001,6.616069757629394Q6.466648485260009,6.9932057576293944,6.04186748526001,8.150528757629395Q5.81662248526001,8.764208757629394,5.65617448526001,9.014028757629394Q5.49422448526001,9.266188757629394,5.36021405526001,9.360678757629394Q4.94259448526001,9.655168757629394,4.66944548526001,10.137968757629395L4.634082485260009,10.200468757629395L4.60801448526001,10.267388757629394Q4.36931848526001,10.880118757629393,4.36931848526001,11.491138757629393Q4.36931848526001,11.879618757629395,4.553899485260009,12.464138757629396Q4.574512485260009,12.529418757629394,4.585346485260009,12.564088757629396Q4.727318485260009,13.018418757629394,5.46138728526001,13.800288757629396Q5.71316548526001,14.068468757629395,5.91773248526001,14.253748757629394Q6.04554148526001,14.369518757629395,6.14221148526001,14.438138757629394Q6.26983948526001,14.528728757629395,6.40129848526001,14.579168757629395Q6.652928485260009,14.675718757629394,6.916158485260009,14.636978757629395Q7.59198848526001,14.537508757629395,7.74884848526001,13.872668757629395Q7.823158485260009,13.557718757629395,7.52658848526001,12.716568757629394Q7.20147848526001,11.794468757629396,7.09821848526001,11.441088757629394Q7.23399848526001,11.340498757629394,7.33651848526001,11.226968757629393Q7.34998848526001,11.213458757629395,7.36769848526001,11.195758757629395Q7.748928485260009,10.814768757629395,8.08040848526001,10.029328757629393Q8.23048848526001,9.673708757629395,8.21910848526001,9.029758757629395Q8.21623848526001,8.867638757629395,8.22013848526001,8.777778757629395ZM12.50543848526001,6.5245067576293945Q12.50573848526001,6.513270757629394,12.50573848526001,6.498734757629395Q12.50573848526001,6.511683757629394,12.50543848526001,6.5245067576293945Z" fill-rule="evenodd" fill="#231F20" fill-opacity="1"/></g></g><g><path d="M4.042738246841431,29.241231822509768L3.4831182468414306,30.470881822509767L1.6193182468414307,30.470881822509767L4.908938246841431,23.756961822509766L6.8067982468414305,23.756961822509766L8.41268824684143,30.470881822509767L6.651078246841431,30.470881822509767L6.349368246841431,29.241231822509768L4.042738246841431,29.241231822509768ZM4.66075824684143,27.898441822509767L6.018458246841431,27.898441822509767L5.770278246841431,26.732731822509766Q5.634018246841431,26.103141822509766,5.58535824684143,25.714571822509765Q5.424768246841431,26.196601822509766,5.28364824684143,26.511391822509765L4.66075824684143,27.898441822509767ZM10.10429824684143,23.756961822509766L12.93251824684143,23.756961822509766Q13.623518246841432,23.756961822509766,13.986318246841432,23.830741222509765Q14.34891824684143,23.904520822509767,14.63601824684143,24.101265822509767Q14.99611824684143,24.352115822509766,15.19051824684143,24.794791822509765Q15.409418246841431,25.286651822509764,15.409518246841431,25.847381822509767Q15.409518246841431,26.526151822509767,15.12721824684143,27.106541822509765Q14.81081824684143,27.750881822509765,14.24901824684143,28.018971822509766Q13.687018246841431,28.287041822509764,12.64541824684143,28.287011822509765L11.233278246841431,28.287011822509765L10.97049824684143,30.470881822509767L9.28675824684143,30.470881822509767L10.10429824684143,23.756961822509766ZM11.62261824684143,25.099741822509767L11.41332824684143,26.801591822509767L12.538418246841431,26.801591822509767Q13.093218246841431,26.801591822509767,13.36581824684143,26.585171822509764Q13.68211824684143,26.339241822509766,13.68201824684143,25.881811822509764Q13.68201824684143,25.468641822509767,13.443718246841431,25.284211822509764Q13.205218246841431,25.099771822509766,12.08971824684143,25.099741822509767L11.62261824684143,25.099741822509767ZM21.50061824684143,23.756961822509766L21.32051824684143,25.232551822509766L17.69871824684143,25.232551822509766L17.55761824684143,26.388421822509766L20.91361824684143,26.388421822509766L20.73381824684143,27.864011822509767L17.377518246841433,27.864011822509767L17.24131824684143,28.995301822509767L20.603518246841432,28.995301822509767L20.41861824684143,30.470881822509767L15.377518246841431,30.470881822509767L16.19501824684143,23.756961822509766L21.50061824684143,23.756961822509766ZM26.34451824684143,27.032771822509766L28.40791824684143,30.470881822509767L26.47121824684143,30.470881822509767L25.86791824684143,29.462571822509766Q25.575918246841432,28.980541822509764,25.24501824684143,28.193561822509764Q24.92871824684143,28.744451822509767,24.59781824684143,29.162531822509766L23.56121824684143,30.470881822509767L21.46371824684143,30.470881822509767L24.364218246841432,26.934391822509767L22.46131824684143,23.756961822509766L24.41771824684143,23.756961822509766L24.85571824684143,24.539023822509765Q25.196318246841432,25.153851822509765,25.46371824684143,25.778521822509767Q25.89681824684143,25.099741822509767,26.13061824684143,24.799711822509767L26.94311824684143,23.756961822509766L28.97731824684143,23.756961822509766L26.34451824684143,27.032771822509766Z" fill="#000000" fill-opacity="1"/></g></g></g></svg>