<svg xmlns="http://www.w3.org/2000/svg" xmlns:xlink="http://www.w3.org/1999/xlink" fill="none" version="1.1" width="130" height="130.1182861328125" viewBox="0 0 130 130.1182861328125"><g><g transform="matrix(0.8150096535682678,-0.5794473886489868,0.5794473886489868,0.8150096535682678,-31.23127349497372,9.970679334339366)" style="opacity:0.4000000059604645;"><path d="M33.5706,60.28294646484375C33.5706,60.28294646484375,78.0514,82.52317646484374,78.0514,82.52317646484374C98.0053,92.50017646484375,98.0053,108.81677646484374,78.0514,118.79377646484375C78.0514,118.79377646484375,33.5706,141.03397646484376,33.5706,141.03397646484376C3.63981,155.99937646484375,-8.57155,143.73607646484373,6.39387,113.85727646484375C6.39387,113.85727646484375,10.9147,104.86747646484375,10.9147,104.86747646484375C12.2138,102.21727646484375,12.2138,99.15147646484375,10.9147,96.50137646484376C10.9147,96.50137646484376,6.39387,87.45977646484374,6.39387,87.45977646484374C-8.57155,57.58085646484375,3.69177,45.31752646484375,33.5706,60.28294646484375C33.5706,60.28294646484375,33.5706,60.28294646484375,33.5706,60.28294646484375Z" fill="#13C296" fill-opacity="1"/></g><g><path d="M59.885400000000004,80.89837646484375C59.1651,80.89837646484375,58.4807,80.60817646484375,57.9765,80.10037646484375C57.9765,80.10037646484375,47.783392,69.83457646484375,47.783392,69.83457646484375C46.738869,68.78257646484374,46.738869,67.04137646484375,47.783392,65.98937646484374C48.82791,64.93747646484375,50.55678,64.93747646484375,51.6013,65.98937646484374C51.6013,65.98937646484374,59.885400000000004,74.33257646484375,59.885400000000004,74.33257646484375C59.885400000000004,74.33257646484375,78.3987,55.68735446484375,78.3987,55.68735446484375C79.44319999999999,54.63538346484375,81.1721,54.63538346484375,82.2166,55.68735446484375C83.2611,56.73932646484375,83.2611,58.48051646484375,82.2166,59.53248646484375C82.2166,59.53248646484375,61.794399999999996,80.10037646484375,61.794399999999996,80.10037646484375C61.2901,80.60817646484375,60.6058,80.89837646484375,59.885400000000004,80.89837646484375C59.885400000000004,80.89837646484375,59.885400000000004,80.89837646484375,59.885400000000004,80.89837646484375Z" fill="#13C296" fill-opacity="1"/></g></g></svg>