<svg xmlns="http://www.w3.org/2000/svg" xmlns:xlink="http://www.w3.org/1999/xlink" fill="none" version="1.1" width="104" height="105" viewBox="0 0 104 105"><g><g><g><g style="opacity:0.4000000059604645;"><path d="M52.00126875,96.25C75.93346875,96.25,95.33466875,76.6623,95.33466875,52.5C95.33466875,28.3375,75.93346875,8.75,52.00126875,8.75C28.06896875,8.75,8.66796875,28.3375,8.66796875,52.5C8.66796875,76.6623,28.06896875,96.25,52.00126875,96.25C52.00126875,96.25,52.00126875,96.25,52.00126875,96.25Z" fill="#FF0000" fill-opacity="1"/></g><g><path d="M56.59189375,52.499988671875C56.59189375,52.499988671875,66.55859375,42.437448671875,66.55859375,42.437448671875C67.81529375,41.168698671875,67.81529375,39.068698671875,66.55859375,37.799951671875C65.30189375,36.531201671875,63.22189375,36.531201671875,61.96529375,37.799951671875C61.96529375,37.799951671875,51.99859375,47.862488671875,51.99859375,47.862488671875C51.99859375,47.862488671875,42.03192375,37.799951671875,42.03192375,37.799951671875C40.77525375,36.531201671875,38.69526375,36.531201671875,37.43859375,37.799951671875C36.18192675,39.068698671875,36.18192675,41.168698671875,37.43859375,42.437448671875C37.43859375,42.437448671875,47.40529375,52.499988671875,47.40529375,52.499988671875C47.40529375,52.499988671875,37.43859375,62.562488671875,37.43859375,62.562488671875C36.18192675,63.831188671875,36.18192675,65.93118867187499,37.43859375,67.199988671875C38.08859375,67.856188671875,38.91192375,68.162488671875,39.73526375,68.162488671875C40.55859375,68.162488671875,41.38192375,67.856188671875,42.03192375,67.199988671875C42.03192375,67.199988671875,51.99859375,57.137488671875005,51.99859375,57.137488671875005C51.99859375,57.137488671875005,61.96529375,67.199988671875,61.96529375,67.199988671875C62.61529375,67.856188671875,63.438593749999995,68.162488671875,64.26189375,68.162488671875C65.08529375,68.162488671875,65.90859375,67.856188671875,66.55859375,67.199988671875C67.81529375,65.93118867187499,67.81529375,63.831188671875,66.55859375,62.562488671875C66.55859375,62.562488671875,56.59189375,52.499988671875,56.59189375,52.499988671875C56.59189375,52.499988671875,56.59189375,52.499988671875,56.59189375,52.499988671875Z" fill="#FF0000" fill-opacity="1"/></g><g style="opacity:0;"></g></g></g></g></svg>