<svg xmlns="http://www.w3.org/2000/svg" xmlns:xlink="http://www.w3.org/1999/xlink" fill="none" version="1.1" width="24" height="24" viewBox="0 0 24 24"><g><g><g><g><path d="M14.96033030517578,5.399670305175781C14.667437305175781,5.106777105175781,14.192563305175781,5.106777105175781,13.899670305175782,5.399670305175781C13.606777105175782,5.692563305175781,13.606777105175782,6.167437305175781,13.899670305175782,6.460330305175781C13.899670305175782,6.460330305175781,14.96033030517578,5.399670305175781,14.96033030517578,5.399670305175781C14.96033030517578,5.399670305175781,14.96033030517578,5.399670305175781,14.96033030517578,5.399670305175781ZM20.50000030517578,12.000000305175782C20.50000030517578,12.000000305175782,21.03033030517578,12.53033030517578,21.03033030517578,12.53033030517578C21.17098030517578,12.38968030517578,21.25000030517578,12.198910305175781,21.25000030517578,12.000000305175782C21.25000030517578,11.80109030517578,21.17098030517578,11.610320305175781,21.03033030517578,11.469670305175782C21.03033030517578,11.469670305175782,20.50000030517578,12.000000305175782,20.50000030517578,12.000000305175782C20.50000030517578,12.000000305175782,20.50000030517578,12.000000305175782,20.50000030517578,12.000000305175782ZM13.899670305175782,17.53970030517578C13.606777105175782,17.83260030517578,13.606777105175782,18.307400305175783,13.899670305175782,18.60030030517578C14.192563305175781,18.89320030517578,14.667437305175781,18.89320030517578,14.96033030517578,18.60030030517578C14.96033030517578,18.60030030517578,13.899670305175782,17.53970030517578,13.899670305175782,17.53970030517578C13.899670305175782,17.53970030517578,13.899670305175782,17.53970030517578,13.899670305175782,17.53970030517578ZM13.899670305175782,6.460330305175781C13.899670305175782,6.460330305175781,19.969670305175782,12.53033030517578,19.969670305175782,12.53033030517578C19.969670305175782,12.53033030517578,21.03033030517578,11.469670305175782,21.03033030517578,11.469670305175782C21.03033030517578,11.469670305175782,14.96033030517578,5.399670305175781,14.96033030517578,5.399670305175781C14.96033030517578,5.399670305175781,13.899670305175782,6.460330305175781,13.899670305175782,6.460330305175781C13.899670305175782,6.460330305175781,13.899670305175782,6.460330305175781,13.899670305175782,6.460330305175781ZM19.969670305175782,11.469670305175782C19.969670305175782,11.469670305175782,13.899670305175782,17.53970030517578,13.899670305175782,17.53970030517578C13.899670305175782,17.53970030517578,14.96033030517578,18.60030030517578,14.96033030517578,18.60030030517578C14.96033030517578,18.60030030517578,21.03033030517578,12.53033030517578,21.03033030517578,12.53033030517578C21.03033030517578,12.53033030517578,19.969670305175782,11.469670305175782,19.969670305175782,11.469670305175782C19.969670305175782,11.469670305175782,19.969670305175782,11.469670305175782,19.969670305175782,11.469670305175782Z" fill="#292D32" fill-opacity="1"/></g><g style="opacity:0.4000000059604645;"><path d="M3.5,11.25C3.085786,11.25,2.75,11.585786,2.75,12C2.75,12.41421,3.085786,12.75,3.5,12.75C3.5,12.75,3.5,11.25,3.5,11.25C3.5,11.25,3.5,11.25,3.5,11.25ZM20.33,12.75C20.7442,12.75,21.08,12.41421,21.08,12C21.08,11.585786,20.7442,11.25,20.33,11.25C20.33,11.25,20.33,12.75,20.33,12.75C20.33,12.75,20.33,12.75,20.33,12.75ZM3.5,12.75C3.5,12.75,20.33,12.75,20.33,12.75C20.33,12.75,20.33,11.25,20.33,11.25C20.33,11.25,3.5,11.25,3.5,11.25C3.5,11.25,3.5,12.75,3.5,12.75C3.5,12.75,3.5,12.75,3.5,12.75Z" fill="#292D32" fill-opacity="1"/></g><g transform="matrix(-1,0,0,-1,48,48)" style="opacity:0;"></g></g></g></g></svg>