<svg xmlns="http://www.w3.org/2000/svg" xmlns:xlink="http://www.w3.org/1999/xlink" fill="none" version="1.1" width="43" height="43" viewBox="0 0 43 43"><defs><mask id="master_svg0_345_91946" style="mask-type:alpha" maskUnits="userSpaceOnUse"><g><rect x="0" y="0" width="43" height="43" rx="0" fill="#FFFFFF" fill-opacity="1"/></g></mask></defs><g mask="url(#master_svg0_345_91946)"><g><g style="opacity:0.4000000059604645;"><path d="M33.7,13.420195312499999C33.7,13.420195312499999,33.42,13.260195312499999,33.42,13.260195312499999C33.42,13.260195312499999,30.64,11.6601953125,30.64,11.6601953125C30.64,11.6601953125,24.9,8.3401953125,24.9,8.3401953125C23.14,7.3201953125,20.46,7.3201953125,18.7,8.3401953125C18.7,8.3401953125,12.96,11.6601953125,12.96,11.6601953125C12.96,11.6601953125,10.18,13.2801953125,10.18,13.2801953125C10.18,13.2801953125,9.82,13.480195312500001,9.82,13.480195312500001C6.24,15.8801953125,6,16.320195312499997,6,20.1801953125C6,20.1801953125,6,29.4001953125,6,29.4001953125C6,33.2601953125,6.24,33.7001953125,9.9,36.1601953125C9.9,36.1601953125,18.7,41.2401953125,18.7,41.2401953125C19.58,41.7601953125,20.68,42.0001953125,21.8,42.0001953125C22.9,42.0001953125,24.02,41.7601953125,24.9,41.2401953125C24.9,41.2401953125,33.78,36.1001953125,33.78,36.1001953125C37.36,33.7001953125,37.6,33.2601953125,37.6,29.4001953125C37.6,29.4001953125,37.6,20.1801953125,37.6,20.1801953125C37.6,16.320195312499997,37.36,15.8801953125,33.7,13.420195312499999C33.7,13.420195312499999,33.7,13.420195312499999,33.7,13.420195312499999Z" fill="#292D32" fill-opacity="1"/></g><g><path d="M10.1796875,13.28C10.1796875,13.28,12.9596875,11.66,12.9596875,11.66C12.9596875,11.66,18.439687499999998,8.5,18.439687499999998,8.5C18.439687499999998,8.5,18.6996875,8.34,18.6996875,8.34C20.4596875,7.32,23.1396875,7.32,24.8996875,8.34C24.8996875,8.34,25.1596875,8.5,25.1596875,8.5C25.1596875,8.5,30.6396875,11.66,30.6396875,11.66C30.6396875,11.66,33.419687499999995,13.26,33.419687499999995,13.26C33.419687499999995,13.26,33.419687499999995,8.98,33.419687499999995,8.98C33.419687499999995,4.48,30.9396875,2,26.4396875,2C26.4396875,2,17.1396875,2,17.1396875,2C12.6396875,2,10.1796875,4.48,10.1796875,8.98C10.1796875,8.98,10.1796875,13.28,10.1796875,13.28C10.1796875,13.28,10.1796875,13.28,10.1796875,13.28Z" fill="#292D32" fill-opacity="1"/></g><g><path d="M27.479342187500002,24.680546875C27.479342187500002,24.680546875,26.2393421875,26.200546875,26.2393421875,26.200546875C26.0393421875,26.420546875,25.8993421875,26.860546875,25.9193421875,27.160546875C25.9193421875,27.160546875,26.0393421875,29.120546875000002,26.0393421875,29.120546875000002C26.1193421875,30.320546874999998,25.259302187499998,30.940546875000003,24.1393021875,30.500546874999998C24.1393021875,30.500546874999998,22.3193021875,29.780546875,22.3193021875,29.780546875C22.0393021875,29.680546874999997,21.559302187500002,29.680546874999997,21.2793021875,29.780546875C21.2793021875,29.780546875,19.4593021875,30.500546874999998,19.4593021875,30.500546874999998C18.3393021875,30.940546875000003,17.4793021875,30.320546874999998,17.5593021875,29.120546875000002C17.5593021875,29.120546875000002,17.6793021875,27.160546875,17.6793021875,27.160546875C17.6993021875,26.860546875,17.5593021875,26.420546875,17.3593021875,26.200546875C17.3593021875,26.200546875,16.1192981875,24.680546875,16.1192981875,24.680546875C15.3392981875,23.760546875,15.6792992875,22.740546875,16.8393021875,22.440546875C16.8393021875,22.440546875,18.7393021875,21.960546875,18.7393021875,21.960546875C19.0393021875,21.880546875,19.3993021875,21.600546875,19.559302187500002,21.340546875C19.559302187500002,21.340546875,20.6193021875,19.700546875,20.6193021875,19.700546875C21.2793021875,18.680546875,22.3193021875,18.680546875,22.9793021875,19.700546875C22.9793021875,19.700546875,24.0393021875,21.340546875,24.0393021875,21.340546875C24.199302187500003,21.600546875,24.559302187500002,21.880546875,24.8593021875,21.960546875C24.8593021875,21.960546875,26.7593421875,22.440546875,26.7593421875,22.440546875C27.9193421875,22.740546875,28.2593421875,23.760546875,27.479342187500002,24.680546875C27.479342187500002,24.680546875,27.479342187500002,24.680546875,27.479342187500002,24.680546875Z" fill="#292D32" fill-opacity="1"/></g></g></g></svg>