<svg xmlns="http://www.w3.org/2000/svg" xmlns:xlink="http://www.w3.org/1999/xlink" fill="none" version="1.1" width="33" height="33" viewBox="0 0 33 33"><g><g><g><g style="opacity:0;"></g><g style="opacity:0.4000000059604645;"><path d="M16.5,7.287537173461914C16.5,7.287537173461914,16.5,29.328737173461914,16.5,29.328737173461914C16.73375,29.328737173461914,16.981236,29.287537173461914,17.173736,29.177537173461914C17.173736,29.177537173461914,17.22879,29.150037173461914,17.22879,29.150037173461914C19.86879,27.706237173461915,24.47496,26.193737173461916,27.4587,25.795037173461914C27.4587,25.795037173461914,27.8575,25.740037173461914,27.8575,25.740037173461914C29.177500000000002,25.575037173461915,30.25,24.337537173461914,30.25,23.017537173461914C30.25,23.017537173461914,30.25,6.407507173461914,30.25,6.407507173461914C30.25,4.771257173461914,28.9163,3.533775173461914,27.28,3.6712751734619142C24.39254,3.905025173461914,20.02004,5.362567173461914,17.57254,6.888817173461915C17.57254,6.888817173461915,17.22879,7.095007173461914,17.22879,7.095007173461914C17.02254,7.218757173461914,16.76125,7.287537173461914,16.5,7.287537173461914C16.5,7.287537173461914,16.5,7.287537173461914,16.5,7.287537173461914Z" fill="#292D32" fill-opacity="1"/></g><g><path d="M2.75,6.421212754516602C2.75,6.421212754516602,2.75,23.0175327545166,2.75,23.0175327545166C2.75,24.3375327545166,3.82249,25.574832754516603,5.1424900000000004,25.739832754516602C5.1424900000000004,25.739832754516602,5.59626,25.7950327545166,5.59626,25.7950327545166C8.59376,26.193732754516603,13.2138,27.719832754516602,15.8538,29.1774327545166C16.0325,29.2873327545166,16.252499999999998,29.3287327545166,16.5,29.3287327545166C16.5,29.3287327545166,16.5,7.287462754516602,16.5,7.287462754516602C16.2387,7.287462754516602,15.9775,7.218702754516602,15.7712,7.094952754516601C15.7712,7.094952754516601,15.5375,6.943712754516602,15.5375,6.943712754516602C13.09,5.403712754516602,8.70372,3.9324737545166015,5.8162199999999995,3.6849732545166014C5.8162199999999995,3.6849732545166014,5.73372,3.6849732545166014,5.73372,3.6849732545166014C4.09748,3.5474727545166016,2.75,4.771212754516601,2.75,6.421212754516602C2.75,6.421212754516602,2.75,6.421212754516602,2.75,6.421212754516602Z" fill="#292D32" fill-opacity="1"/></g><g><path d="M26.125,3.822540283203125C26.125,3.822540283203125,26.125,9.721260283203126,26.125,9.721260283203126C26.125,10.271260283203125,25.51996,10.601230283203126,25.05246,10.298730283203124C25.05246,10.298730283203124,23.375,9.184980283203124,23.375,9.184980283203124C23.375,9.184980283203124,21.69754,10.298730283203124,21.69754,10.298730283203124C21.24379,10.601230283203126,20.625,10.271260283203125,20.625,9.721260283203126C20.625,9.721260283203126,20.625,5.389970283203125,20.625,5.389970283203125C22.42625,4.674977283203125,24.43375,4.097540283203125,26.125,3.822540283203125C26.125,3.822540283203125,26.125,3.822540283203125,26.125,3.822540283203125Z" fill="#292D32" fill-opacity="1"/></g></g></g></g></svg>