<svg xmlns="http://www.w3.org/2000/svg" xmlns:xlink="http://www.w3.org/1999/xlink" fill="none" version="1.1" width="43" height="43" viewBox="0 0 43 43"><defs><mask id="master_svg0_345_91942" style="mask-type:alpha" maskUnits="userSpaceOnUse"><g><rect x="0" y="0" width="43" height="43" rx="0" fill="#FFFFFF" fill-opacity="1"/></g></mask></defs><g mask="url(#master_svg0_345_91942)"><g><g><g style="opacity:0;"></g><g style="opacity:0.4000000059604645;"><path d="M22,11.3791671875C22,11.3791671875,22,42.7712671875,22,42.7712671875C22.325833,42.7712671875,22.670814,42.7124671875,22.939148,42.5558671875C22.939148,42.5558671875,23.01589,42.5166671875,23.01589,42.5166671875C26.69589,40.4603671875,33.1166,38.3062671875,37.275800000000004,37.7383671875C37.275800000000004,37.7383671875,37.8317,37.6599671875,37.8317,37.6599671875C39.6717,37.4249671875,41.1667,35.6624671875,41.1667,33.7824671875C41.1667,33.7824671875,41.1667,10.1257971875,41.1667,10.1257971875C41.1667,7.7953771875,39.3076,6.0329001875,37.0267,6.2287333875C33.0017,6.5616491875,26.90672,8.6375371875,23.49506,10.8112871875C23.49506,10.8112871875,23.01589,11.1049571875,23.01589,11.1049571875C22.728389,11.2812071875,22.364167,11.3791671875,22,11.3791671875C22,11.3791671875,22,11.3791671875,22,11.3791671875Z" fill="#292D32" fill-opacity="1"/></g><g><path d="M2.8330078125,10.1454784375C2.8330078125,10.1454784375,2.8330078125,33.7825984375,2.8330078125,33.7825984375C2.8330078125,35.6625984375,4.3279878125,37.424898437500005,6.1679878125,37.659898437500004C6.1679878125,37.659898437500004,6.8005278125,37.7384984375,6.8005278125,37.7384984375C10.9788578125,38.3063984375,17.418907812500002,40.4798984375,21.0989078125,42.5557984375C21.3481078125,42.7123984375,21.6547078125,42.7713984375,21.9997078125,42.7713984375C21.9997078125,42.7713984375,21.9997078125,11.3792284375,21.9997078125,11.3792284375C21.6355078125,11.3792284375,21.2713078125,11.2812984375,20.9838078125,11.105048437499999C20.9838078125,11.105048437499999,20.6580078125,10.8896484375,20.6580078125,10.8896484375C17.2463078125,8.6963184375,11.1321378125,6.6009114375,7.1071378125,6.2484106375C7.1071378125,6.2484106375,6.9921378125,6.2484106375,6.9921378125,6.2484106375C4.7113078125,6.0525774375,2.8330078125,7.7954784375,2.8330078125,10.1454784375C2.8330078125,10.1454784375,2.8330078125,10.1454784375,2.8330078125,10.1454784375Z" fill="#292D32" fill-opacity="1"/></g><g><path d="M35.416669999999996,6.4443359375C35.416669999999996,6.4443359375,35.416669999999996,14.8455459375,35.416669999999996,14.8455459375C35.416669999999996,15.6288759375,34.57327,16.0988359375,33.92161,15.6680059375C33.92161,15.6680059375,31.58333,14.081755937499999,31.58333,14.081755937499999C31.58333,14.081755937499999,29.24506,15.6680059375,29.24506,15.6680059375C28.612555,16.0988359375,27.75,15.6288759375,27.75,14.8455459375C27.75,14.8455459375,27.75,8.6767359375,27.75,8.6767359375C30.26083,7.6584159375,33.05917,6.8360029375,35.416669999999996,6.4443359375C35.416669999999996,6.4443359375,35.416669999999996,6.4443359375,35.416669999999996,6.4443359375Z" fill="#292D32" fill-opacity="1"/></g></g></g></g></svg>