<svg xmlns="http://www.w3.org/2000/svg" xmlns:xlink="http://www.w3.org/1999/xlink" fill="none" version="1.1" width="203" height="59" viewBox="0 0 203 59"><g><path d="M30.9067,18.7744L29.9058,27.0508Q26.2681,24.0234,21.7515,24.0234Q17.2349,24.0234,14.2563,26.7578Q11.2778,29.4678,11.2778,33.7158Q11.2778,37.4023,13.4507,39.7949Q16.0874,42.6758,20.6284,42.6758Q24.4614,42.6758,28.2456,40.5762L27.1958,49.0723Q24.4614,50,22.8623,50.3296Q21.2632,50.6592,19.3589,50.6592Q13.0601,50.6592,8.56787,47.1436Q2.61084,42.4805,2.61084,34.082Q2.61084,25.9766,8.42139,20.7764Q11.3755,18.1396,15.1841,16.9189Q17.9673,16.0156,20.8237,16.0156Q25.8774,16.0156,30.9067,18.7744ZM40.0376,40.5029Q40.0376,42.7979,40.8677,43.7256Q41.9419,44.873,43.9683,44.873Q46.605,44.873,47.1177,42.5781L56.1021,42.5781Q54.8081,45.8984,52.9771,47.583Q49.6567,50.6592,43.7729,50.6592Q38.5483,50.6592,35.6187,48.0713Q34.0073,46.6553,33.104,44.458Q32.2007,42.2607,32.2007,39.7461Q32.2007,34.3506,35.7163,30.6885Q39.2319,27.002,45.3843,27.002Q51.2437,27.002,54.2222,30.4932Q56.8345,33.5693,56.8345,38.4521Q56.8345,39.0625,56.7368,40.5029L40.0376,40.5029ZM48.4116,35.8398Q48.314,34.5947,47.8745,33.9111Q46.8491,32.3975,44.7251,32.3975Q41.356,32.3975,40.5991,35.8398L48.4116,35.8398ZM71.1411,27.6611L70.5063,30.6885Q72.4106,28.9551,73.9976,28.3081Q75.5845,27.6611,77.9526,27.6611Q78.5142,27.6611,79.564,27.71L78.6362,35.376Q76.854,34.3506,74.9009,34.3506Q72.0688,34.3506,70.7505,36.2549Q69.9692,37.4512,69.5786,40.5029L68.3823,50L60.1548,50L62.9136,27.6611L71.1411,27.6611ZM92.9429,33.9844L90.9653,50L82.7378,50L84.7153,33.9844L81.1753,33.9844L81.9565,27.6611L85.4966,27.6611L86.3755,20.5078L94.603,20.5078L93.7241,27.6611L98.1187,27.6611L97.3374,33.9844L92.9429,33.9844ZM106.932,14.3311Q108.836,14.3311,110.204,15.6494Q111.693,17.0898,111.693,19.2139Q111.693,21.2646,110.277,22.7051Q108.861,24.1455,106.859,24.1455Q104.637,24.1455,103.221,22.5342Q101.927,21.0693,101.927,19.1895Q101.927,17.1875,103.319,15.8203Q104.857,14.3311,106.932,14.3311ZM109.837,27.6611L107.079,50L98.8511,50L101.61,27.6611L109.837,27.6611ZM124.217,33.9844L122.24,50L114.012,50L115.99,33.9844L112.523,33.9844L113.304,27.6611L116.771,27.6611L117.43,22.29Q117.845,18.7988,119.237,16.8213Q121.898,12.9395,127.074,12.9395Q129.564,12.9395,132.274,14.0137L131.419,21.0449Q130.052,19.9463,128.661,19.9463Q127.22,19.9463,126.476,20.8374Q125.731,21.7285,125.487,23.7061L124.999,27.6611L130.589,27.6611L129.833,33.9844L124.217,33.9844ZM139.696,14.3311Q141.6,14.3311,142.967,15.6494Q144.457,17.0898,144.457,19.2139Q144.457,21.2646,143.041,22.7051Q141.625,24.1455,139.623,24.1455Q137.401,24.1455,135.985,22.5342Q134.691,21.0693,134.691,19.1895Q134.691,17.1875,136.083,15.8203Q137.621,14.3311,139.696,14.3311ZM142.601,27.6611L139.842,50L131.615,50L134.374,27.6611L142.601,27.6611ZM153.807,40.5029Q153.807,42.7979,154.637,43.7256Q155.711,44.873,157.738,44.873Q160.375,44.873,160.887,42.5781L169.872,42.5781Q168.578,45.8984,166.747,47.583Q163.426,50.6592,157.542,50.6592Q152.318,50.6592,149.388,48.0713Q147.777,46.6553,146.874,44.458Q145.97,42.2607,145.97,39.7461Q145.97,34.3506,149.486,30.6885Q153.001,27.002,159.154,27.002Q165.013,27.002,167.992,30.4932Q170.604,33.5693,170.604,38.4521Q170.604,39.0625,170.506,40.5029L153.807,40.5029ZM162.181,35.8398Q162.083,34.5947,161.644,33.9111Q160.619,32.3975,158.495,32.3975Q155.125,32.3975,154.369,35.8398L162.181,35.8398ZM202.953,13.5498L198.46,50L190.233,50L190.843,47.3389Q188.89,49.1211,187.083,49.8901Q185.277,50.6592,183.031,50.6592Q178.929,50.6592,176.463,47.876Q173.9,44.9707,173.9,40.5029Q173.9,35.3027,176.83,31.2988Q178.539,28.9307,181.249,27.7832Q183.153,26.9775,185.277,26.9775Q187.572,26.9775,189.244,27.7832Q190.917,28.5889,192.625,30.542L194.725,13.5498L202.953,13.5498ZM187.596,33.4961Q185.326,33.4961,183.812,35.2051Q182.298,36.9141,182.298,39.502Q182.298,41.3086,183.153,42.4561Q184.398,44.165,186.791,44.165Q189.378,44.165,190.843,42.0166Q191.991,40.3564,191.991,38.2324Q191.991,35.7422,190.599,34.5459Q189.403,33.4961,187.596,33.4961Z" fill="#3D3D3D" fill-opacity="1"/></g></svg>