<svg xmlns="http://www.w3.org/2000/svg" xmlns:xlink="http://www.w3.org/1999/xlink" fill="none" version="1.1" width="43" height="43" viewBox="0 0 43 43"><defs><mask id="master_svg0_345_91945" style="mask-type:alpha" maskUnits="userSpaceOnUse"><g><rect x="0" y="0" width="43" height="43" rx="0" fill="#FFFFFF" fill-opacity="1"/></g></mask></defs><g mask="url(#master_svg0_345_91945)"><g><g style="opacity:0.4000000059604645;"><path d="M34,39.999921875C34,39.999921875,32,39.999921875,32,39.999921875C32,39.999921875,32,39.499921875,32,39.499921875C32,37.299921875,30.2,35.499921875,28,35.499921875C28,35.499921875,23.5,35.499921875,23.5,35.499921875C23.5,35.499921875,23.5,30.919921875,23.5,30.919921875C23,30.979921875,22.5,30.999921875,22,30.999921875C21.5,30.999921875,21,30.979921875,20.5,30.919921875C20.5,30.919921875,20.5,35.499921875,20.5,35.499921875C20.5,35.499921875,16,35.499921875,16,35.499921875C13.8,35.499921875,12,37.299921875,12,39.499921875C12,39.499921875,12,39.999921875,12,39.999921875C12,39.999921875,10,39.999921875,10,39.999921875C9.18,39.999921875,8.5,40.679921875,8.5,41.499921875C8.5,42.319921875,9.18,42.999921875,10,42.999921875C10,42.999921875,34,42.999921875,34,42.999921875C34.82,42.999921875,35.5,42.319921875,35.5,41.499921875C35.5,40.679921875,34.82,39.999921875,34,39.999921875C34,39.999921875,34,39.999921875,34,39.999921875Z" fill="#292D32" fill-opacity="1"/></g><g style="opacity:0.4000000059604645;"><path d="M9.040546875,22.28C7.720546875,21.78,6.560546875,20.96,5.640546875,20.04C3.7805468749999998,17.98,2.560546875,15.52,2.560546875,12.64C2.560546875,9.76,4.820546875,7.5,7.700546875,7.5C7.700546875,7.5,8.820546875,7.5,8.820546875,7.5C8.300546875,8.56,8.000546875000001,9.74,8.000546875000001,11C8.000546875000001,11,8.000546875000001,17,8.000546875000001,17C8.000546875000001,18.880000000000003,8.360546875,20.66,9.040546875,22.28C9.040546875,22.28,9.040546875,22.28,9.040546875,22.28Z" fill="#292D32" fill-opacity="1"/></g><g style="opacity:0.4000000059604645;"><path d="M41.439960937500004,12.64C41.439960937500004,15.52,40.2199609375,17.98,38.3599609375,20.04C37.4399609375,20.96,36.2799609375,21.78,34.9599609375,22.28C35.6399609375,20.66,35.9999609375,18.880000000000003,35.9999609375,17C35.9999609375,17,35.9999609375,11,35.9999609375,11C35.9999609375,9.74,35.6999629375,8.56,35.1799629375,7.5C35.1799629375,7.5,36.2999609375,7.5,36.2999609375,7.5C39.1799609375,7.5,41.439960937500004,9.76,41.439960937500004,12.64C41.439960937500004,12.64,41.439960937500004,12.64,41.439960937500004,12.64Z" fill="#292D32" fill-opacity="1"/></g><g><path d="M28,3C28,3,16,3,16,3C11.58,3,8,6.58,8,11C8,11,8,17,8,17C8,24.74,14.26,31,22,31C29.74,31,36,24.74,36,17C36,17,36,11,36,11C36,6.58,32.42,3,28,3C28,3,28,3,28,3ZM27.68,15.9C27.68,15.9,26.44,17.42,26.44,17.42C26.24,17.64,26.1,18.08,26.12,18.380000000000003C26.12,18.380000000000003,26.24,20.34,26.24,20.34C26.32,21.54,25.46,22.16,24.34,21.72C24.34,21.72,22.52,21,22.52,21C22.240000000000002,20.9,21.759999999999998,20.9,21.48,21C21.48,21,19.66,21.72,19.66,21.72C18.54,22.16,17.68,21.54,17.759999999999998,20.34C17.759999999999998,20.34,17.880000000000003,18.380000000000003,17.880000000000003,18.380000000000003C17.9,18.08,17.759999999999998,17.64,17.560000000000002,17.42C17.560000000000002,17.42,16.32,15.9,16.32,15.9C15.54,14.98,15.879999999999999,13.96,17.04,13.66C17.04,13.66,18.939999999999998,13.18,18.939999999999998,13.18C19.240000000000002,13.1,19.6,12.82,19.759999999999998,12.56C19.759999999999998,12.56,20.82,10.92,20.82,10.92C21.48,9.9,22.52,9.9,23.18,10.92C23.18,10.92,24.24,12.56,24.24,12.56C24.4,12.82,24.76,13.1,25.06,13.18C25.06,13.18,26.96,13.66,26.96,13.66C28.12,13.96,28.46,14.98,27.68,15.9C27.68,15.9,27.68,15.9,27.68,15.9Z" fill="#292D32" fill-opacity="1"/></g><g style="opacity:0.4000000059604645;"><path d="M27.679537500000002,15.900273437500001C27.679537500000002,15.900273437500001,26.4395375,17.4202734375,26.4395375,17.4202734375C26.2395375,17.6402734375,26.0995375,18.0802734375,26.1195375,18.3802734375C26.1195375,18.3802734375,26.2395375,20.340273437500002,26.2395375,20.340273437500002C26.3195375,21.540273437499998,25.459497499999998,22.160273437500003,24.3394975,21.720273437499998C24.3394975,21.720273437499998,22.5194975,21.0002734375,22.5194975,21.0002734375C22.2394975,20.900273437499997,21.759497500000002,20.900273437499997,21.4794975,21.0002734375C21.4794975,21.0002734375,19.6594975,21.720273437499998,19.6594975,21.720273437499998C18.5394975,22.160273437500003,17.6794975,21.540273437499998,17.7594975,20.340273437500002C17.7594975,20.340273437500002,17.8794975,18.3802734375,17.8794975,18.3802734375C17.8994975,18.0802734375,17.7594975,17.6402734375,17.5594975,17.4202734375C17.5594975,17.4202734375,16.3194935,15.900273437500001,16.3194935,15.900273437500001C15.5394935,14.9802734375,15.8794946,13.9602734375,17.0394975,13.660273437499999C17.0394975,13.660273437499999,18.9394975,13.1802734375,18.9394975,13.1802734375C19.2394975,13.1002734375,19.5994975,12.8202734375,19.759497500000002,12.5602734375C19.759497500000002,12.5602734375,20.8194975,10.9202734375,20.8194975,10.9202734375C21.4794975,9.9002734375,22.5194975,9.9002734375,23.1794975,10.9202734375C23.1794975,10.9202734375,24.2394975,12.5602734375,24.2394975,12.5602734375C24.399497500000003,12.8202734375,24.759497500000002,13.1002734375,25.0594975,13.1802734375C25.0594975,13.1802734375,26.9595375,13.660273437499999,26.9595375,13.660273437499999C28.1195375,13.9602734375,28.4595375,14.9802734375,27.679537500000002,15.900273437500001C27.679537500000002,15.900273437500001,27.679537500000002,15.900273437500001,27.679537500000002,15.900273437500001Z" fill="#292D32" fill-opacity="1"/></g><g style="opacity:0;"></g></g></g></svg>