<svg xmlns="http://www.w3.org/2000/svg" xmlns:xlink="http://www.w3.org/1999/xlink" fill="none" version="1.1" width="44" height="44" viewBox="0 0 44 44"><g><g><g><g style="opacity:0.4000000059604645;"><path d="M19.70828125,4.4919140625C20.97328125,3.4102470625,23.04498125,3.4102470625,24.32828125,4.4919140625C24.32828125,4.4919140625,27.22498125,6.9852440625,27.22498125,6.9852440625C27.77498125,7.4619140625,28.80158125,7.8469140625,29.53498125,7.8469140625C29.53498125,7.8469140625,32.65158125,7.8469140625,32.65158125,7.8469140625C34.594981250000004,7.8469140625,36.18998125,9.4419140625,36.18998125,11.3852440625C36.18998125,11.3852440625,36.18998125,14.5018640625,36.18998125,14.5018640625C36.18998125,15.2169640625,36.57498125,16.2619640625,37.05158125,16.8119640625C37.05158125,16.8119640625,39.54498125,19.7085640625,39.54498125,19.7085640625C40.62658125,20.9735640625,40.62658125,23.0452640625,39.54498125,24.3285640625C39.54498125,24.3285640625,37.05158125,27.2252640625,37.05158125,27.2252640625C36.57498125,27.7752640625,36.18998125,28.8018640625,36.18998125,29.5352640625C36.18998125,29.5352640625,36.18998125,32.651864062499996,36.18998125,32.651864062499996C36.18998125,34.5952640625,34.594981250000004,36.1902640625,32.65158125,36.1902640625C32.65158125,36.1902640625,29.53498125,36.1902640625,29.53498125,36.1902640625C28.81998125,36.1902640625,27.77498125,36.5752640625,27.22498125,37.0518640625C27.22498125,37.0518640625,24.32828125,39.5452640625,24.32828125,39.5452640625C23.06328125,40.6268640625,20.99158125,40.6268640625,19.70828125,39.5452640625C19.70828125,39.5452640625,16.81158125,37.0518640625,16.81158125,37.0518640625C16.26158125,36.5752640625,15.23498125,36.1902640625,14.50158125,36.1902640625C14.50158125,36.1902640625,11.32995125,36.1902640625,11.32995125,36.1902640625C9.38661125,36.1902640625,7.79161125,34.5952640625,7.79161125,32.651864062499996C7.79161125,32.651864062499996,7.79161125,29.5169640625,7.79161125,29.5169640625C7.79161125,28.8018640625,7.40661125,27.7752640625,6.94828125,27.2252640625C6.94828125,27.2252640625,4.47328125,24.3102640625,4.47328125,24.3102640625C3.4099482500000002,23.0452640625,3.4099482500000002,20.9919640625,4.47328125,19.7268640625C4.47328125,19.7268640625,6.94828125,16.8119640625,6.94828125,16.8119640625C7.40661125,16.2619640625,7.79161125,15.2352640625,7.79161125,14.5202640625C7.79161125,14.5202640625,7.79161125,11.366914062500001,7.79161125,11.366914062500001C7.79161125,9.4235840625,9.38661125,7.8285840625,11.32995125,7.8285840625C11.32995125,7.8285840625,14.50158125,7.8285840625,14.50158125,7.8285840625C15.21658125,7.8285840625,16.26158125,7.443584062499999,16.81158125,6.9669140625C16.81158125,6.9669140625,19.70828125,4.4919140625,19.70828125,4.4919140625C19.70828125,4.4919140625,19.70828125,4.4919140625,19.70828125,4.4919140625Z" fill="#292D32" fill-opacity="1"/></g><g><path d="M19.78217765625,27.81182578125C19.41551765625,27.81182578125,19.06717765625,27.665125781249998,18.81051765625,27.40852578125C18.81051765625,27.40852578125,14.37384765625,22.97184578125,14.37384765625,22.97184578125C13.84218065625,22.440175781249998,13.84218065625,21.56017578125,14.37384765625,21.02850578125C14.90551465625,20.496845781250002,15.785507656250001,20.496845781250002,16.31717765625,21.02850578125C16.31717765625,21.02850578125,19.78217765625,24.49350578125,19.78217765625,24.49350578125C19.78217765625,24.49350578125,27.66549765625,16.61017578125,27.66549765625,16.61017578125C28.197197656249998,16.07850878125,29.07719765625,16.07850878125,29.60889765625,16.61017578125C30.14049765625,17.14184278125,30.14049765625,18.02183578125,29.60889765625,18.55350578125C29.60889765625,18.55350578125,20.75384765625,27.40852578125,20.75384765625,27.40852578125C20.49717765625,27.665125781249998,20.14884765625,27.81182578125,19.78217765625,27.81182578125C19.78217765625,27.81182578125,19.78217765625,27.81182578125,19.78217765625,27.81182578125Z" fill="#292D32" fill-opacity="1"/></g><g style="opacity:0;"></g></g></g></g></svg>