<svg xmlns="http://www.w3.org/2000/svg" xmlns:xlink="http://www.w3.org/1999/xlink" fill="none" version="1.1" width="40" height="40" viewBox="0 0 40 40"><g><g><g><g style="opacity:0;"></g><g style="opacity:0;"></g><g style="opacity:0.4000000059604645;"><path d="M6.1162109375,4.16650390625C6.1162109375,4.16650390625,6.1162109375,24.11650390625,6.1162109375,24.11650390625C6.1162109375,25.74980390625,6.8828779375,27.29980390625,8.1995409375,28.28320390625C8.1995409375,28.28320390625,16.8829109375,34.78320390625,16.8829109375,34.78320390625C18.7328109375,36.16650390625,21.282810937500003,36.16650390625,23.1329109375,34.78320390625C23.1329109375,34.78320390625,31.8162109375,28.28320390625,31.8162109375,28.28320390625C33.1329109375,27.29980390625,33.8995109375,25.74980390625,33.8995109375,24.11650390625C33.8995109375,24.11650390625,33.8995109375,4.16650390625,33.8995109375,4.16650390625C33.8995109375,4.16650390625,6.1162109375,4.16650390625,6.1162109375,4.16650390625C6.1162109375,4.16650390625,6.1162109375,4.16650390625,6.1162109375,4.16650390625Z" fill="#292D32" fill-opacity="1"/></g><g><g><path d="M36.666551953125,5.416666030883789C36.666551953125,5.416666030883789,3.333251953125,5.416666030883789,3.333251953125,5.416666030883789C2.649918953125,5.416666030883789,2.083251953125,4.849996030883789,2.083251953125,4.166666030883789C2.083251953125,3.483333030883789,2.649918953125,2.916666030883789,3.333251953125,2.916666030883789C3.333251953125,2.916666030883789,36.666551953125,2.916666030883789,36.666551953125,2.916666030883789C37.349951953125,2.916666030883789,37.916551953125,3.483333030883789,37.916551953125,4.166666030883789C37.916551953125,4.849996030883789,37.349951953125,5.416666030883789,36.666551953125,5.416666030883789C36.666551953125,5.416666030883789,36.666551953125,5.416666030883789,36.666551953125,5.416666030883789Z" fill="#292D32" fill-opacity="1"/></g></g></g></g><g><g><g><path d="M23.647800781249998,25.49921796875C23.647800781249998,25.49921796875,18.699420781249998,14.35207796875,18.699420781249998,14.35207796875C18.699420781249998,14.35207796875,13.75099078125,25.49921796875,13.75099078125,25.49921796875C13.75099078125,25.49921796875,11.32080078125,24.425017968749998,11.32080078125,24.425017968749998C11.32080078125,24.425017968749998,17.48432078125,10.56591796875,17.48432078125,10.56591796875C17.48432078125,10.56591796875,19.91451078125,10.56591796875,19.91451078125,10.56591796875C19.91451078125,10.56591796875,26.078000781249997,24.425017968749998,26.078000781249997,24.425017968749998C26.078000781249997,24.425017968749998,23.647800781249998,25.49921796875,23.647800781249998,25.49921796875C23.647800781249998,25.49921796875,23.647800781249998,25.49921796875,23.647800781249998,25.49921796875Z" fill="#292D32" fill-opacity="1"/></g><g><path d="M21.781155,21.66055296875C21.781155,21.66055296875,15.617625,21.66055296875,15.617625,21.66055296875C14.895617,21.66055296875,14.296875,21.06181296875,14.296875,20.33979296875C14.296875,19.61778496875,14.895617,19.01904296875,15.617625,19.01904296875C15.617625,19.01904296875,21.781155,19.01904296875,21.781155,19.01904296875C22.503165,19.01904296875,23.101905000000002,19.61778496875,23.101905000000002,20.33979296875C23.101905000000002,21.06181296875,22.503165,21.66055296875,21.781155,21.66055296875C21.781155,21.66055296875,21.781155,21.66055296875,21.781155,21.66055296875Z" fill="#292D32" fill-opacity="1"/></g><g><path d="M24,15.67773L24,13.96143L28.10059,13.96143L28.10059,10L29.84473,10L29.84473,13.96143L33.94531,13.96143L33.94531,15.67773L29.84473,15.67773L29.84473,19.71338L28.10059,19.71338L28.10059,15.67773L24,15.67773Z" fill="#000000" fill-opacity="1"/></g></g></g></g></svg>