<svg xmlns="http://www.w3.org/2000/svg" xmlns:xlink="http://www.w3.org/1999/xlink" fill="none" version="1.1" width="40" height="40" viewBox="0 0 40 40"><g><g><g><g style="opacity:0;"></g><g><path d="M36.66679609375,31.666671907348633C36.66679609375,31.666671907348633,36.66679609375,36.66667190734863,36.66679609375,36.66667190734863C36.66679609375,36.66667190734863,3.33349609375,36.66667190734863,3.33349609375,36.66667190734863C3.33349609375,36.66667190734863,3.33349609375,31.666671907348633,3.33349609375,31.666671907348633C3.33349609375,30.750001907348633,4.08349609375,30.000001907348633,5.00016609375,30.000001907348633C5.00016609375,30.000001907348633,35.00019609375,30.000001907348633,35.00019609375,30.000001907348633C35.91679609375,30.000001907348633,36.66679609375,30.750001907348633,36.66679609375,31.666671907348633C36.66679609375,31.666671907348633,36.66679609375,31.666671907348633,36.66679609375,31.666671907348633Z" fill="#292D32" fill-opacity="1"/><path d="M36.70759609375,29.959255007348634Q35.99829609375,29.250001907348633,35.00019609375,29.250001907348633L5.00016609375,29.250001907348633Q4.00200309375,29.250001907348633,3.29274939375,29.959255207348633Q2.58349609375,30.66850890734863,2.58349609375,31.666671907348633L2.58349609375,36.66667190734863Q2.58349609375,36.740541907348636,2.59790709375,36.81298190734863Q2.61231809375,36.88543190734863,2.64058609375,36.95368190734863Q2.66885509375,37.021921907348634,2.70989409375,37.08334190734863Q2.75093309375,37.14476190734863,2.80316609375,37.197001907348636Q2.85539909375,37.24923190734863,2.91681809375,37.29027190734863Q2.97823809375,37.331311907348635,3.04648309375,37.359581907348634Q3.11472909375,37.38784190734863,3.18717809375,37.40226190734863Q3.25962759375,37.41667190734863,3.33349609375,37.41667190734863L36.66679609375,37.41667190734863Q36.74069609375,37.41667190734863,36.81319609375,37.40226190734863Q36.88559609375,37.38784190734863,36.95379609375,37.359581907348634Q37.02209609375,37.331311907348635,37.08349609375,37.29027190734863Q37.14489609375,37.24923190734863,37.19719609375,37.197001907348636Q37.24939609375,37.14476190734863,37.29039609375,37.08334190734863Q37.33149609375,37.021921907348634,37.35969609375,36.95368190734863Q37.38799609375,36.88543190734863,37.40239609375,36.81298190734863Q37.41679609375,36.740541907348636,37.41679609375,36.66667190734863L37.41679609375,31.666671907348633Q37.41679609375,30.66850590734863,36.70759609375,29.959255007348634ZM5.00016609375,30.750001907348633L35.00019609375,30.750001907348633Q35.37699609375,30.750001907348633,35.64689609375,31.019911907348632Q35.91679609375,31.28983190734863,35.91679609375,31.666671907348633L35.91679609375,35.91667190734863L4.08349609375,35.91667190734863L4.08349609375,31.666671907348633Q4.08349609375,31.28983190734863,4.35340609375,31.019911907348632Q4.62332609375,30.750001907348633,5.00016609375,30.750001907348633Z" fill-rule="evenodd" fill="#292D32" fill-opacity="1"/></g><g style="opacity:0.6000000238418579;"><path d="M13.33317390625,18.33349609375C13.33317390625,18.33349609375,6.66650390625,18.33349609375,6.66650390625,18.33349609375C6.66650390625,18.33349609375,6.66650390625,30.00019609375,6.66650390625,30.00019609375C6.66650390625,30.00019609375,13.33317390625,30.00019609375,13.33317390625,30.00019609375C13.33317390625,30.00019609375,13.33317390625,18.33349609375,13.33317390625,18.33349609375C13.33317390625,18.33349609375,13.33317390625,18.33349609375,13.33317390625,18.33349609375Z" fill="#292D32" fill-opacity="1"/></g><g style="opacity:0.4000000059604645;"><path d="M20.00016609375,18.33349609375C20.00016609375,18.33349609375,13.33349609375,18.33349609375,13.33349609375,18.33349609375C13.33349609375,18.33349609375,13.33349609375,30.00019609375,13.33349609375,30.00019609375C13.33349609375,30.00019609375,20.00016609375,30.00019609375,20.00016609375,30.00019609375C20.00016609375,30.00019609375,20.00016609375,18.33349609375,20.00016609375,18.33349609375C20.00016609375,18.33349609375,20.00016609375,18.33349609375,20.00016609375,18.33349609375Z" fill="#292D32" fill-opacity="1"/></g><g style="opacity:0.6000000238418579;"><path d="M26.66667,18.33349609375C26.66667,18.33349609375,20,18.33349609375,20,18.33349609375C20,18.33349609375,20,30.00019609375,20,30.00019609375C20,30.00019609375,26.66667,30.00019609375,26.66667,30.00019609375C26.66667,30.00019609375,26.66667,18.33349609375,26.66667,18.33349609375C26.66667,18.33349609375,26.66667,18.33349609375,26.66667,18.33349609375Z" fill="#292D32" fill-opacity="1"/></g><g style="opacity:0.4000000059604645;"><path d="M33.333173906249996,18.33349609375C33.333173906249996,18.33349609375,26.66650390625,18.33349609375,26.66650390625,18.33349609375C26.66650390625,18.33349609375,26.66650390625,30.00019609375,26.66650390625,30.00019609375C26.66650390625,30.00019609375,33.333173906249996,30.00019609375,33.333173906249996,30.00019609375C33.333173906249996,30.00019609375,33.333173906249996,18.33349609375,33.333173906249996,18.33349609375C33.333173906249996,18.33349609375,33.333173906249996,18.33349609375,33.333173906249996,18.33349609375Z" fill="#292D32" fill-opacity="1"/></g><g><path d="M38.33320390625,37.91650390625C38.33320390625,37.91650390625,1.66650390625,37.91650390625,1.66650390625,37.91650390625C0.98317090625,37.91650390625,0.41650390625,37.34983390625,0.41650390625,36.66650390625C0.41650390625,35.98317090625,0.98317090625,35.41650390625,1.66650390625,35.41650390625C1.66650390625,35.41650390625,38.33320390625,35.41650390625,38.33320390625,35.41650390625C39.01650390625,35.41650390625,39.58320390625,35.98317090625,39.58320390625,36.66650390625C39.58320390625,37.34983390625,39.01650390625,37.91650390625,38.33320390625,37.91650390625C38.33320390625,37.91650390625,38.33320390625,37.91650390625,38.33320390625,37.91650390625Z" fill="#292D32" fill-opacity="1"/></g><g><path d="M35.61679609375,9.58334936401367C35.61679609375,9.58334936401367,20.61679609375,3.583379364013672,20.61679609375,3.583379364013672C20.28349609375,3.450046064013672,19.71679609375,3.450046064013672,19.38349609375,3.583379364013672C19.38349609375,3.583379364013672,4.38350609375,9.58334936401367,4.38350609375,9.58334936401367C3.80017109375,9.816679364013673,3.33349609375,10.499999364013672,3.33349609375,11.133329364013672C3.33349609375,11.133329364013672,3.33349609375,16.66667936401367,3.33349609375,16.66667936401367C3.33349609375,17.583379364013673,4.08349609375,18.333379364013673,5.00016609375,18.333379364013673C5.00016609375,18.333379364013673,35.00019609375,18.333379364013673,35.00019609375,18.333379364013673C35.91679609375,18.333379364013673,36.66679609375,17.583379364013673,36.66679609375,16.66667936401367C36.66679609375,16.66667936401367,36.66679609375,11.133329364013672,36.66679609375,11.133329364013672C36.66679609375,10.499999364013672,36.20019609375,9.816679364013673,35.61679609375,9.58334936401367C35.61679609375,9.58334936401367,35.61679609375,9.58334936401367,35.61679609375,9.58334936401367ZM20.00019609375,14.166679364013671C18.61679609375,14.166679364013671,17.50019609375,13.050019364013671,17.50019609375,11.666679364013671C17.50019609375,10.283349364013672,18.61679609375,9.166679364013671,20.00019609375,9.166679364013671C21.38349609375,9.166679364013671,22.50019609375,10.283349364013672,22.50019609375,11.666679364013671C22.50019609375,13.050019364013671,21.38349609375,14.166679364013671,20.00019609375,14.166679364013671C20.00019609375,14.166679364013671,20.00019609375,14.166679364013671,20.00019609375,14.166679364013671Z" fill="#292D32" fill-opacity="1"/></g></g></g></g></svg>