<svg xmlns="http://www.w3.org/2000/svg" xmlns:xlink="http://www.w3.org/1999/xlink" fill="none" version="1.1" width="40" height="40" viewBox="0 0 40 40"><g><g><g><g style="opacity:0;"></g><g style="opacity:0.4000000059604645;"><path d="M20,8.8335C20,8.8335,20,35.550200000000004,20,35.550200000000004C20.283333,35.550200000000004,20.583317,35.5002,20.81665,35.3668C20.81665,35.3668,20.883382,35.3335,20.883382,35.3335C24.08338,33.5835,29.66662,31.7502,33.2833,31.2668C33.2833,31.2668,33.7667,31.2002,33.7667,31.2002C35.3667,31.0002,36.6667,29.5002,36.6667,27.9002C36.6667,27.9002,36.6667,7.7668,36.6667,7.7668C36.6667,5.78347,35.0501,4.283486,33.0667,4.4501521C29.56672,4.733485,24.26672,6.5001999999999995,21.30005,8.350200000000001C21.30005,8.350200000000001,20.883382,8.60013,20.883382,8.60013C20.633382,8.75013,20.316667,8.8335,20,8.8335C20,8.8335,20,8.8335,20,8.8335Z" fill="#292D32" fill-opacity="1"/></g><g><path d="M3.33349609375,7.7835315625C3.33349609375,7.7835315625,3.33349609375,27.9003015625,3.33349609375,27.9003015625C3.33349609375,29.5003015625,4.63347609375,31.0001015625,6.233476093749999,31.2001015625C6.233476093749999,31.2001015625,6.78351609375,31.2669015625,6.78351609375,31.2669015625C10.41684609375,31.7503015625,16.01689609375,33.6001015625,19.21689609375,35.3668015625C19.43349609375,35.5001015625,19.70019609375,35.550301562499996,20.00019609375,35.550301562499996C20.00019609375,35.550301562499996,20.00019609375,8.8335315625,20.00019609375,8.8335315625C19.68349609375,8.8335315625,19.36679609375,8.7501815625,19.11679609375,8.600181562500001C19.11679609375,8.600181562500001,18.83349609375,8.416871562499999,18.83349609375,8.416871562499999C15.86679609375,6.5502015625,10.55012609375,4.7668785625,7.05012609375,4.4668778625C7.05012609375,4.4668778625,6.95012609375,4.4668778625,6.95012609375,4.4668778625C4.96679609375,4.3002115625,3.33349609375,5.7835315625,3.33349609375,7.7835315625C3.33349609375,7.7835315625,3.33349609375,7.7835315625,3.33349609375,7.7835315625Z" fill="#292D32" fill-opacity="1"/></g><g><path d="M31.66667,4.63330078125C31.66667,4.63330078125,31.66667,11.78327078125,31.66667,11.78327078125C31.66667,12.44993078125,30.93328,12.84990078125,30.36662,12.48323078125C30.36662,12.48323078125,28.33333,11.133230781249999,28.33333,11.133230781249999C28.33333,11.133230781249999,26.30005,12.48323078125,26.30005,12.48323078125C25.750048,12.84990078125,25,12.44993078125,25,11.78327078125C25,11.78327078125,25,6.53322078125,25,6.53322078125C27.18333,5.66656078125,29.61667,4.96663378125,31.66667,4.63330078125C31.66667,4.63330078125,31.66667,4.63330078125,31.66667,4.63330078125Z" fill="#292D32" fill-opacity="1"/></g></g></g></g></svg>