<svg xmlns="http://www.w3.org/2000/svg" xmlns:xlink="http://www.w3.org/1999/xlink" fill="none" version="1.1" width="40" height="40" viewBox="0 0 40 40"><g><g><g><g><path d="M37.28117734375,38.59650004394531C37.28117734375,38.59650004394531,4.82506734375,38.59650004394531,4.82506734375,38.59650004394531C4.10576834375,38.59650004394531,3.50927734375,38.00001004394531,3.50927734375,37.28071004394531C3.50927734375,36.56141104394531,4.10576834375,35.96492004394531,4.82506734375,35.96492004394531C4.82506734375,35.96492004394531,37.28117734375,35.96492004394531,37.28117734375,35.96492004394531C38.00047734375,35.96492004394531,38.59697734375,36.56141104394531,38.59697734375,37.28071004394531C38.59697734375,38.00001004394531,38.00047734375,38.59650004394531,37.28117734375,38.59650004394531C37.28117734375,38.59650004394531,37.28117734375,38.59650004394531,37.28117734375,38.59650004394531Z" fill="#292D32" fill-opacity="1"/></g><g style="opacity:0.4000000059604645;"><path d="M36.122564062500004,24.035114321899414C36.122564062500004,24.035114321899414,23.4383640625,36.71931432189942,23.4383640625,36.71931432189942C20.9470640625,39.21051432189942,16.9295640625,39.21051432189942,14.4558840625,36.736814321899416C14.4558840625,36.736814321899416,6.3681640625,28.649114321899415,6.3681640625,28.649114321899415C6.3681640625,28.649114321899415,28.0523640625,6.964914321899414,28.0523640625,6.964914321899414C28.0523640625,6.964914321899414,36.1400640625,15.052634321899413,36.1400640625,15.052634321899413C38.6137640625,17.526314321899413,38.6137640625,21.543814321899415,36.122564062500004,24.035114321899414C36.122564062500004,24.035114321899414,36.122564062500004,24.035114321899414,36.122564062500004,24.035114321899414Z" fill="#292D32" fill-opacity="1"/></g><g style="opacity:0;"></g><g><path d="M28.05325546875,6.96469671875C28.05325546875,6.96469671875,6.35141546875,28.64903671875,6.35141546875,28.64903671875C6.35141546875,28.64903671875,4.75492546875,27.05253671875,4.75492546875,27.05253671875C2.28124846875,24.57883671875,2.28124846875,20.56123671875,4.77247546875,18.06993671875C4.77247546875,18.06993671875,17.45665546875,5.38575671875,17.45665546875,5.38575671875C19.94795546875,2.89452971875,23.96555546875,2.89452971875,26.43925546875,5.36820671875C26.43925546875,5.36820671875,28.05325546875,6.96469671875,28.05325546875,6.96469671875C28.05325546875,6.96469671875,28.05325546875,6.96469671875,28.05325546875,6.96469671875Z" fill="#292D32" fill-opacity="1"/></g><g><path d="M22.61423875,30.87719883117676C22.61423875,30.87719883117676,20.24581875,33.245618831176756,20.24581875,33.245618831176756C19.75458875,33.73684883117676,18.96511775,33.73684883117676,18.47388975,33.245618831176756C17.98266175,32.754388831176755,17.98266175,31.964918831176757,18.47388975,31.47368883117676C18.47388975,31.47368883117676,20.84230875,29.10526983117676,20.84230875,29.10526983117676C21.33353875,28.614041831176756,22.12300875,28.614041831176756,22.61423875,29.10526983117676C23.10546875,29.59649783117676,23.10546875,30.385968831176758,22.61423875,30.87719883117676C22.61423875,30.87719883117676,22.61423875,30.87719883117676,22.61423875,30.87719883117676Z" fill="#292D32" fill-opacity="1"/></g><g><path d="M30.298614843750002,23.193084375C30.298614843750002,23.193084375,25.57931484375,27.912384375000002,25.57931484375,27.912384375000002C25.08808484375,28.403614375,24.29861384375,28.403614375,23.80738584375,27.912384375000002C23.31615784375,27.421154375,23.31615784375,26.631684375,23.80738584375,26.140454375C23.80738584375,26.140454375,28.52668484375,21.421155375,28.52668484375,21.421155375C29.01791484375,20.929927375,29.80738484375,20.929927375,30.298614843750002,21.421155375C30.77229484375,21.912383375,30.77229484375,22.701854375,30.298614843750002,23.193084375C30.298614843750002,23.193084375,30.298614843750002,23.193084375,30.298614843750002,23.193084375Z" fill="#292D32" fill-opacity="1"/></g></g></g></g></svg>