<svg xmlns="http://www.w3.org/2000/svg" xmlns:xlink="http://www.w3.org/1999/xlink" fill="none" version="1.1" width="40" height="40" viewBox="0 0 40 40"><g><g><g><g style="opacity:0.4000000059604645;"><path d="M30,34.166668474121096C30,34.166668474121096,28.3333,34.166668474121096,28.3333,34.166668474121096C28.3333,34.166668474121096,28.3333,33.74999847412109,28.3333,33.74999847412109C28.3333,31.916668474121096,26.8333,30.416668474121092,25,30.416668474121092C25,30.416668474121092,21.25,30.416668474121092,21.25,30.416668474121092C21.25,30.416668474121092,21.25,26.599998474121094,21.25,26.599998474121094C20.8333,26.649998474121094,20.4167,26.666665174121093,20,26.666665174121093C19.5833,26.666665174121093,19.1667,26.649998474121094,18.75,26.599998474121094C18.75,26.599998474121094,18.75,30.416668474121092,18.75,30.416668474121092C18.75,30.416668474121092,15,30.416668474121092,15,30.416668474121092C13.16667,30.416668474121092,11.66667,31.916668474121096,11.66667,33.74999847412109C11.66667,33.74999847412109,11.66667,34.166668474121096,11.66667,34.166668474121096C11.66667,34.166668474121096,10,34.166668474121096,10,34.166668474121096C9.316667,34.166668474121096,8.75,34.733328474121095,8.75,35.416668474121096C8.75,36.099998474121094,9.316667,36.66669847412109,10,36.66669847412109C10,36.66669847412109,30,36.66669847412109,30,36.66669847412109C30.6833,36.66669847412109,31.25,36.099998474121094,31.25,35.416668474121096C31.25,34.733328474121095,30.6833,34.166668474121096,30,34.166668474121096C30,34.166668474121096,30,34.166668474121096,30,34.166668474121096Z" fill="#292D32" fill-opacity="1"/></g><g style="opacity:0.4000000059604645;"><path d="M9.1998046875,19.40019609375C8.0998046875,18.98349609375,7.1331346875,18.30019609375,6.3664746875,17.53349609375C4.8164746874999995,15.81682609375,3.7998046875,13.76682609375,3.7998046875,11.36682609375C3.7998046875,8.96682609375,5.6831346875,7.08349609375,8.0831346875,7.08349609375C8.0831346875,7.08349609375,9.0164746875,7.08349609375,9.0164746875,7.08349609375C8.5831346875,7.96682909375,8.3331346875,8.95016609375,8.3331346875,10.00016609375C8.3331346875,10.00016609375,8.3331346875,15.00016609375,8.3331346875,15.00016609375C8.3331346875,16.566826093750002,8.6331346875,18.05019609375,9.1998046875,19.40019609375C9.1998046875,19.40019609375,9.1998046875,19.40019609375,9.1998046875,19.40019609375Z" fill="#292D32" fill-opacity="1"/></g><g style="opacity:0.4000000059604645;"><path d="M36.1998046875,11.36682609375C36.1998046875,13.76682609375,35.1831346875,15.81682609375,33.633134687500004,17.53349609375C32.8664746875,18.30019609375,31.8998046875,18.98349609375,30.7998046875,19.40019609375C31.3664716875,18.05019609375,31.6664716875,16.566826093750002,31.6664716875,15.00016609375C31.6664716875,15.00016609375,31.6664716875,10.00016609375,31.6664716875,10.00016609375C31.6664716875,8.95016609375,31.4164726875,7.96682909375,30.9831396875,7.08349609375C30.9831396875,7.08349609375,31.9164746875,7.08349609375,31.9164746875,7.08349609375C34.3164746875,7.08349609375,36.1998046875,8.96682609375,36.1998046875,11.36682609375C36.1998046875,11.36682609375,36.1998046875,11.36682609375,36.1998046875,11.36682609375Z" fill="#292D32" fill-opacity="1"/></g><g><path d="M24.9997078125,3.33349609375C24.9997078125,3.33349609375,14.9996778125,3.33349609375,14.9996778125,3.33349609375C11.3163378125,3.33349609375,8.3330078125,6.3168260937500005,8.3330078125,10.00016609375C8.3330078125,10.00016609375,8.3330078125,15.00019609375,8.3330078125,15.00019609375C8.3330078125,21.45019609375,13.5496778125,26.66679609375,19.9997078125,26.66679609375C26.4497078125,26.66679609375,31.6663078125,21.45019609375,31.6663078125,15.00019609375C31.6663078125,15.00019609375,31.6663078125,10.00016609375,31.6663078125,10.00016609375C31.6663078125,6.3168260937500005,28.6830078125,3.33349609375,24.9997078125,3.33349609375C24.9997078125,3.33349609375,24.9997078125,3.33349609375,24.9997078125,3.33349609375ZM24.7330078125,14.08349609375C24.7330078125,14.08349609375,23.6997078125,15.35019609375,23.6997078125,15.35019609375C23.5330078125,15.53349609375,23.4163078125,15.90019609375,23.4330078125,16.15019609375C23.4330078125,16.15019609375,23.5330078125,17.78349609375,23.5330078125,17.78349609375C23.5997078125,18.78349609375,22.8830078125,19.30019609375,21.9497078125,18.93349609375C21.9497078125,18.93349609375,20.4330078125,18.33349609375,20.4330078125,18.33349609375C20.1997078125,18.25019609375,19.7997078125,18.25019609375,19.5663078125,18.33349609375C19.5663078125,18.33349609375,18.0496778125,18.93349609375,18.0496778125,18.93349609375C17.1163378125,19.30019609375,16.399677812500002,18.78349609375,16.4663378125,17.78349609375C16.4663378125,17.78349609375,16.566337812500002,16.15019609375,16.566337812500002,16.15019609375C16.5830078125,15.90019609375,16.4663378125,15.53349609375,16.2996778125,15.35019609375C16.2996778125,15.35019609375,15.2663378125,14.08349609375,15.2663378125,14.08349609375C14.6163378125,13.31682609375,14.8996778125,12.46682609375,15.8663378125,12.21682609375C15.8663378125,12.21682609375,17.4496778125,11.81682609375,17.4496778125,11.81682609375C17.6996778125,11.75016609375,17.9996778125,11.51682609375,18.1330078125,11.30016609375C18.1330078125,11.30016609375,19.0163078125,9.93349609375,19.0163078125,9.93349609375C19.5663078125,9.08349609375,20.4330078125,9.08349609375,20.9830078125,9.93349609375C20.9830078125,9.93349609375,21.8663078125,11.30016609375,21.8663078125,11.30016609375C21.9997078125,11.51682609375,22.2997078125,11.75016609375,22.5497078125,11.81682609375C22.5497078125,11.81682609375,24.1330078125,12.21682609375,24.1330078125,12.21682609375C25.0997078125,12.46682609375,25.3830078125,13.31682609375,24.7330078125,14.08349609375C24.7330078125,14.08349609375,24.7330078125,14.08349609375,24.7330078125,14.08349609375Z" fill="#292D32" fill-opacity="1"/></g><g style="opacity:0.4000000059604645;"><path d="M24.733565625,14.083333587646484C24.733565625,14.083333587646484,23.700235624999998,15.350003587646484,23.700235624999998,15.350003587646484C23.533565625,15.533333587646485,23.416895625000002,15.900003587646484,23.433565625,16.150003587646484C23.433565625,16.150003587646484,23.533565625,17.783333587646485,23.533565625,17.783333587646485C23.600235625,18.783333587646485,22.883565625,19.300033587646485,21.950235625,18.933333587646484C21.950235625,18.933333587646484,20.433565625,18.333333587646486,20.433565625,18.333333587646486C20.200235625,18.250003587646482,19.800235625,18.250003587646482,19.566895625,18.333333587646486C19.566895625,18.333333587646486,18.050235625,18.933333587646484,18.050235625,18.933333587646484C17.116895625,19.300033587646485,16.400225625,18.783333587646485,16.466895625,17.783333587646485C16.466895625,17.783333587646485,16.566895625,16.150003587646484,16.566895625,16.150003587646484C16.583565625,15.900003587646484,16.466895625,15.533333587646485,16.300225625,15.350003587646484C16.300225625,15.350003587646484,15.266895625,14.083333587646484,15.266895625,14.083333587646484C14.616895625,13.316663587646485,14.900229825,12.466663587646485,15.866897625,12.216663587646485C15.866897625,12.216663587646485,17.450235625,11.816663587646485,17.450235625,11.816663587646485C17.700235625,11.750003587646484,18.000235625000002,11.516663587646484,18.133565625,11.300003587646485C18.133565625,11.300003587646485,19.016895625,9.933333587646484,19.016895625,9.933333587646484C19.566895625,9.083333587646484,20.433565625,9.083333587646484,20.983565625,9.933333587646484C20.983565625,9.933333587646484,21.866895624999998,11.300003587646485,21.866895624999998,11.300003587646485C22.000235625000002,11.516663587646484,22.300235625,11.750003587646484,22.550235625,11.816663587646485C22.550235625,11.816663587646485,24.133565625,12.216663587646485,24.133565625,12.216663587646485C25.100215625,12.466663587646485,25.383515625,13.316663587646485,24.733565625,14.083333587646484C24.733565625,14.083333587646484,24.733565625,14.083333587646484,24.733565625,14.083333587646484Z" fill="#292D32" fill-opacity="1"/></g><g style="opacity:0;"></g></g></g></g></svg>