<svg xmlns="http://www.w3.org/2000/svg" xmlns:xlink="http://www.w3.org/1999/xlink" fill="none" version="1.1" width="40" height="40" viewBox="0 0 40 40"><g><g><g><g><g style="opacity:0.4000000059604645;"><path d="M17.91630859375,4.083203125C19.08300859375,3.099870125,20.96630859375,3.099870125,22.09960859375,4.083203125C22.09960859375,4.083203125,24.73300859375,6.333203125,24.73300859375,6.333203125C25.23300859375,6.749873125000001,26.18300859375,7.099873125,26.84960859375,7.099873125C26.84960859375,7.099873125,29.68300859375,7.099873125,29.68300859375,7.099873125C31.44960859375,7.099873125,32.89960859375,8.549873125000001,32.89960859375,10.316533125C32.89960859375,10.316533125,32.89960859375,13.149873125,32.89960859375,13.149873125C32.89960859375,13.816503125,33.24960859375,14.749903125,33.66630859375,15.249903125C33.66630859375,15.249903125,35.91630859375,17.883203125,35.91630859375,17.883203125C36.89960859375,19.049903125,36.89960859375,20.933203125,35.91630859375,22.066503125C35.91630859375,22.066503125,33.66630859375,24.699903125,33.66630859375,24.699903125C33.24960859375,25.199903125,32.89960859375,26.133203125,32.89960859375,26.799903125C32.89960859375,26.799903125,32.89960859375,29.633203125,32.89960859375,29.633203125C32.89960859375,31.399903125,31.44960859375,32.849903125,29.68300859375,32.849903125C29.68300859375,32.849903125,26.84960859375,32.849903125,26.84960859375,32.849903125C26.18300859375,32.849903125,25.24960859375,33.199903125,24.74960859375,33.616503125C24.74960859375,33.616503125,22.11630859375,35.866503125,22.11630859375,35.866503125C20.94960859375,36.849903125,19.06630859375,36.849903125,17.93300859375,35.866503125C17.93300859375,35.866503125,15.29960859375,33.616503125,15.29960859375,33.616503125C14.79960859375,33.199903125,13.84960859375,32.849903125,13.19963859375,32.849903125C13.19963859375,32.849903125,10.28297859375,32.849903125,10.28297859375,32.849903125C8.51630859375,32.849903125,7.06630859375,31.399903125,7.06630859375,29.633203125C7.06630859375,29.633203125,7.06630859375,26.783203125,7.06630859375,26.783203125C7.06630859375,26.133203125,6.7329785937499995,25.183203125,6.31630859375,24.699903125C6.31630859375,24.699903125,4.06630859375,22.049903125,4.06630859375,22.049903125C3.09964159375,20.899903125,3.09964159375,19.033203125,4.06630859375,17.883203125C4.06630859375,17.883203125,6.31630859375,15.233203125,6.31630859375,15.233203125C6.7329785937499995,14.733203125,7.06630859375,13.799903125,7.06630859375,13.149873125C7.06630859375,13.149873125,7.06630859375,10.333203125,7.06630859375,10.333203125C7.06630859375,8.566533125,8.51630859375,7.116533125,10.28297859375,7.116533125C10.28297859375,7.116533125,13.16630859375,7.116533125,13.16630859375,7.116533125C13.83300859375,7.116533125,14.76630859375,6.7665331250000005,15.26630859375,6.349873125C15.26630859375,6.349873125,17.91630859375,4.083203125,17.91630859375,4.083203125C17.91630859375,4.083203125,17.91630859375,4.083203125,17.91630859375,4.083203125Z" fill="#292D32" fill-opacity="1"/></g><g><g><path d="M23.095166796875,26.990443402099608C23.095166796875,26.990443402099608,18.411796796875,16.44047340209961,18.411796796875,16.44047340209961C18.411796796875,16.44047340209961,13.728466796875,26.990443402099608,13.728466796875,26.990443402099608C13.728466796875,26.990443402099608,11.428466796875,25.97384340209961,11.428466796875,25.97384340209961C11.428466796875,25.97384340209961,17.261796796875,12.85714340209961,17.261796796875,12.85714340209961C17.261796796875,12.85714340209961,19.561796796875,12.85714340209961,19.561796796875,12.85714340209961C19.561796796875,12.85714340209961,25.395166796875,25.97384340209961,25.395166796875,25.97384340209961C25.395166796875,25.97384340209961,23.095166796875,26.990443402099608,23.095166796875,26.990443402099608C23.095166796875,26.990443402099608,23.095166796875,26.990443402099608,23.095166796875,26.990443402099608Z" fill="#292D32" fill-opacity="1"/></g><g><path d="M21.328203046875,23.357141494750977C21.328203046875,23.357141494750977,15.494873046875,23.357141494750977,15.494873046875,23.357141494750977C14.811540046875,23.357141494750977,14.244873046875,22.790471494750978,14.244873046875,22.107141494750977C14.244873046875,21.423808494750975,14.811540046875,20.857141494750977,15.494873046875,20.857141494750977C15.494873046875,20.857141494750977,21.328203046875,20.857141494750977,21.328203046875,20.857141494750977C22.011543046875,20.857141494750977,22.578203046875,21.423808494750975,22.578203046875,22.107141494750977C22.578203046875,22.790471494750978,22.011543046875,23.357141494750977,21.328203046875,23.357141494750977C21.328203046875,23.357141494750977,21.328203046875,23.357141494750977,21.328203046875,23.357141494750977Z" fill="#292D32" fill-opacity="1"/></g></g><g style="opacity:0;"></g></g></g><g><path d="M23,17.67773L23,15.96143L27.10059,15.96143L27.10059,12L28.84473,12L28.84473,15.96143L32.94531,15.96143L32.94531,17.67773L28.84473,17.67773Q29.28076,20.70447,28.84473,21.71338Q28.40869,22.7223,27.10059,21.71338L27.10059,17.67773L23,17.67773Z" fill="#000000" fill-opacity="1"/></g></g></g></svg>