<svg xmlns="http://www.w3.org/2000/svg" xmlns:xlink="http://www.w3.org/1999/xlink" fill="none" version="1.1" width="40" height="40" viewBox="0 0 40 40"><g><g><g><g style="opacity:0.4000000059604645;"><path d="M12.75009765625,34.85000740234375C12.70009765625,34.85000740234375,12.63342765625,34.88333740234375,12.583427656249999,34.88333740234375C9.35009765625,33.28333740234375,6.71676765625,30.63333740234375,5.10009765625,27.40000440234375C5.10009765625,27.35000440234375,5.13343095625,27.28333740234375,5.13343095625,27.23333740234375C7.16676765625,27.83333740234375,9.26676765625,28.28333740234375,11.35009765625,28.63333740234375C11.71676765625,30.73333740234375,12.15009765625,32.816667402343754,12.75009765625,34.85000740234375C12.75009765625,34.85000740234375,12.75009765625,34.85000740234375,12.75009765625,34.85000740234375Z" fill="#292D32" fill-opacity="1"/></g><g style="opacity:0.4000000059604645;"><path d="M34.900390625,27.41667240234375C33.250390625,30.73333740234375,30.500390625,33.41666740234375,27.150390625,35.03333740234375C27.783723625,32.91666740234375,28.317060625,30.78333740234375,28.667060625,28.63333740234375C30.767060625,28.28333740234375,32.833720625,27.83333740234375,34.867060625,27.23333740234375C34.850390625,27.30000410234375,34.900390625,27.36667140234375,34.900390625,27.41667240234375C34.900390625,27.41667240234375,34.900390625,27.41667240234375,34.900390625,27.41667240234375Z" fill="#292D32" fill-opacity="1"/></g><g style="opacity:0.4000000059604645;"><path d="M35.033720625,12.850126875C32.933720625,12.216796875,30.817060625,11.700126874999999,28.667060625,11.333466875C28.317060625,9.183466875,27.800390625,7.050126875,27.150390625,4.966796875C30.600390625,6.616796875,33.383720625,9.400126875,35.033720625,12.850126875C35.033720625,12.850126875,35.033720625,12.850126875,35.033720625,12.850126875Z" fill="#292D32" fill-opacity="1"/></g><g style="opacity:0.4000000059604645;"><path d="M12.750126875,5.15009765625C12.150126875,7.18342765625,11.716796875,9.25009765625,11.366796875,11.35009765625C9.216796875,11.68342765625,7.083466875,12.21676765625,4.966796875,12.85009765625C6.583466875,9.50009765625,9.266796875,6.75009765625,12.583466875,5.10009765625C12.633466875,5.10009765625,12.700126874999999,5.15009765625,12.750126875,5.15009765625C12.750126875,5.15009765625,12.750126875,5.15009765625,12.750126875,5.15009765625Z" fill="#292D32" fill-opacity="1"/></g><g><path d="M25.81689375,10.98349609375C21.95026375,10.55016609375,18.05026375,10.55016609375,14.18359375,10.98349609375C14.60026075,8.70016609375,15.13359375,6.41682609375,15.88359375,4.21682909375C15.91692375,4.08349609375,15.90026375,3.98349609375,15.91692375,3.85016309375C17.23359375,3.53349609375,18.58359375,3.33349609375,20.000263750000002,3.33349609375C21.40026375,3.33349609375,22.76692375,3.53349609375,24.06692375,3.85016309375C24.08359375,3.98349609375,24.08359375,4.08349609375,24.116923749999998,4.21682909375C24.86689375,6.43349609375,25.40029375,8.70016609375,25.81689375,10.98349609375C25.81689375,10.98349609375,25.81689375,10.98349609375,25.81689375,10.98349609375Z" fill="#292D32" fill-opacity="1"/></g><g><path d="M10.9830078125,25.81689375C8.6830078125,25.40029375,6.4163378125,24.86689375,4.2163408125,24.116923749999998C4.0830078125,24.08359375,3.9830078125,24.10026375,3.8496748125,24.08359375C3.5330078125,22.76692375,3.3330078125,21.41692375,3.3330078125,20.000263750000002C3.3330078125,18.60026375,3.5330078125,17.23359375,3.8496748125,15.93359375C3.9830078125,15.91692375,4.0830078125,15.91692375,4.2163408125,15.88359375C6.4330078125,15.15026075,8.6830078125,14.60026075,10.9830078125,14.18359375C10.566337812499999,18.05026375,10.566337812499999,21.95026375,10.9830078125,25.81689375C10.9830078125,25.81689375,10.9830078125,25.81689375,10.9830078125,25.81689375Z" fill="#292D32" fill-opacity="1"/></g><g><path d="M36.6666015625,20.000263750000002C36.6666015625,21.41692375,36.4666015625,22.76692375,36.1499315625,24.08359375C36.0166015625,24.10026375,35.9166015625,24.08359375,35.7832715625,24.116923749999998C33.5666015625,24.85029375,31.2999315625,25.40029375,29.0166015625,25.81689375C29.4499345625,21.95026375,29.4499345625,18.05026375,29.0166015625,14.18359375C31.2999315625,14.60026075,33.5832715625,15.13359375,35.7832715625,15.88359375C35.9166015625,15.91692375,36.0166015625,15.93359375,36.1499315625,15.93359375C36.4666015625,17.25026375,36.6666015625,18.60026375,36.6666015625,20.000263750000002C36.6666015625,20.000263750000002,36.6666015625,20.000263750000002,36.6666015625,20.000263750000002Z" fill="#292D32" fill-opacity="1"/></g><g><path d="M25.81689375,29.016677856445312C25.40029375,31.316677856445313,24.86689375,33.583347856445315,24.116923749999998,35.78334785644531C24.08359375,35.91667785644531,24.08359375,36.01667785644531,24.06692375,36.15000785644531C22.76692375,36.466677856445315,21.40026375,36.66667785644531,20.000263750000002,36.66667785644531C18.58359375,36.66667785644531,17.23359375,36.466677856445315,15.91692375,36.15000785644531C15.90026375,36.01667785644531,15.91692375,35.91667785644531,15.88359375,35.78334785644531C15.15026075,33.56667785644531,14.60026075,31.316677856445313,14.18359375,29.016677856445312C16.11692375,29.233344856445314,18.05026375,29.383342856445314,20.000263750000002,29.383342856445314C21.95026375,29.383342856445314,23.90026375,29.233344856445314,25.81689375,29.016677856445312C25.81689375,29.016677856445312,25.81689375,29.016677856445312,25.81689375,29.016677856445312Z" fill="#292D32" fill-opacity="1"/></g><g><path d="M26.2719078125,26.27239609375C22.103407812500002,26.79829609375,17.8959378125,26.79829609375,13.7274558125,26.27239609375C13.2015248125,22.103896093750002,13.2015248125,17.89642609375,13.7274558125,13.72794409375C17.8959378125,13.20201309375,22.103407812500002,13.20201309375,26.2719078125,13.72794409375C26.7978078125,17.89642609375,26.7978078125,22.103896093750002,26.2719078125,26.27239609375C26.2719078125,26.27239609375,26.2719078125,26.27239609375,26.2719078125,26.27239609375Z" fill="#292D32" fill-opacity="1"/></g><g style="opacity:0;"></g></g></g></g></svg>