<svg xmlns="http://www.w3.org/2000/svg" xmlns:xlink="http://www.w3.org/1999/xlink" fill="none" version="1.1" width="37" height="37" viewBox="0 0 37 37"><defs><clipPath id="master_svg0_308_8030"><rect x="0" y="0" width="37" height="37" rx="0"/></clipPath></defs><g><g clip-path="url(#master_svg0_308_8030)"><g><path d="M33.986596484375,2.926806484375C33.549396484374995,2.489599484375,32.967596484375,2.247509764375,32.349796484375,2.243896484375L4.563626484375,2.243896484375C3.945756484375,2.247509764375,3.364016484375,2.489599484375,2.926806484375,2.926806484375C2.489599484375,3.364016484375,2.247509764375,3.945756484375,2.243896484375,4.563626484375L2.243896484375,32.349796484375C2.247509764375,32.967596484375,2.489599484375,33.549396484374995,2.926806484375,33.986596484375C3.364016484375,34.423796484375,3.945756484375,34.665896484375,4.563626484375,34.669496484375L32.346096484374996,34.669496484375C32.963996484375,34.669496484375,33.545796484375,34.427396484375,33.982996484375,33.990196484375005C34.420196484375,33.552996484375,34.662296484375,32.971196484375,34.665896484375,32.353396484375L34.665896484375,4.567236484375C34.665896484375,3.945756484375,34.423796484375,3.364016484375,33.986596484375,2.926806484375ZM32.346096484374996,4.567236484375L32.346096484374996,32.346096484374996L4.567236484375,32.346096484374996L4.567236484375,4.567236484375L32.346096484374996,4.567236484375Z" fill="#000000" fill-opacity="1"/></g><g><path d="M14.612005,14.232716406249999L14.612005,14.66269640625C14.655365,15.11074640625,14.796285,15.47929640625,15.041985,15.793656406250001C15.197355,15.98876640625,15.276845,15.98876640625,15.511715,15.91288640625C15.569525,15.91288640625,15.652625,16.122456406250002,15.703215,16.245316406249998C15.721285,16.288676406249998,15.732125,16.32118640625,15.742965,16.33925640625C15.909175,16.71865640625,16.100725,17.03300640625,16.321125000000002,17.293166406250002C16.610125,17.62919640625,16.953425,17.87128640625,17.340025,18.01220640625C17.629125000000002,18.12783640625,17.936225,18.19648640625,18.246924999999997,18.21454640625C18.308425,18.21816640625,18.373424999999997,18.22177640625,18.434825,18.22177640625C18.684125,18.22177640625,18.929925,18.18925640625,19.171925,18.12783640625C19.753725,17.94716640625,20.266825,17.553316406249998,20.689525,16.96074640625C20.938825,16.62831640625,21.068925,16.37900640625,21.152025000000002,16.21279640625C21.184525,16.14775640625,21.209825000000002,16.09716640625,21.235125,16.06464640625C21.253225,16.04658640625,21.260424999999998,16.02128640625,21.271324999999997,15.999606406249999C21.282125,15.970706406249999,21.289324999999998,15.949026406249999,21.311025,15.949026406249999C21.329124999999998,15.949026406249999,21.361625,15.95986640625,21.390525,15.970706406249999C21.419425,15.98154640625,21.448325,15.98876640625,21.466425,15.98876640625C21.585625,15.98876640625,21.665125,15.909276406250001,21.741025,15.83339640625C21.986725,15.504586406249999,22.134825,15.11435640625,22.171025,14.70244640625L22.171025,14.27245640625C22.171025,14.01952640625,21.993925,13.84247640625,21.741025,13.84247640625L21.704925,13.84247640625L21.668725000000002,13.76660640625C21.668725000000002,13.75214640625,21.668725000000002,13.57148640625,21.708525,13.49560640625C21.715725,13.17040640625,21.741025,12.84521640625,21.788024999999998,12.52363640625C21.788024999999998,12.46581640625,21.798825,12.39716640625,21.806024999999998,12.32851640625C21.816924999999998,12.25986640625,21.824125000000002,12.19120640625,21.824125000000002,12.13339640625L21.824125000000002,12.12978640625L21.003925000000002,11.89492640625C20.964125,11.89492640625,20.617325,11.81904640625,20.613625,11.81904640625C20.422125,11.77929640625,19.302025,11.70341640625,18.200025,11.66367640625C17.358125,11.66367640625,16.537925,11.73954640625,16.331925,11.77929640625C16.284925,11.77929640625,16.227125,11.79374640625,16.176524999999998,11.80458640625C16.144025,11.81181640625,16.111525,11.81904640625,16.097025000000002,11.81904640625C16.089824999999998,11.81904640625,15.471965,11.93827640625,15.240715,12.05390640625L15.005855,12.12978640625L15.005855,12.13339640625C15.005855,12.28876640625,15.016695,12.44775640625,15.023915,12.59951640625C15.034755,12.75126640625,15.041985,12.91025640625,15.041985,13.06562640625C15.041985,13.18124640625,15.052825,13.31132640625,15.060055,13.43417640625C15.070895,13.55702640625,15.078115,13.68349640625,15.078115,13.79911640625L15.041985,13.79911640625C14.731245,13.80273640625,14.637295,14.10263640625,14.612005,14.232716406249999ZM15.898335,13.57870640625C16.678825,13.57870640625,17.271425,13.52812640625,17.766424999999998,13.42333640625C17.961525,13.38359640625,18.200025,13.34384640625,18.427625,13.30771640625C19.041925,13.17763640625,19.634425,12.91025640625,20.136725,12.530856406249999C20.389625000000002,12.82714640625,20.711225,13.04755640625,21.148425,13.22822640625L21.184525,13.22822640625L21.184525,13.41972640625C21.166525,13.72685640625,21.094225,14.767476406250001,20.949725,15.28779640625C20.884625,15.57324640625,20.635325,16.19111640625,20.212625,16.73671640625C19.844025000000002,17.213676406250002,19.222524999999997,17.77734640625,18.355325,17.77734640625L18.308425,17.77734640625C18.033825,17.77734640625,17.762825,17.69785640625,17.531525000000002,17.62197640625C16.783625,17.38349640625,16.266925,16.71142640625,15.862205,15.44316640625C15.706825,14.98066640625,15.627335,14.42783640625,15.627335,13.80995640625C15.627335,13.70156640625,15.627335,13.553416406250001,15.594815,13.43779640625C15.706825,13.575096406250001,15.815225,13.57870640625,15.891105,13.57870640625L15.891105,13.58232640625L15.898335,13.58232640625L15.898335,13.57870640625ZM19.923524999999998,27.08511640625C19.930725000000002,27.04541640625,20.057225000000003,26.33001640625,20.111425,25.83861640625C20.118625,25.73741640625,20.071624999999997,25.66151640625,20.031925,25.61811640625C19.966925,25.54591640625,19.865724999999998,25.49891640625,19.782625,25.49891640625C19.728425,25.49891640625,19.674225,25.513416406250002,19.627225,25.53501640625C19.338225,25.67601640625,18.944325,25.867516406249997,18.684125,25.99391640625C18.575725,26.04811640625,18.489024999999998,26.09151640625,18.445725,26.109616406249998C18.301125,26.03731640625,17.686925000000002,25.72651640625,17.275025,25.52781640625C17.228025000000002,25.502516406250002,17.173825,25.49171640625,17.123224999999998,25.49171640625C17.040125,25.49171640625,16.949825,25.53501640625,16.888325000000002,25.60371640625C16.826925,25.66871640625,16.798025000000003,25.75181640625,16.805225,25.83131640625C16.859425,26.322716406250002,16.942525,27.04181640625,16.949825,27.07791640625C16.924525,27.11041640625,16.396925,27.73551640625,16.068125000000002,28.12941640625C16.006725,28.20161640625,15.992325,28.30641640625,16.028425,28.40401640625C16.068125000000002,28.50881640625,16.151225,28.57741640625,16.263225,28.59551640625C16.733024999999998,28.68221640625,17.462925,28.82311640625,17.502625000000002,28.83401640625C17.524324999999997,28.87011640625,17.892825000000002,29.57471640625,18.145825000000002,30.02271640625C18.337325,30.36961640625,18.359025000000003,30.38051640625,18.445725,30.38051640625C18.536025000000002,30.38051640625,18.579425,30.33711640625,18.742024999999998,30.02271640625C18.994925000000002,29.57471640625,19.374325,28.87371640625,19.392425,28.83761640625C19.432125,28.82671640625,20.169225,28.65691640625,20.649825,28.57021640625C20.769025,28.55211640625,20.859325,28.48711640625,20.895525,28.39681640625C20.924425,28.32091640625,20.909925,28.23421640625,20.852125,28.16551640625L19.923524999999998,27.08511640625ZM26.998325,27.08151640625C26.973025,27.11401640625,26.445525,27.73911640625,26.113125,28.13301640625C26.055225,28.20531640625,26.040825,28.31001640625,26.076925,28.40761640625C26.116725,28.51241640625,26.199825,28.58101640625,26.311825,28.59911640625C26.785125,28.68581640625,27.511425,28.82671640625,27.551125,28.83761640625C27.572825,28.87371640625,27.941425,29.57831640625,28.194325,30.02641640625C28.385825,30.37321640625,28.407525,30.38411640625,28.497825,30.38411640625C28.588225,30.38411640625,28.624325,30.35151640625,28.790525,30.02641640625C29.047025,29.57831640625,29.422825,28.87731640625,29.440925,28.84121640625C29.480625,28.83041640625,30.221425,28.66051640625,30.694725,28.57381640625C30.817525,28.55211640625,30.904325,28.49071640625,30.940425,28.39681640625C30.969325,28.32091640625,30.954825,28.23421640625,30.897025,28.16551640625C30.561025,27.77171640625,30.000925,27.11771640625,29.972025,27.08511640625C29.979325,27.04541640625,30.102125,26.33001640625,30.156325,25.83861640625C30.167225,25.73741640625,30.120225,25.66511640625,30.076825,25.61811640625C30.011825,25.54591640625,29.910625,25.49891640625,29.823925,25.49891640625C29.769725,25.49891640625,29.715525,25.513416406250002,29.668525,25.53501640625C29.375825,25.67601640625,28.978425,25.87111640625,28.718225,25.99751640625C28.609825,26.05171640625,28.526725,26.09151640625,28.483425,26.11321640625C28.342425,26.04091640625,27.724625,25.73021640625,27.312725,25.531416406250003C27.265725,25.50611640625,27.215125,25.495316406249998,27.160925,25.495316406249998C27.077825,25.495316406249998,26.987525,25.53871640625,26.922425,25.60731640625C26.864625,25.672316406249998,26.835725,25.75181640625,26.842925,25.834916406250002C26.908025,26.32641640625,26.991125,27.04181640625,26.998325,27.08151640625ZM24.949625,27.08511640625C24.956825,27.04541640625,25.079725,26.33001640625,25.137525,25.83861640625C25.148325,25.73741640625,25.097725,25.66511640625,25.058025,25.61811640625C24.989325,25.54591640625,24.891825,25.49891640625,24.805025,25.49891640625C24.750825,25.49891640625,24.696625,25.513416406250002,24.649725,25.53501640625C24.389525,25.66151640625,24.042625,25.83131640625,23.789725,25.954216406249998C23.641625,26.02641640625,23.522325,26.08431640625,23.468125,26.109616406249998C23.323625,26.03731640625,22.705725,25.72651640625,22.297425,25.52781640625C22.250525,25.502516406250002,22.196325,25.49171640625,22.142125,25.49171640625C22.062625,25.49171640625,21.968625,25.53501640625,21.907225,25.60371640625C21.845824999999998,25.66871640625,21.816924999999998,25.748216406250002,21.824125000000002,25.83131640625C21.878325,26.322716406250002,21.965025,27.04181640625,21.968625,27.07791640625C21.943325,27.11041640625,21.415824999999998,27.73551640625,21.087025,28.12941640625C21.025624999999998,28.20161640625,21.011125,28.30641640625,21.047224999999997,28.40401640625C21.087025,28.50521640625,21.173724999999997,28.57741640625,21.282125,28.59551640625C21.751825,28.68221640625,22.481725,28.82311640625,22.521525,28.83401640625C22.543125,28.87011640625,22.915325,29.57471640625,23.164625,30.02271640625C23.356125,30.36961640625,23.377825,30.38051640625,23.464525,30.38051640625C23.554925,30.38051640625,23.601825,30.33711640625,23.760825,30.02271640625C24.017425,29.57471640625,24.393125,28.87371640625,24.411225,28.83761640625C24.450925,28.82671640625,25.188125,28.65691640625,25.665025,28.57021640625C25.784225,28.55211640625,25.874625,28.48711640625,25.910725,28.39681640625C25.939625,28.32091640625,25.925225,28.23421640625,25.867425,28.16551640625C25.538525,27.77171640625,24.978525,27.11771640625,24.949625,27.08511640625ZM14.901065,27.08511640625C14.908295,27.04541640625,15.031145,26.33001640625,15.085345,25.83861640625C15.096185,25.73741640625,15.049215,25.66511640625,15.005855,25.61811640625C14.937205,25.54591640625,14.839645,25.495316406249998,14.752925,25.495316406249998C14.698725,25.495316406249998,14.648135,25.50971640625,14.597555,25.531416406250003C14.286805,25.68321640625,13.856825,25.89281640625,13.596675000000001,26.019216406250003C13.513565,26.059016406250002,13.448525,26.09151640625,13.412395,26.109616406249998C13.025775,25.914416406249998,12.631924999999999,25.71931640625,12.241695,25.52781640625C12.194715,25.502516406250002,12.140525,25.49171640625,12.089935,25.49171640625C12.006825,25.49171640625,11.916495000000001,25.53501640625,11.855075,25.60371640625C11.793645,25.66871640625,11.764735,25.75181640625,11.771965,25.83131640625C11.826165,26.322716406250002,11.912885,27.04181640625,11.916495000000001,27.07791640625C11.891205,27.11041640625,11.363665000000001,27.73551640625,11.034855,28.12941640625C10.973435,28.20161640625,10.958974999999999,28.30641640625,10.995115,28.40401640625C11.034855,28.50881640625,11.117965,28.57741640625,11.229975,28.59551640625C11.699705,28.68221640625,12.429585,28.82311640625,12.469325000000001,28.83401640625C12.491005000000001,28.87011640625,12.859565,29.57471640625,13.112495,30.02271640625C13.303995,30.36961640625,13.325675,30.38051640625,13.412395,30.38051640625C13.502725,30.38051640625,13.542475,30.34431640625,13.708685,30.02271640625C13.965225,29.57471640625,14.341005,28.87371640625,14.359075,28.83761640625C14.398825,28.82671640625,15.135935,28.65691640625,15.616495,28.57021640625C15.735735,28.55211640625,15.826065,28.48711640625,15.858585,28.39681640625C15.887495,28.32091640625,15.873045,28.23421640625,15.815225,28.16551640625C15.486415,27.77171640625,14.929975,27.11771640625,14.901065,27.08511640625ZM6.207513,28.59911640625C6.677239,28.68581640625,7.407125,28.82671640625,7.4504850000000005,28.83761640625C7.472165,28.87371640625,7.840715,29.57831640625,8.093645,30.02641640625C8.285145,30.37321640625,8.306825,30.38411640625,8.393545,30.38411640625C8.483875,30.38411640625,8.523625,30.34791640625,8.689835,30.02641640625C8.946375,29.57831640625,9.322165,28.87731640625,9.340225,28.84121640625C9.379975,28.83041640625,10.117085,28.66051640625,10.594035,28.57381640625C10.713275,28.55571640625,10.803605000000001,28.49071640625,10.836125,28.40041640625C10.865034999999999,28.32451640625,10.850575,28.23781640625,10.792765,28.16911640625C10.456735,27.77531640625,9.896675,27.12131640625,9.867765,27.08881640625C9.874995,27.04901640625,10.001455,26.33361640625,10.055655,25.84221640625C10.066495,25.74101640625,10.019525,25.66871640625,9.976165,25.621816406249998C9.907515,25.54951640625,9.809955,25.502516406250002,9.723234999999999,25.502516406250002C9.669035000000001,25.502516406250002,9.618455,25.51701640625,9.567865,25.53871640625C9.159565,25.73741640625,8.530854999999999,26.04451640625,8.386325,26.116816406250003C8.252625,26.04811640625,7.631145,25.73741640625,7.215615,25.53501640625C7.168645,25.513416406250002,7.114445,25.49891640625,7.063865,25.49891640625C6.980755,25.49891640625,6.890423,25.542316406250002,6.828997,25.61091640625C6.771185,25.67601640625,6.742278,25.755516406250003,6.749505,25.83861640625C6.803704,26.33001640625,6.890423,27.04901640625,6.894036,27.08511640625C6.868743,27.11771640625,6.344817,27.74281640625,6.0123955,28.13661640625C5.95096973,28.20891640625,5.9365166,28.31371640625,5.9726494,28.41121640625C6.0123955,28.51241640625,6.095501,28.58101640625,6.207513,28.59911640625ZM12.859565,14.47119640625C12.863175,14.47480640625,13.137785000000001,14.745796406250001,13.484665,14.745796406250001C13.831534999999999,14.745796406250001,14.106145,14.47480640625,14.109755,14.47119640625C14.106145,14.09540640625,14.077235,13.71601640625,14.030265,13.34384640625C13.968845,12.81992640625,13.864055,12.29599640625,13.719525,11.79013640625C13.766494999999999,11.74316640625,13.874895,11.61669640625,13.874895,11.47939640625C13.871285,11.31318340625,13.762885,11.17226540625,13.603895,11.12529340625L13.603895,10.54355440625L13.401555,10.42431640625L13.401555,11.12890640625C13.242575,11.17587940625,13.134174999999999,11.31679640625,13.130555000000001,11.48300640625C13.130555000000001,11.63837640625,13.170304999999999,11.71786640625,13.285935,11.79736640625C13.188375,12.15869640625,12.859565,13.43779640625,12.859565,14.47119640625Z" fill="#3D3D3D" fill-opacity="1"/></g><g><path d="M16.639211015625,11.360146015625C16.787351015625,11.324016015625,17.398001015625,11.284266015625,18.001421015625,11.284266015625C18.536181015625,11.284266015625,19.092631015625003,11.284266015625,19.670751015625,11.324016015625L19.764701015625,11.334856015625C20.133251015625,11.370986015625,20.516261015625,11.410736015625,20.873941015625,11.482996015625C20.967941015625,11.490226015625,21.061841015625,11.515516015625,21.144941015625,11.558876015625L21.694141015625,11.714256015625L21.694141015625,11.707026015625C21.694141015625,11.443256015625,21.694141015625,10.890426015625,21.654441015625,10.655556015625L21.654441015625,10.651946015625C21.654441015625,10.500186015625,21.654441015625,10.496576015625,21.643641015625,10.445986015625C21.636341015625,10.420696015625,21.629141015625002,10.380950015625,21.614741015625,10.301458015625C21.607441015625,10.279778015625,21.603841015625,10.261712015625,21.596641015625,10.243645015625C21.571341015625002,10.160540015625,21.553241015624998,10.099114015625,21.455741015625,10.066595015625C21.340041015624998,9.990716015625,21.220841015625,9.911224015625,21.105241015624998,9.871477015625C20.743941015624998,9.690813015625,20.443991015625002,9.593255015625,20.133251015625,9.560735015625C19.403371015624998,9.412590815625,18.659031015625,9.358391515625,17.914701015625,9.405364215625C17.603951015625,9.405364215625,17.285991015625,9.445110315625,16.978861015625,9.484856415625C16.523581015625,9.553509015625,15.992431015625,9.665520015625,15.501021015625,9.950970015625C15.320361015625,9.997942015625,15.222801015625,10.091888015625,15.186671015625,10.265325015625C15.071041015625,10.731436015625,15.071041015625,11.168646015625,15.071041015625,11.627536015625001L15.071041015625,11.670896015625L15.074661015625,11.667276015625C15.360111015625,11.548036015625,15.660011015624999,11.472166015625,15.970751015625,11.432416015625C16.194771015625,11.389056015625,16.418801015625,11.363766015625,16.639211015625,11.360146015625ZM17.181201015625,14.510926015625C17.246241015625,14.510926015625,17.304051015625,14.485636015625001,17.347411015625,14.442276015625C17.390771015625,14.398916015625,17.416061015625,14.337496015625,17.416061015625,14.276066015625C17.416061015625,14.214646015625,17.390771015625,14.153216015625,17.347411015625,14.109856015624999C17.304051015625,14.066496015624999,17.242631015625,14.041206015625,17.181201015625,14.041206015625C17.051121015625,14.041206015625,16.942721015625,14.145986015624999,16.942721015625,14.279676015625C16.946341015625002,14.406146015625,17.051121015625,14.510926015625,17.181201015625,14.510926015625ZM10.995264015625,23.497116015625L25.943441015624998,23.497116015625C26.019241015625,23.493516015624998,26.131341015625,23.421316015625003,26.171041015625,23.377916015625C26.203541015625,23.284016015625,26.185541015625,23.092516015625,26.174641015625,23.002116015625C26.171041015625,22.976816015624998,26.171041015625,22.958816015625,26.171041015625,22.947916015624997L26.163841015625,22.897316015625C26.127641015625002,22.640816015625,26.084341015625,22.348116015625,25.975941015625,22.091616015625C25.809741015625,21.686916015625002,25.585741015625,21.307516015624998,25.314741015625,20.964216015625C24.924441015625,20.494516015625003,24.465541015625,20.086216015625,23.952441015625,19.757416015624997C23.500841015625,19.446716015625,22.720341015625,19.107026015625,22.142241015625,18.875776015625C21.520741015625,18.626456015625,20.960741015625,18.434956015624998,20.913741015625,18.431346015625C20.794441015625,18.391596015624998,20.675241015624998,18.474696015625,20.639111015624998,18.550576015624998C20.602981015624998,18.575876015625,20.375341015625,19.041986015625,20.021241015625,19.779116015625C19.959811015625,19.905516015625,19.916451015625,19.995916015625,19.898391015625002,20.032016015625C19.894771015625,20.060916015625,19.880321015625,20.086216015625,19.862261015625002,20.104316015625002L19.786381015625,20.028416015624998C19.761081015625003,19.992316015625,19.735791015625,19.948916015625002,19.706881015625,19.905516015625C19.641841015624998,19.800816015625,19.558741015625,19.670716015625,19.475631015624998,19.562316015625C19.396141015625,19.425016015624998,19.305811015625,19.294916015625,19.204641015625,19.172066015625C19.081791015625,19.005856015625,18.962551015625,18.937196015625,18.810791015625,18.937196015625C18.695171015625,18.937196015625,18.536181015625,19.016696015625,18.420561015625,19.132316015625C18.420561015625,19.153996015624998,18.406101015624998,19.161226015624997,18.388041015625,19.175676015625C18.377201015625,19.182906015625,18.362741015624998,19.193746015625003,18.348291015625,19.204586015625L18.272411015625,19.128706015625C18.196531015625,19.049216015625,18.077291015625,18.933586015625,17.882181015625,18.933586015625C17.723191015624998,18.933586015625,17.596731015625,19.009466015625,17.488331015625,19.168446015625C17.452201015625,19.255166015625,17.398001015625,19.334666015625,17.332961015625,19.399716015625C17.177591015624998,19.555116015625,17.018601015625002,19.793516015625002,16.942721015625,19.905516015625C16.888521015625,19.967016015625,16.823491015625,20.017616015625002,16.751221015625,20.057316015625C16.722311015625,20.024816015625,16.697021015625,19.985016015625,16.675341015625,19.945316015625C16.505521015625,19.558716015625002,16.281491015625,19.034756015625,16.169481015625,18.738466015625C16.053861015625,18.543356015625,16.053861015625,18.543356015625,16.053861015625,18.507216015624998C15.999661015625,18.406046015625,15.887651015625,18.359076015625,15.779251015625,18.387986015625C15.750341015625,18.391596015624998,15.201121015624999,18.579486015625,14.568801015625,18.832416015625C13.983451015625,19.067276015624998,13.192141015625,19.406916015625,12.744091015625,19.710416015625C12.256301015625,20.024816015625,11.844381015625,20.411416015625,11.526416015625,20.855816015625003C11.287939015625,21.191916015625,11.100049015625,21.556816015625,10.951904015625,21.968716015625C10.731494115625,22.637216015625,10.717041015625,23.157516015625,10.717041015625,23.255116015625C10.720654295625,23.374316015625,10.832666015625,23.497116015625,10.995264015625,23.497116015625ZM18.388041015625,16.805366015625C18.774661015625,16.805366015625,19.125151015625,16.574116015625002,19.128761015625003,16.570496015625L19.150441015625,16.556046015625L19.125151015625,16.563276015625C18.640971015625,16.718646015624998,18.131491015625002,16.718646015624998,17.647311015625,16.563276015625L17.622021015625002,16.556046015625L17.643701015625,16.570496015625C17.650931015624998,16.574116015625002,18.005031015625,16.805366015625,18.388041015625,16.805366015625Z" fill="#000000" fill-opacity="1"/></g><g><path d="M12.707861203125,9.958271953125C12.978857203125,10.153391953125,14.673488203125,11.114521953125,14.691548203125,11.125361953125001C14.778268203125,11.165111953124999,14.879448203125,11.165111953124999,14.966158203125,11.125361953125001C15.045658203125,11.045871953125001,15.085398203125,10.966381953125001,15.085398203125,10.890501953125C15.089018203125,10.655641953125,15.114308203124999,10.420771953125,15.161278203125,10.189521953125C15.237158203125,9.958271953125,15.352778203125,9.882401953125001,15.547898203125,9.763161953125C16.003178203125,9.513841953125,16.469288203125,9.369311953124999,17.065478203125,9.297041953125C17.336478203125,9.257301953125,18.315678203125,9.217551953125,18.463818203125,9.217551953125C19.161178203125,9.217551953125,19.717628203125,9.268141953125,20.212648203125,9.372921953125001C20.548678203125,9.448801953124999,20.877488203125,9.564431953125,21.184618203124998,9.723411953125C21.235208203124998,9.748701953125,21.325538203125,9.810131953125,21.408638203125,9.871561953125C21.451998203125,9.900461953125,21.495358203125,9.932981953125001,21.531498203125,9.958271953125C21.650728203125,10.037771953125,21.686868203125,10.117261953125,21.722998203125,10.269021953125C21.755518203125,10.435231953125001,21.766358203125,10.605051953124999,21.762748203125,10.774881953125L21.762748203125,10.930251953125001C21.762748203125,11.049491953124999,21.802488203125,11.128981953124999,21.881978203125,11.165111953124999C21.910888203124998,11.190401953125,21.947018203124998,11.204861953125,21.983158203125,11.204861953125L22.001218203125,11.204861953125C22.055418203125,11.204861953125,22.109618203125002,11.194021953124999,22.160208203125002,11.165111953124999C22.174658203125,11.157881953124999,23.569358203125,10.344901953125,24.183658203125,9.998021953125C24.223358203125002,9.976341953125,24.255858203125,9.943821953125,24.277558203125,9.904081953125C24.306458203125,9.849881953125,24.310058203125,9.792061953125,24.292058203125002,9.734251953125C24.273958203124998,9.676441953125,24.234258203125002,9.629471953125,24.183658203125,9.604171953125L24.143858203125,9.564431953125C24.075258203125,9.499391953125,23.995758203125,9.445191953125,23.909058203125,9.409061953125C23.634458203125,9.253681953125,23.367058203124998,9.094701953125,23.110458203125,8.939331953125C22.853958203125,8.787571953125,22.586558203125,8.628591953125,22.315578203125,8.473221953125C21.737448203125,8.144411953125001,21.137648203125,7.801151953125,20.555908203125,7.468721953125C19.970558203125,7.132689953125,19.363528203125,6.782201953125,18.774558203125,6.449779953125C18.539698203125,6.294409153125,18.304838203125,6.294409153125,18.030228203125,6.449779953125C17.202778203125,6.901439953125,16.375338203125,7.371171953125,15.576808203125001,7.826441953125C15.067338203125,8.115501953125,14.539798203125,8.419021953125,14.023098203125,8.708081953125C13.762938203125,8.881521953125,13.484718203125,9.029661953125,13.213721203125,9.177811953125C13.116162203125,9.232001953125,13.025830203125,9.278981953125001,12.931885203125,9.329561953125C12.892138203125,9.347631953125,12.852392203125,9.380151953125,12.812646203125,9.409061953125C12.772900203125,9.437961953125,12.736767203125,9.466871953125,12.697021203125,9.484931953124999C12.678955203125,9.503001953125,12.660888203125,9.513841953125,12.639209203125,9.524681953125C12.621142203125,9.535521953125,12.599463203125,9.542751953125,12.581396203125,9.564431953125C12.498291003125,9.604171953125,12.462158203125,9.727021953125,12.462158203125,9.799291953125C12.472998003125,9.907691953125,12.548877003125,9.958271953125,12.707861203125,9.958271953125ZM19.594778203125,14.511011953125C19.724858203125,14.511011953125,19.833248203125,14.406221953125,19.833248203125,14.272531953125C19.833248203125,14.207491953125,19.807958203125,14.149681953125,19.764598203125,14.106321953125C19.721238203125,14.062961953125,19.659818203125,14.037671953124999,19.594778203125,14.037671953124999C19.464698203125,14.037671953124999,19.356298203125,14.142451953125,19.356298203125,14.276151953125C19.356298203125,14.406221953125,19.464698203125,14.511011953125,19.594778203125,14.511011953125Z" fill="#000000" fill-opacity="1"/></g></g></g></svg>