<svg xmlns="http://www.w3.org/2000/svg" xmlns:xlink="http://www.w3.org/1999/xlink" fill="none" version="1.1" width="38" height="38" viewBox="0 0 38 38"><defs><clipPath id="master_svg0_308_8028"><rect x="0" y="0" width="38" height="38" rx="0"/></clipPath></defs><g><g clip-path="url(#master_svg0_308_8028)"><g><path d="M9.1734807421875,18.6993734375Q9.8488707421875,18.6993734375,10.398090742187499,18.1279734375C10.398090742187499,17.3857734375,10.3275807421875,16.6064734375,10.2088307421875,15.8493734375C10.0195807421875,14.5023734375,9.7078607421875,13.2925734375,9.5520007421875,12.7581734375C9.7412607421875,12.6357734375,9.8785607421875,12.4130834375,9.8785607421875,12.1533234375C9.8785607421875,11.8082034375,9.6559007421875,11.5298834375,9.3441907421875,11.4630834375L9.3441907421875,10.3052734375L8.9805107421875,10.0974634375L8.9805107421875,11.4630834375C8.6687907421875,11.5484334375,8.446140742187499,11.8267534375,8.446140742187499,12.1533234375C8.446140742187499,12.4130834375,8.568600742187499,12.6357734375,8.7727007421875,12.7581734375C8.5463307421875,13.5857734375,7.9266107421875,16.0572734375,7.9266107421875,18.1130734375C7.9303207421875,18.131673437499998,8.5018007421875,18.6993734375,9.1734807421875,18.6993734375ZM11.403760742187501,17.6825734375C11.3852007421875,17.9572734375,11.3703607421875,18.2540734375,11.403760742187501,18.5286734375C11.4891107421875,19.3413734375,11.7488707421875,20.1021734375,12.2498507421875,20.7552734375C12.5244607421875,21.1189734375,12.7508307421875,21.1708734375,13.1479007421875,21.0150734375C13.2852007421875,21.0484734375,13.5783707421875,21.7052734375,13.6303207421875,21.8425734375C14.2018107421875,23.0523734375,15.0998107421875,24.5366734375,16.7920107421875,25.1749734375C17.949810742187502,25.6054734375,19.2450107421875,25.7464734375,20.4547107421875,25.4013734375C21.7313107421875,25.0376734375,22.7518107421875,24.1247734375,23.5311107421875,23.0708734375C24.2547107421875,22.1023734375,24.4811107421875,21.4974734375,24.6036107421875,21.2413734375C24.6555107421875,21.1374734375,24.6555107421875,21.0335734375,24.7780107421875,21.0150734375C24.8633107421875,20.9964734375,25.0006107421875,21.0855734375,25.0897107421875,21.0669734375C25.3123107421875,21.0484734375,25.4682107421875,20.8925734375,25.6092107421875,20.7218734375C26.1102107421875,20.0650734375,26.3700107421875,19.3042734375,26.4553107421875,18.4952734375C26.4887107421875,18.2206734375,26.4739107421875,17.9238734375,26.4553107421875,17.6491734375C26.4219107421875,17.218773437499998,26.1621107421875,16.7697734375,25.6092107421875,16.7697734375C25.5758107421875,16.7697734375,25.5573107421875,16.7511734375,25.5053107421875,16.7363734375L25.4719107421875,16.6138734375L25.5239107421875,16.0423734375C25.5573107421875,15.3855734375,25.6092107421875,14.7472734375,25.6463107421875,14.1089734375C25.6649107421875,13.8343734375,25.6983107421875,13.5745734375,25.7168107421875,13.2962734375L24.0766107421875,12.8657734375Q24.0061107421875,12.8323734375,23.3159107421875,12.7284734375C22.9522107421875,12.6765734375,20.6737107421875,12.4539034375,18.532510742187497,12.4539034375C16.8217107421875,12.4353534375,15.2000107421875,12.6097734375,14.7659107421875,12.6802734375C14.6286107421875,12.6988734375,14.3502107421875,12.7656734375,14.3354107421875,12.7656734375Q13.0922307421875,13.0402734375,12.6098107421875,13.2146734375L12.160790742187501,13.3890734375C12.1793407421875,14.0124734375,12.2312907421875,14.6322734375,12.2646907421875,15.2556734375C12.2832507421875,15.7566734375,12.3352007421875,16.2575734375,12.3871507421875,16.7585734375C12.3352007421875,16.7771734375,12.3166507421875,16.791973437499998,12.2832507421875,16.791973437499998C11.696920742187501,16.7845734375,11.4371507421875,17.2484734375,11.403760742187501,17.6825734375ZM13.9754407421875,16.3169734375C15.3744107421875,16.3169734375,16.5991107421875,16.2316734375,17.7049107421875,16.0423734375C18.0834107421875,15.9718734375,18.5510107421875,15.8865734375,19.018610742187498,15.7825734375C20.4176107421875,15.4374734375,21.5049107421875,14.9365734375,22.4215107421875,14.1943734375C22.9039107421875,14.7657734375,23.5459107421875,15.1962734375,24.4588107421875,15.5599734375C24.4922107421875,15.5784734375,24.5108107421875,15.5784734375,24.5442107421875,15.5933734375L24.5256107421875,15.9570734375C24.4551107421875,17.181673437500002,24.2659107421875,18.8255734375,24.0766107421875,19.6716734375C23.8539107421875,20.6921734375,22.1432107421875,24.7333734375,18.755110742187497,24.6443734375C18.2022107421875,24.6257734375,17.6827107421875,24.5070734375,17.2002107421875,24.3177734375C15.4895107421875,23.7462734375,14.5580107421875,22.1765734375,13.8492607421875,19.9648734375C13.5375407421875,18.9962734375,13.3816907421875,17.9275734375,13.3816907421875,16.6657734375C13.3816907421875,16.406073437499998,13.3631307421875,16.1648734375,13.3297307421875,15.9050734375C13.5598107421875,16.2984734375,13.7676207421875,16.3169734375,13.9754407421875,16.3169734375ZM25.5127107421875,10.5130834375L25.5127107421875,10.4945334375C25.4942107421875,10.045503437499999,25.5313107421875,10.2718734375,25.4088107421875,9.8376934375C25.3569107421875,9.615043437499999,25.2864107421875,9.4591834375,25.0971107421875,9.3367234375C24.8744107421875,9.180863437500001,24.6481107421875,9.0250034375,24.3883107421875,8.9062534375C23.7834107421875,8.5945334375,23.1452107421875,8.386723437499999,22.4549107421875,8.2494134375C20.9854107421875,7.9562534375,19.5196107421875,7.8709034375,18.0315107421875,7.9376934375C17.4080107421875,7.9562534375,16.788310742187498,8.0082034375,16.183410742187498,8.093553437499999C15.1481107421875,8.2494134375,14.1461407421875,8.4906234375,13.2109807421875,9.0101534375C12.8658707421875,9.199413437499999,12.6246507421875,9.321873437499999,12.5207507421875,9.733793437500001C12.2980907421875,10.6837934375,12.3129407421875,11.5113334375,12.2795407421875,12.4613334375L12.2795407421875,12.5466734375C12.8510207421875,12.3388634375,13.4893007421875,12.1681634375,14.0941907421875,12.0642634375C14.4912107421875,11.9603534375,14.9588107421875,11.8898434375,15.4412107421875,11.8750034375C15.7864107421875,11.7710934375,16.9627107421875,11.7191434375,18.1539107421875,11.7191434375C19.2598107421875,11.7376934375,20.3657107421875,11.7005834375,21.4715107421875,11.7710934375C22.2842107421875,11.8044934375,23.0969107421875,11.9603534375,23.8911107421875,12.0828134375C24.0803107421875,12.1162134375,24.2696107421875,12.1347634375,24.4254107421875,12.2052734375L25.5127107421875,12.4984734375C25.5498107421875,12.0345734375,25.5498107421875,10.9806634375,25.5127107421875,10.5130834375ZM11.8156707421875,9.5816434375C11.9900807421875,8.8914034375,12.4539507421875,8.6316434375,12.8176207421875,8.4238334375C13.7342307421875,7.9042934375,14.7510107421875,7.5962934375,16.0647107421875,7.3884734375C16.6362107421875,7.3031234375,18.6215107421875,7.1992234375,18.933210742187498,7.1992234375C20.2469107421875,7.1992234375,21.4381107421875,7.3216834375,22.5774107421875,7.5443334375C23.3530107421875,7.7187534375,24.0469107421875,7.9414034375,24.6852107421875,8.253123437500001Q24.9264107421875,8.3755834375,25.4608107421875,8.7207034375C25.8578107421875,8.980473437499999,25.9952107421875,9.3255834375,26.0842107421875,9.6521534375C26.1881107421875,10.0492234375,26.1881107421875,10.427733437499999,26.2067107421875,10.7765634375Q26.2067107421875,10.8619134375,26.2252107421875,11.1031234375Q28.9899107421875,9.5148434375,30.2664107421875,8.7726534375C30.0772107421875,8.635353437500001,29.9399107421875,8.5314434375,29.7840107421875,8.4460934375C26.3477107421875,6.5126934375,22.8928107421875,4.575583437500001,19.471310742187498,2.6236324375C19.1077107421875,2.4158203375,18.8330107421875,2.4158203375,18.4694107421875,2.6236324375C15.0479107421875,4.5384734375,11.6598107421875,6.4533234375,8.275440742187499,8.3533234375C8.0676207421875,8.475783437499999,7.8783707421875,8.5945334375,7.6186007421875,8.768943437499999Q8.223480742187501,9.1140634375,11.626410742187499,11.0845734375C11.6449707421875,10.5316434375,11.696920742187501,10.0121134375,11.8156707421875,9.5816434375ZM29.8137107421875,29.0454734375C28.1030107421875,27.9210734375,23.9578107421875,26.4700734375,23.8725107421875,26.4552734375C23.8539107421875,26.4886734375,22.8520107421875,28.5630734375,22.4549107421875,29.4091734375C22.1803107421875,29.9806734375,21.6942107421875,30.0325734375,21.3305107421875,29.5130734375C21.0373107421875,29.0825734375,20.2580107421875,27.9581734375,20.1727107421875,27.8208734375C19.9315107421875,27.4757734375,19.6903107421875,27.4572734375,19.4119107421875,27.7503734375C19.360010742187498,27.8023734375,18.9963107421875,28.1288734375,18.8776107421875,28.1288734375C18.755110742187497,28.1288734375,18.3952107421875,27.8023734375,18.3432107421875,27.7503734375C18.0500107421875,27.4572734375,17.8608107421875,27.4386734375,17.5825107421875,27.8208734375C17.3078107421875,28.1993734375,16.769810742187502,28.9601734375,16.4766107421875,29.3423734375C15.8717107421875,30.1031734375,15.3039107421875,29.9657734375,15.0442107421875,29.3423734375C14.6286107421875,28.3589734375,13.9049307421875,26.4923734375,13.8863707421875,26.4738734375C13.8158607421875,26.4923734375,9.6559007421875,27.9433734375,7.9451607421875,29.0640734375Q4.0598107421875,31.5169734375,4.1637171221875,35.6806734375L34.0108107421875,35.6806734375C34.0108107421875,35.7140734375,34.496910742187495,32.1218734375,29.8137107421875,29.0454734375Z" fill="#3D3D3D" fill-opacity="1"/></g></g></g></svg>