<svg xmlns="http://www.w3.org/2000/svg" xmlns:xlink="http://www.w3.org/1999/xlink" fill="none" version="1.1" width="42" height="42" viewBox="0 0 42 42"><g><g><g><g style="opacity:0;"></g><g style="opacity:0.4000000059604645;"><path d="M36.889296875,15.015130517578125C36.889296875,15.015130517578125,36.889296875,26.985030517578124,36.889296875,26.985030517578124C36.889296875,28.945030517578125,35.839296875,30.765030517578126,34.141796875,31.762530517578124C34.141796875,31.762530517578124,23.746796875,37.765030517578126,23.746796875,37.765030517578126C22.049296875,38.74503051757812,19.949296875,38.74503051757812,18.234296875,37.765030517578126C18.234296875,37.765030517578126,7.8392968750000005,31.762530517578124,7.8392968750000005,31.762530517578124C6.141796875,30.782530517578124,5.091796875,28.962530517578124,5.091796875,26.985030517578124C5.091796875,26.985030517578124,5.091796875,15.015130517578125,5.091796875,15.015130517578125C5.091796875,13.055080517578125,6.141796875,11.235010517578125,7.8392968750000005,10.237510517578125C7.8392968750000005,10.237510517578125,18.234296875,4.235030517578125,18.234296875,4.235030517578125C19.931796875,3.255030517578125,22.031796875,3.255030517578125,23.746796875,4.235030517578125C23.746796875,4.235030517578125,34.141796875,10.237510517578125,34.141796875,10.237510517578125C35.839296875,11.235010517578125,36.889296875,13.037580517578125,36.889296875,15.015130517578125C36.889296875,15.015130517578125,36.889296875,15.015130517578125,36.889296875,15.015130517578125Z" fill="#292D32" fill-opacity="1"/></g><g><g><path d="M20.99994529724121,21.000012255859374C23.25188529724121,21.000012255859374,25.077445297241212,19.174422255859376,25.077445297241212,16.922492255859375C25.077445297241212,14.670542255859376,23.25188529724121,12.845062255859375,20.99994529724121,12.845062255859375C18.74800529724121,12.845062255859375,16.92244529724121,14.670542255859376,16.92244529724121,16.922492255859375C16.92244529724121,19.174422255859376,18.74800529724121,21.000012255859374,20.99994529724121,21.000012255859374C20.99994529724121,21.000012255859374,20.99994529724121,21.000012255859374,20.99994529724121,21.000012255859374Z" fill="#292D32" fill-opacity="1"/></g><g><path d="M25.690139828491212,29.154952724609373C27.10763982849121,29.154952724609373,27.93013982849121,27.580042724609374,27.142639828491212,26.407542724609375C25.95263982849121,24.640042724609376,23.642619828491213,23.450042724609375,21.00011982849121,23.450042724609375C18.35761982849121,23.450042724609375,16.04761982849121,24.640042724609376,14.85762082849121,26.407542724609375C14.070120828491211,27.580042724609374,14.89262082849121,29.154952724609373,16.31011982849121,29.154952724609373C16.31011982849121,29.154952724609373,25.690139828491212,29.154952724609373,25.690139828491212,29.154952724609373C25.690139828491212,29.154952724609373,25.690139828491212,29.154952724609373,25.690139828491212,29.154952724609373Z" fill="#292D32" fill-opacity="1"/></g></g></g></g></g></svg>