<svg xmlns="http://www.w3.org/2000/svg" xmlns:xlink="http://www.w3.org/1999/xlink" fill="none" version="1.1" width="48" height="48" viewBox="0 0 48 48"><defs><clipPath id="master_svg0_335_17748"><rect x="0" y="0" width="48" height="48" rx="0"/></clipPath></defs><g clip-path="url(#master_svg0_335_17748)"><g><g><path d="M10.757100000000001,32.8708905960083L19.7969,32.8708905960083L23.9503,24.911390596008303L28.2869,32.8708905960083L37.9375,32.8708905960083L27.4929,13.0632905960083L21.0185,13.0632905960083L10.757100000000001,32.8708905960083ZM3,47.8784905960083L12.28409,47.8784905960083L14.4219,43.746790596008296L5.076700000000001,43.746790596008296L3,47.8784905960083ZM34.0895,43.746790596008296L36.3494,47.9391905960083L46,47.9999905960083L43.8011,43.746790596008296L34.0895,43.746790596008296Z" fill="#0076BD" fill-opacity="1"/></g><g><g><path d="M15.032670259475708,15.189875568237305L17.170450259475707,18.227885568237305L18.26989025947571,18.227885568237305Q21.17116025947571,17.680985568237304,23.461650259475707,16.344305568237303Q25.752170259475708,15.007595568237305,27.43177025947571,12.881015568237306L28.958770259475706,10.632915568237305L28.653370259475707,10.207595568237306L27.00427025947571,6.622785568237305L16.681820259475707,12.637975568237305L15.032670259475708,14.643035568237305L15.032670259475708,15.189875568237305Z" fill="#0076BD" fill-opacity="1"/></g><g><path d="M16.07102131843567,14.460764635772705L16.31533931843567,14.825314635772704L17.53693131843567,16.526584635772707Q21.430751318435668,16.663294635772704,24.19460131843567,15.068354635772705Q26.95842131843567,13.473414635772706,28.59232131843567,10.146834635772706L27.55402131843567,6.683544635772705L16.07102131843567,14.460764635772705Z" fill="#000000" fill-opacity="1"/></g><g><path d="M6.54261326789856,16.4658L14.971593267898559,15.1291L22.66761326789856,12.881L32.44031326789856,0L19.67471326789856,2.97722L6.54261326789856,16.4658Z" fill="#0076BD" fill-opacity="1"/></g><g><path d="M8.619317531585693,15.129070964241027L16.071017531585692,14.460770964241028L16.254257531585694,14.764570964241027L22.66761753158569,12.880970964241028L22.54541753158569,11.665870964241028L30.424717531585692,1.0936709642410278L19.58501753158569,3.620470964241028L8.619317531585693,15.129070964241027Z" fill="#000000" fill-opacity="1"/></g><g><path d="M10.696021795272827,16.222787713928223C10.696021795272827,16.592357713928223,10.786209595272828,16.830377713928222,10.940421795272828,17.316457713928223C11.094633795272827,17.80252771392822,12.682541795272828,19.382267713928222,12.711641795272827,19.260767713928225C12.721601795272827,19.219167713928222,12.599771795272828,18.878767713928223,12.436331795272828,18.422227713928223C12.122111795272827,17.54444771392822,11.654145795272827,16.237127713928224,11.673293795272826,15.797467713928222C11.702401795272827,15.129117713928222,12.161931795272828,15.250637713928223,12.467331795272827,14.886077713928223C12.833801795272826,14.521517713928223,12.864341795272827,14.536707713928223,13.261361795272826,13.610127713928222C13.358561795272827,13.383287713928222,13.353251795272827,13.087247713928223,13.347601795272826,12.772837713928222C13.341721795272827,12.445117713928223,13.335481795272827,12.097437713928223,13.444601795272828,11.787337713928222C13.658401795272827,11.179747713928222,14.482871795272827,10.997467713928224,14.482951795272827,10.997467713928224C14.482991795272827,10.997467713928224,15.582381795272827,10.830377713928222,16.926131795272827,10.329117713928223C18.269881795272827,9.827847713928223,19.49156179527283,9.205063713928222,19.49156179527283,9.174683713928223C19.49156179527283,9.164169713928223,19.492471795272827,9.151380713928223,19.493511795272827,9.136868713928223C19.498471795272827,9.067519713928222,19.506241795272828,8.958815713928223,19.430481795272826,8.870886713928222Q19.338861795272827,8.764557613928222,19.125081795272827,8.749367713928223Q17.934031795272826,9.341772713928222,16.62082179527283,9.782277713928222C15.307611795272827,10.222787713928223,14.605191795272827,10.025317713928223,13.872241795272828,10.511397713928222C13.139281795272828,10.997467713928224,13.046161795272827,12.364557713928223,12.313201795272827,13.488607713928221C11.580234795272828,14.612657713928222,11.428991795272827,14.156967713928223,10.940388795272828,15.007597713928224C10.757149895272827,15.470887713928223,10.696021795272827,15.797467713928222,10.696021795272827,16.222787713928223Z" fill="#FFFFFF" fill-opacity="1"/><path d="M15.430181795272826,11.824567713928223Q16.376941795272828,11.601297713928222,17.275641795272826,11.266047713928224Q20.49147179527283,10.066427713928222,20.49156179527283,9.174731713928223Q20.491551795272827,9.199883713928223,20.490961795272828,9.208197713928223Q20.533121795272827,8.618617713928222,20.188041795272827,8.218120713928222Q19.824791795272827,7.796564713928222,19.19596179527283,7.7518827139282225L18.923921795272825,7.732557713928223L18.679741795272825,7.854003713928223Q17.55053179527283,8.415653713928222,16.302791795272828,8.834197313928223Q15.800311795272826,9.002750713928222,15.023321795272828,9.119221713928223Q13.910631795272828,9.286014713928223,13.319551795272828,9.678001713928223Q12.826421795272827,10.005027713928223,12.486991795272827,10.649777713928223Q12.322601795272828,10.962057713928223,12.068511795272826,11.643887713928223Q11.730101795272827,12.552027713928222,11.475548795272827,12.942397713928223Q11.198882795272826,13.366687713928222,10.938528795272827,13.547507713928223Q10.418286795272827,13.908837713928222,10.073256795272828,14.509517713928222L10.037145795272828,14.572387713928222L10.010480795272827,14.639807713928223Q9.696021795272827,15.434867713928224,9.696021795272827,16.222787713928223Q9.696021795272827,16.709997713928225,9.941800795272828,17.476607713928225Q9.971515795272827,17.569287713928222,9.987242795272827,17.61885771392822Q10.162549795272827,18.171427713928225,11.149106795272827,19.206467713928223Q11.498190795272826,19.572667713928222,11.778591795272828,19.822767713928222Q11.942841795272827,19.96936771392822,12.060501795272828,20.051567713928222Q12.198511795272827,20.14806771392822,12.335131795272828,20.19966771392822Q12.586661795272827,20.294767713928223,12.847901795272827,20.256867713928223Q13.524821795272828,20.15876771392822,13.684131795272826,19.493667713928225Q13.763461795272827,19.162567713928222,13.377821795272826,18.08520771392822Q12.780251795272827,16.415837713928223,12.688741795272827,15.969797713928223Q12.999931795272827,15.788317713928222,13.195531795272828,15.572277713928223Q13.217621795272827,15.550417713928223,13.248671795272827,15.519857713928221Q13.569231795272827,15.204317713928223,13.729041795272828,14.944297713928222Q13.889491795272827,14.683227713928222,14.180541795272827,14.003967713928223Q14.362251795272828,13.579887713928223,14.347441795272827,12.754897713928223Q14.338551795272828,12.259517713928222,14.387901795272827,12.119267713928222L14.387681795272828,12.130777713928222Q14.428401795272826,12.091887713928223,14.506581795272828,12.051097713928222Q14.579891795272827,12.012837713928223,14.663791795272827,11.985177713928223Q14.676501795272827,11.980987713928222,14.687821795272827,11.977587713928223Q14.945631795272828,11.938837713928223,15.430181795272826,11.824567713928223ZM14.667021795272827,11.980647713928223Q14.549731795272827,11.997467713928224,14.482951795272827,11.997467713928224Q14.578881795272828,11.997467713928224,14.667021795272827,11.980647713928223Z" fill-rule="evenodd" fill="#231F20" fill-opacity="1"/></g></g><g><path d="M8.794592272109986,41.28173179077149L7.992462272109986,43.01772179077148L5.321022272109985,43.01772179077148L10.036152272109986,33.539241790771484L12.756412272109985,33.539241790771484L15.058172272109985,43.01772179077148L12.533212272109985,43.01772179077148L12.100762272109986,41.28173179077149L8.794592272109986,41.28173179077149ZM9.680422272109986,39.386041790771486L11.626462272109986,39.386041790771486L11.270732272109985,37.740331790771485Q11.075432272109985,36.851501790771486,11.005682272109986,36.30293179077148Q10.775502272109986,36.98343179077148,10.573222272109986,37.427851790771484L9.680422272109986,39.386041790771486ZM17.482822272109985,33.539241790771484L21.536622272109984,33.539241790771484Q22.527022272109985,33.539241790771484,23.047122272109984,33.64340079077149Q23.566722272109985,33.74755979077148,23.978222272109985,34.02531779077148Q24.494322272109986,34.37945879077149,24.773022272109987,35.004411790771485Q25.086922272109984,35.69881179077149,25.086922272109984,36.490421790771485Q25.086922272109984,37.44868179077149,24.682322272109985,38.26806179077148Q24.228922272109987,39.177721790771486,23.423622272109984,39.55620179077148Q22.618022272109986,39.93464179077149,21.125122272109984,39.934611790771484L19.101022272109986,39.934611790771484L18.724422272109983,43.01772179077148L16.311022272109987,43.01772179077148L17.482822272109985,33.539241790771484ZM19.659022272109986,35.43494179077148L19.359122272109985,37.83754179077148L20.971822272109986,37.83754179077148Q21.766922272109987,37.83754179077148,22.157722272109986,37.532011790771485Q22.611022272109984,37.184811790771484,22.610822272109985,36.539021790771486Q22.610822272109985,35.95573179077149,22.269322272109985,35.695361790771486Q21.927522272109986,35.434971790771485,20.328622272109985,35.43494179077148L19.659022272109986,35.43494179077148ZM33.81752227210998,33.539241790771484L33.559422272109984,35.62242179077148L28.368222272109985,35.62242179077148L28.165922272109984,37.254251790771484L32.97612227210999,37.254251790771484L32.718522272109986,39.33743179077148L27.907822272109986,39.33743179077148L27.712522272109986,40.93454179077148L32.53172227210999,40.93454179077148L32.26672227210999,43.01772179077148L25.041122272109984,43.01772179077148L26.212922272109985,33.539241790771484L33.81752227210998,33.539241790771484ZM40.76052227210999,38.163911790771486L43.71792227210999,43.01772179077148L40.94202227210999,43.01772179077148L40.07732227210999,41.59421179077148Q39.65882227210999,40.91371179077149,39.18452227210999,39.80268179077149Q38.731122272109985,40.58040179077148,38.256822272109986,41.17063179077148L36.77102227210999,43.01772179077148L33.76462227210999,43.01772179077148L37.922022272109984,38.025031790771486L35.194522272109985,33.539241790771484L37.998622272109984,33.539241790771484L38.62652227210999,34.643331790771484Q39.11482227210998,35.51132179077148,39.498022272109985,36.393201790771485Q40.118722272109984,35.43494179077148,40.45382227210999,35.01136179077148L41.61842227210999,33.539241790771484L44.53412227210998,33.539241790771484L40.76052227210999,38.163911790771486Z" fill="#000000" fill-opacity="1"/></g></g></g></svg>