<svg xmlns="http://www.w3.org/2000/svg" xmlns:xlink="http://www.w3.org/1999/xlink" fill="none" version="1.1" width="24" height="24" viewBox="0 0 24 24"><g><g><g><g><path d="M14.369924058914185,10.310000534057618C14.369924058914185,11.618920534057617,13.308834058914185,12.680000534057617,11.999924058914186,12.680000534057617C11.999924058914186,12.680000534057617,11.999924058914186,14.180000534057617,11.999924058914186,14.180000534057617C14.137264058914184,14.180000534057617,15.869924058914185,12.447340534057616,15.869924058914185,10.310000534057618C15.869924058914185,10.310000534057618,14.369924058914185,10.310000534057618,14.369924058914185,10.310000534057618C14.369924058914185,10.310000534057618,14.369924058914185,10.310000534057618,14.369924058914185,10.310000534057618ZM11.999924058914186,12.680000534057617C10.691004058914185,12.680000534057617,9.629924058914185,11.618920534057617,9.629924058914185,10.310000534057618C9.629924058914185,10.310000534057618,8.129924058914185,10.310000534057618,8.129924058914185,10.310000534057618C8.129924058914185,12.447340534057616,9.862584058914184,14.180000534057617,11.999924058914186,14.180000534057617C11.999924058914186,14.180000534057617,11.999924058914186,12.680000534057617,11.999924058914186,12.680000534057617C11.999924058914186,12.680000534057617,11.999924058914186,12.680000534057617,11.999924058914186,12.680000534057617ZM9.629924058914185,10.310000534057618C9.629924058914185,9.001090534057617,10.691014058914185,7.940000534057617,11.999924058914186,7.940000534057617C11.999924058914186,7.940000534057617,11.999924058914186,6.440000534057617,11.999924058914186,6.440000534057617C9.862584058914184,6.440000534057617,8.129924058914185,8.172660534057616,8.129924058914185,10.310000534057618C8.129924058914185,10.310000534057618,9.629924058914185,10.310000534057618,9.629924058914185,10.310000534057618C9.629924058914185,10.310000534057618,9.629924058914185,10.310000534057618,9.629924058914185,10.310000534057618ZM11.999924058914186,7.940000534057617C13.308834058914185,7.940000534057617,14.369924058914185,9.001090534057617,14.369924058914185,10.310000534057618C14.369924058914185,10.310000534057618,15.869924058914185,10.310000534057618,15.869924058914185,10.310000534057618C15.869924058914185,8.172660534057616,14.137264058914184,6.440000534057617,11.999924058914186,6.440000534057617C11.999924058914186,6.440000534057617,11.999924058914186,7.940000534057617,11.999924058914186,7.940000534057617C11.999924058914186,7.940000534057617,11.999924058914186,7.940000534057617,11.999924058914186,7.940000534057617Z" fill="#292D32" fill-opacity="1"/></g><g><path d="M3.6199999495391846,8.489998569488526C3.6199999495391846,8.489998569488526,2.8886829495391844,8.323638569488526,2.8886829495391844,8.323638569488526C2.8886829495391844,8.323638569488526,2.8885089495391845,8.324408569488526,2.8885089495391845,8.324408569488526C2.8885089495391845,8.324408569488526,3.6199999495391846,8.489998569488526,3.6199999495391846,8.489998569488526C3.6199999495391846,8.489998569488526,3.6199999495391846,8.489998569488526,3.6199999495391846,8.489998569488526ZM20.380061949539183,8.499998569488525C20.380061949539183,8.499998569488525,19.648561949539186,8.665558569488525,19.648561949539186,8.665558569488525C19.648561949539186,8.665558569488525,19.648561949539186,8.665598569488527,19.648561949539186,8.665598569488527C19.648561949539186,8.665598569488527,20.380061949539183,8.499998569488525,20.380061949539183,8.499998569488525C20.380061949539183,8.499998569488525,20.380061949539183,8.499998569488525,20.380061949539183,8.499998569488525ZM15.600061949539185,20.539998569488525C15.600061949539185,20.539998569488525,15.080561949539184,19.998998569488524,15.080561949539184,19.998998569488524C15.080561949539184,19.998998569488524,15.079161949539184,20.000398569488524,15.079161949539184,20.000398569488524C15.079161949539184,20.000398569488524,15.600061949539185,20.539998569488525,15.600061949539185,20.539998569488525C15.600061949539185,20.539998569488525,15.600061949539185,20.539998569488525,15.600061949539185,20.539998569488525ZM8.390001949539185,20.539998569488525C8.390001949539185,20.539998569488525,7.869541949539185,21.079998569488524,7.869541949539185,21.079998569488524C7.869541949539185,21.079998569488524,7.8704919495391845,21.080898569488525,7.8704919495391845,21.080898569488525C7.8704919495391845,21.080898569488525,8.390001949539185,20.539998569488525,8.390001949539185,20.539998569488525C8.390001949539185,20.539998569488525,8.390001949539185,20.539998569488525,8.390001949539185,20.539998569488525ZM4.351311949539184,8.656358569488525C5.244381949539184,4.730468569488526,8.586371949539185,2.7476885694885254,12.003241949539184,2.7499985694885254C15.420161949539185,2.7523085694885254,18.759961949539186,4.739708569488526,19.648561949539186,8.665558569488525C19.648561949539186,8.665558569488525,21.111561949539183,8.334438569488526,21.111561949539183,8.334438569488526C20.040061949539183,3.6002985694885252,15.984861949539184,1.2526908894885254,12.004251949539185,1.2500008856085254C8.023621949539184,1.2473098894885253,3.9656119495391846,3.5895285694885253,2.8886829495391844,8.323638569488526C2.8886829495391844,8.323638569488526,4.351311949539184,8.656358569488525,4.351311949539184,8.656358569488525C4.351311949539184,8.656358569488525,4.351311949539184,8.656358569488525,4.351311949539184,8.656358569488525ZM19.648561949539186,8.665598569488527C20.705661949539184,13.335398569488525,17.812461949539184,17.375598569488524,15.080561949539184,19.998998569488524C15.080561949539184,19.998998569488524,16.119461949539186,21.080998569488525,16.119461949539186,21.080998569488525C18.927561949539186,18.384398569488525,22.354361949539186,13.824598569488526,21.111461949539184,8.334408569488525C21.111461949539184,8.334408569488525,19.648561949539186,8.665598569488527,19.648561949539186,8.665598569488527C19.648561949539186,8.665598569488527,19.648561949539186,8.665598569488527,19.648561949539186,8.665598569488527ZM15.079161949539184,20.000398569488524C13.360461949539184,21.659198569488524,10.639981949539184,21.660998569488527,8.909511949539183,19.999098569488524C8.909511949539183,19.999098569488524,7.8704919495391845,21.080898569488525,7.8704919495391845,21.080898569488525C10.180011949539185,23.298998569488525,13.819561949539185,23.300798569488524,16.120861949539183,21.079598569488525C16.120861949539183,21.079598569488525,15.079161949539184,20.000398569488524,15.079161949539184,20.000398569488524C15.079161949539184,20.000398569488524,15.079161949539184,20.000398569488524,15.079161949539184,20.000398569488524ZM8.910451949539183,19.999998569488525C6.188211949539184,17.376398569488526,3.2941939495391845,13.326098569488526,4.351491949539184,8.655598569488525C4.351491949539184,8.655598569488525,2.8885089495391845,8.324408569488526,2.8885089495391845,8.324408569488526C1.6458039495391845,13.813898569488526,5.071791949539184,18.383598569488527,7.869541949539185,21.079998569488524C7.869541949539185,21.079998569488524,8.910451949539183,19.999998569488525,8.910451949539183,19.999998569488525C8.910451949539183,19.999998569488525,8.910451949539183,19.999998569488525,8.910451949539183,19.999998569488525Z" fill="#292D32" fill-opacity="1"/></g><g transform="matrix(-1,0,0,-1,48.00008249282837,48.000000953674316)" style="opacity:0;"></g></g></g></g></svg>