<svg xmlns="http://www.w3.org/2000/svg" xmlns:xlink="http://www.w3.org/1999/xlink" fill="none" version="1.1" width="190" height="35" viewBox="0 0 190 35"><g><g><g><g><path d="M1.6327855981243897,24.84036691131592L4.254587718124389,23.95156691131592L11.22247771812439,9.869925911315917L16.19951771812439,9.869925911315917L16.697217718124392,8.870966911315918L10.22706771812439,8.870966911315918L1.6327855981243897,24.84036691131592Z" fill="#D8D8D8" fill-opacity="1"/></g><g><path d="M29.0596,4.45965C25.9817,1.69331,22.3798,0.213747,18.2539,0.0209579C14.128,-0.171831,10.4049,0.965461,7.08456,3.43283C3.76423,5.90021,1.59254,9.14341,0.569477,13.1625C-0.453586,17.1815,-0.0982022,21.0736,1.63563,24.8387L10.179,8.99867L16.6484,8.99867L13.6625,14.9964L23.6155,14.9964L29.0596,4.45965Z" fill="#2761E7" fill-opacity="1"/></g></g><g><g transform="matrix(-1,0,0,-1,66.73443222045898,52.26129341125488)"><path d="M33.368783990229495,42.10004670562744L35.99058611022949,41.211246705627445L42.95847611022949,27.12960570562744L47.93551611022949,27.12960570562744L48.433216110229495,26.13064670562744L41.96306611022949,26.13064670562744L33.368783990229495,42.10004670562744Z" fill="#D8D8D8" fill-opacity="1"/></g><g transform="matrix(-1,0,0,-1,70,70.00000190734863)"><path d="M64.0596,39.45965095367431C60.981700000000004,36.69331095367431,57.3798,35.213747953674314,53.2539,35.020958853674315C49.128,34.82816995367432,45.4049,35.965461953674314,42.084559999999996,38.43283095367432C38.76423,40.90021095367432,36.59254,44.14341095367432,35.569477,48.16250095367432C34.546414,52.181500953674316,34.9017978,56.073600953674315,36.63563,59.83870095367432L45.179,43.99867095367432L51.648399999999995,43.99867095367432L48.6625,49.99640095367432L58.6155,49.99640095367432L64.0596,39.45965095367431Z" fill="#2761E7" fill-opacity="1"/></g></g></g><g><path d="M40.567,21.654L44.914,20.331L40.756,20.384999999999998L41.053,18.333L63.733000000000004,17.874000000000002L63.409,20.006999999999998L54.147999999999996,20.169L54.067,20.601L55.876,20.601L57.82,22.572L58.954,21.114L63.274,21.114L60.817,24.246000000000002L59.494,24.246000000000002L62.41,27.189L58.306,27.189L53.824,22.436999999999998L53.149,27.243L49.045,27.243L49.477000000000004,24.111L39.811,27.189L40.162,24.732L49.855000000000004,21.519L49.936,20.979L40.189,24.246000000000002L40.567,21.654ZM52.528,16.820999999999998L51.528999999999996,16.875L51.448,17.55L47.803,17.55L47.884,17.037L41.188,17.307000000000002L41.512,15.147L42.484,15.120000000000001L43.213,10.071L42.214,10.071L42.457,8.289L53.716,8.289L53.473,10.071L52.501,10.071L51.853,14.715L52.825,14.661L52.528,16.820999999999998ZM57.658,11.151L58.873000000000005,12.447L60.925,10.638L53.932,10.638L54.256,8.316L65.029,8.316L64.624,11.313L60.897999999999996,14.607L63.706,17.55L59.251000000000005,17.55L58.468,16.740000000000002L57.55,17.55L53.041,17.55L56.388999999999996,14.607L53.769999999999996,11.907L53.878,11.151L57.658,11.151ZM46.777,10.854L48.748,10.854L48.856,10.071L46.885,10.071L46.777,10.854ZM46.480000000000004,12.906L48.451,12.906L48.532,12.366L46.561,12.366L46.480000000000004,12.906ZM46.183,14.958L48.181,14.876999999999999L48.235,14.418L46.264,14.418L46.183,14.958ZM89.167,11.043L81.03999999999999,11.421L80.743,13.472999999999999L89.32900000000001,13.472999999999999L88.843,16.902L80.257,16.902L78.799,27.189L73.399,27.189L74.857,16.902L66.271,16.902L66.757,13.472999999999999L75.343,13.472999999999999L75.586,11.664L67.459,12.042L67.918,8.829L89.626,7.803L89.167,11.043ZM85.684,17.82L87.46600000000001,26.703L82.093,26.703L80.311,17.82L85.684,17.82ZM74.479,17.901L70.267,26.703L64.894,26.703L69.106,17.901L74.479,17.901ZM107.176,24.219L105.097,27.243L96.376,27.243L95.701,26.622L94.837,27.243L89.707,27.243L93.406,24.543L91.381,22.68L91.732,20.115000000000002L90.733,20.115000000000002L91.084,17.55L92.083,17.55L92.218,16.686L95.809,16.686L95.674,17.55L98.239,17.55L98.374,16.686L101.965,16.686L101.83,17.55L102.88300000000001,17.55L102.532,20.115000000000002L101.479,20.115000000000002L101.128,22.68L98.563,24.543L101.182,26.973L105.448,20.762999999999998L103.09899999999999,16.011L107.203,16.011L107.851,17.307000000000002L108.742,16.011L108.742,15.984L109.228,12.42L108.256,12.42L107.338,14.985L103.23400000000001,14.985L105.556,8.424L105.043,7.803L109.903,7.803L109.174,9.855L114.466,9.855L114.115,12.42L113.332,12.42L112.846,15.984L109.552,20.762999999999998L112.792,27.243L108.688,27.243L107.176,24.219ZM93.19,13.446L91.65100000000001,13.446L92.029,10.881L96.13300000000001,10.881L96.43,8.802L95.971,7.803L100.156,7.803L99.72399999999999,10.881L103.828,10.881L103.45,13.446L101.77600000000001,13.446L103.018,16.524L99.94,16.524L99.184,14.661L98.914,16.524L95.32300000000001,16.524L95.62,14.472000000000001L94.297,16.524L91.219,16.524L93.19,13.446ZM101.101,8.316L104.179,8.316L103.369,10.368L100.291,10.368L101.101,8.316ZM95.674,10.368L92.596,10.368L92.38,8.316L95.458,8.316L95.674,10.368ZM97.726,21.411L97.888,20.115000000000002L95.32300000000001,20.115000000000002L95.161,21.411L96.295,22.464L97.726,21.411ZM124.078,19.413L124.24,18.36L130.207,16.524L118.327,16.524L118.705,13.905000000000001L136.66,13.905000000000001L136.228,17.037L129.208,19.413L137.929,19.413L137.578,22.032L128.82999999999998,22.032L128.37099999999998,25.407Q128.263,26.19,127.6555,26.7165Q127.048,27.243,126.265,27.243L120.946,27.243L123.349,24.705L123.727,22.032L115.006,22.032L115.357,19.413L124.078,19.413ZM132.826,11.907L122.566,11.907L122.377,13.365L116.734,13.365L117.301,9.341999L125.482,9.341999L125.563,8.802L124.726,7.803L131.26,7.803L131.017,9.341999L138.84699999999998,9.341999L138.28,13.365L132.637,13.365L132.826,11.907ZM152.32,10.8L149.35,11.043L149.053,13.257L152.401,13.257L152.023,16.011L148.648,16.011L147.082,27.243L143.14,27.243L144.70600000000002,16.011L141.385,16.011L141.763,13.257L145.111,13.257L145.381,11.34L142.22199999999998,11.583L142.6,8.829L152.69799999999998,8.046L152.32,10.8ZM163.09300000000002,21.735L161.608,21.951L160.852,27.243L156.586,27.243L157.23399999999998,22.518L151.699,23.274L152.10399999999998,20.384999999999998L157.639,19.628999999999998L159.178,8.802L158.39499999999998,7.803L163.606,7.803L162.013,19.061999999999998L163.498,18.846L163.09300000000002,21.735ZM139.954,26.271L141.709,16.767L144.382,16.767L142.627,26.271L139.954,26.271ZM147.946,26.271L148.81,16.767L151.483,16.767L150.59199999999998,26.271L147.946,26.271ZM157.04500000000002,18.792L153.022,18.792L152.536,15.228L156.559,15.228L157.04500000000002,18.792ZM157.882,13.365L153.85899999999998,13.365L153.31900000000002,9.800999000000001L157.34199999999998,9.800999000000001L157.882,13.365ZM178.618,18.009L180.832,20.493000000000002L183.478,18.387L183.613,17.334L174.811,17.334L175.135,14.958L179.158,14.958L179.455,12.771L175.27,12.771L175.621,10.206L179.833,10.206L180.022,8.855999L179.374,7.83L185.098,7.83L184.747,10.206L188.932,10.206L188.581,12.771L184.396,12.771L184.072,14.958L188.014,14.958L187.366,19.521L183.046,22.923000000000002L186.907,27.189L181.804,27.189L180.076,25.245L177.538,27.216L172.381,27.216L177.943,22.788L174.649,19.035L174.811,18.009L178.618,18.009ZM166.711,24.732L167.251,20.817L165.14499999999998,21.384L165.55,18.549L167.656,17.982L168.277,13.446L166.252,13.446L166.63,10.881L168.655,10.881L168.979,8.586L168.304,7.803L173.677,7.803L173.245,10.881L174.73,10.881L174.352,13.446L172.867,13.446L172.435,16.686L173.974,16.253999999999998L173.569,19.089L172.03,19.521L171.193,25.461Q171.058,26.244,170.451,26.7435Q169.843,27.243,169.087,27.243L164.281,27.243L166.711,24.732Z" fill="#2761E7" fill-opacity="1"/></g></g></svg>