<svg xmlns="http://www.w3.org/2000/svg" xmlns:xlink="http://www.w3.org/1999/xlink" fill="none" version="1.1" width="24" height="24" viewBox="0 0 24 24"><g><g><g><g><path d="M12,21.25C12.4142,21.25,12.75,20.9142,12.75,20.5C12.75,20.0858,12.4142,19.75,12,19.75C12,19.75,12,21.25,12,21.25C12,21.25,12,21.25,12,21.25ZM21.25,11.5C21.25,11.91421,21.5858,12.25,22,12.25C22.4142,12.25,22.75,11.91421,22.75,11.5C22.75,11.5,21.25,11.5,21.25,11.5C21.25,11.5,21.25,11.5,21.25,11.5ZM12,19.75C12,19.75,7,19.75,7,19.75C7,19.75,7,21.25,7,21.25C7,21.25,12,21.25,12,21.25C12,21.25,12,19.75,12,19.75C12,19.75,12,19.75,12,19.75ZM7,19.75C5.61497,19.75,4.57535,19.4036,3.88534,18.7629C3.20538,18.131500000000003,2.75,17.107,2.75,15.5C2.75,15.5,1.25,15.5,1.25,15.5C1.25,17.393,1.7946149999999998,18.8685,2.8646599999999998,19.8621C3.92465,20.8464,5.38503,21.25,7,21.25C7,21.25,7,19.75,7,19.75C7,19.75,7,19.75,7,19.75ZM2.75,15.5C2.75,15.5,2.75,8.5,2.75,8.5C2.75,8.5,1.25,8.5,1.25,8.5C1.25,8.5,1.25,15.5,1.25,15.5C1.25,15.5,2.75,15.5,2.75,15.5C2.75,15.5,2.75,15.5,2.75,15.5ZM2.75,8.5C2.75,6.89295,3.20538,5.86848,3.88534,5.2371C4.57535,4.59637,5.61497,4.25,7,4.25C7,4.25,7,2.75,7,2.75C5.38503,2.75,3.92465,3.153634,2.8646599999999998,4.13791C1.7946149999999998,5.13152,1.25,6.60705,1.25,8.5C1.25,8.5,2.75,8.5,2.75,8.5C2.75,8.5,2.75,8.5,2.75,8.5ZM7,4.25C7,4.25,17,4.25,17,4.25C17,4.25,17,2.75,17,2.75C17,2.75,7,2.75,7,2.75C7,2.75,7,4.25,7,4.25C7,4.25,7,4.25,7,4.25ZM17,4.25C18.385,4.25,19.4246,4.59637,20.1147,5.2371C20.7946,5.86848,21.25,6.89295,21.25,8.5C21.25,8.5,22.75,8.5,22.75,8.5C22.75,6.60705,22.2054,5.13152,21.1353,4.13791C20.0754,3.153634,18.615,2.75,17,2.75C17,2.75,17,4.25,17,4.25C17,4.25,17,4.25,17,4.25ZM21.25,8.5C21.25,8.5,21.25,11.5,21.25,11.5C21.25,11.5,22.75,11.5,22.75,11.5C22.75,11.5,22.75,8.5,22.75,8.5C22.75,8.5,21.25,8.5,21.25,8.5C21.25,8.5,21.25,8.5,21.25,8.5Z" fill="#292D32" fill-opacity="1"/></g><g><path d="M17.468072820281982,9.586012343444825C17.79167282028198,9.327512343444823,17.844472820281982,8.855584343444825,17.58597282028198,8.531936343444825C17.327472820281983,8.208288343444824,16.855572820281985,8.155478343444825,16.531972820281982,8.413983343444825C16.531972820281982,8.413983343444825,17.468072820281982,9.586012343444825,17.468072820281982,9.586012343444825C17.468072820281982,9.586012343444825,17.468072820281982,9.586012343444825,17.468072820281982,9.586012343444825ZM13.870002820281982,11.500002343444825C13.870002820281982,11.500002343444825,14.337132820281983,12.086762343444825,14.337132820281983,12.086762343444825C14.337132820281983,12.086762343444825,14.338062820281982,12.086022343444824,14.338062820281982,12.086022343444824C14.338062820281982,12.086022343444824,13.870002820281982,11.500002343444825,13.870002820281982,11.500002343444825C13.870002820281982,11.500002343444825,13.870002820281982,11.500002343444825,13.870002820281982,11.500002343444825ZM10.120002820281982,11.500002343444825C10.120002820281982,11.500002343444825,9.651012820281982,12.085292343444824,9.651012820281982,12.085292343444824C9.651012820281982,12.085292343444824,9.652862820281982,12.086762343444825,9.652862820281982,12.086762343444825C9.652862820281982,12.086762343444825,10.120002820281982,11.500002343444825,10.120002820281982,11.500002343444825C10.120002820281982,11.500002343444825,10.120002820281982,11.500002343444825,10.120002820281982,11.500002343444825ZM7.468982820281982,8.414715343444824C7.145734820281982,8.155705343444824,6.673724820281983,8.207777343444825,6.414714820281983,8.531021343444824C6.1557050202819825,8.854265343444824,6.207777020281982,9.326272343444824,6.531020820281983,9.585282343444824C6.531020820281983,9.585282343444824,7.468982820281982,8.414715343444824,7.468982820281982,8.414715343444824C7.468982820281982,8.414715343444824,7.468982820281982,8.414715343444824,7.468982820281982,8.414715343444824ZM16.531972820281982,8.413983343444825C16.531972820281982,8.413983343444825,13.401932820281981,10.913982343444825,13.401932820281981,10.913982343444825C13.401932820281981,10.913982343444825,14.338062820281982,12.086022343444824,14.338062820281982,12.086022343444824C14.338062820281982,12.086022343444824,17.468072820281982,9.586012343444825,17.468072820281982,9.586012343444825C17.468072820281982,9.586012343444825,16.531972820281982,8.413983343444825,16.531972820281982,8.413983343444825C16.531972820281982,8.413983343444825,16.531972820281982,8.413983343444825,16.531972820281982,8.413983343444825ZM13.402862820281982,10.913242343444825C12.646262820281983,11.515592343444824,11.343732820281982,11.515592343444824,10.587132820281983,10.913242343444825C10.587132820281983,10.913242343444825,9.652862820281982,12.086762343444825,9.652862820281982,12.086762343444825C10.956262820281982,13.124412343444824,13.033732820281983,13.124412343444824,14.337132820281983,12.086762343444825C14.337132820281983,12.086762343444825,13.402862820281982,10.913242343444825,13.402862820281982,10.913242343444825C13.402862820281982,10.913242343444825,13.402862820281982,10.913242343444825,13.402862820281982,10.913242343444825ZM10.588972820281983,10.914712343444824C10.588972820281983,10.914712343444824,7.468982820281982,8.414715343444824,7.468982820281982,8.414715343444824C7.468982820281982,8.414715343444824,6.531020820281983,9.585282343444824,6.531020820281983,9.585282343444824C6.531020820281983,9.585282343444824,9.651022820281982,12.085282343444824,9.651022820281982,12.085282343444824C9.651022820281982,12.085282343444824,10.588972820281983,10.914712343444824,10.588972820281983,10.914712343444824C10.588972820281983,10.914712343444824,10.588972820281983,10.914712343444824,10.588972820281983,10.914712343444824Z" fill="#292D32" fill-opacity="1"/></g><g><g><path d="M19.209754977416992,14.769996934814452C19.209754977416992,14.769996934814452,18.679424977416993,14.239670934814454,18.679424977416993,14.239670934814454C18.679424977416993,14.239670934814454,18.679424977416993,14.239672934814454,18.679424977416993,14.239672934814454C18.679424977416993,14.239672934814454,19.209754977416992,14.769996934814452,19.209754977416992,14.769996934814452C19.209754977416992,14.769996934814452,19.209754977416992,14.769996934814452,19.209754977416992,14.769996934814452ZM15.669774977416992,18.310006934814453C15.669774977416992,18.310006934814453,16.20010497741699,18.840336934814452,16.20010497741699,18.840336934814452C16.20010497741699,18.840336934814452,16.20010497741699,18.840336934814452,16.20010497741699,18.840336934814452C16.20010497741699,18.840336934814452,15.669774977416992,18.310006934814453,15.669774977416992,18.310006934814453C15.669774977416992,18.310006934814453,15.669774977416992,18.310006934814453,15.669774977416992,18.310006934814453ZM15.369757977416992,18.899996934814453C15.369757977416992,18.899996934814453,14.628831977416992,18.783016934814455,14.628831977416992,18.783016934814455C14.628831977416992,18.783016934814455,14.627077977416992,18.795476934814452,14.627077977416992,18.795476934814452C14.627077977416992,18.795476934814452,15.369757977416992,18.899996934814453,15.369757977416992,18.899996934814453C15.369757977416992,18.899996934814453,15.369757977416992,18.899996934814453,15.369757977416992,18.899996934814453ZM15.179755977416992,20.250006934814454C15.179755977416992,20.250006934814454,15.922214977416992,20.356076934814453,15.922214977416992,20.356076934814453C15.922214977416992,20.356076934814453,15.922434977416993,20.354536934814455,15.922434977416993,20.354536934814455C15.922434977416993,20.354536934814455,15.179755977416992,20.250006934814454,15.179755977416992,20.250006934814454C15.179755977416992,20.250006934814454,15.179755977416992,20.250006934814454,15.179755977416992,20.250006934814454ZM15.939764977416992,21.010016934814452C15.939764977416992,21.010016934814452,15.835234977416992,20.267336934814452,15.835234977416992,20.267336934814452C15.835234977416992,20.267336934814452,15.833694977416993,20.267556934814454,15.833694977416993,20.267556934814454C15.833694977416993,20.267556934814454,15.939764977416992,21.010016934814452,15.939764977416992,21.010016934814452C15.939764977416992,21.010016934814452,15.939764977416992,21.010016934814452,15.939764977416992,21.010016934814452ZM17.289774977416993,20.820016934814454C17.289774977416993,20.820016934814454,17.394314977416993,21.562796934814454,17.394314977416993,21.562796934814454C17.394314977416993,21.562796934814454,17.40674497741699,21.560836934814454,17.40674497741699,21.560836934814454C17.40674497741699,21.560836934814454,17.289774977416993,20.820016934814454,17.289774977416993,20.820016934814454C17.289774977416993,20.820016934814454,17.289774977416993,20.820016934814454,17.289774977416993,20.820016934814454ZM17.879764977416993,20.519996934814454C17.879764977416993,20.519996934814454,17.349444977416994,19.98966693481445,17.349444977416994,19.98966693481445C17.342894977416993,19.996206934814452,17.33647497741699,20.002876934814452,17.33017497741699,20.00965693481445C17.33017497741699,20.00965693481445,17.879764977416993,20.519996934814454,17.879764977416993,20.519996934814454C17.879764977416993,20.519996934814454,17.879764977416993,20.519996934814454,17.879764977416993,20.519996934814454ZM21.419774977416992,16.980016934814454C21.419774977416992,16.980016934814454,21.95010497741699,17.510346934814454,21.95010497741699,17.510346934814454C21.95010497741699,17.510346934814454,21.95010497741699,17.510346934814454,21.95010497741699,17.510346934814454C21.95010497741699,17.510346934814454,21.419774977416992,16.980016934814454,21.419774977416992,16.980016934814454C21.419774977416992,16.980016934814454,21.419774977416992,16.980016934814454,21.419774977416992,16.980016934814454ZM18.679424977416993,14.239672934814454C18.679424977416993,14.239672934814454,15.139443977416992,17.779676934814454,15.139443977416992,17.779676934814454C15.139443977416992,17.779676934814454,16.20010497741699,18.840336934814452,16.20010497741699,18.840336934814452C16.20010497741699,18.840336934814452,19.74008497741699,15.300326934814453,19.74008497741699,15.300326934814453C19.74008497741699,15.300326934814453,18.679424977416993,14.239672934814454,18.679424977416993,14.239672934814454C18.679424977416993,14.239672934814454,18.679424977416993,14.239672934814454,18.679424977416993,14.239672934814454ZM15.139445977416992,17.779676934814454C14.997129977416993,17.921986934814452,14.886877977416992,18.094316934814454,14.809291977416992,18.247676934814454C14.731713977416993,18.401006934814454,14.659522977416993,18.589316934814452,14.628935977416992,18.78302693481445C14.628935977416992,18.78302693481445,16.11058497741699,19.01697693481445,16.11058497741699,19.01697693481445C16.109594977416993,19.023196934814454,16.110364977416992,19.015546934814452,16.11771497741699,18.994486934814454C16.124634977416992,18.974666934814454,16.134764977416992,18.950476934814454,16.14774497741699,18.924836934814454C16.160724977416994,18.899176934814452,16.174164977416993,18.876766934814455,16.186014977416992,18.859536934814454C16.198564977416993,18.841286934814452,16.20432497741699,18.836116934814452,16.20010497741699,18.840336934814452C16.20010497741699,18.840336934814452,15.139445977416992,17.779676934814454,15.139445977416992,17.779676934814454C15.139445977416992,17.779676934814454,15.139445977416992,17.779676934814454,15.139445977416992,17.779676934814454ZM14.627077977416992,18.795476934814452C14.627077977416992,18.795476934814452,14.437074777416992,20.145476934814454,14.437074777416992,20.145476934814454C14.437074777416992,20.145476934814454,15.922434977416993,20.354536934814455,15.922434977416993,20.354536934814455C15.922434977416993,20.354536934814455,16.112434977416992,19.004526934814454,16.112434977416992,19.004526934814454C16.112434977416992,19.004526934814454,14.627077977416992,18.795476934814452,14.627077977416992,18.795476934814452C14.627077977416992,18.795476934814452,14.627077977416992,18.795476934814452,14.627077977416992,18.795476934814452ZM14.437293777416992,20.143936934814455C14.374179777416993,20.585736934814452,14.490294777416992,21.041206934814454,14.819430977416992,21.370346934814453C15.148565977416991,21.699476934814452,15.604034977416992,21.81559693481445,16.04583497741699,21.752476934814453C16.04583497741699,21.752476934814453,15.833694977416993,20.267556934814454,15.833694977416993,20.267556934814454C15.807534977416992,20.27129693481445,15.804454977416992,20.266716934814454,15.818514977416992,20.270906934814455C15.833424977416993,20.275346934814454,15.857214977416993,20.286806934814454,15.880094977416991,20.309686934814454C15.902974977416992,20.33256693481445,15.914434977416992,20.356346934814454,15.918874977416992,20.371256934814454C15.923054977416992,20.385316934814455,15.918474977416992,20.382236934814454,15.922214977416992,20.356076934814453C15.922214977416992,20.356076934814453,14.437293777416992,20.143936934814455,14.437293777416992,20.143936934814455C14.437293777416992,20.143936934814455,14.437293777416992,20.143936934814455,14.437293777416992,20.143936934814455ZM16.044294977416993,21.752696934814452C16.044294977416993,21.752696934814452,17.39429497741699,21.562696934814454,17.39429497741699,21.562696934814454C17.39429497741699,21.562696934814454,17.185244977416993,20.077336934814454,17.185244977416993,20.077336934814454C17.185244977416993,20.077336934814454,15.835234977416992,20.267336934814452,15.835234977416992,20.267336934814452C15.835234977416992,20.267336934814452,16.044294977416993,21.752696934814452,16.044294977416993,21.752696934814452C16.044294977416993,21.752696934814452,16.044294977416993,21.752696934814452,16.044294977416993,21.752696934814452ZM17.40674497741699,21.560836934814454C17.597414977416992,21.530726934814453,17.786854977416994,21.459996934814455,17.94270497741699,21.382066934814453C18.094764977416993,21.306026934814454,18.28080497741699,21.190316934814454,18.42936497741699,21.030336934814454C18.42936497741699,21.030336934814454,17.33017497741699,20.00965693481445,17.33017497741699,20.00965693481445C17.343714977416994,19.995066934814453,17.34687497741699,19.995126934814454,17.331564977416992,20.005756934814453C17.317944977416992,20.015216934814454,17.29751497741699,20.027606934814454,17.271834977416994,20.040446934814454C17.246354977416992,20.053186934814452,17.221244977416994,20.06360693481445,17.199884977416993,20.07094693481445C17.177184977416992,20.078756934814454,17.16784497741699,20.079976934814454,17.17280497741699,20.079196934814455C17.17280497741699,20.079196934814455,17.40674497741699,21.560836934814454,17.40674497741699,21.560836934814454C17.40674497741699,21.560836934814454,17.40674497741699,21.560836934814454,17.40674497741699,21.560836934814454ZM18.410094977416993,21.050326934814453C18.410094977416993,21.050326934814453,21.95010497741699,17.510346934814454,21.95010497741699,17.510346934814454C21.95010497741699,17.510346934814454,20.889444977416993,16.44968693481445,20.889444977416993,16.44968693481445C20.889444977416993,16.44968693481445,17.349444977416994,19.98966693481445,17.349444977416994,19.98966693481445C17.349444977416994,19.98966693481445,18.410094977416993,21.050326934814453,18.410094977416993,21.050326934814453C18.410094977416993,21.050326934814453,18.410094977416993,21.050326934814453,18.410094977416993,21.050326934814453ZM21.95010497741699,17.510346934814454C22.297734977416994,17.162726934814454,22.670504977416993,16.677766934814453,22.73238497741699,16.05263693481445C22.79817497741699,15.387836934814453,22.496694977416993,14.776276934814453,21.95010497741699,14.229691934814452C21.95010497741699,14.229691934814452,20.889444977416993,15.290346934814453,20.889444977416993,15.290346934814453C21.242864977416993,15.643766934814453,21.24637497741699,15.837196934814454,21.239674977416993,15.904896934814452C21.22904497741699,16.012266934814452,21.151824977416993,16.187316934814454,20.889444977416993,16.44968693481445C20.889444977416993,16.44968693481445,21.95010497741699,17.510346934814454,21.95010497741699,17.510346934814454C21.95010497741699,17.510346934814454,21.95010497741699,17.510346934814454,21.95010497741699,17.510346934814454ZM21.95010497741699,14.229691934814452C21.406604977416993,13.686192934814454,20.796334977416993,13.388309834814454,20.13312497741699,13.456436864814453C19.51100497741699,13.520343834814453,19.027094977416994,13.892004934814453,18.679424977416993,14.239670934814454C18.679424977416993,14.239670934814454,19.74008497741699,15.300326934814453,19.74008497741699,15.300326934814453C20.002414977416993,15.037996934814453,20.17851497741699,14.959666934814454,20.286404977416993,14.948586934814454C20.353204977416993,14.941726934814453,20.542944977416994,14.943846934814452,20.889444977416993,15.290346934814453C20.889444977416993,15.290346934814453,21.95010497741699,14.229691934814452,21.95010497741699,14.229691934814452C21.95010497741699,14.229691934814452,21.95010497741699,14.229691934814452,21.95010497741699,14.229691934814452Z" fill="#292D32" fill-opacity="1"/></g><g><path d="M19.422443571166994,15.079265759689331C19.31158357116699,14.68016375968933,18.89817257116699,14.44649865968933,18.499070571166992,14.557360659689332C18.099968571166993,14.668221759689331,17.866303471166994,15.081629759689331,17.97716547116699,15.48073175968933C17.97716547116699,15.48073175968933,19.422443571166994,15.079265759689331,19.422443571166994,15.079265759689331C19.422443571166994,15.079265759689331,19.422443571166994,15.079265759689331,19.422443571166994,15.079265759689331ZM20.71907357116699,18.222638759689332C21.11817357116699,18.33349875968933,21.53158357116699,18.09983875968933,21.642443571166993,17.70072875968933C21.75330357116699,17.30162875968933,21.51964357116699,16.88821875968933,21.12053357116699,16.77735875968933C21.12053357116699,16.77735875968933,20.71907357116699,18.222638759689332,20.71907357116699,18.222638759689332C20.71907357116699,18.222638759689332,20.71907357116699,18.222638759689332,20.71907357116699,18.222638759689332ZM17.97716547116699,15.48073175968933C18.347569571166993,16.81418875968933,19.385613571166992,17.85223875968933,20.71907357116699,18.222638759689332C20.71907357116699,18.222638759689332,21.12053357116699,16.77735875968933,21.12053357116699,16.77735875968933C20.293993571166993,16.54776875968933,19.652033571166992,15.90580875968933,19.422443571166994,15.079265759689331C19.422443571166994,15.079265759689331,17.97716547116699,15.48073175968933,17.97716547116699,15.48073175968933C17.97716547116699,15.48073175968933,17.97716547116699,15.48073175968933,17.97716547116699,15.48073175968933Z" fill="#292D32" fill-opacity="1"/></g></g><g style="opacity:0;"></g></g></g></g></svg>