<svg xmlns="http://www.w3.org/2000/svg" xmlns:xlink="http://www.w3.org/1999/xlink" fill="none" version="1.1" width="1925" height="1003" viewBox="0 0 1925 1003"><defs><linearGradient x1="0.0652836337685585" y1="-0.19880816340446472" x2="0.9347164034843445" y2="1.198808193206787" id="master_svg0_351_91870"><stop offset="0%" stop-color="#F3F0FF" stop-opacity="1"/><stop offset="100%" stop-color="#F0F6FF" stop-opacity="1"/></linearGradient><clipPath id="master_svg1_351_91868"><rect x="0" y="0" width="1925" height="1003" rx="24"/></clipPath><clipPath id="master_svg2_351_91905"><rect x="-116.796875" y="-78.8603515625" width="1295" height="1459" rx="0"/></clipPath><mask id="master_svg3_351_91907" style="mask-type:alpha" maskUnits="userSpaceOnUse"><g><g><path d="M-116.796875,-78.8603515625C-116.796875,-78.8603515625,1178.203125,-78.8603515625,1178.203125,-78.8603515625C1178.203125,-78.8603515625,1178.203125,1380.1396484375,1178.203125,1380.1396484375C1178.203125,1380.1396484375,-116.796875,1380.1396484375,-116.796875,1380.1396484375C-116.796875,1380.1396484375,-116.796875,-78.8603515625,-116.796875,-78.8603515625Z" fill="#000000" fill-opacity="1"/></g></g></mask><linearGradient x1="1.818498969078064" y1="1.0506666898727417" x2="0.5728621482849121" y2="-0.14933356642723083" id="master_svg4_351_91920"><stop offset="0%" stop-color="#E5F0FF" stop-opacity="1"/><stop offset="50%" stop-color="#E9EBFF" stop-opacity="1"/><stop offset="100%" stop-color="#EBE5FF" stop-opacity="1"/></linearGradient><linearGradient x1="1.5144182443618774" y1="0.17213451862335205" x2="2.361867666244507" y2="1.7205101251602173" id="master_svg5_351_91930"><stop offset="0%" stop-color="#CEBCFF" stop-opacity="0.5"/><stop offset="50%" stop-color="#AD91FC" stop-opacity="0.75"/><stop offset="100%" stop-color="#8C65FA" stop-opacity="1"/></linearGradient><clipPath id="master_svg6_351_91936"><rect x="746.796875" y="-78.8603515625" width="1295" height="1459" rx="0"/></clipPath><mask id="master_svg7_351_91972" style="mask-type:alpha" maskUnits="userSpaceOnUse"><g><g><path d="M746.796875,-78.8603515625C746.796875,-78.8603515625,2041.796875,-78.8603515625,2041.796875,-78.8603515625C2041.796875,-78.8603515625,2041.796875,1380.1396484375,2041.796875,1380.1396484375C2041.796875,1380.1396484375,746.796875,1380.1396484375,746.796875,1380.1396484375C746.796875,1380.1396484375,746.796875,-78.8603515625,746.796875,-78.8603515625Z" fill="#000000" fill-opacity="1"/></g></g></mask><linearGradient x1="0.42757412791252136" y1="1.0506666898727417" x2="-0.8180627226829529" y2="-0.14933356642723083" id="master_svg8_351_91960"><stop offset="0%" stop-color="#E5F0FF" stop-opacity="1"/><stop offset="50%" stop-color="#E9EBFF" stop-opacity="1"/><stop offset="100%" stop-color="#EBE5FF" stop-opacity="1"/></linearGradient><mask id="master_svg9_351_91954" style="mask-type:alpha" maskUnits="userSpaceOnUse"><g><g><g><g><g><path d="M1524.2370390625001,1330.133544921875C1524.2370390625001,1330.133544921875,794.8406390625,1260.463544921875,794.8406390625,1260.463544921875C775.9847890625,1258.663544921875,764.4797990625,1246.523544921875,771.0052790625,1235.313544921875C771.0052790625,1235.313544921875,1278.8720390624999,363.24054492187497,1278.8720390624999,363.24054492187497C1378.2870390624998,192.536644921875,1656.6960390625,89.561944921875,1944.2650390625,117.055004921875C1944.2650390625,117.055004921875,3231.4850390625,240.033544921875,3231.4850390625,240.033544921875C3613.7650390625,276.626544921875,3847.0650390625,522.6015449218751,3714.9050390625,749.599544921875C3614.9150390625,921.145544921875,3335.2450390625,1024.774544921875,3046.2950390625,997.206544921875C3046.2950390625,997.206544921875,2307.1150390625,926.554544921875,2307.1150390625,926.554544921875C2292.8750390625,925.193544921875,2279.0850390625,930.302544921875,2274.1550390625,938.765544921875C2274.1550390625,938.765544921875,2189.6550390625,1083.7995449218752,2189.6550390625,1083.7995449218752C2090.2450390625,1254.503544921875,1811.8150390625,1357.623544921875,1524.2370390625001,1330.133544921875Z" fill="url(#master_svg8_351_91960)" fill-opacity="1"/></g></g></g></g></g></mask><mask id="master_svga_351_91970" style="mask-type:alpha" maskUnits="userSpaceOnUse"><g><g><path d="M-1656.697509765625,-78.8603515625C-1656.697509765625,-78.8603515625,2041.822490234375,-78.8603515625,2041.822490234375,-78.8603515625C2041.822490234375,-78.8603515625,2041.822490234375,1380.1396484375,2041.822490234375,1380.1396484375C2041.822490234375,1380.1396484375,-1656.697509765625,1380.1396484375,-1656.697509765625,1380.1396484375C-1656.697509765625,1380.1396484375,-1656.697509765625,-78.8603515625,-1656.697509765625,-78.8603515625Z" fill="#000000" fill-opacity="1"/></g></g></mask><linearGradient x1="0.42757412791252136" y1="1.0506666898727417" x2="-0.8180627226829529" y2="-0.14933356642723083" id="master_svgb_351_91960"><stop offset="0%" stop-color="#E5F0FF" stop-opacity="1"/><stop offset="50%" stop-color="#E9EBFF" stop-opacity="1"/><stop offset="100%" stop-color="#EBE5FF" stop-opacity="1"/></linearGradient><linearGradient x1="1.5144182443618774" y1="0.17213451862335205" x2="2.361867666244507" y2="1.7205101251602173" id="master_svgc_351_91930"><stop offset="0%" stop-color="#CEBCFF" stop-opacity="0.5"/><stop offset="50%" stop-color="#AD91FC" stop-opacity="0.75"/><stop offset="100%" stop-color="#8C65FA" stop-opacity="1"/></linearGradient></defs><g><g clip-path="url(#master_svg1_351_91868)"><rect x="0" y="0" width="1925" height="1003" rx="24" fill="url(#master_svg0_351_91870)" fill-opacity="1"/><g><g clip-path="url(#master_svg2_351_91905)"><g mask="url(#master_svg3_351_91907)"><g><g><g><g><g><g><g><g><path d="M380.2718945312499,1329.545224609375C380.2718945312499,1329.545224609375,1106.0318945312501,1260.215224609375,1106.0318945312501,1260.215224609375C1124.79189453125,1258.425224609375,1136.2418945312502,1246.355224609375,1129.75189453125,1235.205224609375C1129.75189453125,1235.205224609375,624.4118945312498,367.466224609375,624.4118945312498,367.466224609375C525.4918945312502,197.61082460937502,248.4718945312502,95.148424609375,-37.67810546874989,122.504684609375C-37.67810546874989,122.504684609375,-1318.4881054687498,244.87122460937502,-1318.4881054687498,244.87122460937502C-1698.86510546875,281.283224609375,-1931.00480546875,526.033224609375,-1799.50520546875,751.902224609375C-1700.0051054687501,922.594224609375,-1421.7361054687499,1025.708224609375,-1134.21410546875,998.277224609375C-1134.21410546875,998.277224609375,-398.7181054687501,927.976224609375,-398.7181054687501,927.976224609375C-384.54810546875,926.623224609375,-370.82810546875,931.706224609375,-365.9181054687499,940.126224609375C-365.9181054687499,940.126224609375,-281.83810546875,1084.4392246093748,-281.83810546875,1084.4392246093748C-182.9181054687499,1254.295224609375,94.12189453125006,1356.895224609375,380.2718945312499,1329.545224609375Z" fill="url(#master_svg4_351_91920)" fill-opacity="1"/></g></g></g><g><g><g><path d="M-366.0099575195312,154.70065253125Q-365.9339575195313,154.69339353125,-365.8609575195312,154.67232853125Q-365.78695751953126,154.65126353125,-365.7189575195313,154.61710753125Q-365.6509575195313,154.58295053125,-365.58995751953125,154.53686153125Q-365.5289575195312,154.49077253125,-365.4779575195313,154.43431353125Q-365.42595751953127,154.37785553125,-365.3859575195313,154.31294253125Q-365.3459575195312,154.24802953125,-365.3189575195313,154.17686453125Q-365.2909575195313,154.10569953125,-365.27695751953127,154.03069553125Q-365.26295751953126,153.95569213125,-365.26295751953126,153.87939453125Q-365.26295751953126,153.79813913125,-365.2789575195312,153.71844553125Q-365.2949575195313,153.63875053125,-365.32595751953124,153.56368053125Q-365.3569575195313,153.48861053125,-365.40195751953127,153.42104953125Q-365.4479575195312,153.35348753125,-365.5049575195312,153.29603153125Q-365.56195751953123,153.23857553125,-365.6299575195312,153.19343253125Q-365.6979575195312,153.14828953125,-365.77295751953125,153.11719353125Q-365.8479575195313,153.08609853125,-365.92695751953124,153.07024653125Q-366.0069575195313,153.05439453125,-366.0879575195313,153.05439453125Q-366.12795751953126,153.05439453125,-366.16695751953125,153.05813653125L-678.1629575195312,182.86649453125L-1012.3224195195312,214.79169453125002Q-1012.3983735195312,214.79889453125,-1012.4717075195313,214.81999453125002Q-1012.5450415195312,214.84099453125,-1012.6132695195313,214.87519453125Q-1012.6814965195313,214.90939453125,-1012.7423025195312,214.95539453125Q-1012.8031095195313,215.00149453125,-1012.8544315195312,215.05799453125002Q-1012.9057535195312,215.11449453125,-1012.9458505195313,215.17939453125Q-1012.9859475195312,215.24429453125,-1013.0134595195312,215.31539453125Q-1013.0409715195312,215.38659453125,-1013.0549645195313,215.46159453125Q-1013.0689575195313,215.53659453125,-1013.0689575195313,215.61289453125Q-1013.0689575195313,215.69419453125,-1013.0531055195313,215.77389453125Q-1013.0372535195313,215.85359453125,-1013.0061585195313,215.92859453124998Q-1012.9750625195312,216.00369453125,-1012.9299195195313,216.07129453125Q-1012.8847765195312,216.13879453125,-1012.8273205195312,216.19629453125Q-1012.7698645195312,216.25369453125,-1012.7023025195313,216.29889453125Q-1012.6347415195313,216.34399453125,-1012.5596715195312,216.37509453125Q-1012.4846015195312,216.40619453125,-1012.4049065195312,216.42209453125Q-1012.3252129195313,216.43789453125,-1012.2439575195312,216.43789453125Q-1012.2046374195312,216.43789453125,-1012.1654956195313,216.43419453125L-678.0059575195312,184.50909453125L-366.0099575195312,154.70065453125L-366.0099575195312,154.70065253125Z" fill-rule="evenodd" fill="url(#master_svg5_351_91930)" fill-opacity="1"/></g></g></g></g></g></g></g></g></g></g><g clip-path="url(#master_svg6_351_91936)"><g mask="url(#master_svg7_351_91972)"><g><g mask="url(#master_svg9_351_91954)"><g><g mask="url(#master_svga_351_91970)"><g><g><g><g><path d="M1527.918271484375,1327.113095703125C1527.918271484375,1327.113095703125,802.151071484375,1257.783095703125,802.151071484375,1257.783095703125C783.389091484375,1255.993095703125,771.941341484375,1243.923095703125,778.434361484375,1232.773095703125C778.434361484375,1232.773095703125,1283.774271484375,365.034095703125,1283.774271484375,365.034095703125C1382.694271484375,195.17869570312502,1659.718271484375,92.716295703125,1945.863271484375,120.072555703125C1945.863271484375,120.072555703125,3226.673271484375,242.43909570312502,3226.673271484375,242.43909570312502C3607.053271484375,278.851095703125,3839.193271484375,523.601095703125,3707.693271484375,749.470095703125C3608.193271484375,920.162095703125,3329.923271484375,1023.276095703125,3042.403271484375,995.845095703125C3042.403271484375,995.845095703125,2306.903271484375,925.544095703125,2306.903271484375,925.544095703125C2292.733271484375,924.191095703125,2279.013271484375,929.274095703125,2274.103271484375,937.694095703125C2274.103271484375,937.694095703125,2190.023271484375,1082.0070957031248,2190.023271484375,1082.0070957031248C2091.103271484375,1251.863095703125,1814.063271484375,1354.463095703125,1527.918271484375,1327.113095703125Z" fill="url(#master_svgb_351_91960)" fill-opacity="1"/></g></g></g><g transform="matrix(-1,0,0,1,5838.2724609375,0)"><g><g><path d="M3565.37023046875,152.26803534375Q3565.44623046875,152.26077634375,3565.51923046875,152.23971134375Q3565.59323046875,152.21864634375,3565.66123046875,152.18449034375Q3565.72923046875,152.15033334375,3565.79023046875,152.10424434375Q3565.85123046875,152.05815534375,3565.90223046875,152.00169634375Q3565.95423046875,151.94523834375,3565.99423046875,151.88032534375Q3566.03423046875,151.81541234375,3566.06123046875,151.74424734375Q3566.08923046875,151.67308234375,3566.10323046875,151.59807834375Q3566.1172304687498,151.52307494375,3566.1172304687498,151.44677734375Q3566.1172304687498,151.36552194375,3566.10123046875,151.28582834375Q3566.08523046875,151.20613334375,3566.05423046875,151.13106334375Q3566.0232304687497,151.05599334375,3565.97823046875,150.98843234375Q3565.9322304687503,150.92087034375,3565.87523046875,150.86341434375Q3565.81823046875,150.80595834375,3565.75023046875,150.76081534375Q3565.6822304687503,150.71567234375,3565.60723046875,150.68457634375Q3565.5322304687497,150.65348134375,3565.45323046875,150.63762934375Q3565.37323046875,150.62177734375,3565.29223046875,150.62177734375Q3565.25223046875,150.62177734375,3565.21323046875,150.62551934375L3253.21723046875,180.43387734375L2919.05776846875,212.35907734375002Q2918.98181446875,212.36627734375,2918.90848046875,212.38737734375002Q2918.83514646875,212.40837734375,2918.76691846875,212.44257734375Q2918.69869146875,212.47677734375,2918.63788546875,212.52277734375Q2918.57707846875,212.56887734375,2918.52575646875,212.62537734375002Q2918.47443446875,212.68187734375,2918.43433746875,212.74677734375Q2918.39424046875,212.81167734375,2918.36672846875,212.88277734375Q2918.33921646875,212.95397734375,2918.32522346875,213.02897734375Q2918.31123046875,213.10397734375,2918.31123046875,213.18027734375Q2918.31123046875,213.26157734375,2918.32708246875,213.34127734375Q2918.34293446875,213.42097734375,2918.37402946875,213.49597734374998Q2918.40512546875,213.57107734375,2918.45026846875,213.63867734375Q2918.49541146875,213.70617734375,2918.55286746875,213.76367734375Q2918.61032346875,213.82107734375,2918.67788546875,213.86627734375Q2918.74544646875,213.91137734375,2918.82051646875,213.94247734375Q2918.89558646875,213.97357734375,2918.97528146875,213.98947734375Q2919.05497506875,214.00527734375,2919.13623046875,214.00527734375Q2919.17555056875,214.00527734375,2919.21469236875,214.00157734375L3253.37423046875,182.07647734375L3565.37023046875,152.26803734375L3565.37023046875,152.26803534375Z" fill-rule="evenodd" fill="url(#master_svgc_351_91930)" fill-opacity="1"/></g></g></g></g></g></g></g></g></g><g><g><path d="M210.545444140625,-101.838263C210.082424140625,-102.139305,209.463025140625,-102.00799483,209.161981140625,-101.544974C208.860939140625,-101.08195,208.992249310625,-100.46255,209.455270140625,-100.16151C209.455270140625,-100.16151,210.545444140625,-101.838263,210.545444140625,-101.838263C210.545444140625,-101.838263,210.545444140625,-101.838263,210.545444140625,-101.838263ZM737.500244140625,25.5C737.500244140625,25.5,737.658244140625,26.486999999999995,737.658244140625,26.486999999999995C737.658244140625,26.486999999999995,737.500244140625,25.5,737.500244140625,25.5C737.500244140625,25.5,737.500244140625,25.5,737.500244140625,25.5ZM1663.820244140625,338.729C1664.220244140625,339.107,1664.850244140625,339.087,1665.230244140625,338.685C1665.610244140625,338.282,1665.590244140625,337.649,1665.180244140625,337.271C1665.180244140625,337.271,1663.820244140625,338.729,1663.820244140625,338.729C1663.820244140625,338.729,1663.820244140625,338.729,1663.820244140625,338.729ZM209.455270140625,-100.16151C258.385044140625,-68.3488,342.349244140625,-29.002399999999994,438.092244140625,-1.4500000000000028C533.831244140625,26.099999999999994,641.4492441406251,41.888000000000005,737.658244140625,26.486999999999995C737.658244140625,26.486999999999995,737.342244140625,24.513000000000005,737.342244140625,24.513000000000005C641.534244140625,39.84800000000001,534.236244140625,24.135999999999996,438.645244140625,-3.372399999999999C343.05924414062497,-30.879400000000004,259.282344140625,-70.151,210.545444140625,-101.838263C210.545444140625,-101.838263,209.455270140625,-100.16151,209.455270140625,-100.16151C209.455270140625,-100.16151,209.455270140625,-100.16151,209.455270140625,-100.16151ZM737.658244140625,26.486999999999995C1027.866244140625,-19.9657,1341.050244140625,35.44999999999999,1663.820244140625,338.729C1663.820244140625,338.729,1665.180244140625,337.271,1665.180244140625,337.271C1341.950244140625,33.55000000000001,1028.134244140625,-22.034099999999995,737.342244140625,24.513000000000005C737.342244140625,24.513000000000005,737.658244140625,26.486999999999995,737.658244140625,26.486999999999995C737.658244140625,26.486999999999995,737.658244140625,26.486999999999995,737.658244140625,26.486999999999995Z" fill="#EAEFF3" fill-opacity="1"/></g><g><path d="M104.62238,155.717295C104.19009,155.373586,103.561007,155.4453959,103.217295,155.877689C102.873586,156.309985,102.9453959,156.93906,103.377689,157.28278C103.377689,157.28278,104.62238,155.717295,104.62238,155.717295C104.62238,155.717295,104.62238,155.717295,104.62238,155.717295ZM1020.5,170.499C1020.5,170.499,1020.5,169.499,1020.5,169.499C1020.5,169.499,1020.5,170.499,1020.5,170.499C1020.5,170.499,1020.5,170.499,1020.5,170.499ZM1740.44,418.827C1740.9,419.138,1741.52,419.019,1741.83,418.562C1742.14,418.105,1742.02,417.483,1741.56,417.173C1741.56,417.173,1740.44,418.827,1740.44,418.827C1740.44,418.827,1740.44,418.827,1740.44,418.827ZM1020.5,171.499C1178.35,171.4957,1405.63,191.4574,1740.44,418.827C1740.44,418.827,1741.56,417.173,1741.56,417.173C1406.37,189.5426,1178.68,169.4957,1020.5,169.499C1020.5,169.499,1020.5,171.499,1020.5,171.499C1020.5,171.499,1020.5,171.499,1020.5,171.499ZM103.377689,157.28278C164.8989,206.1975,272.84299999999996,245.1114,387.715,263.308C502.595,281.506,624.627,279.02,714.355,244.93349999999998C714.355,244.93349999999998,713.645,243.06380000000001,713.645,243.06380000000001C624.373,276.977,502.734,279.503,388.028,261.33299999999997C273.31399999999996,243.1609,165.7581,204.3255,104.62238,155.717295C104.62238,155.717295,103.377689,157.28278,103.377689,157.28278C103.377689,157.28278,103.377689,157.28278,103.377689,157.28278ZM714.355,244.93349999999998C893.283,176.961,954.659,171.5004,1020.5,171.499C1020.5,171.499,1020.5,169.499,1020.5,169.499C954.341,169.5004,892.717,175.0363,713.645,243.06380000000001C713.645,243.06380000000001,714.355,244.93349999999998,714.355,244.93349999999998C714.355,244.93349999999998,714.355,244.93349999999998,714.355,244.93349999999998Z" fill="#EAEFF3" fill-opacity="1"/></g></g></g></g><rect x="0.5" y="0.5" width="1924" height="1002" rx="23.5" fill-opacity="0" stroke-opacity="0.03999999910593033" stroke="#212A78" fill="none" stroke-width="1"/></g></g></svg>