<svg xmlns="http://www.w3.org/2000/svg" xmlns:xlink="http://www.w3.org/1999/xlink" fill="none" version="1.1" width="1925" height="1003" viewBox="0 0 1925 1003"><defs><linearGradient x1="0.0652836337685585" y1="-0.19880816340446472" x2="0.9347164034843445" y2="1.198808193206787" id="master_svg0_351_91870"><stop offset="0%" stop-color="#F3F0FF" stop-opacity="1"/><stop offset="100%" stop-color="#F0F6FF" stop-opacity="1"/></linearGradient><clipPath id="master_svg1_351_91868"><rect x="0" y="0" width="1925" height="1003" rx="24"/></clipPath><linearGradient x1="0.2968747615814209" y1="0.040844425559043884" x2="0.8501907587051392" y2="0.9008275866508484" id="master_svg2_351_92061"><stop offset="0%" stop-color="#E6EEFF" stop-opacity="1"/><stop offset="100%" stop-color="#EBE7FF" stop-opacity="0.23999999463558197"/></linearGradient></defs><g clip-path="url(#master_svg1_351_91868)"><rect x="0" y="0" width="1925" height="1003" rx="24" fill="url(#master_svg0_351_91870)" fill-opacity="1"/><g transform="matrix(-0.9684661030769348,0.24877403676509857,0.24877403676509857,0.9684661030769348,3301.861570776091,-417.29239597541164)"><path d="M2687.744453125,81.789C2886.854453125,100.48500000000001,3119.7844531250003,10.6616,3275.404453125,97.93799999999999C3431.314453125,185.371,3372.9244531249997,355.678,3416.644453125,490.568C3454.874453125,608.521,3531.0344531250003,717.33,3515.194453125,837.675C3495.854453125,984.6700000000001,3464.234453125,1140.06,3317.014453125,1247.64C3155.544453125,1365.64,2923.514453125,1446.59,2687.744453125,1442.31C2454.389453125,1438.08,2257.500453125,1331.03,2082.185453125,1225.23C1920.744453125,1127.81,1801.179453125,1006,1732.890453125,866.089C1664.069763125,725.094,1655.857653125,577.962,1694.855453125,431.694C1739.119053125,265.675,1751.624353125,52.47709999999999,1970.364453125,-24.6098C2193.461453125,-103.2313,2439.274453125,58.456999999999994,2687.744453125,81.789C2687.744453125,81.789,2687.744453125,81.789,2687.744453125,81.789Z" fill-rule="evenodd" fill="url(#master_svg2_351_92061)" fill-opacity="1"/></g><rect x="0.5" y="0.5" width="1924" height="1002" rx="23.5" fill-opacity="0" stroke-opacity="0.03999999910593033" stroke="#212A78" fill="none" stroke-width="1"/></g></svg>