<svg xmlns="http://www.w3.org/2000/svg" xmlns:xlink="http://www.w3.org/1999/xlink" fill="none" version="1.1" width="1925" height="1003" viewBox="0 0 1925 1003"><defs><linearGradient x1="0.0652836337685585" y1="-0.19880816340446472" x2="0.9347164034843445" y2="1.198808193206787" id="master_svg0_351_91870"><stop offset="0%" stop-color="#F3F0FF" stop-opacity="1"/><stop offset="100%" stop-color="#F0F6FF" stop-opacity="1"/></linearGradient><clipPath id="master_svg1_351_91868"><rect x="0" y="0" width="1925" height="1003" rx="24"/></clipPath><linearGradient x1="0.2968747615814209" y1="0.040844425559043884" x2="0.8501907587051392" y2="0.9008275866508484" id="master_svg2_351_92061"><stop offset="0%" stop-color="#E6EEFF" stop-opacity="1"/><stop offset="100%" stop-color="#EBE7FF" stop-opacity="0.23999999463558197"/></linearGradient></defs><g clip-path="url(#master_svg1_351_91868)"><rect x="0" y="0" width="1925" height="1003" rx="24" fill="url(#master_svg0_351_91870)" fill-opacity="1"/><g transform="matrix(-0.9996994733810425,-0.020400486886501312,-0.020400486886501312,0.9996994733810425,3537.5936108250025,36.09728537925548)"><path d="M2566.1414921875003,181.983015625C2722.4844921875,196.660015625,2905.3894921875,126.14661562500001,3027.5794921875,194.660015625C3149.9994921875,263.297015625,3104.1494921875,396.991015625,3138.4794921875,502.883015625C3168.5094921874997,595.479015625,3228.2994921874997,680.896015625,3215.8694921875003,775.370015625C3200.6794921875,890.764015625,3175.8494921875,1012.752015625,3060.2594921874997,1097.196015625C2933.4594921875,1189.826015625,2751.2694921875,1253.386015625,2566.1414921875003,1250.026015625C2382.9114921875,1246.696015625,2228.3124921875,1162.666015625,2090.6524921875,1079.610015625C1963.8874921875,1003.130015625,1870.0044921875,907.506015625,1816.3832921875,797.675015625C1762.3445821875,686.991015625,1755.8963921875,571.489015625,1786.5177921875,456.666015625C1821.2739921875,326.337015625,1831.0933921875,158.972615625,2002.8504921875,98.457815625C2178.0274921875,36.738215625,2371.0424921875,163.666815625,2566.1414921875003,181.983015625C2566.1414921875003,181.983015625,2566.1414921875003,181.983015625,2566.1414921875003,181.983015625Z" fill-rule="evenodd" fill="url(#master_svg2_351_92061)" fill-opacity="1"/></g><rect x="0.5" y="0.5" width="1924" height="1002" rx="23.5" fill-opacity="0" stroke-opacity="0.03999999910593033" stroke="#212A78" fill="none" stroke-width="1"/></g></svg>