<svg xmlns="http://www.w3.org/2000/svg" xmlns:xlink="http://www.w3.org/1999/xlink" fill="none" version="1.1" width="22" height="22" viewBox="0 0 22 22"><g><path d="M18.8911,13.3043C18.0275,13.1884,17.1639,12.9565,16.3003,12.6667C15.264,12.2609,14.1126,12.5507,13.3065,13.3043L12.5581,14.058C10.6582,12.8406,9.04616,11.2754,7.89471,9.36232L8.64316,8.6087C9.3916,7.7971,9.67946,6.63768,9.27645,5.5942C8.98859,4.78261,8.7583,3.91304,8.64316,2.98551C8.47044,1.5942,7.26141,0.550725,5.8221,0.550725L2.8859,0.550725C2.02231,0.550725,1.27386,0.898551,0.755709,1.47826C0.237555,2.05797,-0.0503079,2.86957,0.00726466,3.68116C0.3527,6.86956,1.44658,9.94203,3.17376,12.6087C4.72822,15.1014,6.8584,17.2464,9.33403,18.8116C11.9824,20.5507,15.0337,21.6522,18.2002,22L18.4305,22C19.1214,22,19.8122,21.7101,20.3304,21.2464C20.9061,20.7246,21.2516,19.913,21.2516,19.1594L21.2516,16.2029C21.3667,14.7536,20.2728,13.5362,18.8911,13.3043ZM19.5819,16.2029L19.5819,19.1594C19.5819,19.4493,19.4668,19.7971,19.2365,19.971C19.0062,20.2029,18.7184,20.2609,18.4305,20.2609C15.5519,19.971,12.7308,18.9275,10.3128,17.3623C8.06743,15.913,6.10996,13.942,4.67065,11.6812C3.11619,9.24638,2.07988,6.4058,1.79202,3.50725C1.79202,3.21739,1.84959,2.86957,2.07988,2.63768C2.31017,2.4058,2.59803,2.28986,2.8859,2.28986L5.8221,2.28986C6.39782,2.28986,6.8584,2.69565,6.91598,3.21739C7.03112,4.2029,7.31898,5.24638,7.66442,6.17391C7.83714,6.57971,7.72199,7.04348,7.43413,7.33333L6.16753,8.6087C5.87967,8.89855,5.8221,9.30435,6.05239,9.65217C7.54928,12.2609,9.67946,14.4058,12.2702,15.913C12.6157,16.087,13.0187,16.029,13.3065,15.7971L14.5731,14.5217C14.861,14.2319,15.3216,14.1159,15.7246,14.2899C16.7033,14.6377,17.6821,14.8696,18.6608,15.0435C19.1789,15.1014,19.5819,15.5652,19.5819,16.2029C19.5819,16.1449,19.5819,16.1449,19.5819,16.2029ZM21.9424,4.72464C22,4.6087,22,4.49275,22,4.37681C22,4.26087,22,4.14493,21.9424,4.08696C21.8849,3.97101,21.8273,3.85507,21.7697,3.7971L18.2578,0.26087C17.9123,-0.0869565,17.3942,-0.0869565,17.0488,0.26087C16.7033,0.608696,16.7033,1.13043,17.0488,1.47826L19.0638,3.50725L14.1126,3.50725C13.652,3.50725,13.249,3.91304,13.249,4.37681C13.249,4.84058,13.652,5.24638,14.1126,5.24638L19.0638,5.24638L16.9912,7.27536C16.6457,7.62319,16.6457,8.14493,16.9912,8.49275C17.1639,8.66667,17.3942,8.72464,17.6245,8.72464C17.8548,8.72464,18.0851,8.66667,18.2578,8.49275L21.7697,4.95652C21.8273,4.89855,21.8849,4.84058,21.9424,4.72464Z" fill="#292D32" fill-opacity="1"/></g></svg>