<svg xmlns="http://www.w3.org/2000/svg" xmlns:xlink="http://www.w3.org/1999/xlink" fill="none" version="1.1" width="22" height="22" viewBox="0 0 22 22"><g><path d="M13.7557,15.3088C13.4669,15.5787,13.0543,16.0399,12.5298,16.6846L12.0764,17.2407L11.459,16.8794C8.50804,15.1502,6.12799,12.6024,4.78292,9.64866L4.53103,9.09541L4.97099,8.67764C5.57384,8.10689,6.01436,7.65807,6.28752,7.33854C6.33661,7.28147,6.38421,7.22312,6.43026,7.16353C6.11877,6.03107,5.97393,4.8586,6.00037,3.68367C5.98554,3.6747,5.97041,3.66623,5.95503,3.65826C5.75779,3.56656,5.54457,3.51495,5.32755,3.5064L1.84927,3.38389C1.71102,3.37938,1.69422,3.39518,1.68919,3.53463C1.37909,12.4968,8.31045,19.9934,17.1965,20.3062C17.3274,20.3107,17.3515,20.2887,17.356,20.156L17.4746,16.7405C17.4836,16.4729,17.4842,16.3397,17.4718,16.1918C17.4472,15.8971,17.4607,15.9168,17.4075,15.9191C16.2191,15.962,15.0946,15.73,13.8206,15.2495C13.7987,15.269,13.7771,15.2888,13.7557,15.3088ZM11.7025,15.0446C12.0596,14.6268,12.3625,14.3017,12.6149,14.0662C13.225,13.496,13.6493,13.2493,14.2001,13.583C15.3756,14.0459,16.3501,14.2627,17.3403,14.2266C18.4973,14.1758,19.0537,14.9633,19.1449,16.0489C19.1651,16.2843,19.1645,16.4667,19.1528,16.7992L19.0347,20.2147C18.9972,21.2862,18.1922,22.0359,17.1371,21.9987C7.32473,21.6532,-0.331506,13.3724,0.0110597,3.47591C0.0480029,2.40158,0.842845,1.65412,1.90805,1.69138L5.38576,1.81389C6.57131,1.85567,7.72327,2.44279,7.68241,3.61366C7.64493,4.74879,7.79339,5.88238,8.12181,6.96876C8.32444,7.62928,7.94213,8.15995,6.57131,9.48268C7.702,11.6844,9.49991,13.6197,11.7025,15.0446ZM12.3378,4.02748C13.761,4.23574,15.0788,4.90368,16.0938,5.93113C17.1583,7.00034,17.8324,8.40162,18.0064,9.90666C18.032,10.127,17.8625,10.3211,17.6426,10.3233L17.0851,10.3289C16.8807,10.3313,16.7067,10.1793,16.6798,9.97497C16.5266,8.80023,15.9923,7.70965,15.1601,6.87335C14.3738,6.07752,13.3596,5.55069,12.2606,5.36714C12.0206,5.32695,11.8467,5.11448,11.8531,4.86922L11.8643,4.43C11.8708,4.17987,12.0923,3.99155,12.3378,4.02748ZM12.4324,0.00226246C14.8777,0.252539,17.1617,1.34887,18.8964,3.10501C20.7108,4.92796,21.8124,7.34975,21.9991,9.92585C22.013,10.1156,21.8653,10.2777,21.6767,10.2798L21.0235,10.2866C20.8409,10.2887,20.688,10.1478,20.6736,9.96424C20.4993,7.72866,19.5375,5.62979,17.9622,4.04724C16.4559,2.52229,14.4758,1.56561,12.3535,1.33741C12.121,1.31274,11.9465,1.11186,11.9527,0.876179L11.9639,0.418333C11.9701,0.168492,12.1859,-0.0231366,12.4324,0.00226246ZM12.0221,8.43658C12.9709,8.48287,13.6829,9.18404,13.7501,10.1359C13.7534,10.1844,13.6896,10.2866,13.6661,10.2883C13.3566,10.312,12.7896,10.3515,11.9673,10.4074L11.9634,10.4074C11.8683,10.4142,11.7901,10.3331,11.7994,10.2375C11.8576,9.39744,11.8968,8.81822,11.918,8.49981C11.9191,8.48231,11.9897,8.43489,12.0221,8.43658Z" fill="#292D32" fill-opacity="1"/></g></svg>