<svg xmlns="http://www.w3.org/2000/svg" xmlns:xlink="http://www.w3.org/1999/xlink" fill="none" version="1.1" width="42.5478515625" height="38.140625" viewBox="0 0 42.5478515625 38.140625"><g><g><path d="M39.38088454589844,31.217666718139647C39.38088454589844,31.217666718139647,39.38088454589844,36.75608671813965,39.38088454589844,36.75608671813965C39.38088454589844,36.75608671813965,3.1697845458984375,36.75608671813965,3.1697845458984375,36.75608671813965C3.1697845458984375,36.75608671813965,3.1697845458984375,31.217666718139647,3.1697845458984375,31.217666718139647C3.1697845458984375,30.20228971813965,3.9845335458984374,29.37152671813965,4.980334545898438,29.37152671813965C4.980334545898438,29.37152671813965,37.57028454589844,29.37152671813965,37.57028454589844,29.37152671813965C38.566084545898434,29.37152671813965,39.38088454589844,30.20228971813965,39.38088454589844,31.217666718139647C39.38088454589844,31.217666718139647,39.38088454589844,31.217666718139647,39.38088454589844,31.217666718139647Z" fill="#292D32" fill-opacity="1"/><path d="M39.38448454589844,29.388686018139648Q38.63208454589844,28.62152671813965,37.57028454589844,28.62152671813965L4.980334545898438,28.62152671813965Q3.9185405458984377,28.62152671813965,3.1661689258984373,29.388685918139647Q2.4197845458984375,30.14973971813965,2.4197845458984375,31.217666718139647L2.4197845458984375,36.75608671813965Q2.4197845458984375,36.82995671813965,2.4341955458984375,36.90239671813965Q2.4486065458984374,36.974846718139645,2.4768745458984376,37.04309671813965Q2.5051435458984375,37.11133671813965,2.5461825458984375,37.17276671813965Q2.5872215458984376,37.23417671813965,2.6394545458984373,37.28641671813965Q2.6916875458984375,37.33864671813965,2.7531065458984374,37.37968671813965Q2.8145265458984374,37.42072671813965,2.8827715458984375,37.44899671813965Q2.9510175458984373,37.47725671813965,3.0234665458984376,37.49167671813965Q3.0959160458984374,37.50608671813965,3.1697845458984375,37.50608671813965L39.38088454589844,37.50608671813965Q39.45468454589844,37.50608671813965,39.527184545898436,37.49167671813965Q39.59958454589844,37.47725671813965,39.66788454589844,37.44899671813965Q39.736084545898436,37.42072671813965,39.797484545898435,37.37968671813965Q39.85898454589844,37.33864671813965,39.911184545898436,37.28641671813965Q39.963384545898435,37.23417671813965,40.004484545898435,37.17276671813965Q40.04548454589844,37.11133671813965,40.07378454589844,37.04309671813965Q40.102084545898435,36.974846718139645,40.11648454589844,36.90239671813965Q40.13088454589844,36.82995671813965,40.13088454589844,36.75608671813965L40.13088454589844,31.217666718139647Q40.13088454589844,30.149741718139648,39.38448454589844,29.388686018139648ZM4.980334545898438,30.12152671813965L37.57028454589844,30.12152671813965Q38.00218454589844,30.12152671813965,38.313584545898436,30.43897671813965Q38.63088454589844,30.762526718139647,38.63088454589844,31.217666718139647L38.63088454589844,36.00608671813965L3.9197845458984375,36.00608671813965L3.9197845458984375,31.217666718139647Q3.9197845458984375,30.762526718139647,4.237104545898438,30.43897671813965Q4.548424545898437,30.12152671813965,4.980334545898438,30.12152671813965Z" fill-rule="evenodd" fill="#292D32" fill-opacity="1"/></g><g style="opacity:0.6000000238418579;"><path d="M14.031796053619384,16.44821548461914C14.031796053619384,16.44821548461914,6.789576053619385,16.44821548461914,6.789576053619385,16.44821548461914C6.789576053619385,16.44821548461914,6.789576053619385,29.371215484619142,6.789576053619385,29.371215484619142C6.789576053619385,29.371215484619142,14.031796053619384,29.371215484619142,14.031796053619384,29.371215484619142C14.031796053619384,29.371215484619142,14.031796053619384,16.44821548461914,14.031796053619384,16.44821548461914C14.031796053619384,16.44821548461914,14.031796053619384,16.44821548461914,14.031796053619384,16.44821548461914Z" fill="#292D32" fill-opacity="1"/></g><g style="opacity:0.4000000059604645;"><path d="M21.275325850219726,16.44821548461914C21.275325850219726,16.44821548461914,14.033105850219727,16.44821548461914,14.033105850219727,16.44821548461914C14.033105850219727,16.44821548461914,14.033105850219727,29.371215484619142,14.033105850219727,29.371215484619142C14.033105850219727,29.371215484619142,21.275325850219726,29.371215484619142,21.275325850219726,29.371215484619142C21.275325850219726,29.371215484619142,21.275325850219726,16.44821548461914,21.275325850219726,16.44821548461914C21.275325850219726,16.44821548461914,21.275325850219726,16.44821548461914,21.275325850219726,16.44821548461914Z" fill="#292D32" fill-opacity="1"/></g><g style="opacity:0.6000000238418579;"><path d="M28.516882017822265,16.44821548461914C28.516882017822265,16.44821548461914,21.274662017822266,16.44821548461914,21.274662017822266,16.44821548461914C21.274662017822266,16.44821548461914,21.274662017822266,29.371215484619142,21.274662017822266,29.371215484619142C21.274662017822266,29.371215484619142,28.516882017822265,29.371215484619142,28.516882017822265,29.371215484619142C28.516882017822265,29.371215484619142,28.516882017822265,16.44821548461914,28.516882017822265,16.44821548461914C28.516882017822265,16.44821548461914,28.516882017822265,16.44821548461914,28.516882017822265,16.44821548461914Z" fill="#292D32" fill-opacity="1"/></g><g style="opacity:0.4000000059604645;"><path d="M35.75843818542481,16.44821548461914C35.75843818542481,16.44821548461914,28.516218185424805,16.44821548461914,28.516218185424805,16.44821548461914C28.516218185424805,16.44821548461914,28.516218185424805,29.371215484619142,28.516218185424805,29.371215484619142C28.516218185424805,29.371215484619142,35.75843818542481,29.371215484619142,35.75843818542481,29.371215484619142C35.75843818542481,29.371215484619142,35.75843818542481,16.44821548461914,35.75843818542481,16.44821548461914C35.75843818542481,16.44821548461914,35.75843818542481,16.44821548461914,35.75843818542481,16.44821548461914Z" fill="#292D32" fill-opacity="1"/></g><g><path d="M41.1901,38.14102091308594C41.1901,38.14102091308594,1.35792,38.14102091308594,1.35792,38.14102091308594C0.615588,38.14102091308594,0,37.51333091308594,0,36.756410913085936C0,35.99949791308594,0.615588,35.37181091308594,1.35792,35.37181091308594C1.35792,35.37181091308594,41.1901,35.37181091308594,41.1901,35.37181091308594C41.9324,35.37181091308594,42.548,35.99949791308594,42.548,36.756410913085936C42.548,37.51333091308594,41.9324,38.14102091308594,41.1901,38.14102091308594C41.1901,38.14102091308594,41.1901,38.14102091308594,41.1901,38.14102091308594Z" fill="#292D32" fill-opacity="1"/></g><g><path d="M38.24018454589844,6.75683C38.24018454589844,6.75683,21.94518454589844,0.110768,21.94518454589844,0.110768C21.583084545898437,-0.0369228,20.967484545898436,-0.0369228,20.60538454589844,0.110768C20.60538454589844,0.110768,4.310444545898438,6.75683,4.310444545898438,6.75683C3.6767485458984375,7.01529,3.1697845458984375,7.77219,3.1697845458984375,8.47372C3.1697845458984375,8.47372,3.1697845458984375,14.6029,3.1697845458984375,14.6029C3.1697845458984375,15.6183,3.9845335458984374,16.4491,4.980334545898438,16.4491C4.980334545898438,16.4491,37.57028454589844,16.4491,37.57028454589844,16.4491C38.566084545898434,16.4491,39.38088454589844,15.6183,39.38088454589844,14.6029C39.38088454589844,14.6029,39.38088454589844,8.47372,39.38088454589844,8.47372C39.38088454589844,7.77219,38.873884545898434,7.01529,38.24018454589844,6.75683C38.24018454589844,6.75683,38.24018454589844,6.75683,38.24018454589844,6.75683ZM21.275284545898437,11.8337C19.772584545898436,11.8337,18.559484545898435,10.5968,18.559484545898435,9.06451C18.559484545898435,7.53221,19.772584545898436,6.2953,21.275284545898437,6.2953C22.778084545898437,6.2953,23.991184545898438,7.53221,23.991184545898438,9.06451C23.991184545898438,10.5968,22.778084545898437,11.8337,21.275284545898437,11.8337C21.275284545898437,11.8337,21.275284545898437,11.8337,21.275284545898437,11.8337Z" fill="#292D32" fill-opacity="1"/></g></g></svg>