<svg xmlns="http://www.w3.org/2000/svg" viewBox="0 0 74.85 52.53"><defs><style>.cls-1{fill:#656666;}.cls-2{fill:none;stroke:#333;stroke-miterlimit:10;stroke-width:3px;}.cls-3{fill:#333;}</style></defs><g id="图层_2" data-name="图层 2"><g id="图层_1-2" data-name="图层 1"><path class="cls-1" d="M16.43,28.74s16.39,14.44,42,1.19l-.11-8.4s-20,15.74-42,0Z"/><path class="cls-2" d="M68,19.47,45.41,27.58c-7.13,2.47-8.69,2.47-15.82,0L6.85,19.42c-7.13-2.47-7.13-6.49,0-9l22.59-7.1c7.13-2.48,8.69-2.48,15.83,0L68,10.51C75.13,13,75.13,17,68,19.47Z"/><rect class="cls-3" x="68.82" y="18.53" width="3" height="16"/><rect class="cls-3" x="67.82" y="34.53" width="5" height="18"/><path class="cls-2" d="M16.43,22V40c0,3.31,9.4,6,21,6s21-2.69,21-6V22"/></g></g></svg>