<svg xmlns="http://www.w3.org/2000/svg" viewBox="0 0 82 83"><defs><style>.cls-1{fill:none;stroke:#333;stroke-miterlimit:10;stroke-width:3px;}.cls-2{fill:#333;}.cls-3{fill:#666;}</style></defs><g id="psupport2" data-name="psupport2"><g id="psupport2" data-name="psupport2"><path class="cls-1" d="M11.64,51H23.83a.17.17,0,0,1,.17.17V80.83a.17.17,0,0,1-.17.17H7.17A.17.17,0,0,1,7,80.83V55.64A4.64,4.64,0,0,1,11.64,51Z"/><path class="cls-1" d="M59.67,51.5H76.33a.17.17,0,0,1,.17.17V81.33a.17.17,0,0,1-.17.17H64.14a4.64,4.64,0,0,1-4.64-4.64V51.67a.17.17,0,0,1,.17-.17Z" transform="translate(136 133) rotate(-180)"/><rect class="cls-1" x="35.5" y="65.5" width="12" height="16" rx="1.9"/><rect class="cls-2" x="22.75" y="26" width="3" height="54.48"/><rect class="cls-2" x="58" y="26.52" width="3" height="54.48"/><rect class="cls-2" y="80" width="82" height="3"/><path class="cls-2" d="M42.5,19h0A1.6,1.6,0,0,1,41,17.32V1.68A1.6,1.6,0,0,1,42.5,0H44a0,0,0,0,1,0,0v17.3A1.6,1.6,0,0,1,42.5,19Z"/><polygon class="cls-2" points="58 7 44 0 44 11 58 7"/><rect class="cls-2" x="13" y="23" width="32" height="3" rx="1.5" transform="translate(-7.64 14.55) rotate(-25)"/><rect class="cls-2" x="39" y="23" width="32" height="3" rx="1.5" transform="translate(94.49 69.95) rotate(-155)"/><circle class="cls-3" cx="42" cy="39" r="8"/><rect class="cls-3" x="11.75" y="58.5" width="8" height="3"/><rect class="cls-3" x="11.75" y="65" width="8" height="3"/><rect class="cls-3" x="63.75" y="58.5" width="8" height="3"/><rect class="cls-3" x="63.75" y="65" width="8" height="3"/></g></g></svg>