<svg xmlns="http://www.w3.org/2000/svg" xmlns:xlink="http://www.w3.org/1999/xlink" fill="none" version="1.1" width="1460" height="1800" viewBox="0 0 1460 1800"><defs><clipPath id="master_svg0_335_06868"><rect x="0" y="0" width="1460" height="1800" rx="0"/></clipPath></defs><g clip-path="url(#master_svg0_335_06868)"><g><g><path d="M365.847,1011.715L792.187,1011.715L988.074,633.296L1192.6,1011.715L1647.75,1011.715L1155.15,70L849.801,70L365.847,1011.715ZM0,1725.22L437.864,1725.22L538.688,1528.79L97.9432,1528.79L0,1725.22ZM1466.27,1528.79L1572.85,1728.11L2028,1731L1924.3,1528.79L1466.27,1528.79Z" fill="#0076BD" fill-opacity="0.07999999821186066"/></g><g><path d="M273.2920780639648,1411.5916240234374L235.46207806396484,1494.1266240234374L109.46907806396484,1494.1266240234374L331.84807806396486,1043.4896240234375L460.1430780639648,1043.4896240234375L568.7000780639648,1494.1266240234374L449.61607806396484,1494.1266240234374L429.2200780639648,1411.5916240234374L273.2920780639648,1411.5916240234374ZM315.07007806396484,1321.4646240234374L406.85107806396485,1321.4646240234374L390.07407806396486,1243.2226240234374Q380.86307806396485,1200.9646240234374,377.57307806396483,1174.8836240234375Q366.71807806396487,1207.2376240234375,357.17807806396485,1228.3656240234375L315.07007806396484,1321.4646240234374ZM683.0530780639648,1043.4896240234375L874.2410780639649,1043.4896240234375Q920.9530780639649,1043.4896240234375,945.4800780639648,1048.4416740234376Q969.9870780639649,1053.3937240234375,989.3950780639649,1066.5992240234375Q1013.7380780639648,1083.4361240234375,1026.8790780639647,1113.1484240234374Q1041.6830780639648,1146.1616240234375,1041.6850780639647,1183.7976240234375Q1041.6850780639647,1229.3566240234375,1022.6000780639648,1268.3126240234376Q1001.2170780639649,1311.5606240234374,963.2380780639648,1329.5546240234376Q925.2430780639648,1347.5466240234375,854.8350780639648,1347.5456240234375L759.3730780639648,1347.5456240234375L741.6090780639648,1494.1266240234374L627.7880780639648,1494.1266240234374L683.0530780639648,1043.4896240234375ZM785.6900780639648,1133.6169240234376L771.5440780639649,1247.8446240234375L847.6030780639649,1247.8446240234375Q885.1050780639648,1247.8446240234375,903.5320780639648,1233.3186240234375Q924.9150780639649,1216.8116240234376,924.9060780639649,1186.1086240234374Q924.9060780639649,1158.3776240234374,908.7960780639648,1145.9986240234375Q892.6770780639648,1133.6183240234375,817.2700780639649,1133.6169240234376L785.6900780639648,1133.6169240234376ZM1453.4390780639649,1043.4896240234375L1441.2690780639648,1142.5306240234374L1196.4390780639649,1142.5306240234374L1186.899078063965,1220.1126240234375L1413.7590780639648,1220.1126240234375L1401.609078063965,1319.1536240234375L1174.7290780639648,1319.1536240234375L1165.5190780639648,1395.0856240234375L1392.7990780639648,1395.0856240234375L1380.3090780639648,1494.1266240234374L1039.523078063965,1494.1266240234374L1094.7880780639648,1043.4896240234375L1453.4390780639649,1043.4896240234375ZM1780.899078063965,1263.3606240234376L1920.379078063965,1494.1266240234374L1789.4490780639649,1494.1266240234374L1748.669078063965,1426.4476240234376Q1728.9390780639649,1394.0946240234375,1706.5690780639648,1341.2726240234374Q1685.1890780639649,1378.2486240234375,1662.8090780639648,1406.3096240234374L1592.7390780639648,1494.1266240234374L1450.9490780639649,1494.1266240234374L1647.0190780639648,1256.7576240234375L1518.389078063965,1043.4896240234375L1650.639078063965,1043.4896240234375L1680.2490780639648,1095.9813240234375Q1703.2790780639648,1137.2484240234376,1721.349078063965,1179.1756240234374Q1750.629078063965,1133.6169240234376,1766.4290780639649,1113.4786240234375L1821.359078063965,1043.4896240234375L1958.869078063965,1043.4896240234375L1780.899078063965,1263.3606240234376Z" fill="#0076BD" fill-opacity="0.07999999821186066"/></g></g></g></svg>