<svg xmlns="http://www.w3.org/2000/svg" xmlns:xlink="http://www.w3.org/1999/xlink" fill="none" version="1.1" width="234" height="157" viewBox="0 0 234 157"><defs><clipPath id="master_svg0_308_00646"><rect x="0" y="0" width="234" height="157" rx="0"/></clipPath></defs><g clip-path="url(#master_svg0_308_00646)"><g style="opacity:0.5;"><g><g><path d="M183.94,100.387Q185.169,100.387,186.397,100.326Q187.624,100.266,188.847,100.145Q190.07,100.024,191.286,99.8432Q192.501,99.6623,193.707,99.4224Q194.912,99.182,196.104,98.8826Q197.296,98.5832,198.472,98.2254Q199.648,97.8676,200.805,97.4527Q201.962,97.0377,203.097,96.5661Q204.233,96.0945,205.344,95.5675Q206.454,95.0404,207.538,94.4597Q208.622,93.879,209.676,93.2457Q210.73,92.6119,211.752,91.9273Q212.774,91.2427,213.761,90.509Q214.748,89.7748,215.698,88.9933Q216.648,88.2118,217.558,87.3842Q218.469,86.5566,219.338,85.6852Q220.207,84.8139,221.032,83.901Q221.858,82.9882,222.637,82.0357Q223.416,81.0832,224.149,80.0933Q224.88,79.1035,225.563,78.0792Q226.246,77.0549,226.878,75.9979Q227.51,74.9409,228.089,73.8542Q228.668,72.7675,229.194,71.6539Q229.719,70.5397,230.19,69.4016Q230.66,68.2629,231.074,67.1032Q231.488,65.9429,231.845,64.7634Q232.201,63.5844,232.5,62.3891Q232.799,61.1938,233.038,59.9857Q233.278,58.777,233.458,57.5582Q233.639,56.3394,233.759,55.1131Q233.88,53.8869,233.939,52.6562Q234,51.4255,234,50.1933Q234,48.9611,233.939,47.7304Q233.88,46.4997,233.759,45.2735Q233.639,44.0473,233.458,42.8284Q233.278,41.6096,233.038,40.4011Q232.799,39.1926,232.5,37.9973Q232.201,36.8021,231.845,35.623Q231.488,34.4438,231.074,33.2837Q230.66,32.1235,230.19,30.9851Q229.719,29.8468,229.194,28.7329Q228.668,27.619,228.089,26.5324Q227.51,25.4457,226.878,24.3888Q226.246,23.3319,225.563,22.3074Q224.88,21.2829,224.149,20.2932Q223.416,19.3035,222.637,18.351Q221.858,17.3985,221.032,16.4855Q220.207,15.5725,219.338,14.7013Q218.469,13.83,217.558,13.0025Q216.648,12.175,215.698,11.3934Q214.748,10.6117,213.761,9.87769Q212.774,9.14365,211.752,8.45909Q210.73,7.77454,209.676,7.14105Q208.622,6.50762,207.538,5.92678Q206.454,5.34592,205.344,4.81909Q204.233,4.29227,203.097,3.82074Q201.962,3.34921,200.805,2.9341Q199.648,2.51899,198.472,2.16131Q197.296,1.80363,196.104,1.50423Q194.912,1.20484,193.707,0.964453Q192.501,0.724062,191.286,0.543267Q190.07,0.362469,188.847,0.241694Q187.624,0.12092,186.397,0.0604602Q185.169,0,183.94,0Q182.977,0,182.014,0.0371723Q181.051,0.0743445,180.091,0.148634Q179.13,0.222924,178.173,0.334221Q177.216,0.445518,176.264,0.593659Q175.312,0.741799,174.366,0.926557Q173.42,1.11132,172.482,1.33243Q171.545,1.55354,170.616,1.81068Q169.687,2.06781,168.769,2.36059Q167.851,2.65336,166.944,2.98134Q166.038,3.30932,165.145,3.67203Q164.252,4.03473,163.374,4.43161Q162.496,4.8285,161.633,5.25899Q160.77,5.68947,159.925,6.15294Q159.08,6.61635,158.253,7.1121Q157.426,7.60779,156.619,8.13505Q155.811,8.66231,155.024,9.22028Q154.238,9.7783,153.474,10.3663Q152.709,10.9542,151.968,11.5712Q151.226,12.1882,150.509,12.8333Q149.792,13.4785,149.1,14.1508Q148.408,14.8232,147.743,15.5217Q147.078,16.2203,146.439,16.9439Q145.801,17.6676,145.191,18.4154Q144.581,19.1632,144,19.9339Q143.419,20.7047,142.869,21.4973Q142.318,22.2899,141.798,23.1032Q141.278,23.9164,140.789,24.7492Q140.301,25.5819,139.845,26.4328Q139.389,27.2837,138.966,28.1517Q138.543,29.0196,138.153,29.9032Q137.764,30.7868,137.408,31.6848Q137.053,32.5828,136.732,33.4938C124.89,67.1499,103.45,76.2401,71.1657,61.2924Q69.9305,60.717,68.6662,60.2092Q67.4013,59.7014,66.1114,59.2637Q64.8215,58.826,63.5095,58.4589Q62.1974,58.092,60.8674,57.7971Q59.5379,57.5023,58.1936,57.2804Q56.8497,57.0585,55.4957,56.9102Q54.1418,56.7619,52.7817,56.6876Q51.4217,56.6134,50.0597,56.6134Q48.8308,56.6134,47.6034,56.6739Q46.3759,56.7343,45.153,56.8551Q43.93,56.9758,42.7144,57.1566Q41.4988,57.3375,40.2935,57.5779Q39.0882,57.8182,37.8962,58.1176Q36.7041,58.4168,35.5281,58.7746Q34.3521,59.1324,33.1951,59.5474Q32.038,59.9623,30.9027,60.4339Q29.7673,60.9055,28.6564,61.4325Q27.5455,61.9596,26.4617,62.5403Q25.3779,63.121,24.3239,63.7543Q23.2698,64.3881,22.248,65.0727Q21.2262,65.7573,20.2392,66.491Q19.2521,67.2252,18.3022,68.0067Q17.3522,68.7882,16.4416,69.6158Q15.5311,70.4434,14.6621,71.3148Q13.7932,72.1861,12.9679,73.099Q12.1426,74.0118,11.363,74.9643Q10.5834,75.9168,9.8514,76.9067Q9.11931,77.8965,8.43657,78.9208Q7.75384,79.9451,7.12204,81.0021Q6.4903,82.0591,5.911,83.1458Q5.33169,84.2326,4.80627,85.3461Q4.28084,86.4603,3.81057,87.5984Q3.34029,88.7371,2.92629,89.8968Q2.51228,91.0571,2.15555,92.2366Q1.79883,93.4156,1.50023,94.6109Q1.20163,95.8062,0.961886,97.0143Q0.722134,98.2231,0.541821,99.4417Q0.361504,100.661,0.241051,101.887Q0.120598,103.113,0.0602992,104.344Q0,105.575,0,106.807Q0,108.039,0.0602992,109.27Q0.120598,110.5,0.241051,111.726Q0.361504,112.952,0.541821,114.172Q0.722134,115.39,0.961886,116.599Q1.20163,117.807,1.50023,119.003Q1.79883,120.198,2.15555,121.377Q2.51228,122.556,2.92629,123.717Q3.34029,124.876,3.81057,126.015Q4.28084,127.153,4.80627,128.267Q5.33169,129.381,5.911,130.468Q6.4903,131.554,7.12204,132.611Q7.75384,133.668,8.43657,134.693Q9.11931,135.717,9.8514,136.707Q10.5834,137.697,11.363,138.649Q12.1426,139.602,12.9679,140.514Q13.7932,141.427,14.6621,142.299Q15.5311,143.17,16.4416,143.998Q17.3522,144.825,18.3022,145.607Q19.2521,146.388,20.2392,147.122Q21.2262,147.856,22.248,148.541Q23.2698,149.225,24.3239,149.859Q25.3779,150.492,26.4617,151.073Q27.5455,151.654,28.6564,152.181Q29.7673,152.708,30.9027,153.179Q32.038,153.651,33.1951,154.066Q34.3521,154.481,35.5281,154.839Q36.7041,155.197,37.8962,155.496Q39.0882,155.795,40.2935,156.036Q41.4988,156.276,42.7144,156.457Q43.93,156.638,45.153,156.758Q46.3759,156.879,47.6034,156.939Q48.8308,157,50.0597,157Q51.0256,157,51.9908,156.963Q52.956,156.925,53.919,156.851Q54.8821,156.776,55.8415,156.664Q56.8009,156.552,57.7554,156.404Q58.7096,156.255,59.6578,156.069Q60.606,155.883,61.5461,155.661Q62.4861,155.439,63.4169,155.18Q64.3477,154.922,65.268,154.627Q66.1882,154.333,67.0969,154.004Q68.0049,153.674,68.8996,153.31Q69.7949,152.945,70.675,152.546Q71.5551,152.148,72.4195,151.715Q73.2833,151.282,74.1303,150.817Q74.9772,150.351,75.8055,149.853Q76.6338,149.355,77.4424,148.825Q78.2515,148.295,79.039,147.735Q79.8266,147.174,80.592,146.583Q81.3575,145.992,82.0997,145.373Q82.8418,144.753,83.5595,144.105Q84.2773,143.457,84.9694,142.781Q85.6615,142.106,86.3274,141.404Q86.9933,140.702,87.6318,139.976Q88.2698,139.249,88.8798,138.498Q89.4893,137.747,90.0702,136.973Q90.6506,136.198,91.2006,135.403Q91.7513,134.607,92.2705,133.79Q92.7897,132.973,93.2769,132.137Q93.7647,131.301,94.2193,130.447Q94.6745,129.593,95.096,128.721Q95.518,127.85,95.9057,126.963Q96.2939,126.076,96.6472,125.175Q97.0006,124.273,97.319,123.359C109.182,89.7952,130.633,80.7663,162.916,95.7455L162.916,95.7455Q164.147,96.3163,165.407,96.82Q166.667,97.3237,167.952,97.7579Q169.237,98.1921,170.545,98.5563Q171.851,98.9199,173.176,99.2123Q174.501,99.5047,175.839,99.7254Q177.178,99.9454,178.526,100.092Q179.875,100.24,181.229,100.313Q182.584,100.387,183.94,100.387Z" fill-rule="evenodd" fill="#ADE8F4" fill-opacity="1"/></g></g></g></g></svg>