<svg xmlns="http://www.w3.org/2000/svg" xmlns:xlink="http://www.w3.org/1999/xlink" fill="none" version="1.1" width="215.23046875" height="447.048828125" viewBox="0 0 215.23046875 447.048828125"><defs><clipPath id="master_svg0_308_00626"><rect x="0" y="0" width="215.23046875" height="447.048828125" rx="0"/></clipPath><clipPath id="master_svg1_308_00621"><rect x="-60" y="0" width="60" height="60" rx="0"/></clipPath><clipPath id="master_svg2_308_00640"><rect x="215" y="0" width="234" height="157" rx="0"/></clipPath></defs><g style="opacity:0.20000000298023224;" clip-path="url(#master_svg0_308_00626)"><g><g transform="matrix(0.9167541861534119,-0.3994518518447876,0.3994518518447876,0.9167541861534119,-13.818439977330854,2.879764549070387)"><g><path d="M0,109.593505859375L37.5278,44.593505859375L43.3013,34.593505859375L49.0748,44.593505859375L80.8291,99.593505859375L86.6026,109.593505859375L0,109.593505859375ZM17.3205,99.593505859375L43.3013,54.593505859375L69.2821,99.593505859375L17.3205,99.593505859375Z" fill-rule="evenodd" fill="#0096C7" fill-opacity="1"/></g></g><g transform="matrix(0.5893794894218445,0.8078563213348389,-0.8078563213348389,0.5893794894218445,136.84179503592895,-28.03603989975818)"><g><line x1="96" y1="118.593505859375" x2="292.8171691894531" y2="118.593505859375" fill-opacity="0" stroke-opacity="0.4000000059604645" stroke="#65D1E0" fill="none" stroke-width="4" stroke-dasharray="10 20"/></g></g><g transform="matrix(0.9168716073036194,0.39918220043182373,-0.39918220043182373,0.9168716073036194,168.46438055139697,-3.8820794693438074)"><g><rect x="93.55307006835938" y="402.5416564941406" width="30.818695068359375" height="30.818695068359375" rx="2.1137075424194336" fill-opacity="0" stroke-opacity="1" stroke="#0077B6" fill="none" stroke-width="6"/></g></g></g><g clip-path="url(#master_svg1_308_00621)"><g><g><ellipse cx="-30" cy="30" rx="30" ry="30" fill="#0077B6" fill-opacity="1"/></g></g></g><g clip-path="url(#master_svg2_308_00640)"><g><g><g><path d="M398.94,100.387Q400.169,100.387,401.397,100.326Q402.624,100.266,403.847,100.145Q405.07,100.024,406.286,99.8432Q407.501,99.6623,408.707,99.4224Q409.91200000000003,99.182,411.10400000000004,98.8826Q412.296,98.5832,413.472,98.2254Q414.648,97.8676,415.805,97.4527Q416.962,97.0377,418.097,96.5661Q419.233,96.0945,420.344,95.5675Q421.454,95.0404,422.538,94.4597Q423.622,93.879,424.676,93.2457Q425.73,92.6119,426.752,91.9273Q427.774,91.2427,428.76099999999997,90.509Q429.748,89.7748,430.698,88.9933Q431.648,88.2118,432.558,87.3842Q433.469,86.5566,434.33799999999997,85.6852Q435.207,84.8139,436.03200000000004,83.901Q436.858,82.9882,437.637,82.0357Q438.416,81.0832,439.149,80.0933Q439.88,79.1035,440.563,78.0792Q441.246,77.0549,441.878,75.9979Q442.51,74.9409,443.089,73.8542Q443.668,72.7675,444.19399999999996,71.6539Q444.719,70.5397,445.19,69.4016Q445.65999999999997,68.2629,446.074,67.1032Q446.488,65.9429,446.845,64.7634Q447.201,63.5844,447.5,62.3891Q447.799,61.1938,448.038,59.9857Q448.278,58.777,448.45799999999997,57.5582Q448.639,56.3394,448.759,55.1131Q448.88,53.8869,448.93899999999996,52.6562Q449,51.4255,449,50.1933Q449,48.9611,448.93899999999996,47.7304Q448.88,46.4997,448.759,45.2735Q448.639,44.0473,448.45799999999997,42.8284Q448.278,41.6096,448.038,40.4011Q447.799,39.1926,447.5,37.9973Q447.201,36.8021,446.845,35.623Q446.488,34.4438,446.074,33.2837Q445.65999999999997,32.1235,445.19,30.9851Q444.719,29.8468,444.19399999999996,28.7329Q443.668,27.619,443.089,26.5324Q442.51,25.4457,441.878,24.3888Q441.246,23.3319,440.563,22.3074Q439.88,21.2829,439.149,20.2932Q438.416,19.3035,437.637,18.351Q436.858,17.3985,436.03200000000004,16.4855Q435.207,15.5725,434.33799999999997,14.7013Q433.469,13.83,432.558,13.0025Q431.648,12.175,430.698,11.3934Q429.748,10.6117,428.76099999999997,9.87769Q427.774,9.14365,426.752,8.45909Q425.73,7.77454,424.676,7.14105Q423.622,6.50762,422.538,5.92678Q421.454,5.34592,420.344,4.81909Q419.233,4.29227,418.097,3.82074Q416.962,3.34921,415.805,2.9341Q414.648,2.51899,413.472,2.16131Q412.296,1.80363,411.10400000000004,1.50423Q409.91200000000003,1.20484,408.707,0.964453Q407.501,0.724062,406.286,0.543267Q405.07,0.362469,403.847,0.241694Q402.624,0.12092,401.397,0.0604602Q400.169,0,398.94,0Q397.977,0,397.014,0.0371723Q396.051,0.0743445,395.091,0.148634Q394.13,0.222924,393.173,0.334221Q392.216,0.445518,391.264,0.593659Q390.312,0.741799,389.366,0.926557Q388.41999999999996,1.11132,387.48199999999997,1.33243Q386.54499999999996,1.55354,385.616,1.81068Q384.687,2.06781,383.769,2.36059Q382.851,2.65336,381.94399999999996,2.98134Q381.038,3.30932,380.145,3.67203Q379.252,4.03473,378.374,4.43161Q377.496,4.8285,376.63300000000004,5.25899Q375.77,5.68947,374.925,6.15294Q374.08000000000004,6.61635,373.253,7.1121Q372.426,7.60779,371.619,8.13505Q370.81100000000004,8.66231,370.024,9.22028Q369.238,9.7783,368.474,10.3663Q367.709,10.9542,366.96799999999996,11.5712Q366.226,12.1882,365.509,12.8333Q364.79200000000003,13.4785,364.1,14.1508Q363.408,14.8232,362.743,15.5217Q362.078,16.2203,361.43899999999996,16.9439Q360.801,17.6676,360.19100000000003,18.4154Q359.581,19.1632,359,19.9339Q358.419,20.7047,357.869,21.4973Q357.318,22.2899,356.798,23.1032Q356.278,23.9164,355.789,24.7492Q355.301,25.5819,354.845,26.4328Q354.389,27.2837,353.966,28.1517Q353.543,29.0196,353.153,29.9032Q352.764,30.7868,352.408,31.6848Q352.053,32.5828,351.73199999999997,33.4938C339.89,67.1499,318.45,76.2401,286.1657,61.2924Q284.9305,60.717,283.6662,60.2092Q282.4013,59.7014,281.1114,59.2637Q279.8215,58.826,278.5095,58.4589Q277.1974,58.092,275.8674,57.7971Q274.5379,57.5023,273.1936,57.2804Q271.8497,57.0585,270.4957,56.9102Q269.1418,56.7619,267.7817,56.6876Q266.4217,56.6134,265.0597,56.6134Q263.8308,56.6134,262.6034,56.6739Q261.3759,56.7343,260.153,56.8551Q258.93,56.9758,257.7144,57.1566Q256.4988,57.3375,255.2935,57.5779Q254.0882,57.8182,252.8962,58.1176Q251.70409999999998,58.4168,250.5281,58.7746Q249.3521,59.1324,248.1951,59.5474Q247.038,59.9623,245.9027,60.4339Q244.7673,60.9055,243.6564,61.4325Q242.5455,61.9596,241.4617,62.5403Q240.3779,63.121,239.3239,63.7543Q238.2698,64.3881,237.248,65.0727Q236.2262,65.7573,235.2392,66.491Q234.25209999999998,67.2252,233.3022,68.0067Q232.3522,68.7882,231.4416,69.6158Q230.5311,70.4434,229.6621,71.3148Q228.7932,72.1861,227.9679,73.099Q227.1426,74.0118,226.363,74.9643Q225.5834,75.9168,224.8514,76.9067Q224.11931,77.8965,223.43657,78.9208Q222.75384,79.9451,222.12204,81.0021Q221.4903,82.0591,220.911,83.1458Q220.33169,84.2326,219.80627,85.3461Q219.28084,86.4603,218.81057,87.5984Q218.34029,88.7371,217.92629,89.8968Q217.51228,91.0571,217.15555,92.2366Q216.79883,93.4156,216.50023,94.6109Q216.20163,95.8062,215.961886,97.0143Q215.722134,98.2231,215.541821,99.4417Q215.361504,100.661,215.241051,101.887Q215.120598,103.113,215.0602992,104.344Q215,105.575,215,106.807Q215,108.039,215.0602992,109.27Q215.120598,110.5,215.241051,111.726Q215.361504,112.952,215.541821,114.172Q215.722134,115.39,215.961886,116.599Q216.20163,117.807,216.50023,119.003Q216.79883,120.198,217.15555,121.377Q217.51228,122.556,217.92629,123.717Q218.34029,124.876,218.81057,126.015Q219.28084,127.153,219.80627,128.267Q220.33169,129.381,220.911,130.468Q221.4903,131.554,222.12204,132.611Q222.75384,133.668,223.43657,134.693Q224.11931,135.717,224.8514,136.707Q225.5834,137.697,226.363,138.649Q227.1426,139.602,227.9679,140.514Q228.7932,141.427,229.6621,142.299Q230.5311,143.17,231.4416,143.998Q232.3522,144.825,233.3022,145.607Q234.25209999999998,146.388,235.2392,147.122Q236.2262,147.856,237.248,148.541Q238.2698,149.225,239.3239,149.859Q240.3779,150.492,241.4617,151.073Q242.5455,151.654,243.6564,152.181Q244.7673,152.708,245.9027,153.179Q247.038,153.651,248.1951,154.066Q249.3521,154.481,250.5281,154.839Q251.70409999999998,155.197,252.8962,155.496Q254.0882,155.795,255.2935,156.036Q256.4988,156.276,257.7144,156.457Q258.93,156.638,260.153,156.758Q261.3759,156.879,262.6034,156.939Q263.8308,157,265.0597,157Q266.0256,157,266.9908,156.963Q267.956,156.925,268.919,156.851Q269.8821,156.776,270.8415,156.664Q271.8009,156.552,272.7554,156.404Q273.7096,156.255,274.6578,156.069Q275.606,155.883,276.5461,155.661Q277.4861,155.439,278.4169,155.18Q279.34770000000003,154.922,280.26800000000003,154.627Q281.1882,154.333,282.0969,154.004Q283.0049,153.674,283.8996,153.31Q284.7949,152.945,285.675,152.546Q286.5551,152.148,287.41949999999997,151.715Q288.2833,151.282,289.13030000000003,150.817Q289.9772,150.351,290.8055,149.853Q291.6338,149.355,292.4424,148.825Q293.25149999999996,148.295,294.039,147.735Q294.8266,147.174,295.592,146.583Q296.3575,145.992,297.0997,145.373Q297.84180000000003,144.753,298.5595,144.105Q299.27729999999997,143.457,299.9694,142.781Q300.6615,142.106,301.3274,141.404Q301.9933,140.702,302.6318,139.976Q303.26980000000003,139.249,303.8798,138.498Q304.4893,137.747,305.0702,136.973Q305.6506,136.198,306.2006,135.403Q306.7513,134.607,307.27049999999997,133.79Q307.7897,132.973,308.2769,132.137Q308.7647,131.301,309.2193,130.447Q309.67449999999997,129.593,310.096,128.721Q310.51800000000003,127.85,310.9057,126.963Q311.2939,126.076,311.6472,125.175Q312.0006,124.273,312.319,123.359C324.182,89.7952,345.63300000000004,80.7663,377.916,95.7455L377.916,95.7455Q379.147,96.3163,380.40700000000004,96.82Q381.66700000000003,97.3237,382.952,97.7579Q384.23699999999997,98.1921,385.54499999999996,98.5563Q386.851,98.9199,388.176,99.2123Q389.501,99.5047,390.839,99.7254Q392.178,99.9454,393.526,100.092Q394.875,100.24,396.22900000000004,100.313Q397.584,100.387,398.94,100.387Z" fill-rule="evenodd" fill="#ADE8F4" fill-opacity="1"/></g></g></g></g></g></svg>