<svg xmlns="http://www.w3.org/2000/svg" xmlns:xlink="http://www.w3.org/1999/xlink" fill="none" version="1.1" width="133.66796875" height="105.6693115234375" viewBox="0 0 133.66796875 105.6693115234375"><defs><clipPath id="master_svg0_335_06742"><rect x="0" y="0" width="133.66796875" height="105.6693115234375" rx="0"/></clipPath></defs><g clip-path="url(#master_svg0_335_06742)"><g transform="matrix(0,1,-1,0,133.66798400878906,-133.66795349121094)"><g transform="matrix(-1,0,0,-1,478.6744689941406,267.3335266113281)"><g><ellipse cx="241.00390112400055" cy="135.3334299325943" rx="1.6666666269302368" ry="1.6666666269302368" fill="#0076BD" fill-opacity="0.5"/></g></g><g transform="matrix(-1,0,0,-1,478.6744689941406,238.00051879882812)"><g><ellipse cx="241.00390112400055" cy="120.6669260263443" rx="1.6666666269302368" ry="1.6666666269302368" fill="#0076BD" fill-opacity="0.5"/></g></g><g transform="matrix(-1,0,0,-1,478.6744689941406,208.66653442382812)"><g><ellipse cx="241.00390112400055" cy="105.9999338388443" rx="1.6666666269302368" ry="1.6666666269302368" fill="#0076BD" fill-opacity="0.5"/></g></g><g transform="matrix(-1,0,0,-1,478.6744689941406,179.33352661132812)"><g><ellipse cx="241.00390112400055" cy="91.3334299325943" rx="1.6666666269302368" ry="1.6666666269302368" fill="#0076BD" fill-opacity="0.5"/></g></g><g transform="matrix(-1,0,0,-1,478.6744689941406,150.00051879882812)"><g><ellipse cx="241.00390112400055" cy="76.6669260263443" rx="1.6666666269302368" ry="1.6666666269302368" fill="#0076BD" fill-opacity="0.5"/></g></g><g transform="matrix(-1,0,0,-1,478.6744689941406,93.33352661132812)"><g><ellipse cx="241.00390112400055" cy="48.3334299325943" rx="1.6666666269302368" ry="1.6666666269302368" fill="#0076BD" fill-opacity="0.5"/></g></g><g transform="matrix(-1,0,0,-1,478.6744689941406,35.333526611328125)"><g><ellipse cx="241.00390112400055" cy="19.3334299325943" rx="1.6666666269302368" ry="1.6666666269302368" fill="#0076BD" fill-opacity="0.5"/></g></g><g transform="matrix(-1,0,0,-1,478.6744689941406,121.33352661132812)"><g><ellipse cx="241.00390112400055" cy="62.3334299325943" rx="1.6666666269302368" ry="1.6666666269302368" fill="#0076BD" fill-opacity="0.5"/></g></g><g transform="matrix(-1,0,0,-1,478.6744689941406,64.66653442382812)"><g><ellipse cx="241.00390112400055" cy="33.9999338388443" rx="1.6666666269302368" ry="1.6666666269302368" fill="#0076BD" fill-opacity="0.5"/></g></g><g transform="matrix(-1,0,0,-1,478.6744689941406,6.666534423828125)"><g><ellipse cx="241.00390112400055" cy="4.999933838844299" rx="1.6666666269302368" ry="1.6666666269302368" fill="#0076BD" fill-opacity="0.5"/></g></g><g transform="matrix(-1,0,0,-1,449.3385314941406,267.3335266113281)"><g><ellipse cx="226.33593237400055" cy="135.3334299325943" rx="1.6666666269302368" ry="1.6666666269302368" fill="#0076BD" fill-opacity="0.5"/></g></g><g transform="matrix(-1,0,0,-1,449.3385314941406,238.00051879882812)"><g><ellipse cx="226.33593237400055" cy="120.6669260263443" rx="1.6666666269302368" ry="1.6666666269302368" fill="#0076BD" fill-opacity="0.5"/></g></g><g transform="matrix(-1,0,0,-1,449.3385314941406,208.66653442382812)"><g><ellipse cx="226.33593237400055" cy="105.9999338388443" rx="1.6666666269302368" ry="1.6666666269302368" fill="#0076BD" fill-opacity="0.5"/></g></g><g transform="matrix(-1,0,0,-1,449.3385314941406,179.33352661132812)"><g><ellipse cx="226.33593237400055" cy="91.3334299325943" rx="1.6666666269302368" ry="1.6666666269302368" fill="#0076BD" fill-opacity="0.5"/></g></g><g transform="matrix(-1,0,0,-1,449.3385314941406,150.00051879882812)"><g><ellipse cx="226.33593237400055" cy="76.6669260263443" rx="1.6666666269302368" ry="1.6666666269302368" fill="#0076BD" fill-opacity="0.5"/></g></g><g transform="matrix(-1,0,0,-1,449.3385314941406,93.33352661132812)"><g><ellipse cx="226.33593237400055" cy="48.3334299325943" rx="1.6666666269302368" ry="1.6666666269302368" fill="#0076BD" fill-opacity="0.5"/></g></g><g transform="matrix(-1,0,0,-1,449.3385314941406,35.333526611328125)"><g><ellipse cx="226.33593237400055" cy="19.3334299325943" rx="1.6666666269302368" ry="1.6666666269302368" fill="#0076BD" fill-opacity="0.5"/></g></g><g transform="matrix(-1,0,0,-1,449.3385314941406,121.33352661132812)"><g><ellipse cx="226.33593237400055" cy="62.3334299325943" rx="1.6666666269302368" ry="1.6666666269302368" fill="#0076BD" fill-opacity="0.5"/></g></g><g transform="matrix(-1,0,0,-1,449.3385314941406,64.66653442382812)"><g><ellipse cx="226.33593237400055" cy="33.9999338388443" rx="1.6666666269302368" ry="1.6666666269302368" fill="#0076BD" fill-opacity="0.5"/></g></g><g transform="matrix(-1,0,0,-1,449.3385314941406,6.666534423828125)"><g><ellipse cx="226.33593237400055" cy="4.999933838844299" rx="1.6666666269302368" ry="1.6666666269302368" fill="#0076BD" fill-opacity="0.5"/></g></g><g transform="matrix(-1,0,0,-1,420.0025939941406,267.3335266113281)"><g><ellipse cx="211.66796362400055" cy="135.3334299325943" rx="1.6666666269302368" ry="1.6666666269302368" fill="#0076BD" fill-opacity="0.5"/></g></g><g transform="matrix(-1,0,0,-1,332.6744689941406,267.3335266113281)"><g><ellipse cx="168.00390112400055" cy="135.3334299325943" rx="1.6666666269302368" ry="1.6666666269302368" fill="#0076BD" fill-opacity="0.5"/></g></g><g transform="matrix(-1,0,0,-1,420.0025939941406,238.00051879882812)"><g><ellipse cx="211.66796362400055" cy="120.6669260263443" rx="1.6666666269302368" ry="1.6666666269302368" fill="#0076BD" fill-opacity="0.5"/></g></g><g transform="matrix(-1,0,0,-1,332.6744689941406,238.00051879882812)"><g><ellipse cx="168.00390112400055" cy="120.6669260263443" rx="1.6666666269302368" ry="1.6666666269302368" fill="#0076BD" fill-opacity="0.5"/></g></g><g transform="matrix(-1,0,0,-1,420.0025939941406,208.66653442382812)"><g><ellipse cx="211.66796362400055" cy="105.9999338388443" rx="1.6666666269302368" ry="1.6666666269302368" fill="#0076BD" fill-opacity="0.5"/></g></g><g transform="matrix(-1,0,0,-1,332.6744689941406,208.66653442382812)"><g><ellipse cx="168.00390112400055" cy="105.9999338388443" rx="1.6666666269302368" ry="1.6666666269302368" fill="#0076BD" fill-opacity="0.5"/></g></g><g transform="matrix(-1,0,0,-1,420.0025939941406,179.33352661132812)"><g><ellipse cx="211.66796362400055" cy="91.3334299325943" rx="1.6666666269302368" ry="1.6666666269302368" fill="#0076BD" fill-opacity="0.5"/></g></g><g transform="matrix(-1,0,0,-1,332.6744689941406,179.33352661132812)"><g><ellipse cx="168.00390112400055" cy="91.3334299325943" rx="1.6666666269302368" ry="1.6666666269302368" fill="#0076BD" fill-opacity="0.5"/></g></g><g transform="matrix(-1,0,0,-1,420.0025939941406,150.00051879882812)"><g><ellipse cx="211.66796362400055" cy="76.6669260263443" rx="1.6666666269302368" ry="1.6666666269302368" fill="#0076BD" fill-opacity="0.5"/></g></g><g transform="matrix(-1,0,0,-1,332.6744689941406,150.00051879882812)"><g><ellipse cx="168.00390112400055" cy="76.6669260263443" rx="1.6666666269302368" ry="1.6666666269302368" fill="#0076BD" fill-opacity="0.5"/></g></g><g transform="matrix(-1,0,0,-1,420.0025939941406,93.33352661132812)"><g><ellipse cx="211.66796362400055" cy="48.3334299325943" rx="1.6666666269302368" ry="1.6666666269302368" fill="#0076BD" fill-opacity="0.5"/></g></g><g transform="matrix(-1,0,0,-1,332.6744689941406,93.33352661132812)"><g><ellipse cx="168.00390112400055" cy="48.3334299325943" rx="1.6666666269302368" ry="1.6666666269302368" fill="#0076BD" fill-opacity="0.5"/></g></g><g transform="matrix(-1,0,0,-1,420.0025939941406,35.333526611328125)"><g><ellipse cx="211.66796362400055" cy="19.3334299325943" rx="1.6666666269302368" ry="1.6666666269302368" fill="#0076BD" fill-opacity="0.5"/></g></g><g transform="matrix(-1,0,0,-1,332.6744689941406,35.333526611328125)"><g><ellipse cx="168.00390112400055" cy="19.3334299325943" rx="1.6666666269302368" ry="1.6666666269302368" fill="#0076BD" fill-opacity="0.5"/></g></g><g transform="matrix(-1,0,0,-1,420.0025939941406,121.33352661132812)"><g><ellipse cx="211.66796362400055" cy="62.3334299325943" rx="1.6666666269302368" ry="1.6666666269302368" fill="#0076BD" fill-opacity="0.5"/></g></g><g transform="matrix(-1,0,0,-1,332.6744689941406,121.33352661132812)"><g><ellipse cx="168.00390112400055" cy="62.3334299325943" rx="1.6666666269302368" ry="1.6666666269302368" fill="#0076BD" fill-opacity="0.5"/></g></g><g transform="matrix(-1,0,0,-1,420.0025939941406,64.66653442382812)"><g><ellipse cx="211.66796362400055" cy="33.9999338388443" rx="1.6666666269302368" ry="1.6666666269302368" fill="#0076BD" fill-opacity="0.5"/></g></g><g transform="matrix(-1,0,0,-1,332.6744689941406,64.66653442382812)"><g><ellipse cx="168.00390112400055" cy="33.9999338388443" rx="1.6666666269302368" ry="1.6666666269302368" fill="#0076BD" fill-opacity="0.5"/></g></g><g transform="matrix(-1,0,0,-1,420.0025939941406,6.666534423828125)"><g><ellipse cx="211.66796362400055" cy="4.999933838844299" rx="1.6666666269302368" ry="1.6666666269302368" fill="#0076BD" fill-opacity="0.5"/></g></g><g transform="matrix(-1,0,0,-1,332.6744689941406,6.666534423828125)"><g><ellipse cx="168.00390112400055" cy="4.999933838844299" rx="1.6666666269302368" ry="1.6666666269302368" fill="#0076BD" fill-opacity="0.5"/></g></g><g transform="matrix(-1,0,0,-1,390.6744689941406,267.3335266113281)"><g><ellipse cx="197.00390112400055" cy="135.3334299325943" rx="1.6666666269302368" ry="1.6666666269302368" fill="#0076BD" fill-opacity="0.5"/></g></g><g transform="matrix(-1,0,0,-1,303.3385314941406,267.3335266113281)"><g><ellipse cx="153.33593237400055" cy="135.3334299325943" rx="1.6666666269302368" ry="1.6666666269302368" fill="#0076BD" fill-opacity="0.5"/></g></g><g transform="matrix(-1,0,0,-1,390.6744689941406,238.00051879882812)"><g><ellipse cx="197.00390112400055" cy="120.6669260263443" rx="1.6666666269302368" ry="1.6666666269302368" fill="#0076BD" fill-opacity="0.5"/></g></g><g transform="matrix(-1,0,0,-1,303.3385314941406,238.00051879882812)"><g><ellipse cx="153.33593237400055" cy="120.6669260263443" rx="1.6666666269302368" ry="1.6666666269302368" fill="#0076BD" fill-opacity="0.5"/></g></g><g transform="matrix(-1,0,0,-1,390.6744689941406,208.66653442382812)"><g><ellipse cx="197.00390112400055" cy="105.9999338388443" rx="1.6666666269302368" ry="1.6666666269302368" fill="#0076BD" fill-opacity="0.5"/></g></g><g transform="matrix(-1,0,0,-1,303.3385314941406,208.66653442382812)"><g><ellipse cx="153.33593237400055" cy="105.9999338388443" rx="1.6666666269302368" ry="1.6666666269302368" fill="#0076BD" fill-opacity="0.5"/></g></g><g transform="matrix(-1,0,0,-1,390.6744689941406,179.33352661132812)"><g><ellipse cx="197.00390112400055" cy="91.3334299325943" rx="1.6666666269302368" ry="1.6666666269302368" fill="#0076BD" fill-opacity="0.5"/></g></g><g transform="matrix(-1,0,0,-1,303.3385314941406,179.33352661132812)"><g><ellipse cx="153.33593237400055" cy="91.3334299325943" rx="1.6666666269302368" ry="1.6666666269302368" fill="#0076BD" fill-opacity="0.5"/></g></g><g transform="matrix(-1,0,0,-1,390.6744689941406,150.00051879882812)"><g><ellipse cx="197.00390112400055" cy="76.6669260263443" rx="1.6666666269302368" ry="1.6666666269302368" fill="#0076BD" fill-opacity="0.5"/></g></g><g transform="matrix(-1,0,0,-1,303.3385314941406,150.00051879882812)"><g><ellipse cx="153.33593237400055" cy="76.6669260263443" rx="1.6666666269302368" ry="1.6666666269302368" fill="#0076BD" fill-opacity="0.5"/></g></g><g transform="matrix(-1,0,0,-1,390.6744689941406,93.33352661132812)"><g><ellipse cx="197.00390112400055" cy="48.3334299325943" rx="1.6666666269302368" ry="1.6666666269302368" fill="#0076BD" fill-opacity="0.5"/></g></g><g transform="matrix(-1,0,0,-1,303.3385314941406,93.33352661132812)"><g><ellipse cx="153.33593237400055" cy="48.3334299325943" rx="1.6666666269302368" ry="1.6666666269302368" fill="#0076BD" fill-opacity="0.5"/></g></g><g transform="matrix(-1,0,0,-1,390.6744689941406,35.333526611328125)"><g><ellipse cx="197.00390112400055" cy="19.3334299325943" rx="1.6666666269302368" ry="1.6666666269302368" fill="#0076BD" fill-opacity="0.5"/></g></g><g transform="matrix(-1,0,0,-1,303.3385314941406,35.333526611328125)"><g><ellipse cx="153.33593237400055" cy="19.3334299325943" rx="1.6666666269302368" ry="1.6666666269302368" fill="#0076BD" fill-opacity="0.5"/></g></g><g transform="matrix(-1,0,0,-1,390.6744689941406,121.33352661132812)"><g><ellipse cx="197.00390112400055" cy="62.3334299325943" rx="1.6666666269302368" ry="1.6666666269302368" fill="#0076BD" fill-opacity="0.5"/></g></g><g transform="matrix(-1,0,0,-1,303.3385314941406,121.33352661132812)"><g><ellipse cx="153.33593237400055" cy="62.3334299325943" rx="1.6666666269302368" ry="1.6666666269302368" fill="#0076BD" fill-opacity="0.5"/></g></g><g transform="matrix(-1,0,0,-1,390.6744689941406,64.66653442382812)"><g><ellipse cx="197.00390112400055" cy="33.9999338388443" rx="1.6666666269302368" ry="1.6666666269302368" fill="#0076BD" fill-opacity="0.5"/></g></g><g transform="matrix(-1,0,0,-1,303.3385314941406,64.66653442382812)"><g><ellipse cx="153.33593237400055" cy="33.9999338388443" rx="1.6666666269302368" ry="1.6666666269302368" fill="#0076BD" fill-opacity="0.5"/></g></g><g transform="matrix(-1,0,0,-1,390.6744689941406,6.666534423828125)"><g><ellipse cx="197.00390112400055" cy="4.999933838844299" rx="1.6666666269302368" ry="1.6666666269302368" fill="#0076BD" fill-opacity="0.5"/></g></g><g transform="matrix(-1,0,0,-1,303.3385314941406,6.666534423828125)"><g><ellipse cx="153.33593237400055" cy="4.999933838844299" rx="1.6666666269302368" ry="1.6666666269302368" fill="#0076BD" fill-opacity="0.5"/></g></g><g transform="matrix(-1,0,0,-1,361.3385314941406,267.3335266113281)"><g><ellipse cx="182.33593237400055" cy="135.3334299325943" rx="1.6666666269302368" ry="1.6666666269302368" fill="#0076BD" fill-opacity="0.5"/></g></g><g transform="matrix(-1,0,0,-1,274.0025939941406,267.3335266113281)"><g><ellipse cx="138.66796362400055" cy="135.3334299325943" rx="1.6666666269302368" ry="1.6666666269302368" fill="#0076BD" fill-opacity="0.5"/></g></g><g transform="matrix(-1,0,0,-1,361.3385314941406,238.00051879882812)"><g><ellipse cx="182.33593237400055" cy="120.6669260263443" rx="1.6666666269302368" ry="1.6666666269302368" fill="#0076BD" fill-opacity="0.5"/></g></g><g transform="matrix(-1,0,0,-1,274.0025939941406,238.00051879882812)"><g><ellipse cx="138.66796362400055" cy="120.6669260263443" rx="1.6666666269302368" ry="1.6666666269302368" fill="#0076BD" fill-opacity="0.5"/></g></g><g transform="matrix(-1,0,0,-1,361.3385314941406,208.66653442382812)"><g><ellipse cx="182.33593237400055" cy="105.9999338388443" rx="1.6666666269302368" ry="1.6666666269302368" fill="#0076BD" fill-opacity="0.5"/></g></g><g transform="matrix(-1,0,0,-1,274.0025939941406,208.66653442382812)"><g><ellipse cx="138.66796362400055" cy="105.9999338388443" rx="1.6666666269302368" ry="1.6666666269302368" fill="#0076BD" fill-opacity="0.5"/></g></g><g transform="matrix(-1,0,0,-1,361.3385314941406,179.33352661132812)"><g><ellipse cx="182.33593237400055" cy="91.3334299325943" rx="1.6666666269302368" ry="1.6666666269302368" fill="#0076BD" fill-opacity="0.5"/></g></g><g transform="matrix(-1,0,0,-1,274.0025939941406,179.33352661132812)"><g><ellipse cx="138.66796362400055" cy="91.3334299325943" rx="1.6666666269302368" ry="1.6666666269302368" fill="#0076BD" fill-opacity="0.5"/></g></g><g transform="matrix(-1,0,0,-1,361.3385314941406,150.00051879882812)"><g><ellipse cx="182.33593237400055" cy="76.6669260263443" rx="1.6666666269302368" ry="1.6666666269302368" fill="#0076BD" fill-opacity="0.5"/></g></g><g transform="matrix(-1,0,0,-1,274.0025939941406,150.00051879882812)"><g><ellipse cx="138.66796362400055" cy="76.6669260263443" rx="1.6666666269302368" ry="1.6666666269302368" fill="#0076BD" fill-opacity="0.5"/></g></g><g transform="matrix(-1,0,0,-1,361.3385314941406,93.33352661132812)"><g><ellipse cx="182.33593237400055" cy="48.3334299325943" rx="1.6666666269302368" ry="1.6666666269302368" fill="#0076BD" fill-opacity="0.5"/></g></g><g transform="matrix(-1,0,0,-1,274.0025939941406,93.33352661132812)"><g><ellipse cx="138.66796362400055" cy="48.3334299325943" rx="1.6666666269302368" ry="1.6666666269302368" fill="#0076BD" fill-opacity="0.5"/></g></g><g transform="matrix(-1,0,0,-1,361.3385314941406,35.333526611328125)"><g><ellipse cx="182.33593237400055" cy="19.3334299325943" rx="1.6666666269302368" ry="1.6666666269302368" fill="#0076BD" fill-opacity="0.5"/></g></g><g transform="matrix(-1,0,0,-1,274.0025939941406,35.333526611328125)"><g><ellipse cx="138.66796362400055" cy="19.3334299325943" rx="1.6666666269302368" ry="1.6666666269302368" fill="#0076BD" fill-opacity="0.5"/></g></g><g transform="matrix(-1,0,0,-1,361.3385314941406,121.33352661132812)"><g><ellipse cx="182.33593237400055" cy="62.3334299325943" rx="1.6666666269302368" ry="1.6666666269302368" fill="#0076BD" fill-opacity="0.5"/></g></g><g transform="matrix(-1,0,0,-1,274.0025939941406,121.33352661132812)"><g><ellipse cx="138.66796362400055" cy="62.3334299325943" rx="1.6666666269302368" ry="1.6666666269302368" fill="#0076BD" fill-opacity="0.5"/></g></g><g transform="matrix(-1,0,0,-1,361.3385314941406,64.66653442382812)"><g><ellipse cx="182.33593237400055" cy="33.9999338388443" rx="1.6666666269302368" ry="1.6666666269302368" fill="#0076BD" fill-opacity="0.5"/></g></g><g transform="matrix(-1,0,0,-1,274.0025939941406,64.66653442382812)"><g><ellipse cx="138.66796362400055" cy="33.9999338388443" rx="1.6666666269302368" ry="1.6666666269302368" fill="#0076BD" fill-opacity="0.5"/></g></g><g transform="matrix(-1,0,0,-1,361.3385314941406,6.666534423828125)"><g><ellipse cx="182.33593237400055" cy="4.999933838844299" rx="1.6666666269302368" ry="1.6666666269302368" fill="#0076BD" fill-opacity="0.5"/></g></g><g transform="matrix(-1,0,0,-1,274.0025939941406,6.666534423828125)"><g><ellipse cx="138.66796362400055" cy="4.999933838844299" rx="1.6666666269302368" ry="1.6666666269302368" fill="#0076BD" fill-opacity="0.5"/></g></g></g></g></svg>