<svg xmlns="http://www.w3.org/2000/svg" xmlns:xlink="http://www.w3.org/1999/xlink" fill="none" version="1.1" width="133.66796875" height="105.6693115234375" viewBox="0 0 133.66796875 105.6693115234375"><g transform="matrix(0,1,-1,0,133.66796875,-133.66796875)"><g transform="matrix(-1,0,0,-1,478.67449951171875,267.33349609375)"><ellipse cx="241.0039163827896" cy="135.33341467380524" rx="1.6666666269302368" ry="1.6666666269302368" fill="#0076BD" fill-opacity="1"/></g><g transform="matrix(-1,0,0,-1,478.67449951171875,238.00048828125)"><ellipse cx="241.0039163827896" cy="120.66691076755524" rx="1.6666666269302368" ry="1.6666666269302368" fill="#0076BD" fill-opacity="1"/></g><g transform="matrix(-1,0,0,-1,478.67449951171875,208.66650390625)"><ellipse cx="241.0039163827896" cy="105.99991858005524" rx="1.6666666269302368" ry="1.6666666269302368" fill="#0076BD" fill-opacity="1"/></g><g transform="matrix(-1,0,0,-1,478.67449951171875,179.33349609375)"><ellipse cx="241.0039163827896" cy="91.33341467380524" rx="1.6666666269302368" ry="1.6666666269302368" fill="#0076BD" fill-opacity="1"/></g><g transform="matrix(-1,0,0,-1,478.67449951171875,150.00048828125)"><ellipse cx="241.0039163827896" cy="76.66691076755524" rx="1.6666666269302368" ry="1.6666666269302368" fill="#0076BD" fill-opacity="1"/></g><g transform="matrix(-1,0,0,-1,478.67449951171875,93.33349609375)"><ellipse cx="241.0039163827896" cy="48.33341467380524" rx="1.6666666269302368" ry="1.6666666269302368" fill="#0076BD" fill-opacity="1"/></g><g transform="matrix(-1,0,0,-1,478.67449951171875,35.33349609375)"><ellipse cx="241.0039163827896" cy="19.333414673805237" rx="1.6666666269302368" ry="1.6666666269302368" fill="#0076BD" fill-opacity="1"/></g><g transform="matrix(-1,0,0,-1,478.67449951171875,121.33349609375)"><ellipse cx="241.0039163827896" cy="62.33341467380524" rx="1.6666666269302368" ry="1.6666666269302368" fill="#0076BD" fill-opacity="1"/></g><g transform="matrix(-1,0,0,-1,478.67449951171875,64.66650390625)"><ellipse cx="241.0039163827896" cy="33.99991858005524" rx="1.6666666269302368" ry="1.6666666269302368" fill="#0076BD" fill-opacity="1"/></g><g transform="matrix(-1,0,0,-1,478.67449951171875,6.66650390625)"><ellipse cx="241.0039163827896" cy="4.999918580055237" rx="1.6666666269302368" ry="1.6666666269302368" fill="#0076BD" fill-opacity="1"/></g><g transform="matrix(-1,0,0,-1,449.33856201171875,267.33349609375)"><ellipse cx="226.3359476327896" cy="135.33341467380524" rx="1.6666666269302368" ry="1.6666666269302368" fill="#0076BD" fill-opacity="1"/></g><g transform="matrix(-1,0,0,-1,449.33856201171875,238.00048828125)"><ellipse cx="226.3359476327896" cy="120.66691076755524" rx="1.6666666269302368" ry="1.6666666269302368" fill="#0076BD" fill-opacity="1"/></g><g transform="matrix(-1,0,0,-1,449.33856201171875,208.66650390625)"><ellipse cx="226.3359476327896" cy="105.99991858005524" rx="1.6666666269302368" ry="1.6666666269302368" fill="#0076BD" fill-opacity="1"/></g><g transform="matrix(-1,0,0,-1,449.33856201171875,179.33349609375)"><ellipse cx="226.3359476327896" cy="91.33341467380524" rx="1.6666666269302368" ry="1.6666666269302368" fill="#0076BD" fill-opacity="1"/></g><g transform="matrix(-1,0,0,-1,449.33856201171875,150.00048828125)"><ellipse cx="226.3359476327896" cy="76.66691076755524" rx="1.6666666269302368" ry="1.6666666269302368" fill="#0076BD" fill-opacity="1"/></g><g transform="matrix(-1,0,0,-1,449.33856201171875,93.33349609375)"><ellipse cx="226.3359476327896" cy="48.33341467380524" rx="1.6666666269302368" ry="1.6666666269302368" fill="#0076BD" fill-opacity="1"/></g><g transform="matrix(-1,0,0,-1,449.33856201171875,35.33349609375)"><ellipse cx="226.3359476327896" cy="19.333414673805237" rx="1.6666666269302368" ry="1.6666666269302368" fill="#0076BD" fill-opacity="1"/></g><g transform="matrix(-1,0,0,-1,449.33856201171875,121.33349609375)"><ellipse cx="226.3359476327896" cy="62.33341467380524" rx="1.6666666269302368" ry="1.6666666269302368" fill="#0076BD" fill-opacity="1"/></g><g transform="matrix(-1,0,0,-1,449.33856201171875,64.66650390625)"><ellipse cx="226.3359476327896" cy="33.99991858005524" rx="1.6666666269302368" ry="1.6666666269302368" fill="#0076BD" fill-opacity="1"/></g><g transform="matrix(-1,0,0,-1,449.33856201171875,6.66650390625)"><ellipse cx="226.3359476327896" cy="4.999918580055237" rx="1.6666666269302368" ry="1.6666666269302368" fill="#0076BD" fill-opacity="1"/></g><g transform="matrix(-1,0,0,-1,420.00262451171875,267.33349609375)"><ellipse cx="211.6679788827896" cy="135.33341467380524" rx="1.6666666269302368" ry="1.6666666269302368" fill="#0076BD" fill-opacity="1"/></g><g transform="matrix(-1,0,0,-1,332.67449951171875,267.33349609375)"><ellipse cx="168.0039163827896" cy="135.33341467380524" rx="1.6666666269302368" ry="1.6666666269302368" fill="#0076BD" fill-opacity="1"/></g><g transform="matrix(-1,0,0,-1,420.00262451171875,238.00048828125)"><ellipse cx="211.6679788827896" cy="120.66691076755524" rx="1.6666666269302368" ry="1.6666666269302368" fill="#0076BD" fill-opacity="1"/></g><g transform="matrix(-1,0,0,-1,332.67449951171875,238.00048828125)"><ellipse cx="168.0039163827896" cy="120.66691076755524" rx="1.6666666269302368" ry="1.6666666269302368" fill="#0076BD" fill-opacity="1"/></g><g transform="matrix(-1,0,0,-1,420.00262451171875,208.66650390625)"><ellipse cx="211.6679788827896" cy="105.99991858005524" rx="1.6666666269302368" ry="1.6666666269302368" fill="#0076BD" fill-opacity="1"/></g><g transform="matrix(-1,0,0,-1,332.67449951171875,208.66650390625)"><ellipse cx="168.0039163827896" cy="105.99991858005524" rx="1.6666666269302368" ry="1.6666666269302368" fill="#0076BD" fill-opacity="1"/></g><g transform="matrix(-1,0,0,-1,420.00262451171875,179.33349609375)"><ellipse cx="211.6679788827896" cy="91.33341467380524" rx="1.6666666269302368" ry="1.6666666269302368" fill="#0076BD" fill-opacity="1"/></g><g transform="matrix(-1,0,0,-1,332.67449951171875,179.33349609375)"><ellipse cx="168.0039163827896" cy="91.33341467380524" rx="1.6666666269302368" ry="1.6666666269302368" fill="#0076BD" fill-opacity="1"/></g><g transform="matrix(-1,0,0,-1,420.00262451171875,150.00048828125)"><ellipse cx="211.6679788827896" cy="76.66691076755524" rx="1.6666666269302368" ry="1.6666666269302368" fill="#0076BD" fill-opacity="1"/></g><g transform="matrix(-1,0,0,-1,332.67449951171875,150.00048828125)"><ellipse cx="168.0039163827896" cy="76.66691076755524" rx="1.6666666269302368" ry="1.6666666269302368" fill="#0076BD" fill-opacity="1"/></g><g transform="matrix(-1,0,0,-1,420.00262451171875,93.33349609375)"><ellipse cx="211.6679788827896" cy="48.33341467380524" rx="1.6666666269302368" ry="1.6666666269302368" fill="#0076BD" fill-opacity="1"/></g><g transform="matrix(-1,0,0,-1,332.67449951171875,93.33349609375)"><ellipse cx="168.0039163827896" cy="48.33341467380524" rx="1.6666666269302368" ry="1.6666666269302368" fill="#0076BD" fill-opacity="1"/></g><g transform="matrix(-1,0,0,-1,420.00262451171875,35.33349609375)"><ellipse cx="211.6679788827896" cy="19.333414673805237" rx="1.6666666269302368" ry="1.6666666269302368" fill="#0076BD" fill-opacity="1"/></g><g transform="matrix(-1,0,0,-1,332.67449951171875,35.33349609375)"><ellipse cx="168.0039163827896" cy="19.333414673805237" rx="1.6666666269302368" ry="1.6666666269302368" fill="#0076BD" fill-opacity="1"/></g><g transform="matrix(-1,0,0,-1,420.00262451171875,121.33349609375)"><ellipse cx="211.6679788827896" cy="62.33341467380524" rx="1.6666666269302368" ry="1.6666666269302368" fill="#0076BD" fill-opacity="1"/></g><g transform="matrix(-1,0,0,-1,332.67449951171875,121.33349609375)"><ellipse cx="168.0039163827896" cy="62.33341467380524" rx="1.6666666269302368" ry="1.6666666269302368" fill="#0076BD" fill-opacity="1"/></g><g transform="matrix(-1,0,0,-1,420.00262451171875,64.66650390625)"><ellipse cx="211.6679788827896" cy="33.99991858005524" rx="1.6666666269302368" ry="1.6666666269302368" fill="#0076BD" fill-opacity="1"/></g><g transform="matrix(-1,0,0,-1,332.67449951171875,64.66650390625)"><ellipse cx="168.0039163827896" cy="33.99991858005524" rx="1.6666666269302368" ry="1.6666666269302368" fill="#0076BD" fill-opacity="1"/></g><g transform="matrix(-1,0,0,-1,420.00262451171875,6.66650390625)"><ellipse cx="211.6679788827896" cy="4.999918580055237" rx="1.6666666269302368" ry="1.6666666269302368" fill="#0076BD" fill-opacity="1"/></g><g transform="matrix(-1,0,0,-1,332.67449951171875,6.66650390625)"><ellipse cx="168.0039163827896" cy="4.999918580055237" rx="1.6666666269302368" ry="1.6666666269302368" fill="#0076BD" fill-opacity="1"/></g><g transform="matrix(-1,0,0,-1,390.67449951171875,267.33349609375)"><ellipse cx="197.0039163827896" cy="135.33341467380524" rx="1.6666666269302368" ry="1.6666666269302368" fill="#0076BD" fill-opacity="1"/></g><g transform="matrix(-1,0,0,-1,303.33856201171875,267.33349609375)"><ellipse cx="153.3359476327896" cy="135.33341467380524" rx="1.6666666269302368" ry="1.6666666269302368" fill="#0076BD" fill-opacity="1"/></g><g transform="matrix(-1,0,0,-1,390.67449951171875,238.00048828125)"><ellipse cx="197.0039163827896" cy="120.66691076755524" rx="1.6666666269302368" ry="1.6666666269302368" fill="#0076BD" fill-opacity="1"/></g><g transform="matrix(-1,0,0,-1,303.33856201171875,238.00048828125)"><ellipse cx="153.3359476327896" cy="120.66691076755524" rx="1.6666666269302368" ry="1.6666666269302368" fill="#0076BD" fill-opacity="1"/></g><g transform="matrix(-1,0,0,-1,390.67449951171875,208.66650390625)"><ellipse cx="197.0039163827896" cy="105.99991858005524" rx="1.6666666269302368" ry="1.6666666269302368" fill="#0076BD" fill-opacity="1"/></g><g transform="matrix(-1,0,0,-1,303.33856201171875,208.66650390625)"><ellipse cx="153.3359476327896" cy="105.99991858005524" rx="1.6666666269302368" ry="1.6666666269302368" fill="#0076BD" fill-opacity="1"/></g><g transform="matrix(-1,0,0,-1,390.67449951171875,179.33349609375)"><ellipse cx="197.0039163827896" cy="91.33341467380524" rx="1.6666666269302368" ry="1.6666666269302368" fill="#0076BD" fill-opacity="1"/></g><g transform="matrix(-1,0,0,-1,303.33856201171875,179.33349609375)"><ellipse cx="153.3359476327896" cy="91.33341467380524" rx="1.6666666269302368" ry="1.6666666269302368" fill="#0076BD" fill-opacity="1"/></g><g transform="matrix(-1,0,0,-1,390.67449951171875,150.00048828125)"><ellipse cx="197.0039163827896" cy="76.66691076755524" rx="1.6666666269302368" ry="1.6666666269302368" fill="#0076BD" fill-opacity="1"/></g><g transform="matrix(-1,0,0,-1,303.33856201171875,150.00048828125)"><ellipse cx="153.3359476327896" cy="76.66691076755524" rx="1.6666666269302368" ry="1.6666666269302368" fill="#0076BD" fill-opacity="1"/></g><g transform="matrix(-1,0,0,-1,390.67449951171875,93.33349609375)"><ellipse cx="197.0039163827896" cy="48.33341467380524" rx="1.6666666269302368" ry="1.6666666269302368" fill="#0076BD" fill-opacity="1"/></g><g transform="matrix(-1,0,0,-1,303.33856201171875,93.33349609375)"><ellipse cx="153.3359476327896" cy="48.33341467380524" rx="1.6666666269302368" ry="1.6666666269302368" fill="#0076BD" fill-opacity="1"/></g><g transform="matrix(-1,0,0,-1,390.67449951171875,35.33349609375)"><ellipse cx="197.0039163827896" cy="19.333414673805237" rx="1.6666666269302368" ry="1.6666666269302368" fill="#0076BD" fill-opacity="1"/></g><g transform="matrix(-1,0,0,-1,303.33856201171875,35.33349609375)"><ellipse cx="153.3359476327896" cy="19.333414673805237" rx="1.6666666269302368" ry="1.6666666269302368" fill="#0076BD" fill-opacity="1"/></g><g transform="matrix(-1,0,0,-1,390.67449951171875,121.33349609375)"><ellipse cx="197.0039163827896" cy="62.33341467380524" rx="1.6666666269302368" ry="1.6666666269302368" fill="#0076BD" fill-opacity="1"/></g><g transform="matrix(-1,0,0,-1,303.33856201171875,121.33349609375)"><ellipse cx="153.3359476327896" cy="62.33341467380524" rx="1.6666666269302368" ry="1.6666666269302368" fill="#0076BD" fill-opacity="1"/></g><g transform="matrix(-1,0,0,-1,390.67449951171875,64.66650390625)"><ellipse cx="197.0039163827896" cy="33.99991858005524" rx="1.6666666269302368" ry="1.6666666269302368" fill="#0076BD" fill-opacity="1"/></g><g transform="matrix(-1,0,0,-1,303.33856201171875,64.66650390625)"><ellipse cx="153.3359476327896" cy="33.99991858005524" rx="1.6666666269302368" ry="1.6666666269302368" fill="#0076BD" fill-opacity="1"/></g><g transform="matrix(-1,0,0,-1,390.67449951171875,6.66650390625)"><ellipse cx="197.0039163827896" cy="4.999918580055237" rx="1.6666666269302368" ry="1.6666666269302368" fill="#0076BD" fill-opacity="1"/></g><g transform="matrix(-1,0,0,-1,303.33856201171875,6.66650390625)"><ellipse cx="153.3359476327896" cy="4.999918580055237" rx="1.6666666269302368" ry="1.6666666269302368" fill="#0076BD" fill-opacity="1"/></g><g transform="matrix(-1,0,0,-1,361.33856201171875,267.33349609375)"><ellipse cx="182.3359476327896" cy="135.33341467380524" rx="1.6666666269302368" ry="1.6666666269302368" fill="#0076BD" fill-opacity="1"/></g><g transform="matrix(-1,0,0,-1,274.00262451171875,267.33349609375)"><ellipse cx="138.6679788827896" cy="135.33341467380524" rx="1.6666666269302368" ry="1.6666666269302368" fill="#0076BD" fill-opacity="1"/></g><g transform="matrix(-1,0,0,-1,361.33856201171875,238.00048828125)"><ellipse cx="182.3359476327896" cy="120.66691076755524" rx="1.6666666269302368" ry="1.6666666269302368" fill="#0076BD" fill-opacity="1"/></g><g transform="matrix(-1,0,0,-1,274.00262451171875,238.00048828125)"><ellipse cx="138.6679788827896" cy="120.66691076755524" rx="1.6666666269302368" ry="1.6666666269302368" fill="#0076BD" fill-opacity="1"/></g><g transform="matrix(-1,0,0,-1,361.33856201171875,208.66650390625)"><ellipse cx="182.3359476327896" cy="105.99991858005524" rx="1.6666666269302368" ry="1.6666666269302368" fill="#0076BD" fill-opacity="1"/></g><g transform="matrix(-1,0,0,-1,274.00262451171875,208.66650390625)"><ellipse cx="138.6679788827896" cy="105.99991858005524" rx="1.6666666269302368" ry="1.6666666269302368" fill="#0076BD" fill-opacity="1"/></g><g transform="matrix(-1,0,0,-1,361.33856201171875,179.33349609375)"><ellipse cx="182.3359476327896" cy="91.33341467380524" rx="1.6666666269302368" ry="1.6666666269302368" fill="#0076BD" fill-opacity="1"/></g><g transform="matrix(-1,0,0,-1,274.00262451171875,179.33349609375)"><ellipse cx="138.6679788827896" cy="91.33341467380524" rx="1.6666666269302368" ry="1.6666666269302368" fill="#0076BD" fill-opacity="1"/></g><g transform="matrix(-1,0,0,-1,361.33856201171875,150.00048828125)"><ellipse cx="182.3359476327896" cy="76.66691076755524" rx="1.6666666269302368" ry="1.6666666269302368" fill="#0076BD" fill-opacity="1"/></g><g transform="matrix(-1,0,0,-1,274.00262451171875,150.00048828125)"><ellipse cx="138.6679788827896" cy="76.66691076755524" rx="1.6666666269302368" ry="1.6666666269302368" fill="#0076BD" fill-opacity="1"/></g><g transform="matrix(-1,0,0,-1,361.33856201171875,93.33349609375)"><ellipse cx="182.3359476327896" cy="48.33341467380524" rx="1.6666666269302368" ry="1.6666666269302368" fill="#0076BD" fill-opacity="1"/></g><g transform="matrix(-1,0,0,-1,274.00262451171875,93.33349609375)"><ellipse cx="138.6679788827896" cy="48.33341467380524" rx="1.6666666269302368" ry="1.6666666269302368" fill="#0076BD" fill-opacity="1"/></g><g transform="matrix(-1,0,0,-1,361.33856201171875,35.33349609375)"><ellipse cx="182.3359476327896" cy="19.333414673805237" rx="1.6666666269302368" ry="1.6666666269302368" fill="#0076BD" fill-opacity="1"/></g><g transform="matrix(-1,0,0,-1,274.00262451171875,35.33349609375)"><ellipse cx="138.6679788827896" cy="19.333414673805237" rx="1.6666666269302368" ry="1.6666666269302368" fill="#0076BD" fill-opacity="1"/></g><g transform="matrix(-1,0,0,-1,361.33856201171875,121.33349609375)"><ellipse cx="182.3359476327896" cy="62.33341467380524" rx="1.6666666269302368" ry="1.6666666269302368" fill="#0076BD" fill-opacity="1"/></g><g transform="matrix(-1,0,0,-1,274.00262451171875,121.33349609375)"><ellipse cx="138.6679788827896" cy="62.33341467380524" rx="1.6666666269302368" ry="1.6666666269302368" fill="#0076BD" fill-opacity="1"/></g><g transform="matrix(-1,0,0,-1,361.33856201171875,64.66650390625)"><ellipse cx="182.3359476327896" cy="33.99991858005524" rx="1.6666666269302368" ry="1.6666666269302368" fill="#0076BD" fill-opacity="1"/></g><g transform="matrix(-1,0,0,-1,274.00262451171875,64.66650390625)"><ellipse cx="138.6679788827896" cy="33.99991858005524" rx="1.6666666269302368" ry="1.6666666269302368" fill="#0076BD" fill-opacity="1"/></g><g transform="matrix(-1,0,0,-1,361.33856201171875,6.66650390625)"><ellipse cx="182.3359476327896" cy="4.999918580055237" rx="1.6666666269302368" ry="1.6666666269302368" fill="#0076BD" fill-opacity="1"/></g><g transform="matrix(-1,0,0,-1,274.00262451171875,6.66650390625)"><ellipse cx="138.6679788827896" cy="4.999918580055237" rx="1.6666666269302368" ry="1.6666666269302368" fill="#0076BD" fill-opacity="1"/></g></g></svg>