<svg xmlns="http://www.w3.org/2000/svg" xmlns:xlink="http://www.w3.org/1999/xlink" fill="none" version="1.1" width="2419.912109375" height="5871.1806640625" viewBox="0 0 2419.912109375 5871.1806640625"><defs><linearGradient x1="0.2968747615814209" y1="0.040844425559043884" x2="0.8501907587051392" y2="0.9008275866508484" id="master_svg0_1_43901"><stop offset="0%" stop-color="#F9FCFC" stop-opacity="1"/><stop offset="100%" stop-color="#ECF3F5" stop-opacity="1"/></linearGradient><linearGradient x1="0.1775476187467575" y1="0.02389618381857872" x2="0.9399020671844482" y2="0.8893981575965881" id="master_svg1_1_43902"><stop offset="0%" stop-color="#FBFBFF" stop-opacity="1"/><stop offset="100%" stop-color="#EDF9FF" stop-opacity="1"/></linearGradient><linearGradient x1="0.2968747615814209" y1="0.040844425559043884" x2="0.8501907587051392" y2="0.9008275866508484" id="master_svg2_1_43901"><stop offset="0%" stop-color="#F9FCFC" stop-opacity="1"/><stop offset="100%" stop-color="#ECF3F5" stop-opacity="1"/></linearGradient><linearGradient x1="0.1775476187467575" y1="0.02389618381857872" x2="0.9399020671844482" y2="0.8893981575965881" id="master_svg3_1_43902"><stop offset="0%" stop-color="#FBFBFF" stop-opacity="1"/><stop offset="100%" stop-color="#EDF9FF" stop-opacity="1"/></linearGradient><linearGradient x1="0.2968747615814209" y1="0.040844425559043884" x2="0.8501907587051392" y2="0.9008275866508484" id="master_svg4_1_43901"><stop offset="0%" stop-color="#F9FCFC" stop-opacity="1"/><stop offset="100%" stop-color="#ECF3F5" stop-opacity="1"/></linearGradient><linearGradient x1="0.1775476187467575" y1="0.02389618381857872" x2="0.9399020671844482" y2="0.8893981575965881" id="master_svg5_1_43902"><stop offset="0%" stop-color="#FBFBFF" stop-opacity="1"/><stop offset="100%" stop-color="#EDF9FF" stop-opacity="1"/></linearGradient></defs><g><g transform="matrix(0.14097438752651215,0.9900132417678833,-0.9900132417678833,0.14097438752651215,1680.5342879928357,-1936.788815373322)"><path d="M2881.203171875,150.066C3062.426171875,172.022,3274.426171875,66.5395,3416.066171875,169.03C3557.9661718750003,271.706,3504.816171875,471.702,3544.616171875,630.107C3579.416171875,768.624,3648.726171875,896.401,3634.316171875,1037.73C3616.706171875,1210.35,3587.9361718749997,1392.83,3453.946171875,1519.16C3306.976171875,1657.73,3095.786171875,1752.8,2881.203171875,1747.77C2668.817171875,1742.8,2489.618171875,1617.09,2330.054171875,1492.85C2183.118171875,1378.44,2074.296171875,1235.39,2012.142271875,1071.09C1949.504851875,905.519,1942.030571875,732.737,1977.524571875,560.971C2017.811271875,366.009,2029.193071875,115.645,2228.280171875,25.1192C2431.332171875,-67.2084,2655.060171875,122.667,2881.203171875,150.066C2881.203171875,150.066,2881.203171875,150.066,2881.203171875,150.066Z" fill-rule="evenodd" fill="url(#master_svg0_1_43901)" fill-opacity="1"/><path d="M2881.203171875,150.066C3062.426171875,172.022,3274.426171875,66.5395,3416.066171875,169.03C3557.9661718750003,271.706,3504.816171875,471.702,3544.616171875,630.107C3579.416171875,768.624,3648.726171875,896.401,3634.316171875,1037.73C3616.706171875,1210.35,3587.9361718749997,1392.83,3453.946171875,1519.16C3306.976171875,1657.73,3095.786171875,1752.8,2881.203171875,1747.77C2668.817171875,1742.8,2489.618171875,1617.09,2330.054171875,1492.85C2183.118171875,1378.44,2074.296171875,1235.39,2012.142271875,1071.09C1949.504851875,905.519,1942.030571875,732.737,1977.524571875,560.971C2017.811271875,366.009,2029.193071875,115.645,2228.280171875,25.1192C2431.332171875,-67.2084,2655.060171875,122.667,2881.203171875,150.066C2881.203171875,150.066,2881.203171875,150.066,2881.203171875,150.066Z" fill-rule="evenodd" fill="url(#master_svg1_1_43902)" fill-opacity="1"/></g><g transform="matrix(0.7891555428504944,-0.6141933798789978,0.6141933798789978,0.7891555428504944,-1606.3952457996784,558.5438996796729)"><path d="M935.203171875,2769.066C1116.426171875,2791.022,1328.426171875,2685.5395,1470.066171875,2788.03C1611.966171875,2890.706,1558.816171875,3090.702,1598.616171875,3249.107C1633.416171875,3387.624,1702.726171875,3515.401,1688.316171875,3656.73C1670.706171875,3829.35,1641.936171875,4011.83,1507.946171875,4138.16C1360.976171875,4276.73,1149.786171875,4371.8,935.203171875,4366.77C722.817171875,4361.8,543.618171875,4236.09,384.054171875,4111.85C237.118171875,3997.44,128.296171875,3854.3900000000003,66.142271875,3690.09C3.504851875,3524.5190000000002,-3.9694281250000003,3351.737,31.524571875,3179.971C71.811271875,2985.009,83.193071875,2734.645,282.280171875,2644.1192C485.332171875,2551.7916,709.060171875,2741.667,935.203171875,2769.066C935.203171875,2769.066,935.203171875,2769.066,935.203171875,2769.066Z" fill-rule="evenodd" fill="url(#master_svg2_1_43901)" fill-opacity="1"/><path d="M935.203171875,2769.066C1116.426171875,2791.022,1328.426171875,2685.5395,1470.066171875,2788.03C1611.966171875,2890.706,1558.816171875,3090.702,1598.616171875,3249.107C1633.416171875,3387.624,1702.726171875,3515.401,1688.316171875,3656.73C1670.706171875,3829.35,1641.936171875,4011.83,1507.946171875,4138.16C1360.976171875,4276.73,1149.786171875,4371.8,935.203171875,4366.77C722.817171875,4361.8,543.618171875,4236.09,384.054171875,4111.85C237.118171875,3997.44,128.296171875,3854.3900000000003,66.142271875,3690.09C3.504851875,3524.5190000000002,-3.9694281250000003,3351.737,31.524571875,3179.971C71.811271875,2985.009,83.193071875,2734.645,282.280171875,2644.1192C485.332171875,2551.7916,709.060171875,2741.667,935.203171875,2769.066C935.203171875,2769.066,935.203171875,2769.066,935.203171875,2769.066Z" fill-rule="evenodd" fill="url(#master_svg3_1_43902)" fill-opacity="1"/></g><g transform="matrix(0.647993266582489,0.761646032333374,-0.761646032333374,0.647993266582489,3103.1694027160993,203.5919943409972)"><path d="M2256.203171875,3609.066C2437.426171875,3631.022,2649.426171875,3525.5395,2791.066171875,3628.03C2932.9661718750003,3730.706,2879.816171875,3930.702,2919.616171875,4089.107C2954.416171875,4227.624,3023.726171875,4355.401,3009.316171875,4496.73C2991.706171875,4669.35,2962.9361718749997,4851.83,2828.946171875,4978.16C2681.976171875,5116.73,2470.786171875,5211.8,2256.203171875,5206.77C2043.817171875,5201.8,1864.618171875,5076.09,1705.054171875,4951.85C1558.118171875,4837.4400000000005,1449.296171875,4694.39,1387.142271875,4530.09C1324.504851875,4364.519,1317.030571875,4191.737,1352.524571875,4019.971C1392.811271875,3825.009,1404.193071875,3574.645,1603.280171875,3484.1192C1806.3321718749999,3391.7916,2030.060171875,3581.667,2256.203171875,3609.066C2256.203171875,3609.066,2256.203171875,3609.066,2256.203171875,3609.066Z" fill-rule="evenodd" fill="url(#master_svg4_1_43901)" fill-opacity="1"/><path d="M2256.203171875,3609.066C2437.426171875,3631.022,2649.426171875,3525.5395,2791.066171875,3628.03C2932.9661718750003,3730.706,2879.816171875,3930.702,2919.616171875,4089.107C2954.416171875,4227.624,3023.726171875,4355.401,3009.316171875,4496.73C2991.706171875,4669.35,2962.9361718749997,4851.83,2828.946171875,4978.16C2681.976171875,5116.73,2470.786171875,5211.8,2256.203171875,5206.77C2043.817171875,5201.8,1864.618171875,5076.09,1705.054171875,4951.85C1558.118171875,4837.4400000000005,1449.296171875,4694.39,1387.142271875,4530.09C1324.504851875,4364.519,1317.030571875,4191.737,1352.524571875,4019.971C1392.811271875,3825.009,1404.193071875,3574.645,1603.280171875,3484.1192C1806.3321718749999,3391.7916,2030.060171875,3581.667,2256.203171875,3609.066C2256.203171875,3609.066,2256.203171875,3609.066,2256.203171875,3609.066Z" fill-rule="evenodd" fill="url(#master_svg5_1_43902)" fill-opacity="1"/></g></g></svg>