<svg xmlns="http://www.w3.org/2000/svg" xmlns:xlink="http://www.w3.org/1999/xlink" fill="none" version="1.1" width="2244.318628489971" height="2220.274190545082" viewBox="0 0 2244.318628489971 2220.274190545082"><defs><linearGradient x1="0.5" y1="0" x2="0.5" y2="1" id="master_svg0_48_03934"><stop offset="0%" stop-color="#FAFBFF" stop-opacity="1"/><stop offset="100%" stop-color="#EEF9FF" stop-opacity="1"/></linearGradient></defs><g transform="matrix(-0.8833233714103699,-0.4687640964984894,0.4687640964984894,-0.8833233714103699,1754.0355389056751,4877.132347946299)" style="opacity:0.5;"><path d="M2387.897263969421,2220.428680545082C2550.1232639694217,2225.534780545082,2671.1232639694217,2357.821190545082,2800.1432639694212,2456.2281905450823C2925.683263969421,2551.979190545082,3065.8932639694212,2637.703190545082,3126.223263969421,2783.5611905450824C3189.2532639694214,2935.9221905450822,3159.7732639694214,3102.961190545082,3135.0832639694213,3265.974190545082C3105.3732639694217,3462.2041905450824,3147.5032639694214,3735.814190545082,2968.8932639694212,3822.564190545082C2780.6632639694217,3913.984190545082,2594.9232639694214,3659.474190545082,2387.897263969421,3628.8641905450822C2229.0942639694213,3605.3841905450818,2069.9702639694215,3723.804190545082,1919.6752639694214,3667.424190545082C1747.5212639694214,3602.844190545082,1589.3902639694213,3475.564190545082,1522.6968639694214,3304.294190545082C1454.5120639694214,3129.1951905450824,1481.2937639694214,2924.377190545082,1564.7649639694214,2756.0251905450823C1642.1182639694214,2600.008190545082,1810.3382639694214,2524.6681905450823,1956.3382639694214,2429.6681905450823C2093.692263969421,2340.296190545082,2224.0832639694213,2215.272380545082,2387.897263969421,2220.428680545082C2387.897263969421,2220.428680545082,2387.897263969421,2220.428680545082,2387.897263969421,2220.428680545082Z" fill-rule="evenodd" fill="url(#master_svg0_48_03934)" fill-opacity="1"/></g></svg>