<svg xmlns="http://www.w3.org/2000/svg" xmlns:xlink="http://www.w3.org/1999/xlink" fill="none" version="1.1" width="1967.331151679602" height="1909.5735009698965" viewBox="0 0 1967.331151679602 1909.5735009698965"><defs><linearGradient x1="0.2968747615814209" y1="0.040844425559043884" x2="0.8501907587051392" y2="0.9008275866508484" id="master_svg0_1_43901"><stop offset="0%" stop-color="#F9FCFC" stop-opacity="1"/><stop offset="100%" stop-color="#ECF3F5" stop-opacity="1"/></linearGradient><linearGradient x1="0.1775476187467575" y1="0.02389618381857872" x2="0.9399020671844482" y2="0.8893981575965881" id="master_svg1_1_43902"><stop offset="0%" stop-color="#FBFBFF" stop-opacity="1"/><stop offset="100%" stop-color="#EDF9FF" stop-opacity="1"/></linearGradient></defs><g transform="matrix(0.14097438752651215,0.9900132417678833,-0.9900132417678833,0.14097438752651215,1486.5469391531437,-1713.2215069041952)"><path d="M2655.380628259423,150.066C2836.6036282594227,172.022,3048.6036282594227,66.5395,3190.2436282594226,169.03C3332.143628259423,271.706,3278.9936282594226,471.702,3318.793628259423,630.107C3353.593628259423,768.624,3422.903628259423,896.401,3408.4936282594226,1037.73C3390.883628259423,1210.35,3362.1136282594225,1392.83,3228.1236282594227,1519.16C3081.153628259423,1657.73,2869.963628259423,1752.8,2655.380628259423,1747.77C2442.994628259423,1742.8,2263.7956282594228,1617.09,2104.231628259423,1492.85C1957.2956282594228,1378.44,1848.4736282594229,1235.39,1786.3197282594228,1071.09C1723.6823082594228,905.519,1716.208028259423,732.737,1751.7020282594228,560.971C1791.988728259423,366.009,1803.3705282594228,115.645,2002.4576282594228,25.1192C2205.5096282594227,-67.2084,2429.2376282594228,122.667,2655.380628259423,150.066C2655.380628259423,150.066,2655.380628259423,150.066,2655.380628259423,150.066Z" fill-rule="evenodd" fill="url(#master_svg0_1_43901)" fill-opacity="1"/><path d="M2655.380628259423,150.066C2836.6036282594227,172.022,3048.6036282594227,66.5395,3190.2436282594226,169.03C3332.143628259423,271.706,3278.9936282594226,471.702,3318.793628259423,630.107C3353.593628259423,768.624,3422.903628259423,896.401,3408.4936282594226,1037.73C3390.883628259423,1210.35,3362.1136282594225,1392.83,3228.1236282594227,1519.16C3081.153628259423,1657.73,2869.963628259423,1752.8,2655.380628259423,1747.77C2442.994628259423,1742.8,2263.7956282594228,1617.09,2104.231628259423,1492.85C1957.2956282594228,1378.44,1848.4736282594229,1235.39,1786.3197282594228,1071.09C1723.6823082594228,905.519,1716.208028259423,732.737,1751.7020282594228,560.971C1791.988728259423,366.009,1803.3705282594228,115.645,2002.4576282594228,25.1192C2205.5096282594227,-67.2084,2429.2376282594228,122.667,2655.380628259423,150.066C2655.380628259423,150.066,2655.380628259423,150.066,2655.380628259423,150.066Z" fill-rule="evenodd" fill="url(#master_svg1_1_43902)" fill-opacity="1"/></g></svg>